<?xml version="1.0" standalone="no"?><!-- Generator: Gravit.io --><svg xmlns="http://www.w3.org/2000/svg" xmlns:xlink="http://www.w3.org/1999/xlink" style="isolation:isolate" viewBox="0 0 905.089 685" width="905.089" height="685"><defs><clipPath id="_clipPath_8zI7D9xfUIbDg9F2yDs26Ci5QD2YttXR"><rect width="905.089" height="685"/></clipPath></defs><g clip-path="url(#_clipPath_8zI7D9xfUIbDg9F2yDs26Ci5QD2YttXR)"><rect width="905.089" height="685" style="fill:rgb(42,42,42)" fill-opacity="0"/><g><linearGradient id="_lgradient_5" x1="0.49997538279749887" y1="0.6727627501243447" x2="0.4999753827974989" y2="0" gradientTransform="matrix(203.11,0,0,175.84,261.37,0)" gradientUnits="userSpaceOnUse"><stop offset="0%" stop-opacity="0.25" style="stop-color:rgb(128,128,128)"/><stop offset="54%" stop-opacity="0.12" style="stop-color:rgb(128,128,128)"/><stop offset="100%" stop-opacity="0.1" style="stop-color:rgb(128,128,128)"/></linearGradient><path d=" M 261.37 0 L 261.37 9.74 L 261.37 175.84 L 464.48 175.84 L 464.48 9.74 L 464.48 0 L 261.37 0 L 261.37 0 Z " fill="url(#_lgradient_5)"/><rect x="262.67" y="0" width="200.51" height="5.68" transform="matrix(1,0,0,1,0,0)" fill="rgb(83,84,97)"/><rect x="262.67" y="5.52" width="200.51" height="168.11" transform="matrix(1,0,0,1,0,0)" fill="rgb(237,237,244)"/><rect x="272.04" y="31.68" width="182.28" height="113.78" transform="matrix(1,0,0,1,0,0)" fill="rgb(255,255,255)"/><circle vector-effect="non-scaling-stroke" cx="266.39999999999986" cy="2.759999999999991" r="0.9700000000000273" fill="rgb(250,89,95)"/><circle vector-effect="non-scaling-stroke" cx="269.31999999999994" cy="2.759999999999991" r="0.9700000000000273" fill="rgb(255,199,76)"/><circle vector-effect="non-scaling-stroke" cx="272.24" cy="2.759999999999991" r="0.9700000000000273" fill="rgb(133,212,89)"/><mask id="_mask_qhlrx1n5poW2WNWERizuhZN9oFtG4Juw" x="-200%" y="-200%" width="400%" height="400%"><rect x="-200%" y="-200%" width="400%" height="400%" style="fill:white;"/><path d=" M 290.77 41.43 L 290.77 130.6 L 438.24 130.6" fill="black" stroke="none"/></mask><path d=" M 290.77 41.43 L 290.77 130.6 L 438.24 130.6" fill="none" mask="url(#_mask_qhlrx1n5poW2WNWERizuhZN9oFtG4Juw)" vector-effect="non-scaling-stroke" stroke-width="4" stroke="rgb(83,84,97)" stroke-linejoin="miter" stroke-linecap="butt" stroke-miterlimit="10"/><g opacity="0.5"><rect x="303.82" y="103.63" width="15.23" height="23.49" transform="matrix(1,0,0,1,0,0)" fill="rgb(128,204,65)"/></g><g opacity="0.7"><rect x="329.92" y="82.75" width="15.23" height="44.37" transform="matrix(1,0,0,1,0,0)" fill="rgb(128,204,65)"/></g><g opacity="0.5"><rect x="356.02" y="95.37" width="15.23" height="31.76" transform="matrix(1,0,0,1,0,0)" fill="rgb(128,204,65)"/></g><g opacity="0.8"><rect x="382.13" y="75.79" width="15.23" height="51.33" transform="matrix(1,0,0,1,0,0)" fill="rgb(128,204,65)"/></g><rect x="408.23" y="57.52" width="15.23" height="69.6" transform="matrix(1,0,0,1,0,0)" fill="rgb(128,204,65)"/><mask id="_mask_3S9rQpxXXKo5bBsOzXEFcc6sDIiVXkBq" x="-200%" y="-200%" width="400%" height="400%"><rect x="-200%" y="-200%" width="400%" height="400%" style="fill:white;"/><path d=" M 311.22 89.28 L 337.75 65.35 L 363.86 87.97 L 389.52 60.57 L 415.62 49.69" fill="black" stroke="none"/></mask><path d=" M 311.22 89.28 L 337.75 65.35 L 363.86 87.97 L 389.52 60.57 L 415.62 49.69" fill="none" mask="url(#_mask_3S9rQpxXXKo5bBsOzXEFcc6sDIiVXkBq)" vector-effect="non-scaling-stroke" stroke-width="4" stroke="rgb(83,84,97)" stroke-linejoin="miter" stroke-linecap="butt" stroke-miterlimit="10"/><circle vector-effect="non-scaling-stroke" cx="311.22" cy="89.27999999999997" r="3.0500000000000114" fill="rgb(128,204,65)"/><circle vector-effect="non-scaling-stroke" cx="363.41999999999996" cy="87.54000000000002" r="3.0500000000000114" fill="rgb(128,204,65)"/><circle vector-effect="non-scaling-stroke" cx="389.9599999999999" cy="60.56999999999999" r="3.0500000000000114" fill="rgb(128,204,65)"/><circle vector-effect="non-scaling-stroke" cx="337.75" cy="64.92000000000002" r="3.0500000000000114" fill="rgb(128,204,65)"/><circle vector-effect="non-scaling-stroke" cx="415.6199999999999" cy="49.69" r="3.0500000000000114" fill="rgb(128,204,65)"/><ellipse vector-effect="non-scaling-stroke" cx="450.26" cy="556.36" rx="450.26" ry="128.64" fill="rgb(245,245,245)"/><path d=" M 546.42 308.6 C 546.42 308.6 558.86 247.51 606.42 253.17 C 606.42 253.17 639.23 255.43 646.02 276.93 L 646.02 324.44 L 546.42 308.6 Z " fill="rgb(83,84,97)"/><linearGradient id="_lgradient_6" x1="0" y1="0.5" x2="6.123233995736766e-17" y2="-0.5" gradientTransform="matrix(282.373,0,0,203.898,391.147,121.602)" gradientUnits="userSpaceOnUse"><stop offset="0%" stop-opacity="0.1" style="stop-color:rgb(128,128,128)"/></linearGradient><path d=" M 657.78 207.98 C 652.2 207.35 646.91 204.98 641.71 202.66 C 632.97 198.71 624.02 194.54 617.26 187.21 C 607.1 176.21 603.41 159.97 596.26 146.34 C 593.614 141.001 590.073 136.154 585.79 132.01 C 582.247 128.787 578.142 126.241 573.68 124.5 C 564.911 121.016 555.209 120.662 546.21 123.5 L 551.21 122.67 L 529.82 129.5 C 527.16 130.36 524.24 131.45 522.89 134.14 C 521.54 136.83 522.4 140.68 524.32 143.14 C 526.24 145.6 528.94 147.03 531.56 148.41 L 533.81 149.59 C 530.097 158.292 531.176 168.3 536.66 176.01 L 536.66 197.94 C 531.375 199.846 525.734 200.563 520.14 200.04 C 518.602 200.552 517.186 201.376 515.98 202.46 C 513.37 204.46 510.06 208.46 508.71 215.85 C 506.44 228.31 480.71 270.75 478.03 275.11 L 436.03 286.11 L 436.28 286.35 L 435.47 286.56 C 435.47 286.56 435.8 286.87 436.32 287.42 C 431.58 287.74 423.24 287.72 416.61 284.6 C 409.81 281.4 398.89 284.68 392.81 287 C 391.878 287.357 391.234 288.218 391.155 289.213 C 391.076 290.208 391.576 291.16 392.44 291.66 C 400.626 296.306 409.805 298.922 419.21 299.29 C 429.47 299.83 437.87 299.9 443.62 299.84 C 443.893 301.594 443.426 303.383 442.33 304.78 L 492.52 297.6 C 493.99 296.76 495.379 295.786 496.67 294.69 C 499.757 292.238 502.417 289.292 504.54 285.97 L 515.35 271.84 C 516.03 274.28 523.08 300.18 520.71 308.77 L 518.18 318.29 L 532.96 319.82 L 532.96 319.5 L 577.69 325.5 L 577.69 324.5 L 577.77 324.5 L 577.96 316.11 L 629.81 314.44 C 629.81 314.44 638.81 307.13 634.88 295.44 C 634.88 295.44 632.4 249.86 632.4 249.86 C 631.046 240.463 628.99 231.18 626.25 222.09 C 637.707 220.454 648.895 217.299 659.52 212.71 C 664.68 210.49 669.89 207.8 673.52 203.11 C 669.36 207.31 663.36 208.61 657.78 207.98 Z " fill="url(#_lgradient_6)"/><rect x="536.52" y="150.5" width="42" height="65" transform="matrix(1,0,0,1,0,0)" fill="rgb(254,88,88)"/><g opacity="0.1"><rect x="536.52" y="150.5" width="42" height="65" transform="matrix(1,0,0,1,0,0)" fill="rgb(0,0,0)"/></g><path d=" M 545.21 174.39 C 550.543 181.344 551.502 190.709 547.69 198.6 C 541.27 212.4 545.2 232.27 550.37 235.3 C 555.54 238.33 576.07 242.46 582.48 233.64 C 588.89 224.82 588.53 199.34 586.42 195.64 C 584.31 191.94 568.67 188.81 569.34 167.92 L 545.21 174.39 Z " fill="rgb(242,176,141)"/><g opacity="0.1"><path d=" M 542.52 200.06 C 542.52 200.06 550.76 255.3 578.66 217.28 L 576.35 321.28 L 525.9 314.55 L 542.52 200.06 Z " fill="rgb(0,0,0)"/></g><path d=" M 542.45 201.05 C 542.45 201.05 550.69 256.29 578.59 218.27 L 576.28 322.27 L 525.83 315.54 L 542.45 201.05 Z " fill="rgb(241,196,19)"/><path d=" M 573.25 298.5 C 573.25 298.5 558.08 300.42 547.58 295.84 C 547.58 295.84 527.58 301.25 529.58 305.95 C 531.58 310.65 577.47 310.95 577.47 310.95 L 573.25 298.5 Z " fill="rgb(242,176,141)"/><path d=" M 442.92 285.03 C 442.92 285.03 429.73 287.15 420.21 282.67 C 413.63 279.57 403.05 282.75 397.15 285 C 396.25 285.347 395.629 286.18 395.552 287.142 C 395.475 288.104 395.957 289.024 396.79 289.51 C 404.719 294.009 413.61 296.543 422.72 296.9 C 442.08 297.9 454.62 297.22 454.62 297.22 L 442.92 285.03 Z " fill="rgb(242,176,141)"/><g opacity="0.1"><path d=" M 569.81 225.84 L 562.13 299.84 L 569.25 298.58 C 569.25 298.58 580.25 307.71 570.73 313.2 L 625.8 311.5 C 625.8 311.5 634.52 304.42 630.71 293.05 C 630.71 293.05 628.31 248.89 628.31 248.89 C 628.31 248.89 622.64 207.39 611.38 205.22 C 611.38 205.22 588.61 200.76 575.31 185.96 L 569.81 225.84 Z " fill="rgb(0,0,0)"/></g><path d=" M 570.8 225.94 L 563.12 299.94 L 570.24 298.68 C 570.24 298.68 581.24 307.81 571.72 313.3 L 626.79 311.53 C 626.79 311.53 635.51 304.45 631.7 293.08 C 631.7 293.08 629.3 248.92 629.3 248.92 C 629.3 248.92 623.63 207.42 612.37 205.25 C 612.37 205.25 589.6 200.79 576.3 185.99 L 570.8 225.94 Z " fill="rgb(57,68,122)"/><g opacity="0.1"><path d=" M 549.12 192.01 C 549.12 192.01 536.26 202.9 519.97 201.21 C 519.97 201.21 511.76 203.35 509.45 216.09 C 507.14 228.83 479.52 273.85 479.52 273.85 L 438.52 284.56 C 438.52 284.56 450.33 295.76 445.17 302.22 L 493.79 295.29 C 498.277 292.617 502.067 288.92 504.85 284.5 L 515.85 270.17 C 515.85 270.17 523.5 297.41 521.1 306.17 L 518.65 315.4 L 532.97 316.89 C 532.97 316.89 533.67 280.67 537.04 266.6 C 538.5 260.51 539.76 254.39 540.68 248.2 C 543.02 232.4 546.68 208.37 548.05 205.2 L 549.12 192.01 Z " fill="rgb(0,0,0)"/></g><path d=" M 549.67 191.57 C 549.67 191.57 536.81 202.5 520.52 200.77 C 520.52 200.77 512.31 202.91 510 215.65 C 507.69 228.39 480.06 273.42 480.06 273.42 L 439.06 284.13 C 439.06 284.13 450.87 295.33 445.71 301.79 L 494.33 294.86 C 498.835 292.184 502.64 288.475 505.43 284.04 L 516.43 269.71 C 516.43 269.71 524.08 296.95 521.68 305.71 L 519.23 314.94 L 533.52 316.38 C 533.52 316.38 534.22 280.16 537.59 266.09 C 539.05 260 540.31 253.88 541.23 247.69 C 543.57 231.89 547.23 207.86 548.6 204.69 L 549.67 191.57 Z " fill="rgb(57,68,122)"/><g opacity="0.1"><path d=" M 573.31 181.75 C 570.96 178.04 568.95 176.46 569.18 169.39 L 545.06 175.87 C 547.914 179.598 549.577 184.101 549.83 188.79 C 551.539 189.33 553.298 189.696 555.08 189.88 C 561.67 190.57 568.3 185.29 573.31 181.75 Z " fill="rgb(0,0,0)"/></g><path d=" M 555.207 188.383 C 540.769 186.886 530.262 173.948 531.76 159.51 C 533.257 145.073 546.194 134.566 560.632 136.063 C 575.07 137.56 585.576 150.498 584.079 164.936 C 582.582 179.374 569.645 189.88 555.207 188.383 Z " fill="rgb(242,176,141)"/><g opacity="0.1"><path d=" M 520.41 237.93 C 520.41 237.93 525.17 244.93 522.25 249.1 C 522.25 249.1 518.66 259.7 519.73 263.81" fill="rgb(0,0,0)"/></g><g opacity="0.1"><path d=" M 597.35 236.93 C 597.35 236.93 606.14 277.26 603.76 281.01" fill="rgb(0,0,0)"/></g><g opacity="0.1"><path d=" M 577.46 292.41 C 577.46 292.41 602.38 294.33 600.96 288.69" fill="rgb(0,0,0)"/></g><path d=" M 545.77 126.5 C 554.491 123.764 563.889 124.117 572.38 127.5 C 576.716 129.194 580.702 131.672 584.14 134.81 C 588.287 138.824 591.717 143.518 594.28 148.69 C 601.18 161.9 604.76 177.64 614.6 188.29 C 621.15 195.38 629.82 199.43 638.29 203.29 C 643.29 205.56 648.45 207.84 653.86 208.45 C 659.27 209.06 665.08 207.8 669.11 203.74 C 665.63 208.28 660.58 210.89 655.58 213.04 C 635.897 221.535 614.362 224.83 593.04 222.61 C 587.04 221.97 581.04 220.87 575.48 218.21 C 571.48 216.29 567.6 213.28 566.02 208.77 C 562.38 198.37 572.6 187.33 570.68 176.36 C 569.68 170.73 565.59 166.36 561.03 163.66 C 556.47 160.96 551.38 159.66 546.51 157.86 C 541.393 155.789 536.407 153.407 531.58 150.73 C 529.04 149.39 526.42 147.98 524.58 145.62 C 522.74 143.26 521.83 139.62 523.2 136.93 C 524.57 134.24 527.34 133.27 529.91 132.43 L 550.64 125.72" fill="rgb(254,88,88)"/><path d=" M 806.61 331.23 L 383.51 296.16 L 329.21 307.47 L 332.6 383.27 L 336.31 383.72 L 340.52 497.53 L 755.71 572.19 L 799.83 534.86 L 799.83 411.47 L 805.48 408.16 L 806.61 331.23 L 806.61 331.23 Z " fill="rgb(237,237,244)"/><g opacity="0.05"><path d=" M 807.18 331.23 L 806.05 408.16 L 760.23 429.65 L 759.66 349.33 L 807.18 331.23 L 807.18 331.23 Z " fill="rgb(0,0,0)"/></g><g opacity="0.05"><path d=" M 799.83 411.55 L 800.39 532.6 L 756.27 569.93 L 759.1 429.65 L 799.83 411.55 L 799.83 411.55 Z " fill="rgb(0,0,0)"/></g><g opacity="0.05"><path d=" M 336.87 388.24 L 759.44 439.81 L 759.66 430.03 L 336.56 384.4 L 336.87 388.24 L 336.87 388.24 Z " fill="rgb(0,0,0)"/></g><g opacity="0.05"><path d=" M 799.83 415.99 L 799.83 411.55 L 757.97 430.03 L 757.97 439.83 L 799.83 415.99 L 799.83 415.99 Z " fill="rgb(0,0,0)"/></g><path d=" M 328.64 307.47 L 382.94 296.16 L 806.05 331.23 L 758.53 349.33 L 328.64 307.47 L 328.64 307.47 Z " fill="rgb(244,244,248)"/><ellipse vector-effect="non-scaling-stroke" cx="849.73" cy="475.53999999999996" rx="32.57000000000005" ry="11.95999999999998" fill="rgb(205,148,148)"/><g opacity="0.05"><ellipse vector-effect="non-scaling-stroke" cx="849.73" cy="474.21000000000004" rx="16.620000000000005" ry="6.100000000000023" fill="rgb(0,0,0)"/></g><path d=" M 817.17 472.88 C 817.17 472.88 853.06 492.82 882.31 475.54 C 882.31 475.54 878.31 544.66 858.38 551.31 L 831.79 551.31 C 831.79 551.31 809.19 504.78 817.17 472.88 Z " fill="rgb(255,115,97)"/><path d=" M 877.86 346.22 C 886.99 379.61 848.04 474.73 848.04 474.73 C 848.04 474.73 766.04 412.73 756.95 379.3 C 748.217 346.059 767.881 311.985 801.032 302.915 C 834.183 293.845 868.455 313.163 877.86 346.22 L 877.86 346.22 Z " fill="rgb(128,204,65)"/><g opacity="0.1"><path d=" M 877.86 346.22 C 886.99 379.61 848.04 474.73 848.04 474.73 C 848.04 474.73 766.04 412.73 756.95 379.3 C 748.217 346.059 767.881 311.985 801.032 302.915 C 834.183 293.845 868.455 313.163 877.86 346.22 L 877.86 346.22 Z " fill="rgb(0,0,0)"/></g><mask id="_mask_d1QTQSYueXEpQUoTxt9znOMFsk74hzKd" x="-200%" y="-200%" width="400%" height="400%"><rect x="-200%" y="-200%" width="400%" height="400%" style="fill:white;"/><path d=" M 801.2 302.5 C 801.2 302.5 852.2 379.5 848.37 474.92" fill="black" stroke="none"/></mask><path d=" M 801.2 302.5 C 801.2 302.5 852.2 379.5 848.37 474.92" fill="none" mask="url(#_mask_d1QTQSYueXEpQUoTxt9znOMFsk74hzKd)" vector-effect="non-scaling-stroke" stroke-width="2" stroke="rgb(83,84,97)" stroke-linejoin="miter" stroke-linecap="butt" stroke-miterlimit="10"/><path d=" M 890.88 407.25 C 890.88 407.25 844.62 382.09 850.52 474.98 C 850.52 474.98 889.11 473.6 902.8 442.12 C 908.338 429.449 903.527 414.638 891.6 407.64 L 890.88 407.25 Z " fill="rgb(128,204,65)"/><mask id="_mask_Hn1fCY1wnKwNrvWhYggtpX4BfkM6gCwe" x="-200%" y="-200%" width="400%" height="400%"><rect x="-200%" y="-200%" width="400%" height="400%" style="fill:white;"/><path d=" M 891.64 407.41 C 891.64 407.41 885.64 455.63 850.48 474.98" fill="black" stroke="none"/></mask><path d=" M 891.64 407.41 C 891.64 407.41 885.64 455.63 850.48 474.98" fill="none" mask="url(#_mask_Hn1fCY1wnKwNrvWhYggtpX4BfkM6gCwe)" vector-effect="non-scaling-stroke" stroke-width="2" stroke="rgb(83,84,97)" stroke-linejoin="miter" stroke-linecap="butt" stroke-miterlimit="10"/><g opacity="0.05"><path d=" M 877.95 477.8 C 876.6 493.7 871.09 543.09 854.39 548.65 L 830.52 548.65 C 831.28 550.35 831.74 551.31 831.74 551.31 L 858.33 551.31 C 878.27 544.66 882.26 475.54 882.26 475.54 C 880.862 476.365 879.424 477.119 877.95 477.8 Z " fill="rgb(0,0,0)"/></g><circle vector-effect="non-scaling-stroke" cx="691.22" cy="146.83000000000004" r="37.33000000000004" fill="rgb(83,84,97)"/><circle vector-effect="non-scaling-stroke" cx="691.22" cy="146.83000000000004" r="31.67999999999995" fill="rgb(237,237,244)"/><circle vector-effect="non-scaling-stroke" cx="691.22" cy="146.83000000000004" r="2.259999999999991" fill="rgb(83,84,97)"/><mask id="_mask_2xpZsNZzDW6qCmZYDSFvRnzpVd7hEh1i" x="-200%" y="-200%" width="400%" height="400%"><rect x="-200%" y="-200%" width="400%" height="400%" style="fill:white;"/><line x1="704.8" y1="123.07" x2="691.22" y2="146.83" fill="black" stroke="none"/></mask><line x1="704.8" y1="123.07" x2="691.22" y2="146.83" mask="url(#_mask_2xpZsNZzDW6qCmZYDSFvRnzpVd7hEh1i)" vector-effect="non-scaling-stroke" stroke-width="2" stroke="rgb(83,84,97)" stroke-linejoin="miter" stroke-linecap="round" stroke-miterlimit="10"/><mask id="_mask_8MZtRN0LqBCOPQCzJIlJlkQoE5G6bCyZ" x="-200%" y="-200%" width="400%" height="400%"><rect x="-200%" y="-200%" width="400%" height="400%" style="fill:white;"/><line x1="691.87" y1="147.08" x2="705.36" y2="154.18" fill="black" stroke="none"/></mask><line x1="691.87" y1="147.08" x2="705.36" y2="154.18" mask="url(#_mask_8MZtRN0LqBCOPQCzJIlJlkQoE5G6bCyZ)" vector-effect="non-scaling-stroke" stroke-width="4" stroke="rgb(83,84,97)" stroke-linejoin="miter" stroke-linecap="round" stroke-miterlimit="10"/><linearGradient id="_lgradient_7" x1="0" y1="0.5" x2="6.123233995736766e-17" y2="-0.5" gradientTransform="matrix(188.773,0,0,520.366,29.353,73.559)" gradientUnits="userSpaceOnUse"><stop offset="0%" stop-opacity="0.1" style="stop-color:rgb(128,128,128)"/></linearGradient><path d=" M 203.44 561.07 C 199.56 558.67 197.51 552.65 196.44 547.59 L 198.93 546.74 C 198.93 546.74 190.8 462.52 189 458.04 C 189 458.04 185.39 437.43 185.39 437.43 L 182.46 349.59 C 195.95 344.69 201.62 335.21 203.53 331.06 C 204.219 329.838 204.795 328.556 205.25 327.23 C 186.25 303.94 170.94 241.23 170.94 241.23 L 173.51 234.61 L 173.51 234.61 L 174.64 231.7 C 178.41 247.6 195.32 254.7 195.32 254.7 L 195.07 252.37 C 195.74 252.7 196.15 252.88 196.21 252.9 C 199.76 255.53 203.53 256.9 207.06 255.6 C 218.14 251.37 217.96 231.98 217.9 229.82 C 217.9 228.57 217.9 227.82 217.9 227.82 L 207.05 187.5 C 206.767 189.537 206.301 191.545 205.66 193.5 C 205.03 185.15 204.23 169.5 206.15 160.61 C 208.28 150.73 187.45 157.53 182.04 169.18 C 178.143 163.933 172.054 160.763 165.52 160.58 C 146.64 159.77 133.73 147.84 131.52 145.69 C 131.036 143.649 130.665 141.582 130.41 139.5 C 137.877 132.821 141.431 122.801 139.84 112.91 C 140.326 112.692 140.8 112.448 141.26 112.18 C 147.96 108.18 150.11 99.61 150.53 91.87 C 150.53 91.47 150.53 91.04 150.53 90.61 C 150.63 88.04 150.04 84.86 147.53 84.34 C 144.24 83.65 141.83 88.6 138.53 88.07 C 137.518 87.831 136.606 87.282 135.92 86.5 C 133.65 84.25 132.12 81.36 129.87 79.11 C 126.51 75.75 121.73 74.04 116.97 73.63 C 112.197 73.373 107.412 73.821 102.77 74.96 C 100.213 75.377 97.743 76.215 95.46 77.44 C 93.172 78.684 91.558 80.884 91.06 83.44 C 90.998 83.984 90.981 84.533 91.01 85.08 C 91.01 85.91 91.01 86.76 91.08 87.59 C 91.069 87.953 91.029 88.314 90.96 88.67 C 90.48 91.02 88.54 92.82 86.47 94.05 C 84.4 95.28 82.09 96.14 80.14 97.55 C 77.023 99.949 74.858 103.375 74.03 107.22 C 73.529 109.386 73.301 111.607 73.35 113.83 C 73.325 115.836 73.442 117.841 73.7 119.83 C 74.524 126.524 76.404 133.045 79.27 139.15 C 80.214 141.297 81.431 143.314 82.89 145.15 C 85.032 147.484 87.493 149.504 90.2 151.15 C 91.3 151.89 92.61 152.65 93.87 152.24 C 94.237 152.103 94.576 151.9 94.87 151.64 C 96.73 150.1 97.36 147.64 97.3 145.18 C 97.3 145.44 97.38 145.71 97.41 145.96 L 97.59 146.04 C 97.719 147.657 97.719 149.283 97.59 150.9 C 95.92 152.32 84.59 161.76 71.91 166.98 C 63.218 170.583 56.608 177.906 53.91 186.92 C 51.996 193.45 49.132 199.663 45.41 205.36 C 43.6 208.05 35.48 244.78 30.06 251.95 C 25.53 257.95 43.76 290.95 56.71 303.63 L 57.29 304.18 C 60.29 307.32 63.05 309.51 65.29 310.18 C 64.97 308.149 64.803 306.096 64.79 304.04 C 66.26 306.04 67.68 307.99 68.96 309.92 C 68.43 312.75 67.81 315.53 67.09 318.24 C 58.09 352.24 63.48 353.18 63.48 353.18 C 63.48 353.18 63.75 353.31 64.22 353.49 C 64.69 354.86 65.28 354.97 65.28 354.97 C 65.28 354.97 65.56 355.11 66.07 355.3 C 66.29 394.51 72.5 437.4 72.5 437.4 C 72.5 437.4 67.08 491.16 69.79 501.01 C 72.5 510.86 69.79 553.01 69.79 553.01 L 71.64 553.5 C 70.64 558.82 68.64 565.35 64.37 569.14 C 56.24 576.31 48.12 588.85 58.95 592.43 C 69.78 596.01 84.23 593.33 86.03 582.57 L 86.93 574.51 L 99.57 570.03 L 97.41 555.03 C 100.97 549.34 96.86 520.75 96.86 520.75 C 96.86 520.75 99.57 510.89 103.18 452.66 C 103.28 451.02 103.4 449.43 103.52 447.85 C 103.52 447.39 103.59 446.94 103.63 446.49 Q 103.78 444.7 103.95 442.96 C 103.95 442.56 104.03 442.15 104.07 441.75 C 104.22 440.26 104.38 438.75 104.55 437.34 C 104.55 437.12 104.61 436.9 104.63 436.68 Q 104.86 434.83 105.1 433.04 L 105.27 431.8 Q 105.5 430.17 105.75 428.6 C 105.75 428.29 105.84 427.98 105.89 427.68 Q 106.21 425.68 106.55 423.81 L 106.71 422.96 Q 106.98 421.47 107.27 420.02 L 107.49 418.93 Q 107.8 417.41 108.12 415.93 L 108.24 415.37 C 108.5 414.22 108.76 413.1 109.02 412.01 L 109.23 411.14 Q 109.54 409.89 109.85 408.69 L 110.09 407.78 C 110.36 406.78 110.63 405.78 110.91 404.78 L 110.91 404.7 C 111.19 403.7 111.48 402.76 111.77 401.82 L 112.02 401.01 Q 112.35 399.96 112.68 398.95 L 112.92 398.23 C 113.21 397.36 113.5 396.51 113.79 395.69 L 113.92 395.34 Q 114.3 394.28 114.68 393.27 L 114.94 392.58 Q 115.28 391.68 115.62 390.83 L 115.83 390.31 Q 116.26 389.24 116.69 388.24 L 116.88 387.8 Q 117.22 387.01 117.56 386.26 L 117.82 385.69 Q 118.17 384.93 118.51 384.21 L 118.65 383.9 C 118.92 383.33 119.19 382.79 119.45 382.27 L 119.67 381.85 L 120.25 380.72 L 120.48 380.29 L 121.16 379.03 L 121.16 378.94 L 121.85 377.73 L 122.05 377.39 C 123.115 375.501 124.321 373.696 125.66 371.99 C 125.66 371.99 157.39 449.08 156.52 462.5 C 155.65 475.92 161.94 505.5 161.94 505.5 C 161.94 505.5 164.65 515.36 165.55 521.63 C 166.32 526.96 171 547.81 172.38 553.96 L 172.38 553.96 L 172.6 554.96 L 172.6 555.07 L 172.66 555.34 L 172.66 555.49 L 172.66 555.58 L 171.78 566.45 L 183.52 573.62 C 189.84 591.54 203.38 590.62 214.22 586.16 C 225.06 581.7 210.66 565.5 203.44 561.07 Z  M 190.22 196.64 L 190.08 196.52 L 190.08 196.35 L 190.22 196.64 Z  M 71.95 276.91 C 71.3 276.37 70.63 275.77 69.95 275.13 C 69.19 274.33 68.45 273.48 67.76 272.58 L 68.24 273.1 C 68.94 273.76 69.64 274.38 70.31 274.93 C 70.412 264.659 69.998 254.389 69.07 244.16 C 69.51 243.42 69.91 242.77 70.27 242.23 C 71.505 253.747 72.066 265.327 71.95 276.91 L 71.95 276.91 Z " fill="url(#_lgradient_7)"/><linearGradient id="_lgradient_8" x1="0" y1="0.5" x2="6.123233995736766e-17" y2="-0.5" gradientTransform="matrix(127.207,0,0,134.38,63.243,139.72)" gradientUnits="userSpaceOnUse"><stop offset="0%" stop-opacity="0.1" style="stop-color:rgb(128,128,128)"/></linearGradient><path d=" M 97.06 139.81 L 97.06 140.03 L 96.85 139.72 L 97.06 139.81 Z  M 69.75 272.31 C 66.12 268.45 62.86 263.4 63.28 257.95 C 63.94 249.42 67.92 242.32 70.07 239.05 C 71.311 250.691 71.875 262.394 71.76 274.1 C 71.11 273.56 70.43 272.95 69.75 272.31 Z  M 190.3 192.7 L 190.45 192.97 L 190.31 192.85 L 190.3 192.7 Z " fill="url(#_lgradient_8)"/><path d=" M 193.36 533.5 C 193.36 533.5 194.24 550.19 201.26 554.58 C 201.26 554.58 222.34 574.78 211.8 579.17 C 211.8 579.17 188.09 584.44 181.94 566.88 L 170.52 559.88 L 172.28 537.88 L 193.36 533.5 Z " fill="rgb(26,34,70)"/><path d=" M 73.92 538.75 C 73.92 538.75 73.92 555.44 66.02 562.46 C 66.02 562.46 50.21 581.78 60.75 585.29 C 60.75 585.29 85.34 586.17 87.1 575.63 L 87.98 567.73 L 100.27 563.34 L 96.76 538.75 L 73.92 538.75 Z " fill="rgb(26,34,70)"/><path d=" M 180.19 327.11 L 183.7 433.37 C 183.7 433.37 185.46 449.18 187.21 453.57 C 188.96 457.96 196.87 540.5 196.87 540.5 L 171.4 549.28 C 171.4 549.28 165.25 522.06 164.4 515.91 C 164.4 515.91 160.89 500.1 160.89 500.1 C 160.89 500.1 154.74 471.1 155.62 457.95 C 155.62 457.95 125.76 369.25 125.76 369.25 C 125.76 369.25 107.32 391.25 103.76 448.25 C 103.76 448.25 97.61 514.99 97.61 514.99 C 97.61 514.99 102 545.73 97.61 549.24 C 97.61 549.24 71.26 546.61 71.26 546.61 C 71.26 546.61 73.89 505.34 71.26 495.68 C 71.26 495.68 73.89 433.33 73.89 433.33 C 73.89 433.33 57.24 317.5 78.32 294.62 L 169.65 288.5 L 180.19 327.11 Z " fill="rgb(59,71,123)"/><g style="opacity:0.1;"><g opacity="0.1"><path d=" M 191.6 540.5 C 191.6 540.5 183.7 457.95 181.94 453.56 C 181.94 453.56 178.43 433.36 178.43 433.36 L 174.92 327.11 L 164.52 288.82 L 169.69 288.47 L 180.23 327.11 L 183.74 433.37 C 183.74 433.37 185.5 449.18 187.25 453.57 C 189 457.96 196.87 540.5 196.87 540.5 L 171.4 549.28 L 171.02 547.59 L 191.6 540.5 Z " fill="rgb(0,0,0)"/></g><g opacity="0.1"><path d=" M 92.37 549.29 C 96.76 545.78 92.37 515.04 92.37 515.04 C 92.37 515.04 95 505.38 98.52 448.3 C 102.04 391.22 120.52 369.3 120.52 369.3 C 120.52 369.3 121.26 371.11 122.52 374.22 C 117.05 383.48 106.43 406.45 103.86 448.34 C 100.35 505.42 97.71 515.08 97.71 515.08 C 97.71 515.08 102.1 545.82 97.71 549.33 C 96.34 550.43 93.25 550.58 89.66 550.28 C 90.633 550.187 91.566 549.846 92.37 549.29 Z " fill="rgb(0,0,0)"/></g></g><path d=" M 131.01 119.86 C 131.01 119.86 124.01 151.47 143.3 168.16 C 143.3 168.16 97.63 198.02 86.22 183.97 C 86.22 183.97 94.12 162.89 94.12 162.89 C 94.12 162.89 103.78 154.99 94.12 131.28 L 131.01 119.86 Z " fill="rgb(224,161,126)"/><path d=" M 136.28 154.99 L 113.45 179.58 L 95.75 156.02 L 80.95 227.02 L 86.22 309.5 C 86.22 309.5 128.37 320.92 152.08 298.96 L 145.08 222.56 L 136.28 154.99 Z " fill="rgb(240,241,245)"/><g opacity="0.1"><path d=" M 138.03 306.04 L 141.52 317.5 C 141.52 317.5 100.25 324.5 86.19 321.01 L 89.7 308.72 C 89.7 308.72 128.37 318.33 138.03 306.04 Z " fill="rgb(0,0,0)"/></g><path d=" M 138.03 304.28 L 141.52 315.7 C 141.52 315.7 100.25 322.7 86.19 319.21 L 89.7 306.92 C 89.7 306.92 128.37 316.57 138.03 304.28 Z " fill="rgb(26,34,70)"/><g opacity="0.1"><path d=" M 130.13 148.84 C 130.13 148.84 143.3 162.89 163.5 163.77 C 163.5 163.77 186.33 189.24 186.33 189.24 L 193.33 254.24 C 193.33 254.24 176.64 247.24 173.13 231.41 L 168.74 242.83 C 168.74 242.83 183.67 304.3 202.11 327.14 C 202.11 327.14 194.21 353.49 155.57 349.97 C 155.57 349.97 134.49 340.31 135.37 315.72 L 128.52 277.22 C 126.089 263.696 125.084 249.954 125.52 236.22 L 130.13 148.84 Z " fill="rgb(0,0,0)"/></g><path d=" M 131.01 147.08 C 131.01 147.08 144.18 161.13 164.38 162.01 C 184.58 162.89 187.21 187.5 187.21 187.5 L 194.21 252.5 C 194.21 252.5 177.52 245.5 174.01 229.67 L 169.62 241.09 C 169.62 241.09 184.58 302.5 203.02 325.36 C 203.02 325.36 195.12 351.71 156.48 348.19 C 156.48 348.19 135.4 338.53 136.28 313.94 L 129.38 275.5 C 126.949 261.976 125.944 248.234 126.38 234.5 L 131.01 147.08 Z " fill="rgb(41,49,88)"/><g opacity="0.1"><path d=" M 98.27 153.11 C 98.27 153.11 88.44 164.51 75.07 170.06 C 66.608 173.624 60.194 180.802 57.6 189.61 C 55.744 196.006 52.957 202.095 49.33 207.68 C 47.57 210.31 39.67 246.32 34.4 253.35 C 29.13 260.38 55.48 305.16 66.89 308.68 C 66.89 308.68 62.5 284.09 80.06 281.46 C 80.06 281.46 64.25 271.8 65.13 260.38 C 66.01 248.96 73.03 240.18 73.03 240.18 C 73.03 240.18 79.18 284.97 70.4 318.34 C 61.62 351.71 66.89 352.59 66.89 352.59 C 66.89 352.59 102.89 370.15 97.63 287.59 C 92.37 205.03 96.75 174.3 96.75 174.3 L 98.27 153.11 Z " fill="rgb(0,0,0)"/></g><path d=" M 65.14 306.91 C 65.14 306.91 61.67 287.48 73.24 281.32 C 72.86 292.95 71.6 305.4 68.66 316.57 C 59.88 349.94 65.15 350.82 65.15 350.82 C 66.069 351.245 67.026 351.58 68.01 351.82 C 76.43 353.93 100.24 354.04 95.88 285.82 C 90.61 203.27 95 172.53 95 172.53 L 98.51 152.33 C 98.51 152.33 86.68 162.73 73.31 168.28 C 64.848 171.846 58.435 179.022 55.84 187.83 C 53.979 194.224 51.193 200.312 47.57 205.9 C 45.81 208.53 37.91 244.54 32.64 251.57 C 28.23 257.45 45.97 289.79 58.56 302.22 C 61.02 304.67 63.28 306.34 65.14 306.91 Z  M 64.65 265.3 C 63.684 263.208 63.251 260.91 63.39 258.61 C 64.04 250.19 68.04 243.2 70.08 240.12 C 70.81 239.02 71.29 238.42 71.29 238.42 C 72.813 250.9 73.505 263.468 73.36 276.04 C 70.29 273.5 66.58 269.68 64.65 265.31 L 64.65 265.3 Z " fill="rgb(41,49,88)"/><g opacity="0.1"><path d=" M 110.81 150.6 C 106.428 150.606 102.102 149.615 98.16 147.7 C 97.489 142.656 96.144 137.726 94.16 133.04 L 131.04 121.62 C 129.691 128.702 129.434 135.95 130.28 143.11 C 124.95 147.946 118.007 150.617 110.81 150.6 Z " fill="rgb(0,0,0)"/></g><circle vector-effect="non-scaling-stroke" cx="110.80999999999995" cy="119.86000000000001" r="28.979999999999997" fill="rgb(224,161,126)"/><g style="opacity:0.1;"><g opacity="0.1"><path d=" M 199.52 325.36 C 181.08 302.53 166.15 241.05 166.15 241.05 L 170.52 229.63 C 170.899 231.322 171.442 232.973 172.14 234.56 L 169.64 241.05 C 169.64 241.05 184.58 302.5 203.02 325.36 C 203.02 325.36 195.81 349.36 161.6 348.47 C 192.79 347.65 199.52 325.36 199.52 325.36 Z " fill="rgb(0,0,0)"/></g></g><path d=" M 203.9 199.78 C 203.9 199.78 201.27 174.31 203.9 162.02 C 203.9 162.02 173.16 163.78 180.19 180.46 C 180.19 180.46 194.24 206.81 194.24 206.81 L 203.9 199.78 Z " fill="rgb(224,161,126)"/><g opacity="0.1"><path d=" M 204.77 188.36 L 215.31 227.88 C 215.31 227.88 216.19 248.96 204.77 253.35 C 204.77 253.35 179.3 232.27 179.3 232.27 L 186.3 195.39 C 186.3 195.39 201.26 212.07 204.77 188.36 Z " fill="rgb(0,0,0)"/></g><path d=" M 204.77 190.12 L 215.31 229.64 C 215.31 229.64 216.19 250.72 204.77 255.11 C 204.77 255.11 179.3 234.03 179.3 234.03 L 186.3 197.15 C 186.3 197.15 201.26 213.83 204.77 190.12 Z " fill="rgb(41,49,88)"/><g opacity="0.02"><path d=" M 204.77 190.12 L 215.31 229.64 C 215.31 229.64 216.19 250.72 204.77 255.11 C 204.77 255.11 179.3 234.03 179.3 234.03 L 186.3 197.15 C 186.3 197.15 201.26 213.83 204.77 190.12 Z " fill="rgb(0,0,0)"/></g><g opacity="0.1"><path d=" M 68.66 316.57 C 59.88 349.94 65.15 350.82 65.15 350.82 C 66.069 351.245 67.026 351.58 68.01 351.82 C 76.86 334.01 78.36 304.92 77.59 279.82 C 77.59 279.62 77.59 279.42 77.59 279.21 C 77.062 263.356 75.704 247.541 73.52 231.83 C 72.52 232.7 71.34 235.7 70.11 240.12 C 70.84 239.02 71.32 238.42 71.32 238.42 C 72.843 250.9 73.535 263.468 73.39 276.04 C 73.529 277.803 73.489 279.575 73.27 281.33 C 72.86 292.95 71.6 305.4 68.66 316.57 Z " fill="rgb(0,0,0)"/></g><path d=" M 64.66 300.33 L 65.66 301.59 L 65.66 301.59 C 69.027 305.841 71.961 310.417 74.42 315.25 C 79.68 326.68 97.98 295.43 82.36 286.25 C 79.8 284.76 77.36 283.41 75.06 282.25 L 75.06 282.25 L 73.29 281.34 C 66.07 285.16 64.67 294.1 64.66 300.33 Z " fill="rgb(224,161,126)"/><g opacity="0.1"><path d=" M 64.66 300.33 L 65.66 301.59 L 65.66 301.59 C 65.66 301.59 66.07 285.23 75.07 282.24 L 75.07 282.24 L 73.3 281.33 C 66.07 285.16 64.67 294.1 64.66 300.33 Z " fill="rgb(0,0,0)"/></g><g opacity="0.1"><path d=" M 111.16 111.88 C 112.79 111.32 114.5 110.43 116.16 110.98 C 116.917 111.284 117.599 111.748 118.16 112.34 C 120.45 114.5 122.71 117.01 125.78 117.68 C 127.678 117.969 129.614 117.884 131.48 117.43 C 134.72 116.86 138.05 116.25 140.87 114.57 C 147.39 110.68 149.47 102.24 149.87 94.66 C 150.01 92.11 149.48 88.81 146.98 88.28 C 143.78 87.6 141.44 92.46 138.21 91.93 C 137.224 91.693 136.336 91.155 135.67 90.39 C 133.47 88.19 131.98 85.39 129.78 83.14 C 126.355 79.941 121.919 78.042 117.24 77.77 C 112.594 77.516 107.937 77.954 103.42 79.07 C 100.931 79.479 98.529 80.301 96.31 81.5 C 94.072 82.732 92.502 84.9 92.03 87.41 C 91.81 89.11 92.27 90.86 91.93 92.53 C 91.46 94.84 89.58 96.59 87.56 97.81 C 85.54 99.03 83.3 99.81 81.4 101.24 C 78.366 103.598 76.263 106.952 75.46 110.71 C 74.678 114.447 74.57 118.294 75.14 122.07 C 75.928 128.627 77.744 135.018 80.52 141.01 C 81.438 143.109 82.621 145.082 84.04 146.88 C 86.119 149.173 88.513 151.159 91.15 152.78 C 92.22 153.5 93.5 154.25 94.72 153.85 C 95.088 153.718 95.427 153.518 95.72 153.26 C 98.21 151.18 98.45 147.41 97.72 144.26 C 96.99 141.11 95.61 138.06 95.46 134.82 C 95.365 133.911 95.546 132.994 95.98 132.19 C 96.501 131.538 97.091 130.945 97.74 130.42 C 98.603 129.451 99.281 128.333 99.74 127.12 C 101.07 124.12 102.42 120.97 102.74 117.66 C 103.023 114.949 102.431 112.22 101.05 109.87 C 103.797 112.343 107.676 113.114 111.16 111.88 Z " fill="rgb(0,0,0)"/></g><path d=" M 111.16 110.88 C 112.79 110.32 114.5 109.43 116.16 109.98 C 116.917 110.284 117.599 110.748 118.16 111.34 C 120.45 113.5 122.71 116.01 125.78 116.68 C 127.678 116.969 129.614 116.884 131.48 116.43 C 134.72 115.86 138.05 115.25 140.87 113.57 C 147.39 109.68 149.47 101.24 149.87 93.66 C 150.01 91.11 149.48 87.81 146.98 87.28 C 143.78 86.6 141.44 91.46 138.21 90.93 C 137.224 90.693 136.336 90.155 135.67 89.39 C 133.47 87.19 131.98 84.39 129.78 82.14 C 126.355 78.941 121.919 77.042 117.24 76.77 C 112.594 76.516 107.937 76.954 103.42 78.07 C 100.931 78.479 98.529 79.301 96.31 80.5 C 94.072 81.732 92.502 83.9 92.03 86.41 C 91.81 88.11 92.27 89.86 91.93 91.53 C 91.46 93.84 89.58 95.59 87.56 96.81 C 85.54 98.03 83.3 98.81 81.4 100.24 C 78.366 102.598 76.263 105.952 75.46 109.71 C 74.678 113.447 74.57 117.294 75.14 121.07 C 75.928 127.627 77.744 134.018 80.52 140.01 C 81.438 142.109 82.621 144.082 84.04 145.88 C 86.119 148.173 88.513 150.159 91.15 151.78 C 92.22 152.5 93.5 153.25 94.72 152.85 C 95.088 152.718 95.427 152.518 95.72 152.26 C 98.21 150.18 98.45 146.41 97.72 143.26 C 96.99 140.11 95.61 137.06 95.46 133.82 C 95.365 132.911 95.546 131.994 95.98 131.19 C 96.501 130.538 97.091 129.945 97.74 129.42 C 98.603 128.451 99.281 127.333 99.74 126.12 C 101.07 123.12 102.42 119.97 102.74 116.66 C 103.023 113.949 102.431 111.22 101.05 108.87 C 103.797 111.343 107.676 112.114 111.16 110.88 Z " fill="rgb(70,62,59)"/></g></g></svg>