<?xml version="1.0" standalone="no"?><!-- Generator: Gravit.io --><svg xmlns="http://www.w3.org/2000/svg" xmlns:xlink="http://www.w3.org/1999/xlink" style="isolation:isolate" viewBox="0 0 320 175" width="320" height="175"><defs><clipPath id="_clipPath_juWKSVt6BUEfW7zE6xunRjBsWU82vOCe"><rect width="320" height="175"/></clipPath></defs><g clip-path="url(#_clipPath_juWKSVt6BUEfW7zE6xunRjBsWU82vOCe)"><g><g opacity="0.1"><path d=" M 177.645 20.007 C 163.682 19.605 150.385 15.851 137.696 11.743 C 125.007 7.636 112.41 3.092 98.783 0.917 C 90.018 -0.483 79.995 -0.681 72.933 3.231 C 66.136 6.996 63.941 13.496 62.761 19.529 C 61.87 24.066 61.349 28.843 63.783 33.09 C 65.467 36.036 68.474 38.517 70.549 41.341 C 77.767 51.17 72.666 63.289 64.842 72.885 C 61.172 77.386 56.915 81.681 54.082 86.473 C 51.25 91.264 49.945 96.759 52.418 101.641 C 54.874 106.481 60.726 110.123 67.066 112.684 C 79.943 117.882 95.117 119.37 109.912 120.214 C 142.664 122.078 175.593 121.266 208.433 120.462 C 220.586 120.163 232.793 119.86 244.75 118.294 C 251.389 117.425 258.243 116.047 263.058 112.718 C 269.177 108.492 270.692 101.336 266.593 96.037 C 259.716 87.148 240.71 84.941 235.893 75.402 C 233.246 70.151 235.964 64.301 239.809 59.432 C 248.058 48.986 261.886 39.822 262.614 27.882 C 263.112 19.675 256.467 11.468 246.189 7.587 C 235.417 3.52 220.479 4.031 212.52 10.765 C 204.353 17.697 189.972 20.371 177.645 20.007 Z " fill="rgb(136,211,75)"/></g><g opacity="0.1"><ellipse vector-effect="non-scaling-stroke" cx="142.7422310753099" cy="168.83008382747303" rx="61.18359915287209" ry="6.169916172526939" fill="rgb(136,211,75)"/></g><mask id="_mask_ljkkAKyzNriMroXItpUQpVLW1jEro7cu" x="-200%" y="-200%" width="400%" height="400%"><rect x="-200%" y="-200%" width="400%" height="400%" style="fill:white;"/><path d=" M 86.771 168.161 C 86.771 168.161 84.056 152.78 73.981 145.158 C 69.753 141.96 66.66 137.61 65.309 132.657 C 64.673 130.309 64.266 127.906 64.093 125.481" fill="black" stroke="none"/></mask><path d=" M 86.771 168.161 C 86.771 168.161 84.056 152.78 73.981 145.158 C 69.753 141.96 66.66 137.61 65.309 132.657 C 64.673 130.309 64.266 127.906 64.093 125.481" fill="none" mask="url(#_mask_ljkkAKyzNriMroXItpUQpVLW1jEro7cu)" vector-effect="non-scaling-stroke" stroke-width="0.842" stroke="rgb(83,84,97)" stroke-linejoin="miter" stroke-linecap="butt" stroke-miterlimit="10"/><path d=" M 57.775 120.641 C 58.617 122.288 64.242 125.624 64.242 125.624 C 64.242 125.624 64.949 119.393 64.101 117.743 C 63.253 116.093 61.155 115.405 59.404 116.205 C 57.653 117.004 56.927 118.991 57.775 120.641 Z " fill="rgb(136,211,75)"/><path d=" M 57.239 132.17 C 58.901 133.119 65.538 133.035 65.538 133.035 C 65.538 133.035 62.544 127.442 60.888 126.493 C 59.232 125.544 57.066 126.045 56.06 127.612 C 55.055 129.18 55.578 131.221 57.239 132.17 Z " fill="rgb(136,211,75)"/><path d=" M 65.49 147.684 C 67.43 147.711 73.114 144.474 73.114 144.474 C 73.114 144.474 67.54 141.074 65.597 141.044 C 63.655 141.015 62.058 142.48 62.02 144.312 C 61.982 146.145 63.548 147.65 65.49 147.684 Z " fill="rgb(136,211,75)"/><path d=" M 74.53 158.085 C 76.437 158.424 82.619 156.139 82.619 156.139 C 82.619 156.139 77.733 151.892 75.829 151.56 C 73.924 151.227 72.083 152.402 71.725 154.211 C 71.367 156.021 72.622 157.749 74.53 158.085 Z " fill="rgb(136,211,75)"/><path d=" M 72.344 130.312 C 71.681 132.036 66.452 135.899 66.452 135.899 C 66.452 135.899 65.067 129.771 65.73 128.048 C 66.393 126.325 68.411 125.434 70.235 126.059 C 72.06 126.684 73.007 128.591 72.344 130.312 Z " fill="rgb(136,211,75)"/><path d=" M 82.754 142.61 C 81.575 144.068 75.363 146.278 75.363 146.278 C 75.363 146.278 75.995 140.039 77.165 138.582 C 78.391 137.117 80.538 136.842 82.093 137.951 C 82.829 138.458 83.319 139.251 83.445 140.136 C 83.571 141.021 83.32 141.918 82.754 142.61 L 82.754 142.61 Z " fill="rgb(136,211,75)"/><path d=" M 91.133 155.874 C 90.233 157.498 84.507 160.667 84.507 160.667 C 84.507 160.667 84.004 154.42 84.905 152.795 C 85.805 151.17 87.928 150.543 89.65 151.394 C 91.371 152.244 92.032 154.249 91.133 155.874 Z " fill="rgb(136,211,75)"/><g opacity="0.25"><path d=" M 57.775 120.641 C 58.617 122.288 64.242 125.624 64.242 125.624 C 64.242 125.624 64.949 119.393 64.101 117.743 C 63.253 116.093 61.155 115.405 59.404 116.205 C 57.653 117.004 56.927 118.991 57.775 120.641 Z " fill="rgb(0,0,0)"/></g><g opacity="0.25"><path d=" M 57.239 132.17 C 58.901 133.119 65.538 133.035 65.538 133.035 C 65.538 133.035 62.544 127.442 60.888 126.493 C 59.232 125.544 57.066 126.045 56.06 127.612 C 55.055 129.18 55.578 131.221 57.239 132.17 Z " fill="rgb(0,0,0)"/></g><g opacity="0.25"><path d=" M 65.49 147.684 C 67.43 147.711 73.114 144.474 73.114 144.474 C 73.114 144.474 67.54 141.074 65.597 141.044 C 63.655 141.015 62.058 142.48 62.02 144.312 C 61.982 146.145 63.548 147.65 65.49 147.684 Z " fill="rgb(0,0,0)"/></g><g opacity="0.25"><path d=" M 74.53 158.085 C 76.437 158.424 82.619 156.139 82.619 156.139 C 82.619 156.139 77.733 151.892 75.829 151.56 C 73.924 151.227 72.083 152.402 71.725 154.211 C 71.367 156.021 72.622 157.749 74.53 158.085 Z " fill="rgb(0,0,0)"/></g><g opacity="0.25"><path d=" M 72.344 130.312 C 71.681 132.036 66.452 135.899 66.452 135.899 C 66.452 135.899 65.067 129.771 65.73 128.048 C 66.393 126.325 68.411 125.434 70.235 126.059 C 72.06 126.684 73.007 128.591 72.344 130.312 Z " fill="rgb(0,0,0)"/></g><g opacity="0.25"><path d=" M 82.754 142.61 C 81.575 144.068 75.363 146.278 75.363 146.278 C 75.363 146.278 75.995 140.039 77.165 138.582 C 78.391 137.117 80.538 136.842 82.093 137.951 C 82.829 138.458 83.319 139.251 83.445 140.136 C 83.571 141.021 83.32 141.918 82.754 142.61 L 82.754 142.61 Z " fill="rgb(0,0,0)"/></g><g opacity="0.25"><path d=" M 91.133 155.874 C 90.233 157.498 84.507 160.667 84.507 160.667 C 84.507 160.667 84.004 154.42 84.905 152.795 C 85.805 151.17 87.928 150.543 89.65 151.394 C 91.371 152.244 92.032 154.249 91.133 155.874 Z " fill="rgb(0,0,0)"/></g><mask id="_mask_0uYAjHwMF04zme8DTUwjJtPEeR3WVmUP" x="-200%" y="-200%" width="400%" height="400%"><rect x="-200%" y="-200%" width="400%" height="400%" style="fill:white;"/><path d=" M 86.43 167.757 C 86.43 167.757 90.548 152.656 84.61 141.831 C 82.118 137.29 81.157 132.13 82.049 127.084 C 82.477 124.685 83.136 122.333 84.016 120.06" fill="black" stroke="none"/></mask><path d=" M 86.43 167.757 C 86.43 167.757 90.548 152.656 84.61 141.831 C 82.118 137.29 81.157 132.13 82.049 127.084 C 82.477 124.685 83.136 122.333 84.016 120.06" fill="none" mask="url(#_mask_0uYAjHwMF04zme8DTUwjJtPEeR3WVmUP)" vector-effect="non-scaling-stroke" stroke-width="0.842" stroke="rgb(83,84,97)" stroke-linejoin="miter" stroke-linecap="butt" stroke-miterlimit="10"/><path d=" M 80.317 113.219 C 80.384 115.05 84.09 120.249 84.09 120.249 C 84.09 120.249 87.411 114.822 87.343 112.989 C 87.276 111.157 85.649 109.723 83.709 109.787 C 81.769 109.85 80.248 111.386 80.317 113.219 Z " fill="rgb(136,211,75)"/><path d=" M 74.879 123.555 C 75.991 125.058 82.093 127.52 82.093 127.52 C 82.093 127.52 81.756 121.262 80.645 119.757 C 79.48 118.245 77.346 117.887 75.751 118.934 C 74.995 119.409 74.471 120.177 74.306 121.054 C 74.14 121.932 74.348 122.838 74.879 123.555 L 74.879 123.555 Z " fill="rgb(136,211,75)"/><path d=" M 75.763 140.889 C 77.527 141.657 84.113 140.874 84.113 140.874 C 84.113 140.874 80.475 135.63 78.711 134.862 C 76.948 134.094 74.861 134.82 74.046 136.484 C 73.232 138.149 74.002 140.121 75.763 140.889 Z " fill="rgb(136,211,75)"/><path d=" M 79.562 153.862 C 81.163 154.901 87.794 155.177 87.794 155.177 C 87.794 155.177 85.147 149.43 83.547 148.393 C 81.948 147.351 79.817 147.718 78.659 149.234 C 78.128 149.956 77.924 150.867 78.096 151.746 C 78.267 152.625 78.799 153.392 79.562 153.862 Z " fill="rgb(136,211,75)"/><path d=" M 89.486 127.636 C 88.139 128.957 81.7 130.491 81.7 130.491 C 81.7 130.491 83.065 124.357 84.41 123.036 C 85.79 121.713 87.954 121.673 89.383 122.943 C 90.052 123.532 90.444 124.375 90.463 125.267 C 90.483 126.158 90.128 127.017 89.486 127.636 Z " fill="rgb(136,211,75)"/><path d=" M 93.715 142.86 C 92.013 143.742 85.386 143.387 85.386 143.387 C 85.386 143.387 88.633 137.915 90.336 137.04 C 92.038 136.164 94.176 136.747 95.108 138.355 C 96.041 139.963 95.426 141.979 93.715 142.86 Z " fill="rgb(136,211,75)"/><path d=" M 95.691 158.193 C 94.17 159.333 87.575 160.04 87.575 160.04 C 87.575 160.04 89.797 154.133 91.319 152.993 C 92.852 151.855 95.004 152.088 96.257 153.529 C 96.835 154.209 97.103 155.099 96.995 155.985 C 96.888 156.871 96.415 157.671 95.691 158.193 Z " fill="rgb(136,211,75)"/><linearGradient id="_lgradient_35" x1="0.5001380090549454" y1="0.9999564792682928" x2="0.5001380090549455" y2="-0.0000029635737750499658" gradientTransform="matrix(64.699,0,0,130.384,195.927,38.479)" gradientUnits="userSpaceOnUse"><stop offset="0%" stop-opacity="0.25" style="stop-color:rgb(128,128,128)"/><stop offset="54%" stop-opacity="0.12" style="stop-color:rgb(128,128,128)"/><stop offset="100%" stop-opacity="0.1" style="stop-color:rgb(128,128,128)"/></linearGradient><path d=" M 259.903 79.579 C 260.03 79.234 259.083 77.321 259.083 77.226 C 259.083 77.131 258.104 76.065 258.104 75.469 C 258.104 74.874 256.808 73.588 256.808 73.588 C 256.808 73.588 255.072 72.866 254.882 71.298 C 254.693 69.731 252.801 69.697 252.797 69.697 L 252.797 69.697 C 252.797 69.697 252.797 69.554 252.81 69.337 C 252.81 68.849 252.795 67.978 252.576 67.502 C 252.351 67.069 251.965 66.742 251.501 66.591 C 251.501 66.591 251.311 65.368 250.933 64.992 C 250.502 64.542 250.334 63.902 250.488 63.3 C 250.678 62.704 250.236 61.195 249.318 60.985 C 248.401 60.774 247.361 60.421 247.361 60.421 C 247.361 60.421 247.258 60.44 247.109 60.461 L 246.983 60.421 C 246.763 60.461 246.541 60.489 246.318 60.503 C 246.124 60.51 245.935 60.447 245.783 60.326 C 245.465 59.981 242.907 59.322 242.433 59.322 C 241.96 59.322 240.6 58.691 240.6 58.691 L 239.245 57.656 C 238.864 57.365 238.159 56.183 238.056 56.017 L 238.043 55.993 L 238.043 55.993 L 238.043 55.993 C 237.927 55.726 237.831 55.45 237.757 55.169 L 237.757 55.169 C 238.219 54.686 238.614 54.143 238.931 53.555 C 238.965 53.493 238.995 53.43 239.024 53.369 C 239.095 53.368 239.166 53.357 239.235 53.336 C 239.262 53.336 239.289 53.315 239.317 53.304 C 239.637 53.135 239.878 52.847 239.988 52.502 L 239.988 52.502 C 240.011 52.435 240.032 52.366 240.049 52.292 C 240.049 52.269 240.049 52.243 240.064 52.22 C 240.078 52.197 240.085 52.126 240.093 52.077 C 240.101 52.029 240.104 52.023 240.108 51.997 C 240.112 51.972 240.123 51.903 240.129 51.854 C 240.135 51.806 240.129 51.802 240.129 51.776 C 240.129 51.715 240.144 51.656 240.152 51.597 L 240.152 51.597 C 240.173 51.375 240.206 51.154 240.251 50.935 C 240.251 50.935 240.251 50.935 240.251 50.935 L 240.251 50.935 C 240.44 50.093 240.952 49.365 241.316 48.578 L 241.316 48.578 C 241.368 48.466 241.417 48.35 241.461 48.235 C 241.505 48.119 241.549 47.982 241.585 47.854 L 241.617 47.736 C 241.64 47.643 241.661 47.549 241.68 47.454 C 241.68 47.412 241.697 47.37 241.703 47.328 C 241.724 47.197 241.743 47.067 241.753 46.934 C 241.821 46.183 241.714 45.426 241.44 44.723 C 241.202 44.133 240.851 43.603 240.611 43.014 C 240.247 42.122 240.152 41.12 239.708 40.261 C 238.965 38.835 237.214 38.121 235.775 38.658 C 235.087 38.913 234.491 39.409 233.795 39.632 C 232.86 39.929 231.863 39.706 230.897 39.571 C 229.931 39.437 228.862 39.426 228.086 40.057 C 227.191 40.783 226.945 42.149 226.106 42.947 C 225.754 43.281 225.314 43.496 224.942 43.805 C 224.68 44.015 224.479 44.29 224.359 44.603 C 224.359 44.626 224.344 44.647 224.338 44.67 C 224.332 44.693 224.323 44.723 224.317 44.75 C 224.311 44.777 224.304 44.813 224.3 44.845 C 224.296 44.876 224.3 44.889 224.3 44.91 C 224.296 44.966 224.296 45.022 224.3 45.078 L 224.3 45.078 C 224.306 45.131 224.315 45.184 224.327 45.236 C 224.327 45.251 224.327 45.266 224.327 45.28 C 224.327 45.295 224.353 45.367 224.367 45.411 C 224.366 45.419 224.366 45.428 224.367 45.436 C 224.384 45.484 224.403 45.531 224.422 45.579 L 224.454 45.651 L 224.479 45.71 C 224.602 45.941 224.7 46.185 224.771 46.438 C 224.811 46.597 224.801 46.765 224.744 46.92 C 224.658 47.094 224.539 47.25 224.393 47.378 C 223.764 48.032 223.279 48.81 222.968 49.661 C 222.932 49.758 222.896 49.855 222.865 49.956 L 222.865 49.956 L 222.909 49.967 C 222.999 49.994 223.091 50.015 223.185 50.028 C 223.237 50.028 223.29 50.04 223.345 50.044 C 223.561 50.056 223.777 50.039 223.989 49.994 C 224.041 49.983 224.096 49.971 224.149 49.956 C 224.365 49.896 224.576 49.818 224.78 49.723 C 224.78 49.786 224.78 49.851 224.78 49.914 C 224.78 49.977 224.78 49.986 224.78 50.021 C 224.784 52.851 226.389 55.435 228.923 56.694 C 228.923 56.762 228.942 56.831 228.951 56.905 C 228.959 56.978 228.965 57.018 228.972 57.075 L 228.887 56.993 C 228.887 56.993 228.317 56.711 227.781 57.525 C 227.781 57.525 226.234 58.719 226.234 58.719 C 226.234 58.719 220.485 59.628 220.264 60.381 L 217.579 60.537 C 217.579 60.537 216.63 60.663 216.527 62.641 C 216.527 62.641 215.927 64.806 215.927 64.806 C 215.927 64.806 214.822 66.751 214.917 67.752 C 214.917 67.752 214.075 69.259 214.075 69.259 L 213.949 71.046 C 213.949 71.046 212.897 70.89 212.621 72.113 C 212.621 72.113 211.832 73.901 211.832 73.901 C 211.832 73.901 210.094 75.345 209.999 76.568 L 208.926 77.226 C 208.926 77.226 206.43 76.662 205.862 75.658 L 205.687 75.494 C 205.681 75.486 205.677 75.478 205.672 75.469 C 205.672 75.473 205.672 75.477 205.672 75.482 C 205.298 75.128 204.507 74.392 204.62 74.56 C 204.694 74.718 204.712 74.896 204.671 75.065 L 204.486 74.855 L 203.989 74.303 C 203.989 74.303 199.955 70.515 197.585 70.225 L 197.585 70.225 C 197.554 70.164 197.402 69.569 196.998 69.941 C 196.32 70.561 195.932 71.437 195.927 72.356 C 195.923 73.275 196.303 74.154 196.975 74.781 L 200.752 78.31 L 200.849 78.381 L 201.662 79.434 C 201.525 79.762 201.409 80.08 201.314 80.37 C 201.314 80.37 201.314 80.389 201.304 80.397 C 201.285 80.461 201.264 80.519 201.245 80.578 L 201.226 80.642 C 201.209 80.7 201.19 80.759 201.173 80.814 C 201.157 80.869 201.154 80.884 201.144 80.917 C 201.133 80.951 201.144 80.957 201.127 80.976 C 201.039 81.292 200.98 81.534 200.95 81.668 L 200.74 81.603 L 200.95 81.692 C 200.95 81.702 200.95 81.715 200.95 81.725 L 200.938 81.79 L 201.131 81.875 C 202.238 82.357 207.762 84.779 208.046 85.147 C 208.362 85.553 210.445 86.746 212.341 85.742 C 214.237 84.739 214.656 83.2 214.656 83.2 C 214.656 83.2 216.487 80.66 216.55 80.284 C 216.613 79.907 218.035 79.467 218.035 79.467 C 218.035 79.467 218.162 83.676 217.436 85.208 C 216.71 86.74 215.35 93.554 215.35 93.554 C 215.439 93.536 215.529 93.53 215.62 93.537 C 215.569 93.783 215.54 93.93 215.54 93.93 C 215.65 93.91 215.764 93.91 215.874 93.93 C 215.773 94.705 215.192 98.299 215.192 98.299 C 215.192 98.299 215.003 99.93 214.687 100.494 C 214.372 101.058 214.34 104.008 214.34 104.008 L 213.835 106.14 C 213.893 106.266 213.957 106.389 214.027 106.508 L 214.027 106.508 C 214.027 106.508 214.57 107.712 215.481 108.387 C 215.439 108.722 215.353 109.051 215.226 109.364 C 215.028 109.839 214.942 110.354 214.974 110.868 C 214.974 110.868 214.437 113.284 214.5 113.974 C 214.5 113.974 214.153 116.358 214.153 116.358 L 213.566 121.8 C 213.566 121.8 213.187 126.537 213.376 127.825 C 213.376 127.825 213.248 130.866 213.248 130.866 C 213.248 130.866 213.627 134.599 213.532 135.007 C 213.532 135.007 212.964 137.17 213.248 138.145 C 213.248 138.145 213.376 141.783 213.376 141.783 C 213.376 141.783 213.566 145.295 213.785 146.425 C 213.785 146.425 213.722 148.999 213.722 148.999 C 213.722 148.999 213.511 151.412 213.406 151.412 C 213.406 151.412 212.49 153.075 214.163 154.708 C 214.163 154.708 214.795 156.086 214.795 156.086 C 214.795 156.086 213.469 155.428 213.625 156.776 C 213.776 158.06 213.985 157.725 214.004 157.69 L 213.688 158.721 L 213.898 158.752 L 213.715 158.963 C 213.526 159.202 213.314 159.423 213.084 159.624 C 212.703 159.906 212.663 160.533 212.663 160.533 C 212.663 160.533 210.327 163.075 208.147 164.36 C 207 165.038 206.011 165.61 205.58 166.084 C 205.191 166.505 205.254 166.854 206.062 167.121 C 207.768 167.685 210.767 167.963 212.916 167.248 C 214.196 166.82 215.348 166.075 216.264 165.082 C 216.264 165.082 217.623 164.392 218.951 164.642 C 218.951 164.642 222.93 163.169 222.93 163.169 L 222.882 162.723 L 222.741 161.442 C 222.56 161.223 222.48 160.939 222.52 160.659 C 222.535 160.28 222.498 159.9 222.408 159.531 C 222.387 159.407 222.362 159.283 222.339 159.167 L 222.581 159.123 C 222.581 159.123 222.267 157.521 222.835 157.208 C 222.835 157.208 223.244 152.789 223.244 152.789 C 223.244 152.789 222.52 151.848 222.139 151.692 C 222.139 151.692 222.107 149.588 222.173 149.338 C 222.173 149.338 222.741 144.224 222.741 144.224 C 222.741 144.224 222.551 142.688 222.804 142.029 C 223.056 141.371 222.501 138.845 222.501 138.845 C 222.501 138.845 222.311 138.532 222.661 138.155 C 223.01 137.778 222.871 134.422 222.871 134.422 C 222.871 134.422 222.842 132.728 222.842 132.288 C 222.842 131.848 223.22 130.249 223.568 129.717 C 223.915 129.184 223.694 127.52 223.694 127.52 L 223.694 127.52 L 223.713 127.396 C 223.713 127.347 223.73 127.288 223.742 127.217 L 223.77 127.051 C 223.924 126.126 224.132 125.212 224.395 124.313 C 224.816 122.996 225.279 120.674 225.279 120.674 L 228.225 113.015 L 228.258 112.924 C 228.258 112.924 229.616 115.435 229.616 117.764 C 229.616 117.764 229.963 120.557 229.868 121.31 C 229.773 122.063 230.148 125.588 230.148 125.588 C 230.148 125.588 230.558 130.67 230.558 130.891 C 230.558 131.112 231.063 135.032 231.381 135.628 C 231.699 136.223 231.063 138.044 230.874 138.231 C 230.685 138.418 230.937 143.031 230.937 143.031 C 230.937 143.031 230.464 146.669 230.369 147.423 C 230.274 148.176 229.895 151.063 230.211 152.191 C 230.527 153.319 230.4 153.477 230.4 153.477 C 230.4 153.477 231.539 154.638 230.874 154.739 C 230.385 154.846 229.966 155.159 229.724 155.597 C 229.482 156.035 229.441 156.556 229.611 157.027 C 230.005 158.177 230.469 159.301 231.002 160.394 C 231.002 160.394 231.198 160.35 231.524 160.284 L 231.524 160.657 L 231.562 162.525 C 231.562 162.525 231.773 164.314 231.657 164.722 C 231.564 165.021 231.446 166.427 231.377 167.161 C 231.354 167.429 231.341 167.607 231.341 167.607 C 231.341 167.607 231.341 169.27 234.847 168.769 C 238.353 168.268 238.984 166.888 238.984 166.888 C 238.984 166.888 238.984 166.823 239.009 166.715 C 239.062 166.397 239.176 165.724 239.268 165.35 C 239.394 164.847 238.258 162.589 238.258 162.589 C 238.258 162.589 238.069 161.052 237.751 160.707 C 237.621 160.508 237.535 160.284 237.498 160.049 C 237.469 159.922 237.444 159.79 237.423 159.661 C 237.501 159.672 237.579 159.686 237.656 159.704 C 237.656 159.704 237.467 158.605 238.195 158.26 C 238.195 158.26 238.732 157.195 238.637 156.88 C 238.637 156.88 238.921 154.809 238.921 154.809 C 238.817 154.454 238.914 154.071 239.173 153.807 C 239.617 153.365 239.963 150.293 239.963 150.293 L 240.026 138.435 C 240.026 138.435 240.249 136.331 239.996 135.489 C 239.996 135.489 239.489 133.012 239.836 132.572 C 239.836 132.572 239.868 130.096 239.868 130.096 C 239.868 130.096 239.868 125.796 240.343 124.732 C 240.343 124.732 240.659 116.92 240.659 116.92 L 240.783 112.501 C 240.783 112.501 241.817 111.525 241.572 106.434 C 242.673 106.365 243.915 106.325 244.098 106.476 C 244.445 106.761 246.688 108.202 248.014 107.293 C 248.298 107.167 249.592 106.07 249.592 106.07 L 249.037 96.664 C 249.384 97.188 249.594 97.537 249.594 97.537 C 249.594 96.22 253.321 91.952 253.321 91.952 C 253.321 91.952 256.795 87.468 257.553 86.933 C 258.31 86.399 259.796 83.577 259.796 83.577 C 260.015 83.039 260.269 82.515 260.556 82.009 C 260.915 81.431 259.777 79.924 259.903 79.579 Z  M 251.751 82.87 C 250.804 82.965 248.805 85.13 248.782 85.606 C 248.767 85.854 248.557 86.186 248.361 86.447 C 248.346 86.258 248.329 86.064 248.315 85.869 C 248.092 83.097 247.85 79.72 247.959 79.392 C 248.151 78.828 248.085 76.288 248.085 76.288 L 248.085 76.288 L 248.119 76.239 C 248.75 78.207 250.735 80.528 250.735 80.528 C 250.735 80.528 251.082 81.532 251.492 81.563 C 251.903 81.595 251.751 82.87 251.751 82.87 Z " fill="url(#_lgradient_35)"/><path d=" M 201.108 82.157 C 201.108 82.157 202.259 76.117 205.965 76.086 L 208.673 81.658 L 206.868 82.904 C 206.868 82.904 202.945 83.028 201.108 82.157 Z " fill="rgb(101,97,125)"/><g opacity="0.1"><path d=" M 208.673 81.658 L 206.868 82.904 C 206.868 82.904 204.107 82.992 202.133 82.506 C 201.781 82.423 201.438 82.306 201.108 82.157 C 201.108 82.157 201.108 82.123 201.129 82.06 C 201.129 82.06 201.129 82.045 201.129 82.037 C 201.299 81.279 201.534 80.537 201.83 79.819 C 201.946 79.547 202.074 79.267 202.213 78.988 C 202.756 77.935 203.518 76.921 204.561 76.414 C 204.947 76.225 205.367 76.115 205.797 76.092 L 205.906 76.092 L 205.961 76.092 L 206.02 76.216 L 206.935 78.097 L 208.673 81.658 Z " fill="rgb(0,0,0)"/></g><path d=" M 239.43 106.75 C 239.43 106.75 243.323 106.378 243.664 106.657 C 243.664 106.657 246.217 108.368 247.526 107.466 C 247.526 107.466 247.961 103.419 247.961 103.295 C 247.961 103.295 247.837 98.718 247.837 98.718 L 245.501 95.574 L 242.576 90.065 L 236.6 89.471 L 236.756 98.221 L 236.724 102.703 L 239.43 106.75 Z " fill="rgb(101,97,125)"/><g opacity="0.1"><path d=" M 239.43 106.75 C 239.43 106.75 243.323 106.378 243.664 106.657 C 243.664 106.657 246.217 108.368 247.526 107.466 C 247.526 107.466 247.961 103.419 247.961 103.295 C 247.961 103.295 247.837 98.718 247.837 98.718 L 245.501 95.574 L 242.576 90.065 L 236.6 89.471 L 236.756 98.221 L 236.724 102.703 L 239.43 106.75 Z " fill="rgb(0,0,0)"/></g><path d=" M 205.186 75.926 C 205.186 75.926 204.875 79.724 202.51 79.785 C 202.51 79.785 201.838 79.381 200.936 78.708 C 198.856 77.153 195.559 74.162 196.47 71.38 C 197.777 67.397 204.128 74.747 204.128 74.747 L 204.614 75.294 L 205.186 75.926 Z " fill="rgb(251,190,190)"/><g opacity="0.1"><path d=" M 205.186 75.926 C 205.186 75.926 204.875 79.724 202.51 79.785 C 202.51 79.785 201.838 79.381 200.936 78.708 L 200.736 78.449 C 201.137 78.658 201.58 78.777 202.032 78.798 C 202.76 78.827 203.431 78.402 203.715 77.731 C 203.964 77.243 204.183 76.74 204.37 76.225 C 204.485 75.924 204.567 75.612 204.614 75.294 L 205.186 75.926 Z " fill="rgb(0,0,0)"/></g><path d=" M 204.159 82.811 L 203.627 82.125 L 201.834 79.81 L 200.921 78.63 C 201.322 78.84 201.765 78.96 202.217 78.979 C 202.813 78.994 203.48 78.769 203.901 77.914 C 204.149 77.425 204.368 76.921 204.555 76.405 C 204.85 75.564 204.845 75.143 204.74 74.989 C 204.635 74.836 205.401 75.553 205.769 75.903 L 205.782 75.915 L 205.954 76.077 L 206.018 76.203 L 206.92 78.007 C 206.92 78.007 206.92 78.032 206.92 78.083 C 207.009 78.661 207.314 82.296 204.159 82.811 Z " fill="rgb(231,239,253)"/><path d=" M 222.808 162.942 C 222.808 162.942 220.192 164.655 218.886 164.415 C 218.886 164.415 216.238 164.853 216.238 164.853 C 215.337 165.837 214.201 166.576 212.937 167.001 C 210.832 167.717 207.865 167.435 206.184 166.875 C 205.388 166.61 205.323 166.269 205.706 165.846 C 206.127 165.375 207.108 164.809 208.231 164.135 C 210.38 162.86 212.682 160.348 212.682 160.348 C 212.682 160.348 212.714 159.716 213.088 159.447 C 213.319 159.248 213.53 159.028 213.719 158.79 C 214.054 158.395 214.368 157.982 214.368 157.982 L 222.061 158.205 C 222.061 158.205 222.191 158.759 222.295 159.325 C 222.382 159.692 222.419 160.069 222.402 160.446 C 222.362 160.723 222.438 161.004 222.612 161.223 L 222.751 162.486 L 222.808 162.942 Z " fill="rgb(101,97,125)"/><path d=" M 238.902 165.091 C 238.809 165.463 238.692 166.13 238.647 166.444 L 238.62 166.616 C 238.62 166.616 237.989 167.986 234.544 168.485 C 234.544 168.485 231.089 167.332 231.089 167.332 C 231.089 167.332 231.101 167.155 231.122 166.888 C 231.183 166.16 231.307 164.765 231.4 164.468 C 231.522 164.064 231.305 162.288 231.305 162.288 L 231.27 160.434 L 231.242 159.146 L 236.972 158.553 C 237.008 158.981 237.069 159.407 237.158 159.828 C 237.193 160.061 237.278 160.285 237.408 160.482 C 237.719 160.825 237.905 162.351 237.905 162.351 C 237.905 162.351 239.026 164.592 238.902 165.091 Z " fill="rgb(101,97,125)"/><g opacity="0.1"><path d=" M 222.061 158.205 C 222.061 158.205 222.191 158.759 222.295 159.325 C 221.463 159.478 217.831 160.108 216.924 159.668 C 215.895 159.169 213.686 158.889 213.686 158.889 L 213.722 158.763 C 214.056 158.367 214.37 157.955 214.37 157.955 L 222.061 158.205 Z " fill="rgb(0,0,0)"/></g><g opacity="0.1"><path d=" M 237.158 159.828 C 235.706 159.582 232.528 160.177 231.265 160.434 L 231.238 159.146 L 236.968 158.553 C 237.005 158.981 237.068 159.407 237.158 159.828 Z " fill="rgb(0,0,0)"/></g><path d=" M 240.388 112.634 L 240.264 117.023 C 240.264 117.023 240.419 123.717 239.952 124.776 C 239.952 124.776 239.485 130.1 239.485 130.1 C 239.485 130.1 239.796 132.122 239.453 132.558 C 239.453 132.558 239.361 134.611 239.609 135.453 C 239.609 135.453 239.641 138.38 239.641 138.38 L 239.578 150.148 C 239.578 150.148 239.237 153.197 238.799 153.635 C 238.543 153.898 238.448 154.278 238.551 154.63 C 238.551 154.63 238.178 156.372 238.271 156.686 C 238.271 156.686 238.551 157.713 237.835 158.054 C 237.835 158.054 237.305 159.487 237.305 159.487 C 235.594 159.081 230.737 160.173 230.737 160.173 C 230.212 159.091 229.755 157.978 229.367 156.84 C 229.198 156.373 229.238 155.857 229.476 155.422 C 229.715 154.988 230.129 154.677 230.613 154.569 C 231.265 154.474 230.146 153.323 230.146 153.323 C 230.146 153.323 230.27 153.168 229.959 152.048 C 229.647 150.928 230.02 148.05 230.114 147.313 C 230.209 146.577 230.674 142.955 230.674 142.955 C 230.674 142.955 230.426 138.38 230.613 138.193 C 230.8 138.006 231.421 136.2 231.112 135.609 C 230.802 135.018 230.299 131.127 230.299 130.908 C 230.299 130.689 229.898 125.647 229.898 125.647 C 229.898 125.647 229.523 122.129 229.618 121.381 C 229.712 120.634 229.367 117.865 229.367 117.865 C 229.367 115.55 228.029 113.069 228.029 113.069 L 227.995 113.16 L 225.11 120.761 C 225.11 120.761 224.643 123.063 224.239 124.37 C 223.983 125.258 223.78 126.161 223.631 127.074 L 223.603 127.24 C 223.603 127.309 223.582 127.368 223.576 127.415 L 223.557 127.541 L 223.557 127.541 C 223.557 127.541 223.768 129.191 223.431 129.721 C 223.431 129.721 222.715 131.838 222.715 132.274 C 222.715 132.274 222.747 134.391 222.747 134.391 C 222.747 134.391 222.871 137.722 222.537 138.096 C 222.537 138.096 222.379 138.78 222.379 138.78 C 222.379 138.78 222.939 141.305 222.69 141.956 C 222.69 141.956 222.629 144.134 222.629 144.134 C 222.629 144.134 222.13 148.961 222.069 149.209 C 222.069 149.209 221.663 151.389 222.038 151.545 C 222.038 151.545 223.126 152.633 223.126 152.633 C 223.126 152.633 223.284 156.713 222.722 157.023 C 222.722 157.023 222.471 158.917 222.471 158.917 C 222.471 158.917 217.96 159.788 216.933 159.289 C 216.933 159.289 213.694 158.51 213.694 158.51 L 214.004 157.488 C 213.985 157.523 213.778 157.856 213.631 156.581 C 213.477 155.242 214.784 155.895 214.784 155.895 C 214.784 155.895 215.811 156.145 214.153 154.527 C 212.495 152.909 213.311 151.257 213.406 151.257 C 213.501 151.257 213.719 148.862 213.719 148.862 C 213.719 148.862 213.999 147.429 213.78 146.307 C 213.562 145.186 213.376 141.699 213.376 141.699 C 213.376 141.699 213.532 139.054 213.252 138.09 C 212.972 137.126 213.437 135.38 213.532 134.976 C 213.627 134.571 213.242 130.876 213.242 130.876 C 213.242 130.876 213.553 129.134 213.366 127.859 C 213.179 126.583 213.553 121.88 213.553 121.88 L 214.113 116.464 C 214.113 116.464 214.517 114.78 214.456 114.096 C 214.395 113.412 214.925 111.016 214.925 111.016 C 214.893 110.505 214.978 109.994 215.174 109.521 C 215.485 108.89 215.609 106.845 215.609 106.845 L 218.599 99.995 L 220.072 93.956 L 239.838 93.768 C 239.838 93.768 239.912 94.292 240.032 95.241 C 240.032 95.241 240.32 97.6 240.508 99.341 C 240.68 100.921 240.87 102.779 241.053 104.848 C 241.65 111.451 240.388 112.634 240.388 112.634 Z " fill="rgb(63,61,86)"/><path d=" M 238.559 58.123 L 233.951 63.043 C 233.951 63.043 228.037 60.676 228.66 59.868 C 228.9 59.554 228.871 58.565 228.723 57.475 C 228.513 55.749 228.037 53.765 228.037 53.765 C 228.037 53.765 238.372 52.081 237.507 53.826 C 237.189 54.457 237.244 55.206 237.442 55.895 C 237.692 56.693 238.069 57.445 238.559 58.123 L 238.559 58.123 Z " fill="rgb(251,190,190)"/><g opacity="0.1"><path d=" M 237.501 53.83 C 237.183 54.461 237.031 54.529 237.229 55.217 C 235.878 56.663 234.159 58.249 232.021 58.249 C 230.877 58.251 229.748 57.987 228.723 57.477 C 228.513 55.751 228.037 53.767 228.037 53.767 C 228.037 53.767 238.372 52.084 237.501 53.83 Z " fill="rgb(0,0,0)"/></g><path d=" M 239.432 50.651 C 239.364 54.695 236.066 57.937 232.022 57.937 C 227.977 57.937 224.68 54.695 224.611 50.651 C 224.611 50.615 224.611 50.579 224.611 50.545 C 224.641 46.453 227.981 43.159 232.073 43.189 C 236.166 43.218 239.459 46.558 239.43 50.651 L 239.432 50.651 Z " fill="rgb(251,190,190)"/><g opacity="0.1"><path d=" M 240.503 99.532 C 239.523 99.532 236.255 99.568 232.602 99.625 L 232.557 99.625 L 231.352 99.646 L 231.314 99.646 C 226.983 99.715 222.713 98.869 221.003 99.029 C 217.362 99.37 222.311 95.662 222.311 95.662 C 225.026 96.322 227.818 96.605 230.609 96.504 L 231.661 96.449 C 234.969 96.262 238.296 95.951 240.034 95.429 C 240.15 96.392 240.316 97.792 240.503 99.532 Z " fill="rgb(0,0,0)"/></g><path d=" M 240.503 99.345 C 239.523 99.345 236.255 99.381 232.602 99.437 L 232.557 99.437 L 231.352 99.459 L 231.314 99.459 C 226.983 99.528 222.713 98.682 221.003 98.842 C 217.362 99.185 222.311 95.475 222.311 95.475 C 225.026 96.135 227.818 96.418 230.609 96.317 L 231.661 96.262 C 234.969 96.075 238.296 95.763 240.034 95.244 C 240.15 96.207 240.316 97.6 240.503 99.345 Z " fill="rgb(95,93,126)"/><g opacity="0.1"><path d=" M 230.03 60.177 L 224.302 62.856 L 219.883 97.036 C 219.883 97.036 222.497 95.854 223.993 96.601 C 223.993 96.601 230.095 96.664 230.095 96.664 C 230.095 96.664 233.462 96.477 233.957 96.851 C 234.451 97.226 240.304 95.286 240.304 95.286 C 240.304 95.286 241.356 92.92 240.552 92.55 C 239.748 92.18 240.809 88.508 240.809 88.508 L 240.304 63.851 L 239.306 60.676 L 236.629 59.057 L 233.894 61.235 L 232.587 61.423 L 230.03 60.177 Z " fill="rgb(0,0,0)"/></g><path d=" M 230.03 59.804 L 224.302 62.481 L 219.883 96.664 C 219.883 96.664 222.497 95.481 223.993 96.228 C 223.993 96.228 230.095 96.289 230.095 96.289 C 230.095 96.289 233.462 96.104 233.957 96.477 C 233.957 96.477 240.308 94.919 240.308 94.919 C 240.308 94.919 241.36 92.554 240.556 92.184 C 239.752 91.813 240.809 88.131 240.809 88.131 L 240.304 63.476 L 239.306 60.303 L 236.629 58.683 L 233.894 60.863 L 232.587 61.05 L 230.03 59.804 Z " fill="rgb(231,239,253)"/><g opacity="0.1"><path d=" M 229.935 61.391 C 229.935 61.391 231.585 63.352 231.556 63.758 C 231.556 63.758 231.461 65.128 231.461 65.128 L 230.215 67.654 C 230.215 67.654 229.531 70.797 229.531 71.452 C 229.531 71.452 228.441 77.765 228.441 77.765 L 227.13 86.483 L 225.481 97.91 L 227.164 100.803 L 229.155 99.12 L 231.802 78.758 L 232.362 74.743 C 232.362 74.743 232.953 67.521 232.953 66.774 C 232.953 66.774 232.612 64.066 232.612 64.066 C 232.612 64.066 233.016 62.197 234.698 61.751 C 234.698 61.751 234.573 61.656 234.573 61.656 L 233.608 60.88 L 232.766 61.221 C 232.766 61.221 230.434 60.52 229.935 61.391 Z " fill="rgb(0,0,0)"/></g><path d=" M 229.748 61.206 C 229.748 61.206 231.4 63.167 231.368 63.571 C 231.368 63.571 231.274 64.941 231.274 64.941 L 230.03 67.466 C 230.03 67.466 229.344 70.61 229.344 71.265 C 229.344 71.265 228.254 77.578 228.254 77.578 L 226.947 86.294 L 225.297 97.72 L 226.981 100.616 L 228.974 98.932 L 231.619 78.573 L 232.181 74.56 C 232.181 74.56 232.772 67.338 232.772 66.591 C 232.772 66.591 232.431 63.883 232.431 63.883 C 232.431 63.883 232.835 62.014 234.517 61.578 C 234.517 61.578 234.392 61.486 234.392 61.486 L 233.427 60.707 L 232.585 61.05 C 232.585 61.05 230.247 60.333 229.748 61.206 Z " fill="rgb(136,211,75)"/><g opacity="0.1"><path d=" M 228.66 57.936 C 228.66 57.936 228.41 58.123 228.349 59.369 C 228.349 59.369 227.414 63.415 227.414 63.415 C 227.414 63.415 230.653 61.174 232.271 61.423 L 228.66 57.936 Z " fill="rgb(0,0,0)"/></g><path d=" M 228.66 57.563 C 228.66 57.563 228.41 57.748 228.349 58.994 C 228.349 58.994 227.414 63.041 227.414 63.041 C 227.414 63.041 230.653 60.8 232.271 61.05 L 228.66 57.563 Z " fill="rgb(231,239,253)"/><g opacity="0.1"><path d=" M 237.501 56.94 L 232.391 61.423 C 232.391 61.423 236.688 63.975 237.248 64.598 C 237.248 64.598 238.368 58.495 238.368 58.495 L 237.501 56.94 Z " fill="rgb(0,0,0)"/></g><path d=" M 237.688 56.566 L 232.583 61.05 C 232.583 61.05 236.878 63.603 237.442 64.226 C 238.006 64.848 238.561 58.123 238.561 58.123 L 237.688 56.566 Z " fill="rgb(231,239,253)"/><g opacity="0.1"><path d=" M 228.845 57.936 C 228.845 57.936 228.286 57.656 227.757 58.466 C 227.368 58.994 226.84 59.404 226.232 59.649 C 226.232 59.649 220.565 60.551 220.34 61.298 L 217.692 61.454 C 217.692 61.454 216.758 61.578 216.665 63.54 C 216.665 63.54 216.074 65.688 216.074 65.688 C 216.074 65.688 214.984 67.618 215.079 68.613 C 215.079 68.613 214.237 70.109 214.237 70.109 L 218.128 80.227 C 218.128 80.227 218.254 84.398 217.537 85.923 C 217.537 85.923 215.483 94.204 215.483 94.204 C 215.483 94.204 216.043 94.08 216.011 94.452 C 215.979 94.825 215.346 98.905 215.346 98.905 C 215.346 98.905 215.159 100.523 214.847 101.085 C 214.536 101.647 214.504 104.57 214.504 104.57 L 214.008 106.687 C 214.008 106.687 215.19 109.334 216.996 108.96 C 216.996 108.96 222.069 101.521 222.069 101.521 L 224.157 93.893 L 225.775 86.359 L 226.242 81.254 L 226.989 69.954 L 228.079 62.481 C 228.079 62.481 229.283 58.46 228.845 57.936 Z " fill="rgb(0,0,0)"/></g><path d=" M 228.66 57.563 C 228.66 57.563 228.098 57.283 227.57 58.091 C 227.182 58.62 226.653 59.03 226.045 59.274 C 226.045 59.274 220.38 60.177 220.152 60.924 L 217.505 61.08 C 217.505 61.08 216.573 61.206 216.478 63.167 C 216.478 63.167 215.887 65.314 215.887 65.314 C 215.887 65.314 214.797 67.245 214.892 68.241 C 214.892 68.241 214.05 69.735 214.05 69.735 L 217.943 79.852 C 217.943 79.852 218.067 84.023 217.352 85.549 C 217.352 85.549 215.296 93.832 215.296 93.832 C 215.296 93.832 215.855 93.705 215.826 94.08 C 215.826 94.08 215.14 98.53 215.14 98.53 C 215.14 98.53 214.953 100.151 214.641 100.711 C 214.641 100.711 214.3 104.197 214.3 104.197 L 213.801 106.314 C 213.801 106.314 214.984 108.96 216.79 108.587 C 218.595 108.215 221.87 101.146 221.87 101.146 L 223.955 93.52 L 225.573 85.987 L 226.04 80.879 L 226.787 69.579 L 227.877 62.109 C 227.877 62.109 229.096 58.091 228.66 57.563 Z " fill="rgb(101,97,125)"/><g opacity="0.1"><path d=" M 208.673 81.658 L 206.868 82.904 C 206.868 82.904 204.107 82.992 202.133 82.506 L 201.129 82.06 L 200.919 81.971 L 201.129 82.037 C 202.171 82.346 202.985 82.34 203.623 82.125 C 206.177 81.264 205.895 77.045 205.797 76.092 C 205.797 75.995 205.78 75.934 205.776 75.911 C 205.775 75.907 205.775 75.903 205.776 75.898 L 205.79 75.924 C 205.826 75.981 205.865 76.036 205.908 76.088 C 205.944 76.128 205.982 76.17 206.022 76.21 L 206.022 76.21 L 206.925 78.013 C 206.925 78.013 206.925 78.038 206.925 78.089 L 208.673 81.658 Z " fill="rgb(0,0,0)"/></g><path d=" M 214.925 69.486 L 214.052 69.735 L 213.928 71.509 C 213.928 71.509 212.901 71.353 212.621 72.561 C 212.621 72.561 211.842 74.337 211.842 74.337 C 211.842 74.337 210.129 75.768 210.037 76.982 L 208.985 77.637 C 208.985 77.637 206.525 77.075 205.965 76.079 C 205.965 76.079 207.087 84.112 201.108 82.15 C 201.108 82.15 207.802 85.075 208.113 85.482 C 208.425 85.888 210.479 87.068 212.347 86.073 C 214.216 85.077 214.62 83.548 214.62 83.548 C 214.62 83.548 216.426 81.022 216.487 80.652 C 216.548 80.282 217.96 79.842 217.96 79.842 L 220.636 73.367 L 214.925 69.486 Z " fill="rgb(101,97,125)"/><g opacity="0.1"><path d=" M 236.785 60.676 L 237.688 56.566 C 237.688 56.566 238.092 57.904 238.498 58.216 L 239.836 59.245 C 239.836 59.245 241.175 59.865 241.642 59.865 C 241.642 59.865 244.63 60.52 244.941 60.863 C 244.941 60.863 246.499 60.955 246.499 60.955 C 246.499 60.955 247.526 61.298 248.428 61.515 C 248.428 61.515 249.767 63.228 249.579 63.83 C 249.425 64.429 249.59 65.065 250.015 65.513 C 250.39 65.888 250.577 67.102 250.577 67.102 C 251.033 67.253 251.411 67.577 251.629 68.005 C 251.94 68.689 251.839 70.183 251.839 70.183 L 247.21 76.721 C 247.21 76.721 247.271 79.246 247.086 79.804 C 247.086 79.804 247.738 89.89 247.738 89.89 L 248.704 106.264 C 248.704 106.264 247.427 107.354 247.147 107.478 C 247.147 107.478 246.587 101.689 246.587 101.47 C 246.587 101.47 239.397 90.698 239.397 90.698 C 239.397 90.698 238.431 89.143 238.431 88.804 C 238.431 88.804 237.528 85.317 237.528 85.317 L 236.158 79.246 L 236.785 60.676 Z " fill="rgb(0,0,0)"/></g><path d=" M 252.237 69.823 C 252.237 70.034 252.237 70.181 252.237 70.181 L 247.608 76.704 L 247.608 76.704 C 247.608 76.704 247.671 79.23 247.486 79.785 C 247.376 80.111 247.614 83.461 247.835 86.214 C 247.991 88.198 248.138 89.871 248.138 89.871 L 248.548 96.815 L 249.102 106.243 C 249.102 106.243 247.827 107.333 247.547 107.457 C 247.547 107.457 246.987 101.668 246.987 101.449 C 246.987 101.449 239.794 90.679 239.794 90.679 C 239.794 90.679 238.828 89.12 238.828 88.785 C 238.828 88.785 237.926 85.298 237.926 85.298 L 236.558 79.227 L 237.179 60.673 L 237.688 56.566 C 237.688 56.566 238.466 57.906 238.87 58.216 L 240.209 59.243 C 240.209 59.243 241.547 59.874 242.014 59.874 C 242.014 59.874 245.005 60.526 245.316 60.869 C 245.316 60.869 246.871 60.962 246.871 60.962 C 246.871 60.962 247.898 61.305 248.801 61.522 C 248.801 61.522 250.141 63.234 249.954 63.836 C 249.799 64.435 249.963 65.071 250.39 65.52 C 250.762 65.892 250.949 67.106 250.949 67.106 C 251.405 67.258 251.783 67.583 252.002 68.011 C 252.225 68.464 252.246 69.329 252.237 69.823 Z " fill="rgb(101,97,125)"/><g opacity="0.1"><path d=" M 214.184 152.763 C 214.338 152.763 220.876 153.012 220.752 154.07 C 220.628 155.129 214.184 152.763 214.184 152.763 Z " fill="rgb(0,0,0)"/></g><g opacity="0.1"><path d=" M 215.647 154.537 C 215.647 154.537 220.037 155.253 218.883 155.907 C 217.73 156.562 215.647 154.537 215.647 154.537 Z " fill="rgb(0,0,0)"/></g><g opacity="0.1"><path d=" M 231.97 152.077 C 231.97 152.077 239.256 152.709 238.165 153.511 C 238.165 153.511 234.491 154.443 234.378 154.474 C 234.264 154.506 231.97 152.077 231.97 152.077 Z " fill="rgb(0,0,0)"/></g><g opacity="0.1"><path d=" M 231.089 155.284 C 231.089 155.284 235.135 155.968 235.259 156.758 C 235.384 157.547 231.089 155.284 231.089 155.284 Z " fill="rgb(0,0,0)"/></g><g opacity="0.1"><path d=" M 233.33 136.543 C 233.33 136.543 237.033 137.414 237.252 138.016 L 233.33 136.543 Z " fill="rgb(0,0,0)"/></g><g opacity="0.1"><path d=" M 219.039 139.22 C 219.039 139.22 217.11 139.78 218.978 140.903 C 220.847 142.027 219.039 139.22 219.039 139.22 Z " fill="rgb(0,0,0)"/></g><g opacity="0.1"><path d=" M 227.602 109.303 C 227.812 109.303 231.213 108.183 232.395 108.671 C 233.242 108.989 234.137 109.159 235.041 109.174 L 227.602 109.303 Z " fill="rgb(0,0,0)"/></g><g opacity="0.1"><path d=" M 228.037 112.851 L 228.004 113.16 L 225.11 120.761 C 225.11 120.761 224.643 123.063 224.239 124.37 C 223.983 125.258 223.78 126.161 223.631 127.074 L 226.2 111.14 L 228.037 112.851 Z " fill="rgb(0,0,0)"/></g><path d=" M 232.557 99.437 L 231.352 99.459 L 231.314 99.459 L 230.607 96.321 L 231.659 96.264 L 232.557 99.437 Z " fill="rgb(63,61,86)"/><path d=" M 247.246 95.637 L 246.469 96.268 L 243.883 98.4 C 243.883 98.4 236.878 102.137 234.948 98.587 C 233.248 95.46 241.189 93.228 243.102 92.741 C 243.361 92.676 243.508 92.643 243.508 92.643 L 247.246 95.637 Z " fill="rgb(251,190,190)"/><g opacity="0.1"><path d=" M 217.328 65.034 C 217.328 65.034 218.698 65.665 219.012 66.528 C 219.325 67.391 217.328 65.034 217.328 65.034 Z " fill="rgb(0,0,0)"/></g><g opacity="0.1"><path d=" M 213.094 74.373 C 213.094 74.373 211.102 76.801 211.912 77.74 C 212.722 78.678 213.094 74.373 213.094 74.373 Z " fill="rgb(0,0,0)"/></g><g opacity="0.1"><path d=" M 248.708 66.404 C 248.708 66.404 246.84 66.591 246.779 68.209 L 248.708 66.404 Z " fill="rgb(0,0,0)"/></g><g opacity="0.1"><path d=" M 231.4 91.931 C 231.585 91.744 235.882 85.393 236.871 85.955 L 231.4 91.931 Z " fill="rgb(0,0,0)"/></g><g opacity="0.1"><path d=" M 239.432 50.651 C 239.434 51.871 239.133 53.073 238.555 54.148 L 238.5 54.137 C 238.031 54.038 237.787 53.491 237.427 53.15 C 236.974 52.719 236.297 52.624 235.743 52.915 C 235.188 53.248 234.869 53.866 234.919 54.512 C 234.681 53.515 234.756 52.456 234.525 51.456 C 234.294 50.457 233.597 49.447 232.642 49.43 C 232.221 49.43 231.751 49.579 231.453 49.272 C 231.274 49.087 231.242 48.794 231.103 48.567 C 230.422 47.465 228.345 48.022 227.497 48.588 C 226.648 49.154 225.666 50.061 224.611 50.545 C 224.641 46.453 227.981 43.159 232.073 43.189 C 236.166 43.218 239.459 46.558 239.43 50.651 L 239.432 50.651 Z " fill="rgb(0,0,0)"/></g><path d=" M 231.105 48.382 C 231.24 48.607 231.276 48.9 231.455 49.085 C 231.751 49.394 232.233 49.234 232.644 49.243 C 233.599 49.26 234.296 50.27 234.527 51.269 C 234.759 52.269 234.683 53.327 234.921 54.325 C 234.871 53.678 235.191 53.06 235.748 52.727 C 236.301 52.437 236.978 52.532 237.431 52.963 C 237.791 53.304 238.035 53.851 238.504 53.95 C 238.974 54.049 239.426 53.599 239.596 53.108 C 239.767 52.618 239.754 52.071 239.866 51.557 C 240.076 50.587 240.708 49.79 241.061 48.866 C 241.478 47.743 241.467 46.505 241.03 45.39 C 240.796 44.805 240.449 44.279 240.211 43.696 C 239.853 42.808 239.761 41.802 239.323 40.96 C 238.591 39.544 236.865 38.837 235.445 39.369 C 234.769 39.622 234.182 40.114 233.494 40.335 C 232.574 40.632 231.589 40.409 230.638 40.276 C 229.687 40.144 228.633 40.131 227.867 40.756 C 226.985 41.478 226.745 42.833 225.916 43.624 C 225.569 43.957 225.138 44.169 224.771 44.466 C 224.405 44.763 224.087 45.23 224.14 45.728 C 224.195 46.372 224.826 46.957 224.593 47.555 C 224.508 47.728 224.391 47.883 224.247 48.012 C 223.554 48.738 223.038 49.616 222.741 50.575 C 224.405 51.097 226.209 49.26 227.513 48.39 C 228.349 47.837 230.424 47.277 231.105 48.382 Z " fill="rgb(124,92,92)"/><g opacity="0.1"><path d=" M 247.246 95.637 L 246.469 96.268 C 245.785 95.132 242.98 92.859 242.98 92.859 L 243.102 92.741 C 243.361 92.676 243.508 92.643 243.508 92.643 L 247.246 95.637 Z " fill="rgb(0,0,0)"/></g><path d=" M 247.993 94.484 C 247.993 94.484 247.713 95.178 247.427 95.776 C 247.427 95.776 246.825 96.921 246.81 96.477 C 246.779 95.605 243.168 92.678 243.168 92.678 L 243.658 92.203 L 244.224 91.651 L 247.993 94.484 Z " fill="rgb(231,239,253)"/><g opacity="0.1"><path d=" M 248.117 89.875 L 248.527 96.82 C 247.559 95.315 244.904 91.46 243.197 91.584 L 247.332 86.826 C 247.504 86.635 247.663 86.431 247.808 86.218 C 247.963 88.202 248.117 89.875 248.117 89.875 Z " fill="rgb(0,0,0)"/></g><g opacity="0.1"><path d=" M 247.993 94.484 C 247.993 94.484 247.713 95.178 247.427 95.776 C 246.341 94.288 244.849 92.531 243.658 92.199 L 244.224 91.647 L 247.993 94.484 Z " fill="rgb(0,0,0)"/></g><path d=" M 251.105 69.299 L 252.227 70.17 C 252.227 70.17 254.093 70.202 254.281 71.759 C 254.281 71.759 256.174 74.032 256.174 74.032 C 256.174 74.032 257.45 75.307 257.45 75.898 C 257.45 75.898 258.416 77.548 258.416 77.643 C 258.416 77.643 259.35 79.636 259.224 79.977 C 259.224 79.977 260.221 81.814 259.878 82.373 C 259.597 82.876 259.347 83.396 259.131 83.931 C 259.131 83.931 257.668 86.734 256.921 87.262 C 256.921 87.262 252.749 92.243 252.749 92.243 C 252.749 92.243 249.076 96.477 249.076 97.783 C 249.076 97.783 245.499 91.807 243.378 91.963 L 247.519 87.199 C 247.519 87.199 248.235 86.422 248.266 85.955 C 248.266 85.955 250.259 83.339 251.193 83.247 C 251.193 83.247 251.347 81.969 250.943 81.938 C 250.539 81.906 250.196 80.911 250.196 80.911 C 250.196 80.911 247.46 77.674 247.425 75.618 C 247.389 73.563 251.105 69.299 251.105 69.299 Z " fill="rgb(101,97,125)"/><g opacity="0.1"><path d=" M 252.755 72.256 C 252.755 72.256 250.141 74.188 250.701 74.808 C 251.261 75.429 252.755 72.256 252.755 72.256 Z " fill="rgb(0,0,0)"/></g><g opacity="0.1"><path d=" M 252.879 80.227 C 252.879 80.227 257.736 78.67 258.235 80.227 L 252.879 80.227 Z " fill="rgb(0,0,0)"/></g><g opacity="0.1"><path d=" M 222.808 162.942 C 222.808 162.942 220.192 164.655 218.886 164.415 C 218.886 164.415 216.238 164.853 216.238 164.853 C 215.337 165.837 214.201 166.576 212.937 167.001 C 210.832 167.717 207.865 167.435 206.184 166.875 C 205.388 166.61 205.323 166.269 205.706 165.846 C 207.535 166.21 211.619 166.936 212.72 166.408 C 214.151 165.722 216.207 164.228 216.207 164.228 C 216.207 164.228 218.886 163.855 219.258 163.855 C 219.523 163.855 221.592 163.001 222.76 162.513 L 222.808 162.942 Z " fill="rgb(0,0,0)"/></g><g opacity="0.1"><path d=" M 238.647 166.444 L 238.62 166.616 C 238.62 166.616 237.989 167.986 234.544 168.485 C 234.544 168.485 231.089 167.332 231.089 167.332 C 231.089 167.332 231.101 167.155 231.122 166.888 C 232.217 167.302 234.603 167.765 238.647 166.444 Z " fill="rgb(0,0,0)"/></g><g opacity="0.1"><path d=" M 218.62 71.883 C 218.62 71.883 218.62 78.981 218.012 79.682 C 217.404 80.383 218.62 71.883 218.62 71.883 Z " fill="rgb(0,0,0)"/></g><g opacity="0.1"><line x1="246.684" y1="74.171" x2="247.587" y2="76.709"/></g><g style="opacity:0.1;"><g opacity="0.1"><path d=" M 224.672 46.96 C 224.9 46.375 224.302 45.802 224.224 45.175 C 224.145 45.352 224.111 45.546 224.125 45.739 C 224.165 46.21 224.513 46.65 224.605 47.088 C 224.631 47.047 224.654 47.004 224.672 46.96 L 224.672 46.96 Z " fill="rgb(0,0,0)"/></g><g opacity="0.1"><path d=" M 235.005 53.664 C 234.782 52.683 234.847 51.644 234.62 50.661 C 234.392 49.678 233.692 48.651 232.738 48.635 C 232.318 48.635 231.846 48.786 231.549 48.479 C 231.368 48.294 231.339 47.999 231.198 47.774 C 230.516 46.669 228.441 47.229 227.591 47.795 C 226.329 48.637 224.569 50.411 222.936 50.011 C 222.859 50.198 222.787 50.39 222.726 50.585 C 224.391 51.107 226.194 49.27 227.499 48.401 C 228.34 47.837 230.424 47.277 231.105 48.382 C 231.24 48.607 231.276 48.9 231.455 49.085 C 231.751 49.394 232.233 49.234 232.644 49.243 C 233.599 49.26 234.296 50.27 234.527 51.269 C 234.759 52.269 234.683 53.327 234.921 54.325 C 234.905 54.101 234.934 53.877 235.005 53.664 Z " fill="rgb(0,0,0)"/></g><g opacity="0.1"><path d=" M 239.685 52.498 C 239.516 52.991 239.072 53.445 238.593 53.34 C 238.113 53.235 237.879 52.694 237.522 52.351 C 237.066 51.924 236.392 51.831 235.838 52.117 C 235.31 52.432 234.993 53.009 235.011 53.624 C 235.137 53.244 235.399 52.923 235.746 52.723 C 236.299 52.433 236.976 52.528 237.429 52.959 C 237.789 53.3 238.033 53.847 238.502 53.946 C 238.971 54.045 239.424 53.594 239.594 53.104 C 239.683 52.813 239.74 52.513 239.765 52.21 C 239.744 52.308 239.718 52.404 239.685 52.498 L 239.685 52.498 Z " fill="rgb(0,0,0)"/></g><g opacity="0.1"><path d=" M 241.149 48.256 C 240.8 49.18 240.165 49.975 239.954 50.947 C 239.912 51.143 239.887 51.343 239.864 51.545 C 240.074 50.577 240.705 49.784 241.057 48.862 C 241.212 48.447 241.309 48.013 241.345 47.572 C 241.297 47.804 241.232 48.033 241.149 48.256 Z " fill="rgb(0,0,0)"/></g></g><circle vector-effect="non-scaling-stroke" cx="196.16082658676845" cy="70.72168280579798" r="0.07575613308696916" fill="rgb(230,232,236)"/><g opacity="0.1"><ellipse vector-effect="non-scaling-stroke" cx="223.0416278104585" cy="166.72364246024947" rx="18.168845918689527" ry="1.8539209236003558" fill="rgb(136,211,75)"/></g><path d=" M 156.231 45.116 L 101.201 80.818 L 137.113 145.59 C 137.452 146.202 138.032 146.645 138.712 146.81 L 171.252 154.748 C 172.401 155.026 173.588 154.464 174.101 153.399 L 190.241 119.866 L 207.93 96.22 L 165.953 46.558 C 163.536 43.7 159.373 43.083 156.231 45.116 L 156.231 45.116 Z " fill="rgb(220,223,237)"/><g opacity="0.1"><path d=" M 208.49 96.5 L 208.334 96.71 L 197.973 110.563 L 197.785 110.814 L 190.801 120.15 L 176.997 148.835 L 176.609 149.636 L 174.661 153.683 C 174.147 154.75 172.958 155.312 171.807 155.032 L 139.268 147.09 C 138.588 146.925 138.008 146.482 137.669 145.87 L 134.54 140.236 L 133.978 139.222 L 111.392 98.469 L 111.198 98.122 L 101.758 81.098 L 102.899 80.357 L 111.545 74.749 L 111.745 74.619 L 129.954 62.805 L 131.103 62.06 L 156.787 45.396 C 159.929 43.358 164.096 43.975 166.513 46.835 L 185.662 69.499 L 186.504 70.509 L 200.403 86.952 L 200.479 87.043 L 207.467 95.309 L 208.347 96.35 L 208.49 96.5 Z " fill="rgb(0,0,0)"/></g><g opacity="0.1"><path d=" M 199.94 86.763 L 198.244 98.547 L 197.733 102.104 L 197.44 109.679 L 197.417 110.271 L 195.896 149.853 C 195.866 150.597 195.508 151.289 194.919 151.742 C 194.329 152.196 193.569 152.365 192.842 152.204 L 176.441 148.542 L 176.264 148.502 L 134.201 139.115 L 133.428 138.942 L 110.304 133.778 L 110.834 98.19 L 110.851 97.001 L 111.011 86.229 L 111.188 74.339 L 129.397 62.525 L 130.545 61.78 C 147.435 63.512 169.897 66.843 185.113 69.219 L 185.955 70.229 L 199.843 86.673 L 199.94 86.763 Z " fill="rgb(0,0,0)"/></g><path d=" M 201.861 72.79 L 199.864 86.679 L 198.034 99.397 L 197.522 102.945 L 197.23 110.521 L 195.685 150.695 C 195.656 151.438 195.298 152.13 194.708 152.584 C 194.119 153.038 193.358 153.207 192.632 153.045 L 176.054 149.344 L 133.99 139.956 L 110.093 134.62 L 110.641 97.842 L 110.8 87.07 L 110.988 74.47 L 111.179 61.509 C 115.131 61.322 121.634 61.745 129.397 62.525 C 146.778 64.27 170.473 67.799 185.965 70.229 C 195.452 71.717 201.861 72.79 201.861 72.79 Z " fill="rgb(136,211,75)"/><g opacity="0.1"><path d=" M 206.929 95.029 L 198.034 99.391 L 152.637 121.655 L 110.8 87.079 L 102.343 80.078 L 101.203 80.818 L 110.643 97.842 L 110.096 134.62 L 133.992 139.956 L 137.115 145.59 C 137.454 146.202 138.034 146.645 138.715 146.81 L 171.254 154.748 C 172.402 155.025 173.588 154.463 174.101 153.399 L 176.05 149.352 L 192.628 153.054 C 193.354 153.215 194.114 153.046 194.704 152.593 C 195.294 152.139 195.651 151.447 195.681 150.703 L 197.226 110.529 L 207.775 96.43 L 207.804 96.075 L 206.929 95.029 Z " fill="rgb(0,0,0)"/></g><path d=" M 101.201 80.818 L 97.448 145.07 C 97.377 146.298 98.207 147.397 99.408 147.665 L 199.052 169.792 C 199.759 169.947 200.498 169.789 201.08 169.358 C 201.662 168.928 202.03 168.268 202.089 167.546 L 207.928 96.22 L 152.637 123.339 L 101.201 80.818 Z " fill="rgb(220,223,237)"/><g opacity="0.1"><path d=" M 98.134 146.541 L 149.901 114.603 C 151.484 113.644 153.528 113.964 154.741 115.361 L 201.074 169.398 C 201.243 169.592 201.325 169.453 201.074 169.398 L 98.134 146.541 C 97.84 146.476 97.878 146.695 98.134 146.541 Z " fill="rgb(0,0,0)"/></g><path d=" M 98.505 146.488 L 149.737 115.54 C 151.409 114.53 153.565 114.869 154.846 116.344 L 200.761 169.148 C 200.917 169.328 200.94 169.588 200.818 169.793 C 200.696 169.998 200.457 170.101 200.224 170.051 L 98.671 147.501 C 98.45 147.453 98.28 147.274 98.244 147.051 C 98.207 146.828 98.31 146.604 98.505 146.488 Z " fill="rgb(227,229,241)"/></g></g></svg>