<?xml version="1.0" standalone="no"?><!-- Generator: Gravit.io --><svg xmlns="http://www.w3.org/2000/svg" xmlns:xlink="http://www.w3.org/1999/xlink" style="isolation:isolate" viewBox="0 0 752 682" width="752" height="682"><defs><clipPath id="_clipPath_ljsTuJTrjUw2nCzcVbrKARzERd4fGVE8"><rect width="752" height="682"/></clipPath></defs><g clip-path="url(#_clipPath_ljsTuJTrjUw2nCzcVbrKARzERd4fGVE8)"><rect width="752" height="682" style="fill:rgb(36,36,36)" fill-opacity="0"/><g><g opacity="0.09"><path d=" M 53.212 648.438 L 53.212 556.796 L 142.752 465.144 L 222.982 406.592 L 306.701 318.754 L 405.541 279.296 L 532.28 279.296 L 636.932 152 L 727.628 39.982 L 727.628 648.438 L 53.212 648.438 L 53.212 648.438 Z " fill="rgb(128,204,65)"/></g><g style="opacity:0.2;"><g opacity="0.2"><line x1="55.587" y1="541.37" x2="55.587" y2="633.012"/></g><g opacity="0.2"><mask id="_mask_GJZgKQ1rJIteC3tOIgTV2sLFZwzLsv1p" x="-200%" y="-200%" width="400%" height="400%"><rect x="-200%" y="-200%" width="400%" height="400%" style="fill:white;"/><line x1="55.587" y1="541.37" x2="55.587" y2="547.675" fill="black" stroke="none"/></mask><line x1="55.587" y1="541.37" x2="55.587" y2="547.675" mask="url(#_mask_GJZgKQ1rJIteC3tOIgTV2sLFZwzLsv1p)" vector-effect="non-scaling-stroke" stroke-width="2" stroke="rgb(0,0,255)" stroke-linejoin="miter" stroke-linecap="butt" stroke-miterlimit="10"/></g><g opacity="0.2"><mask id="_mask_yl0wKkbVYQn5wlr8RKYhLQ2LO0lijhQV" x="-200%" y="-200%" width="400%" height="400%"><rect x="-200%" y="-200%" width="400%" height="400%" style="fill:white;"/><line x1="55.587" y1="558.961" x2="55.587" y2="621.064" fill="black" stroke="none"/></mask><line x1="55.587" y1="558.961" x2="55.587" y2="621.064" mask="url(#_mask_yl0wKkbVYQn5wlr8RKYhLQ2LO0lijhQV)" vector-effect="non-scaling-stroke" stroke-width="2" stroke-dasharray="10.75,10.75" stroke="rgb(0,0,255)" stroke-linejoin="miter" stroke-linecap="butt" stroke-miterlimit="10"/></g><g opacity="0.2"><mask id="_mask_WLYdRluIZUktIvYO4lozJ9oaPXKsZy57" x="-200%" y="-200%" width="400%" height="400%"><rect x="-200%" y="-200%" width="400%" height="400%" style="fill:white;"/><line x1="55.587" y1="626.707" x2="55.587" y2="633.012" fill="black" stroke="none"/></mask><line x1="55.587" y1="626.707" x2="55.587" y2="633.012" mask="url(#_mask_WLYdRluIZUktIvYO4lozJ9oaPXKsZy57)" vector-effect="non-scaling-stroke" stroke-width="2" stroke="rgb(0,0,255)" stroke-linejoin="miter" stroke-linecap="butt" stroke-miterlimit="10"/></g><g opacity="0.2"><line x1="153.607" y1="449.718" x2="153.607" y2="633.012"/></g><g opacity="0.2"><mask id="_mask_FKwzTLu6FKATjuCQ031tD03ryJpMmcXc" x="-200%" y="-200%" width="400%" height="400%"><rect x="-200%" y="-200%" width="400%" height="400%" style="fill:white;"/><line x1="153.607" y1="449.718" x2="153.607" y2="456.023" fill="black" stroke="none"/></mask><line x1="153.607" y1="449.718" x2="153.607" y2="456.023" mask="url(#_mask_FKwzTLu6FKATjuCQ031tD03ryJpMmcXc)" vector-effect="non-scaling-stroke" stroke-width="2" stroke="rgb(0,0,255)" stroke-linejoin="miter" stroke-linecap="butt" stroke-miterlimit="10"/></g><g opacity="0.2"><mask id="_mask_oKyhlTnER6xvnTnJNajw17X6JE3q8uut" x="-200%" y="-200%" width="400%" height="400%"><rect x="-200%" y="-200%" width="400%" height="400%" style="fill:white;"/><line x1="153.607" y1="626.707" x2="153.607" y2="633.012" fill="black" stroke="none"/></mask><line x1="153.607" y1="626.707" x2="153.607" y2="633.012" mask="url(#_mask_oKyhlTnER6xvnTnJNajw17X6JE3q8uut)" vector-effect="non-scaling-stroke" stroke-width="2" stroke="rgb(0,0,255)" stroke-linejoin="miter" stroke-linecap="butt" stroke-miterlimit="10"/></g><g opacity="0.2"><line x1="246.184" y1="391.156" x2="246.184" y2="633.012"/></g><g opacity="0.2"><mask id="_mask_9x6Atpi9ktdnw0t4JaEWRmMfqb1GgOyG" x="-200%" y="-200%" width="400%" height="400%"><rect x="-200%" y="-200%" width="400%" height="400%" style="fill:white;"/><line x1="246.184" y1="391.156" x2="246.184" y2="397.461" fill="black" stroke="none"/></mask><line x1="246.184" y1="391.156" x2="246.184" y2="397.461" mask="url(#_mask_9x6Atpi9ktdnw0t4JaEWRmMfqb1GgOyG)" vector-effect="non-scaling-stroke" stroke-width="2" stroke="rgb(0,0,255)" stroke-linejoin="miter" stroke-linecap="butt" stroke-miterlimit="10"/></g><g opacity="0.2"><mask id="_mask_zdiQCNIgNohzt6mmfrBVsY3LnkqM4wZb" x="-200%" y="-200%" width="400%" height="400%"><rect x="-200%" y="-200%" width="400%" height="400%" style="fill:white;"/><line x1="246.184" y1="626.707" x2="246.184" y2="633.012" fill="black" stroke="none"/></mask><line x1="246.184" y1="626.707" x2="246.184" y2="633.012" mask="url(#_mask_zdiQCNIgNohzt6mmfrBVsY3LnkqM4wZb)" vector-effect="non-scaling-stroke" stroke-width="2" stroke="rgb(0,0,255)" stroke-linejoin="miter" stroke-linecap="butt" stroke-miterlimit="10"/></g><g opacity="0.2"><line x1="342.587" y1="303.328" x2="342.587" y2="633.012"/></g><g opacity="0.2"><mask id="_mask_JybezrhHcGrCCvARYHBnXRrV3No3icbM" x="-200%" y="-200%" width="400%" height="400%"><rect x="-200%" y="-200%" width="400%" height="400%" style="fill:white;"/><line x1="342.587" y1="303.328" x2="342.587" y2="309.633" fill="black" stroke="none"/></mask><line x1="342.587" y1="303.328" x2="342.587" y2="309.633" mask="url(#_mask_JybezrhHcGrCCvARYHBnXRrV3No3icbM)" vector-effect="non-scaling-stroke" stroke-width="2" stroke="rgb(0,0,255)" stroke-linejoin="miter" stroke-linecap="butt" stroke-miterlimit="10"/></g><g opacity="0.2"><mask id="_mask_hbwHAjOlGlFDKkvKDtAIw5LQ0hiHjKCo" x="-200%" y="-200%" width="400%" height="400%"><rect x="-200%" y="-200%" width="400%" height="400%" style="fill:white;"/><line x1="342.587" y1="626.707" x2="342.587" y2="633.012" fill="black" stroke="none"/></mask><line x1="342.587" y1="626.707" x2="342.587" y2="633.012" mask="url(#_mask_hbwHAjOlGlFDKkvKDtAIw5LQ0hiHjKCo)" vector-effect="non-scaling-stroke" stroke-width="2" stroke="rgb(0,0,255)" stroke-linejoin="miter" stroke-linecap="butt" stroke-miterlimit="10"/></g><g opacity="0.2"><line x1="441.29" y1="263.87" x2="441.29" y2="633.012"/></g><g opacity="0.2"><mask id="_mask_a6Xr7mh3kpTkmpgN2E6tuE1ZSYtrRqej" x="-200%" y="-200%" width="400%" height="400%"><rect x="-200%" y="-200%" width="400%" height="400%" style="fill:white;"/><line x1="441.29" y1="263.87" x2="441.29" y2="270.175" fill="black" stroke="none"/></mask><line x1="441.29" y1="263.87" x2="441.29" y2="270.175" mask="url(#_mask_a6Xr7mh3kpTkmpgN2E6tuE1ZSYtrRqej)" vector-effect="non-scaling-stroke" stroke-width="2" stroke="rgb(0,0,255)" stroke-linejoin="miter" stroke-linecap="butt" stroke-miterlimit="10"/></g><g opacity="0.2"><mask id="_mask_fOIki8dJy18wslHS1WdRBKX7I71SUSYj" x="-200%" y="-200%" width="400%" height="400%"><rect x="-200%" y="-200%" width="400%" height="400%" style="fill:white;"/><line x1="441.29" y1="626.707" x2="441.29" y2="633.012" fill="black" stroke="none"/></mask><line x1="441.29" y1="626.707" x2="441.29" y2="633.012" mask="url(#_mask_fOIki8dJy18wslHS1WdRBKX7I71SUSYj)" vector-effect="non-scaling-stroke" stroke-width="2" stroke="rgb(0,0,255)" stroke-linejoin="miter" stroke-linecap="butt" stroke-miterlimit="10"/></g><g opacity="0.2"><line x1="534.939" y1="263.87" x2="534.939" y2="633.012"/></g><g opacity="0.2"><mask id="_mask_EJIKJ9tK2yLuAnXtgFz4ClaToDqvZmri" x="-200%" y="-200%" width="400%" height="400%"><rect x="-200%" y="-200%" width="400%" height="400%" style="fill:white;"/><line x1="534.939" y1="263.87" x2="534.939" y2="270.175" fill="black" stroke="none"/></mask><line x1="534.939" y1="263.87" x2="534.939" y2="270.175" mask="url(#_mask_EJIKJ9tK2yLuAnXtgFz4ClaToDqvZmri)" vector-effect="non-scaling-stroke" stroke-width="2" stroke="rgb(0,0,255)" stroke-linejoin="miter" stroke-linecap="butt" stroke-miterlimit="10"/></g><g opacity="0.2"><mask id="_mask_tQBBbVdyETDbuPbf4vRlwevYqA1yPGzD" x="-200%" y="-200%" width="400%" height="400%"><rect x="-200%" y="-200%" width="400%" height="400%" style="fill:white;"/><line x1="534.939" y1="626.707" x2="534.939" y2="633.012" fill="black" stroke="none"/></mask><line x1="534.939" y1="626.707" x2="534.939" y2="633.012" mask="url(#_mask_tQBBbVdyETDbuPbf4vRlwevYqA1yPGzD)" vector-effect="non-scaling-stroke" stroke-width="2" stroke="rgb(0,0,255)" stroke-linejoin="miter" stroke-linecap="butt" stroke-miterlimit="10"/></g><g opacity="0.2"><line x1="632.896" y1="136.574" x2="632.896" y2="633.012"/></g><g opacity="0.2"><mask id="_mask_O4cuypXLijLQD5LztZNailloWcGosqT1" x="-200%" y="-200%" width="400%" height="400%"><rect x="-200%" y="-200%" width="400%" height="400%" style="fill:white;"/><line x1="632.896" y1="136.574" x2="632.896" y2="142.879" fill="black" stroke="none"/></mask><line x1="632.896" y1="136.574" x2="632.896" y2="142.879" mask="url(#_mask_O4cuypXLijLQD5LztZNailloWcGosqT1)" vector-effect="non-scaling-stroke" stroke-width="2" stroke="rgb(0,0,255)" stroke-linejoin="miter" stroke-linecap="butt" stroke-miterlimit="10"/></g><g opacity="0.2"><mask id="_mask_KqhhcuUtG3ZHnTi0wF3j2VOLCz7tN9wa" x="-200%" y="-200%" width="400%" height="400%"><rect x="-200%" y="-200%" width="400%" height="400%" style="fill:white;"/><line x1="632.896" y1="626.707" x2="632.896" y2="633.012" fill="black" stroke="none"/></mask><line x1="632.896" y1="626.707" x2="632.896" y2="633.012" mask="url(#_mask_KqhhcuUtG3ZHnTi0wF3j2VOLCz7tN9wa)" vector-effect="non-scaling-stroke" stroke-width="2" stroke="rgb(0,0,255)" stroke-linejoin="miter" stroke-linecap="butt" stroke-miterlimit="10"/></g><g opacity="0.2"><line x1="727.439" y1="24.556" x2="727.439" y2="633.012"/></g><g opacity="0.2"><mask id="_mask_cSMPyp0YyvdYNwjmuOrXqGXqqX6g8eYv" x="-200%" y="-200%" width="400%" height="400%"><rect x="-200%" y="-200%" width="400%" height="400%" style="fill:white;"/><line x1="727.439" y1="24.556" x2="727.439" y2="30.861" fill="black" stroke="none"/></mask><line x1="727.439" y1="24.556" x2="727.439" y2="30.861" mask="url(#_mask_cSMPyp0YyvdYNwjmuOrXqGXqqX6g8eYv)" vector-effect="non-scaling-stroke" stroke-width="2" stroke="rgb(0,0,255)" stroke-linejoin="miter" stroke-linecap="butt" stroke-miterlimit="10"/></g><g opacity="0.2"><mask id="_mask_JKWnhnxGknImLqdgNCibHtCUUwp2eWac" x="-200%" y="-200%" width="400%" height="400%"><rect x="-200%" y="-200%" width="400%" height="400%" style="fill:white;"/><line x1="727.439" y1="43.534" x2="727.439" y2="620.371" fill="black" stroke="none"/></mask><line x1="727.439" y1="43.534" x2="727.439" y2="620.371" mask="url(#_mask_JKWnhnxGknImLqdgNCibHtCUUwp2eWac)" vector-effect="non-scaling-stroke" stroke-width="2" stroke-dasharray="12.06,12.06" stroke="rgb(0,0,255)" stroke-linejoin="miter" stroke-linecap="butt" stroke-miterlimit="10"/></g><g opacity="0.2"><mask id="_mask_3RWxqS6ZrtCu6WG27XV5z5gCpZQ5laah" x="-200%" y="-200%" width="400%" height="400%"><rect x="-200%" y="-200%" width="400%" height="400%" style="fill:white;"/><line x1="727.439" y1="626.707" x2="727.439" y2="633.012" fill="black" stroke="none"/></mask><line x1="727.439" y1="626.707" x2="727.439" y2="633.012" mask="url(#_mask_3RWxqS6ZrtCu6WG27XV5z5gCpZQ5laah)" vector-effect="non-scaling-stroke" stroke-width="2" stroke="rgb(0,0,255)" stroke-linejoin="miter" stroke-linecap="butt" stroke-miterlimit="10"/></g></g><linearGradient id="_lgradient_44" x1="0.5" y1="0.9997827975673328" x2="0.5000000000000001" y2="0" gradientTransform="matrix(48.38,0,0,48.38,31.397,517.18)" gradientUnits="userSpaceOnUse"><stop offset="0%" stop-opacity="0.25" style="stop-color:rgb(128,128,128)"/><stop offset="54%" stop-opacity="0.12" style="stop-color:rgb(128,128,128)"/><stop offset="100%" stop-opacity="0.1" style="stop-color:rgb(128,128,128)"/></linearGradient><circle vector-effect="non-scaling-stroke" cx="55.5868721219274" cy="541.3701786362221" r="24.18985541388905" fill="url(#_lgradient_44)"/><linearGradient id="_lgradient_45" x1="0" y1="0.5" x2="6.123233995736766e-17" y2="-0.5" gradientTransform="matrix(48.38,0,0,48.38,129.417,425.528)" gradientUnits="userSpaceOnUse"><stop offset="0%" stop-opacity="0.1" style="stop-color:rgb(128,128,128)"/></linearGradient><circle vector-effect="non-scaling-stroke" cx="153.60727668350728" cy="449.71773775006244" r="24.189855413889063" fill="url(#_lgradient_45)"/><linearGradient id="_lgradient_46" x1="0" y1="0.5" x2="6.123233995736766e-17" y2="-0.5" gradientTransform="matrix(48.38,0,0,48.38,221.995,366.966)" gradientUnits="userSpaceOnUse"><stop offset="0%" stop-opacity="0.1" style="stop-color:rgb(128,128,128)"/></linearGradient><circle vector-effect="non-scaling-stroke" cx="246.18443836741858" cy="391.15558995614236" r="24.189855413889063" fill="url(#_lgradient_46)"/><linearGradient id="_lgradient_47" x1="0" y1="0.5" x2="6.123233995736766e-17" y2="-0.5" gradientTransform="matrix(48.38,0,0,48.38,318.397,279.138)" gradientUnits="userSpaceOnUse"><stop offset="0%" stop-opacity="0.1" style="stop-color:rgb(128,128,128)"/></linearGradient><circle vector-effect="non-scaling-stroke" cx="342.5865815329346" cy="303.3281305515877" r="24.189855413889063" fill="url(#_lgradient_47)"/><linearGradient id="_lgradient_48" x1="0" y1="0.5" x2="6.123233995736766e-17" y2="-0.5" gradientTransform="matrix(48.38,0,0,48.38,417.1,239.68)" gradientUnits="userSpaceOnUse"><stop offset="0%" stop-opacity="0.1" style="stop-color:rgb(128,128,128)"/></linearGradient><circle vector-effect="non-scaling-stroke" cx="441.2900185019437" cy="263.86987378392797" r="24.189855413889063" fill="url(#_lgradient_48)"/><linearGradient id="_lgradient_49" x1="0" y1="0.5" x2="6.123233995736766e-17" y2="-0.5" gradientTransform="matrix(48.38,0,0,48.38,510.749,239.68)" gradientUnits="userSpaceOnUse"><stop offset="0%" stop-opacity="0.1" style="stop-color:rgb(128,128,128)"/></linearGradient><circle vector-effect="non-scaling-stroke" cx="534.9390156559739" cy="263.86987378392797" r="24.189855413889063" fill="url(#_lgradient_49)"/><linearGradient id="_lgradient_50" x1="0" y1="0.5" x2="6.123233995736766e-17" y2="-0.5" gradientTransform="matrix(48.38,0,0,48.38,608.707,112.384)" gradientUnits="userSpaceOnUse"><stop offset="0%" stop-opacity="0.1" style="stop-color:rgb(128,128,128)"/></linearGradient><circle vector-effect="non-scaling-stroke" cx="632.8963710722519" cy="136.57364942082967" r="24.189855413889063" fill="url(#_lgradient_50)"/><linearGradient id="_lgradient_51" x1="0" y1="0.5" x2="6.123233995736766e-17" y2="-0.5" gradientTransform="matrix(48.38,0,0,48.38,703.249,0.366)" gradientUnits="userSpaceOnUse"><stop offset="0%" stop-opacity="0.1" style="stop-color:rgb(128,128,128)"/></linearGradient><circle vector-effect="non-scaling-stroke" cx="727.4385644513836" cy="24.556334602385956" r="24.189855413889063" fill="url(#_lgradient_51)"/><circle vector-effect="non-scaling-stroke" cx="55.58687212192763" cy="541.3701786362224" r="19.093382835376374" fill="rgb(128,204,65)"/><circle vector-effect="non-scaling-stroke" cx="153.6072766835075" cy="449.71773775006244" r="19.09338283537639" fill="rgb(128,204,65)"/><circle vector-effect="non-scaling-stroke" cx="246.18443836741812" cy="391.15558995614236" r="19.093382835376374" fill="rgb(128,204,65)"/><circle vector-effect="non-scaling-stroke" cx="342.58658153293504" cy="303.32813055158795" r="19.09338283537636" fill="rgb(128,204,65)"/><circle vector-effect="non-scaling-stroke" cx="441.2900185019437" cy="263.86987378392786" r="19.09338283537636" fill="rgb(128,204,65)"/><circle vector-effect="non-scaling-stroke" cx="534.9390156559748" cy="263.86987378392786" r="19.09338283537636" fill="rgb(128,204,65)"/><circle vector-effect="non-scaling-stroke" cx="632.8963710722544" cy="136.57364942082967" r="19.09338283537636" fill="rgb(128,204,65)"/><circle vector-effect="non-scaling-stroke" cx="727.4385644513857" cy="24.556334602386013" r="19.09338283537636" fill="rgb(128,204,65)"/><linearGradient id="_lgradient_52" x1="0" y1="0.5" x2="0.04048057472175269" y2="1.499180325602039" gradientTransform="matrix(103.354,0,0,144.489,507.97,110.316)" gradientUnits="userSpaceOnUse"><stop offset="100%" stop-opacity="0.1" style="stop-color:rgb(128,128,128)"/><stop offset="100%" stop-opacity="0.10027019039472569" style="stop-color:rgb(128,128,128)"/><stop offset="100%" stop-opacity="0.12094836828548715" style="stop-color:rgb(128,128,128)"/></linearGradient><path d=" M 609.505 137.603 C 605.596 135.218 586.902 144.886 580.597 146.409 C 575.984 147.534 565.707 143.414 560.537 141.155 L 560.632 140.241 C 560.632 140.241 557.721 137.572 554.211 137.824 C 557.122 134.672 559.192 128.587 559.244 122.65 L 565.549 121.599 C 565.549 121.599 554.757 102.054 543.566 114.412 C 543.07 113.309 542.209 112.411 541.128 111.869 C 539.09 111.049 536.925 112.478 535.275 113.971 C 533.626 115.463 531.976 117.281 529.779 117.302 C 529.618 117.317 529.456 117.28 529.317 117.197 C 529.14 117.019 529.049 116.774 529.065 116.524 C 528.916 114.64 528.349 112.813 527.405 111.175 C 524.305 113.277 523.59 117.48 523.296 121.263 C 523.26 121.489 523.282 121.72 523.359 121.936 C 523.509 122.188 523.738 122.384 524.01 122.493 C 525.976 123.543 528.319 124.248 530.315 123.396 C 532.764 122.346 533.941 119.435 536.347 118.321 C 537.696 117.724 539.243 117.774 540.55 118.458 C 535.181 127.631 541.097 132.675 545.142 134.882 C 545.329 135.542 545.571 136.186 545.868 136.805 C 541.433 135.239 534.309 135.323 527.709 146.63 L 529.727 147.05 L 510.56 178.501 C 510.56 178.501 506.903 182.463 508.28 184.953 C 508.28 184.953 515.898 184.649 515.699 179.563 C 515.604 177.303 519.902 170.589 524.62 163.8 L 522.371 168.498 C 523.92 169.646 525.538 170.699 527.215 171.65 C 524.063 176.431 521.268 184.607 531.576 191.71 L 534.319 196.691 C 534.319 196.691 535.633 196.05 537.545 195.241 L 538.197 196.166 C 540.035 199.045 538.89 197.143 538.89 197.143 L 551.605 215.07 C 551.605 215.07 535.128 229.161 536.042 239.239 L 533.027 239.365 C 531.763 239.413 530.594 240.042 529.858 241.07 C 529.122 242.097 528.903 243.408 529.265 244.619 C 529.265 244.619 543.808 258.027 547.465 254.076 C 547.465 254.076 544.67 247.824 544.67 247.824 L 544.512 244.009 L 544.239 243.841 C 546.162 239.186 557.553 219.01 559.276 216.047 C 561.64 211.97 558.141 205.423 554.201 196.607 L 568.46 196.092 C 568.46 196.092 571.297 218.548 580.671 222.688 L 580.839 222.604 L 579.115 225.452 C 578.489 226.545 578.401 227.865 578.877 229.032 C 579.353 230.198 580.341 231.079 581.553 231.421 C 581.553 231.421 600.636 226.24 599.228 221.038 C 599.228 221.038 592.45 220.082 592.45 220.082 L 589.14 218.191 L 588.699 218.411 C 586.765 215.595 573.452 192.919 573.42 190.144 C 573.388 187.37 558.992 183.976 548.694 182.967 L 547.454 177.041 C 548.951 176.927 550.432 176.649 551.868 176.211 C 551.868 176.211 545.006 163.769 546.172 161.173 C 546.172 161.173 556.386 162.035 553.381 150.665 L 559.686 149.141 L 559.686 148.889 L 576.814 155.194 C 581.031 156.757 585.747 156.144 589.424 153.555 L 600.867 145.527 C 611.239 148.984 613.414 139.989 609.505 137.603 Z " fill="url(#_lgradient_52)"/><path d=" M 547.812 142.721 C 548.292 139.748 548.994 136.815 549.913 133.947 C 551.09 130.794 555.167 135.912 555.167 135.912 L 554.505 144.034 L 547.812 142.721 Z " fill="rgb(246,185,173)"/><path d=" M 542.502 132.917 C 540.334 128.143 542.45 122.508 547.224 120.34 C 551.998 118.173 557.634 120.289 559.801 125.063 C 561.969 129.836 559.853 135.472 555.079 137.639 C 550.305 139.807 544.669 137.691 542.502 132.917 Z " fill="rgb(246,185,173)"/><path d=" M 542.463 196.103 L 567.956 195.188 C 567.956 195.188 570.625 216.299 579.431 220.198 L 587.217 216.509 C 587.217 216.509 573.473 194.117 572.663 189.661 C 572.022 186.13 543.356 180.435 541.507 183.514 C 540.33 185.468 539.825 190.071 539.605 193.171 C 539.553 193.95 539.835 194.714 540.38 195.274 C 540.926 195.833 541.683 196.134 542.463 196.103 L 542.463 196.103 Z " fill="rgb(246,185,173)"/><path d=" M 555.882 144.602 C 556.869 143.254 558.661 142.773 560.19 143.446 C 564.929 145.548 574.902 149.625 579.389 148.542 C 585.315 147.103 602.885 138.034 606.563 140.262 C 610.052 142.364 608.381 150.119 599.901 148.164 C 598.934 147.951 597.922 148.157 597.116 148.732 L 588.93 154.469 C 584.717 157.427 579.32 158.126 574.492 156.34 L 557.5 150.035 C 556.449 149.645 555.641 148.785 555.319 147.711 C 554.997 146.637 555.197 145.474 555.861 144.57 L 555.882 144.602 Z " fill="rgb(246,185,173)"/><path d=" M 533.815 145.611 L 513.628 178.722 C 513.628 178.722 510.192 182.452 511.527 184.785 C 511.527 184.785 518.693 184.491 518.494 179.72 C 518.494 179.72 538.774 148.994 538.774 148.994 L 533.815 145.611 Z " fill="rgb(246,185,173)"/><path d=" M 535.612 189.787 L 552.109 213.042 C 552.109 213.042 535.927 226.86 537.503 236.359 L 544.859 240.846 C 544.859 240.846 558.047 216.678 559.318 213.945 C 560.831 210.698 550.911 184.386 547.36 184.523 C 543.808 184.659 535.612 189.787 535.612 189.787 Z " fill="rgb(246,185,173)"/><path d=" M 565.287 125.193 C 565.287 125.193 553.665 104.177 542.4 121.337 C 533.867 134.377 549.094 139.001 549.094 139.001 L 552.383 131.645 L 549.798 126.969 L 555.619 123.144 L 555.766 126.727 L 565.287 125.193 Z " fill="rgb(233,104,87)"/><path d=" M 545.027 119.172 C 544.53 117.834 543.572 116.716 542.326 116.02 C 540.414 115.242 538.323 116.598 536.831 118.016 C 535.338 119.435 533.731 121.169 531.671 121.169 C 531.521 121.183 531.37 121.15 531.24 121.074 C 531.077 120.907 530.992 120.677 531.009 120.444 C 530.868 118.67 530.333 116.95 529.443 115.41 C 526.532 117.417 525.849 121.368 525.587 124.868 C 525.555 125.08 525.576 125.296 525.65 125.498 C 525.791 125.732 526.005 125.912 526.259 126.013 C 528.109 126.969 530.315 127.663 532.228 126.864 C 534.529 125.908 535.643 123.144 537.892 122.093 C 539.373 121.425 541.097 121.593 542.421 122.535 C 543.388 123.239 544.281 124.405 545.468 124.227 C 548.347 123.848 545.542 120.223 545.027 119.172 Z " fill="rgb(233,104,87)"/><path d=" M 532.354 168.392 C 532.354 168.392 518.504 180.918 533.279 191.08 L 535.864 195.756 C 535.864 195.756 548.474 190.722 553.318 191.731 L 546.792 170.2 L 532.354 168.392 Z " fill="rgb(233,106,89)"/><path d=" M 546.939 139.568 C 542.778 138.087 536.032 138.087 529.727 148.763 L 534.55 149.814 L 524.578 169.359 C 524.578 169.359 539.395 180.719 552.383 176.599 C 552.383 176.599 545.931 164.904 547.023 162.466 C 548.116 160.028 556.628 163.275 553.801 152.62 L 559.728 151.18 L 560.579 142.773 C 560.579 142.773 557.679 140.104 554.274 140.514 C 551.789 140.781 549.276 140.457 546.939 139.568 L 546.939 139.568 Z " fill="rgb(118,182,215)"/><path d=" M 538.07 235.739 L 534.634 235.876 C 533.451 235.925 532.356 236.516 531.667 237.479 C 530.977 238.442 530.769 239.668 531.104 240.804 L 531.104 240.804 C 531.104 240.804 544.764 253.414 548.211 249.684 C 548.211 249.684 545.584 243.81 545.584 243.81 L 545.437 240.226 L 538.07 235.739 Z " fill="rgb(118,182,215)"/><path d=" M 579.735 219.862 L 578.065 222.846 C 577.477 223.873 577.394 225.114 577.842 226.21 C 578.289 227.306 579.216 228.135 580.355 228.457 L 580.355 228.457 C 580.355 228.457 598.293 223.592 596.969 218.695 C 596.969 218.695 590.601 217.802 590.601 217.802 L 587.448 216.016 L 579.735 219.862 Z " fill="rgb(118,182,215)"/><path d=" M 551.626 128.094 C 552.677 129.428 553.276 131.078 552.982 131.782 C 552.687 132.486 551.616 131.961 550.575 130.626 C 549.535 129.291 548.925 127.652 549.22 126.948 C 549.514 126.244 550.586 126.759 551.626 128.094 Z " fill="rgb(246,185,173)"/><linearGradient id="_lgradient_53" x1="0" y1="0.5" x2="6.123233995736766e-17" y2="-0.5" gradientTransform="matrix(54.469,0,0,159.059,0.372,522.302)" gradientUnits="userSpaceOnUse"><stop offset="0%" stop-opacity="0.1" style="stop-color:rgb(128,128,128)"/></linearGradient><path d=" M 44.532 666.649 L 41.096 661.395 L 44.879 632.76 C 42.869 629.678 40.594 626.778 38.08 624.091 C 37.428 620.55 37.076 616.961 37.029 613.362 C 35.938 606.533 34.361 599.791 32.311 593.186 L 38.269 594.815 L 46.928 573.798 L 46.928 568.849 L 50.638 566.38 C 50.638 566.38 45.688 558.961 40.739 566.38 C 40.739 566.38 41.979 571.329 40.739 573.798 C 39.499 576.268 35.789 584.937 35.789 584.937 L 32.637 584.937 L 33.31 581.228 L 26.836 581.228 C 26.521 580.786 26.206 580.366 25.88 579.988 L 30.83 568.849 L 28.486 567.031 L 36.987 556.397 L 38.227 534.13 C 43.145 532.491 44.259 527.594 44.459 524.473 C 44.481 523.809 44.188 523.174 43.668 522.76 C 43.148 522.346 42.463 522.202 41.821 522.371 C 31.145 525.103 33.288 530.473 33.288 530.473 L 29.579 551.49 L 24.504 559.465 C 23.895 555.84 21.536 552.749 18.199 551.206 L 20.994 547.717 C 16.913 546.764 12.647 546.972 8.678 548.316 C -2.408 552.519 -2.387 568.649 8.678 572.905 C 10.226 573.536 11.896 573.809 13.565 573.704 L 13.565 572.464 L 14.027 572.464 C 13.838 573.62 13.659 574.912 13.565 576.194 L 13.565 576.194 C 11.095 576.194 11.095 589.855 14.805 592.272 L 13.565 605.932 L 13.565 613.351 C 16.034 619.541 20.983 619.541 20.983 619.541 L 24.693 636.858 C 26.084 637.404 27.622 637.449 29.043 636.984 L 29.642 641.797 C 29.642 641.797 18.503 650.456 18.503 662.813 L 18.094 663.622 L 17.264 662.813 L 9.845 669.003 L 19.722 681.36 L 29.621 681.36 C 32.091 675.171 22.202 673.942 22.202 673.942 L 22.202 667.584 L 22.202 667.584 L 33.204 654.522 C 33.757 656.203 34.516 657.809 35.464 659.304 L 35.558 660.207 L 34.423 659.976 L 31.502 669.181 L 37.135 671.094 C 43.05 673.117 49.564 672.344 54.841 668.992 C 53.538 662.393 44.532 666.649 44.532 666.649 Z " fill="url(#_lgradient_53)"/><path d=" M 19.985 573.746 C 19.985 573.746 17.295 585.032 19.985 586.639 L 28.045 581.806 L 22.675 571.592 L 19.985 573.746 Z " fill="rgb(246,185,173)"/><path d=" M 54.452 571.319 C 54.452 571.319 49.702 564.204 44.995 571.319 C 44.995 571.319 46.182 576.068 44.995 578.433 C 43.807 580.797 40.245 589.109 40.245 589.109 L 29.537 589.109 L 29.537 595.035 L 42.588 598.598 L 50.89 578.433 L 50.89 573.683 L 54.452 571.319 Z " fill="rgb(246,185,173)"/><path d=" M 37.839 585.547 L 35.464 598.598 L 25.975 596.223 L 25.975 585.547 L 37.839 585.547 L 37.839 585.547 Z " fill="rgb(89,137,161)"/><circle vector-effect="non-scaling-stroke" cx="18.86074498398534" cy="566.5688203749303" r="10.676321937667797" fill="rgb(246,185,173)"/><path d=" M 16.486 565.381 L 25.943 553.518 C 22.03 552.601 17.939 552.798 14.132 554.085 C 3.508 558.12 3.529 573.588 14.132 577.655 C 15.616 578.261 17.219 578.523 18.819 578.422 L 18.819 571.308 L 15.256 571.308 L 16.486 565.381 Z " fill="rgb(252,204,99)"/><path d=" M 42.588 540.477 L 41.401 561.83 L 31.943 573.693 L 26.017 570.131 L 34.318 557.08 L 37.881 536.915 C 37.881 536.915 35.779 531.776 46.066 529.149 C 46.698 528.98 47.372 529.128 47.876 529.546 C 48.379 529.963 48.648 530.599 48.599 531.251 C 48.368 534.246 47.296 538.901 42.588 540.477 Z " fill="rgb(246,185,173)"/><path d=" M 31.87 630.385 L 37.975 637.741 C 37.975 637.741 33.446 650.487 39.835 660.481 L 40.108 663.118 L 45.026 664.169 L 48.893 634.956 C 48.893 634.956 41.874 623.954 36.956 622.872 L 31.87 630.385 Z " fill="rgb(185,139,130)"/><path d=" M 45.299 662.446 L 48.62 667.553 C 48.62 667.553 57.258 663.444 58.445 669.717 L 58.445 669.717 C 53.398 672.961 47.15 673.735 41.464 671.819 L 36.063 669.98 L 38.868 661.153 L 45.299 662.446 Z " fill="rgb(61,32,60)"/><path d=" M 33.099 634.189 L 34.287 643.646 C 34.287 643.646 23.61 651.948 23.61 663.812 L 22.423 666.186 L 25.985 669.749 L 44.963 647.209 C 44.963 647.209 44.963 634.158 41.401 630.606 L 33.099 634.189 Z " fill="rgb(246,185,173)"/><path d=" M 27.12 668.425 L 27.12 674.519 C 27.12 674.519 36.578 675.707 34.234 681.634 L 24.777 681.634 L 15.319 669.77 L 22.434 663.843 L 27.12 668.425 Z " fill="rgb(61,32,60)"/><path d=" M 44.953 633.023 C 44.953 633.023 34.276 641.324 29.527 638.949 L 25.964 622.346 C 25.964 622.346 21.215 622.346 18.85 616.42 L 18.85 609.274 L 41.39 616.388 C 41.39 616.388 41.401 629.439 44.953 633.023 Z " fill="rgb(61,32,60)"/><path d=" M 35.464 573.683 L 26.006 566.569 C 26.006 566.569 21.257 580.807 18.892 580.807 C 16.528 580.807 16.486 593.859 20.08 596.244 L 18.892 609.295 L 41.432 616.409 C 41.432 616.409 37.87 592.682 30.756 584.38 L 35.464 573.683 Z " fill="rgb(118,182,215)"/><linearGradient id="_lgradient_54" x1="0" y1="0.5" x2="6.123233995736766e-17" y2="-0.5" gradientTransform="matrix(94.853,0,0,136.811,130.84,293.162)" gradientUnits="userSpaceOnUse"><stop offset="0%" stop-opacity="0.1" style="stop-color:rgb(128,128,128)"/></linearGradient><path d=" M 216.131 375.236 C 216.131 375.236 214.639 375.919 213.609 373.68 L 210.625 375.057 L 209.08 371.694 L 210.95 370.833 L 203.973 345.991 C 203.973 345.991 204.152 340.485 200.127 339.623 C 200.127 339.623 197.941 338.814 189.398 341.851 C 185.815 343.123 182.957 344.226 180.823 345.077 C 178.964 343.396 174.876 339.003 174.792 332.751 C 174.746 331.217 174.328 329.716 173.573 328.38 L 178.827 326.803 L 178.711 326.551 L 194.095 320.667 C 194.778 322.159 201.84 319.805 203.395 317.283 C 204.11 316.127 202.943 315.455 201.483 315.055 C 199.398 314.512 197.197 314.622 195.178 315.371 L 176.652 322.054 L 176.431 321.581 C 175.717 322.074 174.896 322.391 174.035 322.506 L 172.984 321.781 L 180.014 310.558 C 181.464 311.335 185.689 305.209 185.405 302.267 C 185.279 300.911 183.944 301.069 182.536 301.636 C 180.56 302.456 178.881 303.861 177.724 305.661 L 168.96 319.017 L 167.268 317.777 L 166.017 321.14 C 164.201 320.09 162.259 319.275 160.238 318.712 L 157.737 313.311 C 159.992 311.722 161.397 309.189 161.55 306.435 C 161.704 303.681 160.589 301.007 158.525 299.177 C 160.176 298.507 161.885 297.993 163.632 297.643 C 163.632 297.643 148.921 285.412 141.817 301.363 C 141.817 301.363 141.817 301.531 141.817 301.815 C 141.523 301.952 141.25 302.088 141.018 302.172 L 134.976 304.474 C 134.534 304.628 134.106 304.818 133.694 305.041 C 133.064 305.441 132.491 305.925 131.992 306.481 C 131.607 306.836 131.287 307.256 131.046 307.721 C 130.639 308.791 130.844 309.998 131.582 310.873 C 132.299 311.718 133.16 312.43 134.125 312.975 L 136.679 314.624 C 137.475 315.003 138.082 315.69 138.36 316.526 C 138.591 314.645 137.792 312.807 137.067 311.052 C 136.632 310.249 136.484 309.323 136.647 308.425 C 137.054 307.506 137.81 306.787 138.749 306.428 C 139.794 305.889 140.879 305.432 141.996 305.062 C 142.448 309.16 144.097 315.35 150.077 316.306 L 151.968 320.404 C 150.833 322.148 150.612 325.238 153.975 330.649 L 162.235 348.513 L 162.939 348.618 C 162.403 351.319 161.741 358.759 169.895 361.407 L 166.144 392.711 C 166.144 392.711 151.253 412.119 153.944 416.144 L 154.826 416.144 L 153.87 419.202 L 150.444 418.477 L 148.91 425.707 L 169.002 429.973 C 169.002 429.973 170.998 424.519 161.993 423.447 C 161.993 423.447 160.385 423.111 160.942 420.694 L 158.756 420.232 L 160.028 416.144 L 160.028 416.144 C 160.028 416.144 172.869 402.116 175.559 390.021 C 177.661 380.774 182.021 363.666 183.965 356.132 L 195.43 350.878 C 195.43 350.878 202.88 370.969 204.257 373.996 L 204.635 373.828 L 206.18 377.19 L 203.942 378.241 L 207.041 384.956 L 225.693 376.36 C 225.693 376.36 224.002 370.707 216.131 375.236 Z " fill="url(#_lgradient_54)"/><rect x="204.629" y="371.85" width="4.823" height="4.823" transform="matrix(0.908,-0.419,0.419,0.908,-137.67,121.058)" fill="rgb(246,185,173)"/><rect x="155.281" y="411.105" width="4.823" height="8.428" transform="matrix(0.955,0.298,-0.298,0.955,130.949,-28.124)" fill="rgb(246,185,173)"/><path d=" M 145.088 310.851 C 143.046 306.421 144.985 301.167 149.414 299.125 C 153.843 297.083 159.097 299.021 161.139 303.451 C 163.181 307.88 161.243 313.134 156.814 315.176 C 152.384 317.218 147.13 315.28 145.088 310.851 Z " fill="rgb(246,185,173)"/><rect x="151.461" y="311.179" width="8.028" height="13.65" transform="matrix(0.908,-0.419,0.419,0.908,-118.854,94.302)" fill="rgb(246,185,173)"/><path d=" M 175.601 323.357 L 194.904 316.432 C 196.864 315.708 198.997 315.598 201.02 316.117 C 202.449 316.505 203.584 317.167 202.891 318.292 C 201.378 320.761 194.484 323.052 193.801 321.591 L 176.883 328.064 L 175.601 323.357 Z " fill="rgb(246,185,173)"/><path d=" M 163.485 347.946 C 163.485 347.946 159.891 359.326 171.671 361.859 L 195.01 351.098 C 195.01 351.098 202.292 370.728 203.637 373.649 L 210.204 370.623 L 203.427 346.338 C 203.427 346.338 203.595 340.958 199.675 340.107 C 199.675 340.107 197.574 339.319 189.167 342.292 C 180.76 345.266 176.431 347.273 176.431 347.273 L 163.485 347.946 Z " fill="rgb(95,152,190)"/><path d=" M 163.968 299.093 C 163.968 299.093 149.614 287.135 142.658 302.729 C 142.658 302.729 141.87 316.39 151.18 317.367 C 151.44 314.546 151.037 311.703 150.003 309.066 C 148.28 305.43 157.453 300.323 163.968 299.093 Z " fill="rgb(61,33,60)"/><path d=" M 135.954 305.766 C 135.522 305.918 135.104 306.104 134.703 306.323 C 134.088 306.714 133.529 307.188 133.043 307.731 C 132.666 308.081 132.353 308.493 132.118 308.95 C 131.749 309.988 131.948 311.143 132.643 311.997 C 133.338 312.84 134.178 313.552 135.123 314.099 L 137.624 315.717 C 138.406 316.085 139.002 316.757 139.274 317.577 C 139.495 315.738 138.717 313.941 138.013 312.229 C 137.586 311.447 137.437 310.542 137.593 309.665 C 137.986 308.768 138.719 308.065 139.631 307.71 C 140.663 307.178 141.734 306.728 142.836 306.365 C 143.397 306.214 143.937 305.995 144.444 305.713 C 144.956 305.425 145.314 304.925 145.421 304.347 C 145.482 303.676 145.086 303.048 144.455 302.813 C 143.698 302.603 142.584 303.318 141.87 303.591 L 135.954 305.766 Z " fill="rgb(61,33,60)"/><path d=" M 212.81 373.407 L 203.353 377.779 L 206.379 384.346 L 224.611 375.94 C 224.611 375.94 222.982 370.497 215.301 374.889 C 215.269 374.92 213.809 375.572 212.81 373.407 Z " fill="rgb(61,33,60)"/><path d=" M 165.355 323.21 C 165.355 323.21 173.941 324.565 176.515 322.485 L 178.869 327.592 L 167.982 330.839 L 165.355 323.21 Z " fill="rgb(118,182,215)"/><path d=" M 155.961 319.143 C 155.961 319.143 147.66 320.32 154.5 331.311 L 162.571 348.818 C 162.571 348.818 175.076 351.014 181.696 346.191 C 181.696 346.191 175.023 341.305 174.918 333.403 C 174.813 325.5 162.802 318.639 155.961 319.143 Z " fill="rgb(118,182,215)"/><path d=" M 170.347 359.179 L 166.406 392.007 C 166.406 392.007 151.863 410.922 154.49 414.915 L 160.427 414.915 C 160.427 414.915 172.984 401.254 175.611 389.38 C 175.611 389.38 184.806 352.601 184.806 352.601 L 170.347 359.179 Z " fill="rgb(95,152,190)"/><path d=" M 161.257 419.36 L 151.043 417.195 L 149.541 424.267 L 169.18 428.47 C 169.18 428.47 171.135 423.143 162.329 422.092 C 162.329 422.05 160.753 421.713 161.257 419.36 Z " fill="rgb(61,33,60)"/><path d=" M 166.543 324.082 L 177.797 306.932 C 178.927 305.175 180.566 303.805 182.494 303.002 C 183.871 302.445 185.163 302.298 185.289 303.612 C 185.563 306.491 181.433 312.481 180.035 311.724 L 170.42 327.066 L 166.543 324.082 Z " fill="rgb(246,185,173)"/><path d=" M 165.587 323.977 L 167.51 318.786 L 175.927 324.597 L 168.697 328.285 L 165.587 323.977 L 165.587 323.977 Z " fill="rgb(118,182,215)"/><g opacity="0.89"><mask id="_mask_4l6TljrpQkQqh1tZkFtVhu2fQCThQE4r" x="-200%" y="-200%" width="400%" height="400%"><rect x="-200%" y="-200%" width="400%" height="400%" style="fill:white;"/><line x1="153.607" y1="469.147" x2="153.607" y2="620.15" fill="black" stroke="none"/></mask><line x1="153.607" y1="469.147" x2="153.607" y2="620.15" mask="url(#_mask_4l6TljrpQkQqh1tZkFtVhu2fQCThQE4r)" vector-effect="non-scaling-stroke" stroke-width="4" stroke-dasharray="12.5,12.5" stroke="rgb(255,255,255)" stroke-linejoin="miter" stroke-linecap="butt" stroke-miterlimit="10"/></g><g opacity="0.89"><mask id="_mask_k6tdiIL2vDAXX0jY9aShElY1QLGDVHdF" x="-200%" y="-200%" width="400%" height="400%"><rect x="-200%" y="-200%" width="400%" height="400%" style="fill:white;"/><line x1="246.184" y1="409.534" x2="246.184" y2="620.675" fill="black" stroke="none"/></mask><line x1="246.184" y1="409.534" x2="246.184" y2="620.675" mask="url(#_mask_k6tdiIL2vDAXX0jY9aShElY1QLGDVHdF)" vector-effect="non-scaling-stroke" stroke-width="4" stroke-dasharray="11.48,11.48" stroke="rgb(255,255,255)" stroke-linejoin="miter" stroke-linecap="butt" stroke-miterlimit="10"/></g><g opacity="0.89"><mask id="_mask_tNox6ic740HM6L5ydhdbPVG2fFrzOx9t" x="-200%" y="-200%" width="400%" height="400%"><rect x="-200%" y="-200%" width="400%" height="400%" style="fill:white;"/><line x1="342.587" y1="322.316" x2="342.587" y2="620.371" fill="black" stroke="none"/></mask><line x1="342.587" y1="322.316" x2="342.587" y2="620.371" mask="url(#_mask_tNox6ic740HM6L5ydhdbPVG2fFrzOx9t)" vector-effect="non-scaling-stroke" stroke-width="4" stroke-dasharray="12.07,12.07" stroke="rgb(255,255,255)" stroke-linejoin="miter" stroke-linecap="butt" stroke-miterlimit="10"/></g><g opacity="0.89"><mask id="_mask_VREQpIj6tpiYsSRyVAUEBQ2clx44fTlT" x="-200%" y="-200%" width="400%" height="400%"><rect x="-200%" y="-200%" width="400%" height="400%" style="fill:white;"/><line x1="441.29" y1="282.469" x2="441.29" y2="620.56" fill="black" stroke="none"/></mask><line x1="441.29" y1="282.469" x2="441.29" y2="620.56" mask="url(#_mask_VREQpIj6tpiYsSRyVAUEBQ2clx44fTlT)" vector-effect="non-scaling-stroke" stroke-width="4" stroke-dasharray="11.7,11.7" stroke="rgb(255,255,255)" stroke-linejoin="miter" stroke-linecap="butt" stroke-miterlimit="10"/></g><g opacity="0.89"><mask id="_mask_ew3VuA3Gf2Hhhf3QojIOeyUyuRUXwup1" x="-200%" y="-200%" width="400%" height="400%"><rect x="-200%" y="-200%" width="400%" height="400%" style="fill:white;"/><line x1="534.939" y1="282.469" x2="534.939" y2="620.56" fill="black" stroke="none"/></mask><line x1="534.939" y1="282.469" x2="534.939" y2="620.56" mask="url(#_mask_ew3VuA3Gf2Hhhf3QojIOeyUyuRUXwup1)" vector-effect="non-scaling-stroke" stroke-width="4" stroke-dasharray="11.7,11.7" stroke="rgb(255,255,255)" stroke-linejoin="miter" stroke-linecap="butt" stroke-miterlimit="10"/></g><g opacity="0.89"><mask id="_mask_JV4OA9roh9f2pthfBbcbB1K8thwkCXsU" x="-200%" y="-200%" width="400%" height="400%"><rect x="-200%" y="-200%" width="400%" height="400%" style="fill:white;"/><line x1="632.896" y1="155.289" x2="632.896" y2="620.507" fill="black" stroke="none"/></mask><line x1="632.896" y1="155.289" x2="632.896" y2="620.507" mask="url(#_mask_JV4OA9roh9f2pthfBbcbB1K8thwkCXsU)" vector-effect="non-scaling-stroke" stroke-width="4" stroke-dasharray="11.81,11.81" stroke="rgb(255,255,255)" stroke-linejoin="miter" stroke-linecap="butt" stroke-miterlimit="10"/></g></g></g></svg>