<?xml version="1.0" standalone="no"?><!-- Generator: Gravit.io --><svg xmlns="http://www.w3.org/2000/svg" xmlns:xlink="http://www.w3.org/1999/xlink" style="isolation:isolate" viewBox="0 0 647.829 536.421" width="647.829" height="536.421"><defs><clipPath id="_clipPath_vjHMnSnigd98cn3yHSgARqbE6WeLpueS"><rect width="647.829" height="536.421"/></clipPath></defs><g clip-path="url(#_clipPath_vjHMnSnigd98cn3yHSgARqbE6WeLpueS)"><rect width="647.829" height="536.421" style="fill:rgb(28,28,28)" fill-opacity="0"/><g><path d=" M 103.368 525 C 103.368 525 409.618 269.408 586 525" fill="rgb(242,242,242)"/><path d="M 105.533 379.934 L 138.967 379.934 C 144.991 379.934 149.882 384.825 149.882 390.849 L 149.882 514.546 C 149.882 520.57 144.991 525.461 138.967 525.461 L 105.533 525.461 C 99.509 525.461 94.618 520.57 94.618 514.546 L 94.618 390.849 C 94.618 384.825 99.509 379.934 105.533 379.934 Z" style="stroke:none;fill:#80CC41;stroke-miterlimit:10;"/><path d="M 210.533 292.434 L 243.967 292.434 C 249.991 292.434 254.882 297.325 254.882 303.349 L 254.882 514.546 C 254.882 520.57 249.991 525.461 243.967 525.461 L 210.533 525.461 C 204.509 525.461 199.618 520.57 199.618 514.546 L 199.618 303.349 C 199.618 297.325 204.509 292.434 210.533 292.434 Z" style="stroke:none;fill:#80CC41;stroke-miterlimit:10;"/><path d="M 315.533 231.645 L 348.967 231.645 C 354.991 231.645 359.882 236.536 359.882 242.56 L 359.882 514.546 C 359.882 520.57 354.991 525.461 348.967 525.461 L 315.533 525.461 C 309.509 525.461 304.618 520.57 304.618 514.546 L 304.618 242.56 C 304.618 236.536 309.509 231.645 315.533 231.645 Z" style="stroke:none;fill:#80CC41;stroke-miterlimit:10;"/><path d="M 420.533 173.618 L 453.967 173.618 C 459.991 173.618 464.882 178.509 464.882 184.533 L 464.882 514.546 C 464.882 520.57 459.991 525.461 453.967 525.461 L 420.533 525.461 C 414.509 525.461 409.618 520.57 409.618 514.546 L 409.618 184.533 C 409.618 178.509 414.509 173.618 420.533 173.618 Z" style="stroke:none;fill:#80CC41;stroke-miterlimit:10;"/><path d="M 525.533 72.303 L 558.967 72.303 C 564.991 72.303 569.882 77.193 569.882 83.218 L 569.882 514.546 C 569.882 520.57 564.991 525.461 558.967 525.461 L 525.533 525.461 C 519.509 525.461 514.618 520.57 514.618 514.546 L 514.618 83.218 C 514.618 77.193 519.509 72.303 525.533 72.303 Z" style="stroke:none;fill:#80CC41;stroke-miterlimit:10;"/><path d="M 112.902 372.566 L 146.335 372.566 C 152.359 372.566 157.25 377.457 157.25 383.481 L 157.25 507.177 C 157.25 513.201 152.359 518.092 146.335 518.092 L 112.902 518.092 C 106.878 518.092 101.987 513.201 101.987 507.177 L 101.987 383.481 C 101.987 377.457 106.878 372.566 112.902 372.566 Z" style="fill:none;stroke:#3F3D56;stroke-width:1;stroke-miterlimit:2;"/><path d="M 217.902 285.066 L 251.335 285.066 C 257.359 285.066 262.25 289.957 262.25 295.981 L 262.25 507.177 C 262.25 513.201 257.359 518.092 251.335 518.092 L 217.902 518.092 C 211.878 518.092 206.987 513.201 206.987 507.177 L 206.987 295.981 C 206.987 289.957 211.878 285.066 217.902 285.066 Z" style="fill:none;stroke:#3F3D56;stroke-width:1;stroke-miterlimit:2;"/><path d="M 322.902 224.276 L 356.335 224.276 C 362.359 224.276 367.25 229.167 367.25 235.191 L 367.25 507.177 C 367.25 513.201 362.359 518.092 356.335 518.092 L 322.902 518.092 C 316.878 518.092 311.987 513.201 311.987 507.177 L 311.987 235.191 C 311.987 229.167 316.878 224.276 322.902 224.276 Z" style="fill:none;stroke:#3F3D56;stroke-width:1;stroke-miterlimit:2;"/><path d="M 427.902 166.25 L 461.335 166.25 C 467.359 166.25 472.25 171.141 472.25 177.165 L 472.25 507.177 C 472.25 513.201 467.359 518.092 461.335 518.092 L 427.902 518.092 C 421.878 518.092 416.987 513.201 416.987 507.177 L 416.987 177.165 C 416.987 171.141 421.878 166.25 427.902 166.25 Z" style="fill:none;stroke:#3F3D56;stroke-width:1;stroke-miterlimit:2;"/><path d="M 532.902 64.934 L 566.335 64.934 C 572.359 64.934 577.25 69.825 577.25 75.849 L 577.25 507.177 C 577.25 513.201 572.359 518.092 566.335 518.092 L 532.902 518.092 C 526.878 518.092 521.987 513.201 521.987 507.177 L 521.987 75.849 C 521.987 69.825 526.878 64.934 532.902 64.934 Z" style="fill:none;stroke:#3F3D56;stroke-width:1;stroke-miterlimit:2;"/><mask id="_mask_YR0F3btwp85JUvnxstMzUQ645H2XS51z" x="-200%" y="-200%" width="400%" height="400%"><rect x="-200%" y="-200%" width="400%" height="400%" style="fill:white;"/><path d=" M 129.158 316.842 L 234.158 229.342 L 340.079 169.474 L 445.079 111.447 L 550.079 10.132" fill="black" stroke="none"/></mask><path d=" M 129.158 316.842 L 234.158 229.342 L 340.079 169.474 L 445.079 111.447 L 550.079 10.132" fill="none" mask="url(#_mask_YR0F3btwp85JUvnxstMzUQ645H2XS51z)" vector-effect="non-scaling-stroke" stroke-width="2" stroke="rgb(63,61,86)" stroke-linejoin="miter" stroke-linecap="butt" stroke-miterlimit="10"/><circle vector-effect="non-scaling-stroke" cx="126.39474855314552" cy="321.44736842105266" r="10.131578947368418" fill="rgb(242,242,242)"/><circle vector-effect="non-scaling-stroke" cx="231.39474855314543" cy="233.94736842105246" r="10.13157894736841" fill="rgb(242,242,242)"/><circle vector-effect="non-scaling-stroke" cx="337.3158011847241" cy="174.07894736842087" r="10.131578947368439" fill="rgb(242,242,242)"/><circle vector-effect="non-scaling-stroke" cx="442.31580118472397" cy="116.05263157894737" r="10.131578947368439" fill="rgb(242,242,242)"/><circle vector-effect="non-scaling-stroke" cx="547.3158011847239" cy="14.736842105263083" r="10.131578947368439" fill="rgb(242,242,242)"/><circle vector-effect="non-scaling-stroke" cx="129.1579064478824" cy="316.84210526315786" r="10.131578947368418" fill="none" stroke-width="1" stroke="rgb(63,61,86)" stroke-linejoin="miter" stroke-linecap="butt" stroke-miterlimit="10"/><circle vector-effect="non-scaling-stroke" cx="234.1579064478821" cy="229.34210526315766" r="10.13157894736841" fill="none" stroke-width="1" stroke="rgb(63,61,86)" stroke-linejoin="miter" stroke-linecap="butt" stroke-miterlimit="10"/><circle vector-effect="non-scaling-stroke" cx="340.0789590794611" cy="169.4736842105261" r="10.131578947368439" fill="none" stroke-width="1" stroke="rgb(63,61,86)" stroke-linejoin="miter" stroke-linecap="butt" stroke-miterlimit="10"/><circle vector-effect="non-scaling-stroke" cx="445.0789590794607" cy="111.44736842105257" r="10.131578947368439" fill="none" stroke-width="1" stroke="rgb(63,61,86)" stroke-linejoin="miter" stroke-linecap="butt" stroke-miterlimit="10"/><circle vector-effect="non-scaling-stroke" cx="550.0789590794606" cy="10.131578947368421" r="10.131578947368439" fill="none" stroke-width="1" stroke="rgb(63,61,86)" stroke-linejoin="miter" stroke-linecap="butt" stroke-miterlimit="10"/></g></g></svg>