<?xml version="1.0" standalone="no"?><!-- Generator: Gravit.io --><svg xmlns="http://www.w3.org/2000/svg" xmlns:xlink="http://www.w3.org/1999/xlink" style="isolation:isolate" viewBox="0 0 640 160" width="640" height="160"><defs><clipPath id="_clipPath_6FDVQC8zCWTYV2Mt0RFQzeN66PJYZjkV"><rect width="640" height="160"/></clipPath></defs><g clip-path="url(#_clipPath_6FDVQC8zCWTYV2Mt0RFQzeN66PJYZjkV)"><g style="isolation:isolate"><g transform="matrix(6.48,0,0,6.48,186.595,43.453)"><text transform="matrix(1,0,0,1,0.329,10.373)" style="font-family:'Mosk Bold 700';font-weight:700;font-size:11px;font-style:normal;fill:#d0d0d0;stroke:none;">webmountain</text></g><path d=" M 132.398 144 L 154.079 144 C 160.712 144 163.405 139.336 160.088 133.591 L 137.731 94.867 L 115.374 56.142 C 112.057 50.397 106.671 50.397 103.354 56.142 L 98.523 64.509 L 79.074 30.823 C 75.758 25.078 70.372 25.078 67.055 30.823 L 37.388 82.207 L 7.722 133.591 C 4.405 139.336 7.098 144 13.732 144 L 64.649 144 L 73.065 144 L 132.398 144 L 132.398 144 Z " fill-rule="evenodd" fill="rgb(128,204,65)"/></g></g></svg>