<?xml version="1.0" standalone="no"?><!-- Generator: Gravit.io --><svg xmlns="http://www.w3.org/2000/svg" xmlns:xlink="http://www.w3.org/1999/xlink" style="isolation:isolate" viewBox="0 0 313.188 58.647" width="313.188" height="58.647"><defs><clipPath id="_clipPath_ojHnkB3EfrfOHkrJGZwo7HoOoe2RttAE"><rect width="313.188" height="58.647"/></clipPath></defs><g clip-path="url(#_clipPath_ojHnkB3EfrfOHkrJGZwo7HoOoe2RttAE)"><rect width="313.188" height="58.647" style="fill:rgb(28,28,28)" fill-opacity="0"/><g transform="matrix(3.235,0,0,3.235,90,8.456)"><text transform="matrix(1,0,0,1,0.329,10.373)" style="font-family:'Mosk Bold 700';font-weight:700;font-size:11px;font-style:normal;fill:#f5f5f5;stroke:none;">webmountain</text></g><path d=" M 62.945 58.647 L 73.768 58.647 C 77.08 58.647 78.424 56.319 76.768 53.451 L 65.608 34.12 L 54.447 14.79 C 52.791 11.922 50.103 11.922 48.447 14.79 L 46.036 18.967 L 36.327 2.151 C 34.671 -0.717 31.983 -0.717 30.327 2.151 L 15.518 27.801 L 0.709 53.451 C -0.947 56.319 0.397 58.647 3.709 58.647 L 29.126 58.647 L 33.327 58.647 L 62.945 58.647 L 62.945 58.647 Z " fill-rule="evenodd" fill="rgb(128,204,65)"/></g></svg>