<?xml version="1.0" standalone="no"?><!-- Generator: Gravit.io --><svg xmlns="http://www.w3.org/2000/svg" xmlns:xlink="http://www.w3.org/1999/xlink" style="isolation:isolate" viewBox="0 0 320 175" width="320" height="175"><defs><clipPath id="_clipPath_XFs5YCwuBBKRy3edXV5oYj0dUdyznulr"><rect width="320" height="175"/></clipPath></defs><g clip-path="url(#_clipPath_XFs5YCwuBBKRy3edXV5oYj0dUdyznulr)"><g style="isolation:isolate"><linearGradient id="_lgradient_0" x1="0.49999426546317854" y1="1" x2="0.4999942654631786" y2="0" gradientTransform="matrix(276.553,0,0,51.139,21.723,121.811)" gradientUnits="userSpaceOnUse"><stop offset="0%" stop-opacity="0.25" style="stop-color:rgb(128,128,128)"/><stop offset="54%" stop-opacity="0.12" style="stop-color:rgb(128,128,128)"/><stop offset="100%" stop-opacity="0.1" style="stop-color:rgb(128,128,128)"/></linearGradient><rect x="21.723" y="121.811" width="276.553" height="51.139" transform="matrix(1,0,0,1,0,0)" fill="url(#_lgradient_0)"/><rect x="23.338" y="123.486" width="272.919" height="46.746" transform="matrix(1,0,0,1,0,0)" fill="rgb(255,255,255)"/><rect x="40.101" y="133.027" width="158.651" height="27.82" transform="matrix(1,0,0,1,0,0)" fill="rgb(245,245,245)"/><linearGradient id="_lgradient_1" x1="0.5004133924501302" y1="0.9999701222901196" x2="0.5004133924501303" y2="0.000054890088193815245" gradientTransform="matrix(37.378,0,0,38.157,235.008,130.291)" gradientUnits="userSpaceOnUse"><stop offset="0%" stop-opacity="0.25" style="stop-color:rgb(179,179,179)"/><stop offset="54%" stop-opacity="0.1" style="stop-color:rgb(179,179,179)"/><stop offset="100%" stop-opacity="0.05" style="stop-color:rgb(179,179,179)"/></linearGradient><path d=" M 260.294 134.803 C 254.902 129.191 246.068 128.758 240.153 133.816 C 234.237 138.874 233.293 147.667 237.999 153.866 C 242.705 160.065 251.428 161.518 257.89 157.18 L 268.509 168.227 C 268.641 168.365 268.821 168.444 269.011 168.447 C 269.201 168.451 269.385 168.379 269.521 168.247 L 272.166 165.709 C 272.304 165.578 272.383 165.397 272.386 165.207 C 272.39 165.017 272.318 164.834 272.185 164.697 L 261.566 153.65 C 265.772 147.891 265.236 139.944 260.294 134.803 Z  M 256.986 152.565 C 252.802 156.587 246.151 156.455 242.129 152.272 C 238.107 148.089 238.237 141.437 242.421 137.415 C 246.604 133.392 253.255 133.522 257.278 137.705 C 261.297 141.888 261.167 148.537 256.986 152.559 L 256.986 152.565 Z " fill="url(#_lgradient_1)"/><linearGradient id="_lgradient_2" x1="0.5003352327984203" y1="1" x2="0.5003352327984204" y2="0" gradientTransform="matrix(1.773,0,0,1.836,241.033,142.063)" gradientUnits="userSpaceOnUse"><stop offset="0%" stop-opacity="1" style="stop-color:rgb(0,0,0)"/><stop offset="55.00000000000001%" stop-opacity="1" style="stop-color:rgb(0,0,0)"/><stop offset="100%" stop-opacity="1" style="stop-color:rgb(0,0,0)"/></linearGradient><path d=" M 241.92 142.063 C 240.737 142.063 240.737 143.9 241.92 143.9 C 243.103 143.9 243.1 142.063 241.92 142.063 Z " fill="url(#_lgradient_2)"/><linearGradient id="_lgradient_3" x1="0" y1="0.5" x2="6.123233995736766e-17" y2="-0.5" gradientTransform="matrix(15.832,0,0,5.606,242.44,136.176)" gradientUnits="userSpaceOnUse"><stop offset="0%" stop-opacity="1" style="stop-color:rgb(0,0,0)"/><stop offset="0%" stop-opacity="1" style="stop-color:rgb(0,0,0)"/><stop offset="0%" stop-opacity="1" style="stop-color:rgb(0,0,0)"/></linearGradient><path d=" M 250.157 136.179 C 247.111 136.088 244.233 137.575 242.545 140.113 C 242.044 140.899 243.468 141.594 243.969 140.81 C 245.238 138.815 247.664 137.55 250.281 137.616 C 252.967 137.709 255.429 139.137 256.843 141.422 C 257.344 142.25 258.661 141.499 258.16 140.677 C 256.558 138.045 253.443 136.256 250.157 136.179 Z " fill="url(#_lgradient_3)"/><path d=" M 260.294 133.188 C 254.902 127.576 246.068 127.144 240.153 132.201 C 234.237 137.259 233.293 146.053 237.999 152.252 C 242.705 158.451 251.428 159.904 257.89 155.566 L 268.509 166.613 C 268.641 166.75 268.821 166.829 269.011 166.833 C 269.201 166.836 269.385 166.764 269.521 166.632 L 272.166 164.095 C 272.304 163.963 272.383 163.783 272.386 163.593 C 272.39 163.403 272.318 163.219 272.185 163.083 L 261.569 152.029 C 265.771 146.271 265.233 138.328 260.294 133.188 L 260.294 133.188 Z  M 256.986 150.951 C 252.802 154.972 246.151 154.841 242.129 150.658 C 238.107 146.474 238.237 139.823 242.421 135.8 C 246.604 131.778 253.255 131.908 257.278 136.091 C 261.297 140.274 261.167 146.922 256.986 150.944 L 256.986 150.951 Z " fill="rgb(136,211,75)"/><path d=" M 241.92 140.452 C 240.737 140.452 240.737 142.288 241.92 142.288 C 243.103 142.288 243.1 140.452 241.92 140.452 Z " fill="rgb(136,211,75)"/><path d=" M 250.157 134.565 C 247.111 134.474 244.233 135.961 242.545 138.498 C 242.044 139.285 243.468 139.979 243.969 139.196 C 245.238 137.201 247.664 135.935 250.281 136.002 C 252.967 136.095 255.429 137.523 256.843 139.808 C 257.344 140.636 258.661 139.884 258.16 139.063 C 256.558 136.43 253.443 134.638 250.157 134.565 Z " fill="rgb(136,211,75)"/><g><linearGradient id="_lgradient_4" x1="0" y1="0.5" x2="6.123233995736766e-17" y2="-0.5" gradientTransform="matrix(48.529,0,0,49.626,119.066,2.05)" gradientUnits="userSpaceOnUse"><stop offset="0%" stop-opacity="0.1" style="stop-color:rgb(128,128,128)"/></linearGradient><path d=" M 167.033 22.33 L 143.895 22.33 L 143.895 31.922 L 157.217 31.922 C 155.977 38.015 150.784 41.514 143.895 41.514 C 135.877 41.396 129.438 34.862 129.438 26.842 C 129.438 18.823 135.877 12.289 143.895 12.171 C 147.23 12.167 150.462 13.325 153.036 15.444 L 160.259 8.222 C 151.969 0.939 139.866 0.006 130.558 5.93 C 121.249 11.855 116.972 23.215 120.06 33.808 C 123.148 44.401 132.861 51.682 143.895 51.676 C 156.31 51.676 167.595 42.646 167.595 26.847 C 167.575 25.325 167.387 23.811 167.033 22.33 L 167.033 22.33 Z " fill="url(#_lgradient_4)"/></g><clipPath id="_clipPath_o7ed96ctLvhzCPljD5PIP3lgw0zjpQEJ"><path d=" M 163.64 23.155 L 143.838 23.155 L 143.838 31.37 L 155.241 31.37 C 154.178 36.588 149.731 39.585 143.838 39.585 C 136.9 39.585 131.276 33.961 131.276 27.023 C 131.276 20.085 136.9 14.461 143.838 14.461 C 146.693 14.457 149.461 15.447 151.666 17.262 L 157.851 11.077 C 150.754 4.829 140.384 4.022 132.405 9.096 C 124.427 14.169 120.76 23.904 123.409 32.98 C 126.057 42.057 134.383 48.292 143.838 48.279 C 154.467 48.279 164.138 40.549 164.138 27.028 C 164.116 25.723 163.948 24.424 163.64 23.155 L 163.64 23.155 Z " fill="rgb(255,255,255)"/></clipPath><g clip-path="url(#_clipPath_o7ed96ctLvhzCPljD5PIP3lgw0zjpQEJ)"><g><path d=" M 67.638 -17.685 L 67.638 -42.809 L 84.065 -30.249 L 67.638 -17.685 Z " fill="rgb(251,188,5)"/><path d=" M 67.638 -42.809 L 84.065 -30.249 L 90.831 -36.142 L 114.007 -39.91 L 114.007 -53.438 L 67.638 -53.438 L 67.638 -42.809 Z " fill="rgb(234,67,53)"/><path d=" M 67.638 -17.685 L 96.629 -39.91 L 104.263 -38.958 L 114.007 -53.438 L 114.007 -7.056 L 67.638 -7.056 L 67.638 -17.685 Z " fill="rgb(52,168,83)"/><path d=" M 114.007 -7.056 L 84.053 -30.249 L 80.186 -33.148 L 114.007 -42.809 L 114.007 -7.056 Z " fill="rgb(66,133,244)"/></g></g><g><g><g><linearGradient id="_lgradient_5" x1="0" y1="0.5" x2="6.123233995736766e-17" y2="-0.5" gradientTransform="matrix(47.511,0,0,46.048,66.113,60.944)" gradientUnits="userSpaceOnUse"><stop offset="0%" stop-opacity="0.1" style="stop-color:rgb(128,128,128)"/></linearGradient><path d=" M 89.86 60.944 C 103.331 60.944 113.623 70.913 113.623 83.965 C 113.623 97.017 103.331 106.992 89.86 106.992 C 76.389 106.992 66.113 97.02 66.113 83.965 C 66.113 70.91 76.389 60.944 89.86 60.944 Z " fill="url(#_lgradient_5)"/></g><g><g><g><linearGradient id="_lgradient_6" x1="0" y1="0.5" x2="6.123233995736766e-17" y2="-0.5" gradientTransform="matrix(37.224,0,0,24.274,70.985,73.676)" gradientUnits="userSpaceOnUse"><stop offset="0%" stop-opacity="0.1" style="stop-color:rgb(128,128,128)"/></linearGradient><path d=" M 88.839 76.064 C 88.893 75.265 88.953 74.478 89.064 73.676 L 70.985 73.676 L 70.985 76.064 C 72.802 76.178 74.566 76.35 76.377 76.461 C 79.786 80.609 83.196 84.761 86.663 88.964 L 86.663 95.412 C 84.731 95.583 82.797 95.698 80.865 95.869 L 80.865 97.95 L 98.716 97.95 L 98.716 95.856 C 96.784 95.739 94.849 95.685 92.918 95.628 C 92.975 93.357 93.032 91.026 93.089 88.751 C 96.442 85.795 99.75 82.839 103.039 79.87 C 104.742 79.756 106.449 79.645 108.209 79.474 L 108.209 76.698 C 103.15 76.756 98.148 76.813 93.089 76.924 L 93.089 79.258 C 94.964 79.372 96.841 79.426 98.716 79.483 C 96.274 81.586 93.825 83.632 91.383 85.738 C 88.88 82.668 86.381 79.544 83.878 76.47 C 85.54 76.296 87.186 76.185 88.839 76.064 Z " fill="url(#_lgradient_6)"/></g></g></g><g><g><g><linearGradient id="_lgradient_7" x1="0" y1="0.5" x2="6.123233995736766e-17" y2="-0.5" gradientTransform="matrix(15.707,0,0,44.399,114.477,62.54)" gradientUnits="userSpaceOnUse"><stop offset="0%" stop-opacity="0.1" style="stop-color:rgb(128,128,128)"/></linearGradient><path d=" M 130.183 63.225 L 116.481 62.54 C 116.253 73.4 116.024 84.314 115.799 95.174 C 117.959 95.399 120.176 95.628 122.333 95.856 Q 126.244 79.483 130.183 63.225 Z  M 115.159 106.939 L 123.002 106.939 L 123.002 100.405 L 114.477 99.723 C 114.702 102.165 114.933 104.553 115.159 106.939 Z " fill="url(#_lgradient_7)"/></g></g></g></g></g><g><g><path d=" M 90.717 63.323 C 102.798 63.323 112.025 72.261 112.025 83.968 C 112.025 95.675 102.795 104.61 90.717 104.61 C 78.638 104.61 69.408 95.669 69.408 83.962 C 69.408 72.255 78.635 63.323 90.717 63.323 Z " fill="rgb(107,0,148)"/><g><g><path d=" M 89.8 76.886 C 89.847 76.169 89.901 75.455 90.003 74.745 L 73.792 74.745 L 73.792 76.886 C 75.419 76.987 77.002 77.139 78.635 77.241 C 81.693 80.961 84.75 84.685 87.859 88.453 L 87.859 94.216 C 86.127 94.369 84.392 94.47 82.66 94.626 L 82.66 96.51 L 98.668 96.51 L 98.668 94.626 C 96.936 94.521 95.201 94.473 93.47 94.419 C 93.524 92.383 93.571 90.296 93.622 88.253 C 96.626 85.602 99.588 82.953 102.544 80.302 C 104.07 80.2 105.602 80.099 107.181 79.946 L 107.181 77.447 C 102.646 77.501 98.158 77.549 93.622 77.65 L 93.622 79.743 C 95.303 79.845 96.987 79.893 98.668 79.946 C 96.477 81.834 94.282 83.667 92.093 85.554 C 89.851 82.801 87.605 79.997 85.362 77.244 C 86.841 77.089 88.315 76.987 89.8 76.886 Z " fill="rgb(255,255,255)"/></g></g><g><g><path d=" M 126.859 65.366 L 114.572 64.75 C 114.366 74.488 114.163 84.276 113.96 94.017 C 115.894 94.22 117.883 94.423 119.821 94.629 Q 123.339 79.946 126.859 65.366 Z  M 113.401 104.566 L 120.436 104.566 L 120.436 98.705 L 112.792 98.092 C 112.992 100.284 113.198 102.425 113.401 104.566 Z " fill="rgb(107,0,148)"/></g></g></g></g><g><g><linearGradient id="_lgradient_8" x1="0" y1="0.5" x2="6.123233995736766e-17" y2="-0.5" gradientTransform="matrix(28.48,0,0,35.597,148.25,70.691)" gradientUnits="userSpaceOnUse"><stop offset="0%" stop-opacity="0.1" style="stop-color:rgb(128,128,128)"/></linearGradient><path d=" M 156.351 106.288 L 148.25 100.611 L 148.25 70.691 L 156.402 73.187 L 156.402 93.306 L 148.485 100.36 L 167.804 90.198 L 162.45 87.774 L 158.825 79.915 L 176.73 85.402 L 176.73 94.153 L 156.351 106.288 L 156.351 106.288 Z " fill="url(#_lgradient_8)"/></g><g><g><linearGradient id="_lgradient_9" x1="0" y1="0.5" x2="6.123233995736766e-17" y2="-0.5" gradientTransform="matrix(13.978,0,0,22.856,187.381,76.66)" gradientUnits="userSpaceOnUse"><stop offset="0%" stop-opacity="0.1" style="stop-color:rgb(128,128,128)"/></linearGradient><path d=" M 189.883 96.963 L 189.813 96.963 L 189.813 99.158 L 187.381 99.158 L 187.381 76.66 L 189.813 77.387 L 189.813 86.636 L 189.874 86.636 Q 191.669 83.61 195.126 83.607 Q 198.051 83.607 199.703 85.646 Q 201.356 87.686 201.359 91.114 Q 201.359 94.921 199.503 97.22 Q 197.648 99.52 194.428 99.513 C 192.555 99.583 190.8 98.598 189.883 96.963 Z  M 189.813 90.835 L 189.813 92.957 C 189.787 94.142 190.226 95.29 191.038 96.154 C 191.92 97.057 193.151 97.534 194.411 97.462 C 195.672 97.389 196.839 96.775 197.613 95.777 Q 198.882 94.086 198.882 91.073 Q 198.882 88.536 197.708 87.096 C 196.938 86.141 195.762 85.607 194.536 85.656 C 193.234 85.607 191.979 86.151 191.123 87.134 C 190.24 88.161 189.772 89.481 189.813 90.835 Z " fill="url(#_lgradient_9)"/></g><g><linearGradient id="_lgradient_10" x1="0" y1="0.5" x2="6.123233995736766e-17" y2="-0.5" gradientTransform="matrix(3.19,0,0,21.826,204.225,77.345)" gradientUnits="userSpaceOnUse"><stop offset="0%" stop-opacity="0.1" style="stop-color:rgb(128,128,128)"/></linearGradient><path d=" M 205.799 80.505 C 205.384 80.513 204.982 80.353 204.686 80.061 C 204.38 79.766 204.213 79.356 204.226 78.931 C 204.218 78.508 204.383 78.101 204.682 77.801 C 204.981 77.502 205.389 77.338 205.812 77.346 C 206.236 77.339 206.645 77.502 206.948 77.799 C 207.247 78.097 207.415 78.501 207.415 78.924 C 207.415 79.346 207.247 79.75 206.948 80.048 C 206.644 80.352 206.229 80.517 205.799 80.505 Z  M 206.986 99.171 L 204.553 99.171 L 204.553 83.962 L 206.986 83.962 L 206.986 99.171 Z " fill="url(#_lgradient_10)"/></g><g><linearGradient id="_lgradient_11" x1="0" y1="0.5" x2="6.123233995736766e-17" y2="-0.5" gradientTransform="matrix(12.614,0,0,15.545,211.033,83.619)" gradientUnits="userSpaceOnUse"><stop offset="0%" stop-opacity="0.1" style="stop-color:rgb(128,128,128)"/></linearGradient><path d=" M 223.647 99.161 L 221.214 99.161 L 221.214 90.493 Q 221.214 85.656 217.681 85.656 C 216.518 85.631 215.407 86.137 214.661 87.029 C 213.845 87.995 213.418 89.232 213.466 90.496 L 213.466 99.164 L 211.033 99.164 L 211.033 83.962 L 213.466 83.962 L 213.466 86.499 L 213.526 86.499 Q 215.248 83.619 218.512 83.619 Q 221.005 83.619 222.318 85.231 Q 223.631 86.842 223.638 89.884 L 223.647 99.161 Z " fill="url(#_lgradient_11)"/></g><g><linearGradient id="_lgradient_12" x1="0" y1="0.5" x2="6.123233995736766e-17" y2="-0.5" gradientTransform="matrix(14.077,0,0,22.761,226.803,83.562)" gradientUnits="userSpaceOnUse"><stop offset="0%" stop-opacity="0.1" style="stop-color:rgb(128,128,128)"/></linearGradient><path d=" M 240.88 97.95 Q 240.88 106.32 232.864 106.32 C 231.155 106.359 229.461 105.991 227.923 105.245 L 228.589 103.066 C 230.076 103.802 231.443 104.211 232.814 104.211 C 236.43 104.211 238.431 102.247 238.431 98.27 L 238.431 96.608 L 238.371 96.608 Q 236.636 99.517 233.147 99.517 C 231.395 99.577 229.712 98.83 228.583 97.49 C 227.431 96.139 226.803 94.302 226.803 92.025 C 226.803 89.443 227.472 87.413 228.706 85.89 C 229.94 84.368 231.681 83.562 233.838 83.562 C 235.887 83.562 237.368 84.305 238.358 85.947 L 238.418 85.947 L 238.418 83.962 L 240.88 83.962 L 240.88 97.95 Z  M 238.447 92.294 L 238.447 90.052 C 238.453 87.669 236.554 85.717 234.171 85.659 C 230.647 85.659 229.388 88.866 229.363 91.891 C 229.363 94.781 230.831 97.36 233.829 97.36 C 236.826 97.36 238.402 94.984 238.431 92.288 L 238.447 92.294 Z " fill="url(#_lgradient_12)"/></g></g></g><g><path d=" M 158.444 105.315 L 150.8 99.945 L 150.8 71.665 L 158.504 74.025 L 158.504 93.04 L 151.022 99.7 L 169.282 90.093 L 164.207 87.803 L 160.782 80.375 L 177.707 85.58 L 177.707 93.826 L 158.444 105.315 Z " fill="rgb(244,189,39)"/><g><path d=" M 190.131 96.5 L 190.074 96.5 L 190.074 98.584 L 187.783 98.584 L 187.783 77.333 L 190.083 78.018 L 190.083 86.759 L 190.131 86.759 Q 191.828 83.905 195.098 83.905 Q 197.86 83.905 199.424 85.833 Q 200.988 87.762 200.988 91.003 Q 200.988 94.61 199.234 96.776 Q 197.48 98.942 194.444 98.901 C 192.669 98.975 191.003 98.048 190.131 96.5 L 190.131 96.5 Z  M 190.074 90.705 L 190.074 92.71 C 190.051 93.83 190.471 94.915 191.241 95.729 C 192.074 96.584 193.238 97.035 194.429 96.966 C 195.621 96.897 196.724 96.315 197.454 95.371 Q 198.641 93.785 198.641 90.93 Q 198.641 88.533 197.534 87.172 C 196.805 86.269 195.692 85.764 194.533 85.811 C 193.302 85.765 192.116 86.278 191.307 87.207 C 190.481 88.177 190.045 89.421 190.086 90.696 L 190.074 90.705 Z " fill="rgb(244,189,39)"/><path d=" M 205.184 80.93 C 204.79 80.937 204.411 80.785 204.131 80.508 C 203.842 80.23 203.685 79.843 203.696 79.442 C 203.689 79.044 203.843 78.66 204.123 78.377 C 204.403 78.095 204.786 77.937 205.184 77.942 C 205.585 77.934 205.971 78.089 206.256 78.37 C 206.539 78.651 206.699 79.034 206.699 79.433 C 206.699 79.832 206.539 80.214 206.256 80.495 C 205.973 80.78 205.586 80.937 205.184 80.93 L 205.184 80.93 Z  M 206.307 98.584 L 204.007 98.584 L 204.007 84.213 L 206.307 84.213 L 206.307 98.584 Z " fill="rgb(244,189,39)"/><path d=" M 222.052 98.584 L 219.752 98.584 L 219.752 90.385 Q 219.752 85.811 216.412 85.811 C 215.313 85.788 214.263 86.265 213.558 87.108 C 212.787 88.022 212.385 89.19 212.428 90.385 L 212.428 98.584 L 210.129 98.584 L 210.129 84.213 L 212.428 84.213 L 212.428 86.598 L 212.486 86.598 Q 214.113 83.876 217.199 83.876 Q 219.556 83.876 220.805 85.399 Q 222.055 86.921 222.055 89.795 L 222.052 98.584 Z " fill="rgb(244,189,39)"/><path d=" M 238.342 97.426 Q 238.342 105.337 230.768 105.337 C 229.158 105.374 227.562 105.028 226.112 104.328 L 226.746 102.266 C 228.154 102.961 229.448 103.348 230.739 103.348 C 234.159 103.348 236.049 101.493 236.049 97.734 L 236.049 96.148 L 235.992 96.148 Q 234.33 98.901 231.047 98.901 C 229.393 98.962 227.803 98.261 226.733 96.998 C 225.645 95.729 225.052 93.985 225.052 91.834 C 225.052 89.392 225.687 87.476 226.86 86.036 C 228.034 84.596 229.674 83.835 231.713 83.835 C 233.648 83.835 235.05 84.536 235.986 86.087 L 236.043 86.087 L 236.043 84.213 L 238.342 84.213 L 238.342 97.426 Z  M 236.027 92.082 L 236.027 89.963 C 236.033 87.715 234.245 85.873 231.999 85.811 C 228.668 85.811 227.479 88.84 227.453 91.701 C 227.453 94.432 228.843 96.868 231.675 96.868 C 234.507 96.868 235.998 94.629 236.027 92.082 Z " fill="rgb(244,189,39)"/></g></g><g><g><linearGradient id="_lgradient_13" x1="0" y1="0.5" x2="6.123233995736766e-17" y2="-0.5" gradientTransform="matrix(9.679,0,0,17.585,237.01,47.638)" gradientUnits="userSpaceOnUse"><stop offset="0%" stop-opacity="0.1" style="stop-color:rgb(128,128,128)"/></linearGradient><path d=" M 243.116 47.638 C 241.432 47.638 239.678 48.869 239.678 48.869 L 239.678 48.079 C 239.678 47.905 239.608 47.835 239.436 47.835 L 237.286 47.835 C 237.216 47.827 237.146 47.849 237.093 47.895 C 237.041 47.942 237.01 48.009 237.01 48.079 L 237.01 64.937 C 237.01 65.112 237.08 65.217 237.254 65.217 L 239.44 65.217 C 239.51 65.215 239.577 65.184 239.623 65.131 C 239.669 65.078 239.69 65.007 239.681 64.937 L 239.681 50.506 C 240.364 50.108 241.136 49.889 241.926 49.871 C 243.1 49.871 244.023 50.455 244.023 51.648 L 244.023 64.944 C 244.016 65.019 244.043 65.094 244.096 65.147 C 244.149 65.201 244.223 65.229 244.299 65.223 L 246.446 65.223 C 246.517 65.222 246.583 65.19 246.629 65.137 C 246.675 65.084 246.696 65.014 246.687 64.944 L 246.687 50.883 C 246.687 48.768 245.387 47.638 243.116 47.638 Z " fill="url(#_lgradient_13)"/></g><g><linearGradient id="_lgradient_14" x1="0" y1="0.5" x2="6.123233995736766e-17" y2="-0.5" gradientTransform="matrix(10.758,0,0,26.478,249.345,39.179)" gradientUnits="userSpaceOnUse"><stop offset="0%" stop-opacity="0.1" style="stop-color:rgb(128,128,128)"/></linearGradient><path d=" M 259.834 39.182 L 257.69 39.182 C 257.62 39.174 257.55 39.196 257.498 39.243 C 257.445 39.289 257.415 39.356 257.414 39.427 L 257.414 47.93 C 256.721 47.64 255.982 47.476 255.232 47.445 C 251.743 47.445 249.345 50.785 249.345 57.205 C 249.345 62.704 251.676 65.657 254.718 65.657 C 255.987 65.657 257.059 64.922 257.833 64.233 L 258.302 65.029 C 258.353 65.157 258.484 65.233 258.62 65.213 L 259.857 65.213 C 259.928 65.213 259.995 65.182 260.042 65.129 C 260.088 65.075 260.11 65.005 260.101 64.934 L 260.101 39.423 C 260.101 39.249 260.031 39.179 259.86 39.179 L 259.834 39.182 Z  M 252.181 56.627 C 252.181 53.091 253.215 49.586 255.327 49.586 C 256.09 49.592 256.826 49.866 257.408 50.36 L 257.408 62.825 C 256.829 63.164 256.175 63.354 255.505 63.38 C 253.196 63.377 252.181 60.662 252.181 56.637 L 252.181 56.627 Z " fill="url(#_lgradient_14)"/></g><g><linearGradient id="_lgradient_15" x1="0" y1="0.5" x2="6.123233995736766e-17" y2="-0.5" gradientTransform="matrix(9.969,0,0,18.114,262.724,47.48)" gradientUnits="userSpaceOnUse"><stop offset="0%" stop-opacity="0.1" style="stop-color:rgb(128,128,128)"/></linearGradient><path d=" M 268.068 47.48 C 264.491 47.48 262.724 52.165 262.724 57.265 C 262.724 62.603 265.242 65.594 268.484 65.594 C 269.81 65.545 271.104 65.175 272.255 64.516 C 272.373 64.458 272.43 64.323 272.388 64.198 L 272.116 63.069 C 272.107 63.005 272.073 62.947 272.021 62.908 C 271.969 62.869 271.904 62.853 271.84 62.863 C 271.057 63.061 270.255 63.176 269.448 63.206 C 266.797 63.206 265.582 60.846 265.582 57.715 L 265.582 56.954 C 266.281 57.052 266.985 57.113 267.691 57.138 L 272.693 57.138 L 272.693 55.692 C 272.693 50.35 270.825 47.492 268.072 47.492 L 268.068 47.48 Z  M 267.897 54.956 C 267.104 54.956 265.677 55.152 265.677 55.152 C 265.677 55.152 265.696 54.578 265.766 54.026 C 266.083 51.099 266.774 49.618 267.986 49.618 C 269.033 49.618 269.753 51.134 269.924 53.785 C 269.959 54.337 269.959 54.956 269.959 54.956 L 267.919 54.956 L 267.897 54.956 Z " fill="url(#_lgradient_15)"/></g><g><linearGradient id="_lgradient_16" x1="0" y1="0.5" x2="6.123233995736766e-17" y2="-0.5" gradientTransform="matrix(9.863,0,0,18.257,223.831,47.416)" gradientUnits="userSpaceOnUse"><stop offset="0%" stop-opacity="0.1" style="stop-color:rgb(128,128,128)"/></linearGradient><path d=" M 232.925 49.668 C 232.129 48.101 230.704 47.416 229.093 47.416 C 227.799 47.484 226.528 47.784 225.341 48.304 C 225.128 48.4 224.995 48.485 224.995 48.65 C 225.004 48.763 225.04 48.872 225.1 48.967 L 225.833 50.534 C 225.874 50.662 225.993 50.75 226.128 50.753 C 226.234 50.745 226.335 50.705 226.419 50.639 C 227.479 49.96 228.256 49.589 228.868 49.589 C 229.68 49.589 230.232 50.128 230.571 50.94 C 230.906 51.906 231.056 52.926 231.012 53.947 C 231.012 54.103 231.012 54.302 231.012 54.302 C 230.271 53.91 229.449 53.693 228.611 53.668 C 225.506 53.668 223.831 56.621 223.831 59.777 C 223.831 63.18 225.788 65.673 228.142 65.673 C 229.452 65.673 230.638 64.903 231.431 63.935 C 231.431 63.935 231.853 64.944 231.91 65.064 C 231.947 65.179 232.063 65.249 232.183 65.229 L 233.451 65.229 C 233.522 65.228 233.588 65.197 233.634 65.144 C 233.68 65.09 233.701 65.02 233.692 64.95 L 233.692 55.156 C 233.692 52.751 233.572 50.918 232.937 49.668 L 232.925 49.668 Z  M 231.022 62.479 C 230.49 63.028 229.768 63.353 229.004 63.386 C 228.361 63.385 227.763 63.054 227.418 62.511 C 226.917 61.82 226.686 60.754 226.686 59.577 C 226.686 57.712 227.374 55.799 228.833 55.799 C 229.63 55.803 230.402 56.076 231.025 56.573 L 231.025 62.482 L 231.022 62.479 Z " fill="url(#_lgradient_16)"/></g><g><linearGradient id="_lgradient_17" x1="0" y1="0.5" x2="6.123233995736766e-17" y2="-0.5" gradientTransform="matrix(10.032,0,0,17.385,274.277,47.829)" gradientUnits="userSpaceOnUse"><stop offset="0%" stop-opacity="0.1" style="stop-color:rgb(128,128,128)"/></linearGradient><path d=" M 284.042 47.835 L 282.139 47.835 C 281.969 47.824 281.813 47.93 281.761 48.092 C 281.641 48.409 280.829 50.544 280.492 51.429 C 280.255 52.063 279.617 53.868 279.617 53.868 L 279.544 53.868 C 279.544 53.868 279.075 52.551 278.821 51.898 C 278.618 51.365 277.552 48.555 277.413 48.206 C 277.34 48.019 277.26 47.835 276.984 47.835 L 274.881 47.835 C 274.784 47.841 274.695 47.89 274.639 47.97 C 274.584 48.05 274.568 48.151 274.596 48.244 C 274.672 48.403 278.012 56.018 278.012 56.018 C 278.012 56.018 274.425 64.547 274.32 64.738 C 274.263 64.837 274.263 64.959 274.322 65.058 C 274.38 65.157 274.488 65.216 274.602 65.213 L 276.439 65.213 C 276.756 65.213 276.873 65.048 276.969 64.785 C 277.232 64.046 277.625 63.015 278.183 61.423 C 278.551 60.367 279.135 58.518 279.135 58.518 L 279.198 58.518 C 279.198 58.518 279.833 60.405 280.074 61.02 C 280.673 62.581 281.444 64.617 281.523 64.826 C 281.603 65.036 281.726 65.207 281.942 65.207 L 284.016 65.207 C 284.222 65.207 284.333 64.972 284.222 64.766 C 283.991 64.278 282.002 59.463 280.638 56.301 C 280.638 56.301 284.207 48.422 284.276 48.228 C 284.346 48.035 284.324 47.829 284.032 47.829 L 284.042 47.835 Z " fill="url(#_lgradient_17)"/></g><g><linearGradient id="_lgradient_18" x1="0" y1="0.5" x2="6.123233995736766e-17" y2="-0.5" gradientTransform="matrix(15.508,0,0,28.569,210.74,36.616)" gradientUnits="userSpaceOnUse"><stop offset="0%" stop-opacity="0.1" style="stop-color:rgb(128,128,128)"/></linearGradient><path d=" M 226.004 36.645 L 223.587 36.645 C 223.414 36.623 223.253 36.733 223.209 36.902 C 223.178 37.054 219.587 48.003 219.324 48.929 C 219.14 49.564 218.534 51.86 218.391 52.418 L 217.142 49.005 C 216.825 48.054 213.929 39.931 213.843 39.604 C 213.796 39.427 213.713 39.204 213.402 39.204 L 211.042 39.204 C 210.949 39.209 210.863 39.254 210.806 39.328 C 210.749 39.402 210.728 39.497 210.747 39.588 C 210.808 39.715 215.067 51.058 216.774 55.39 L 216.774 64.906 C 216.774 65.08 216.844 65.185 217.018 65.185 L 219.238 65.185 C 219.309 65.184 219.375 65.152 219.421 65.099 C 219.467 65.046 219.488 64.976 219.479 64.906 L 219.479 55.454 C 220.913 51.445 226.14 37.178 226.213 37.016 C 226.286 36.854 226.264 36.616 225.969 36.616 L 226.004 36.645 Z " fill="url(#_lgradient_18)"/></g></g><g><path d=" M 243.417 47.879 C 241.85 47.879 240.214 49.024 240.214 49.024 L 240.214 48.289 C 240.214 48.127 240.15 48.063 239.988 48.063 L 237.987 48.063 C 237.922 48.056 237.858 48.077 237.809 48.119 C 237.76 48.162 237.731 48.224 237.73 48.289 L 237.73 63.986 C 237.73 64.148 237.793 64.246 237.955 64.246 L 239.988 64.246 C 240.054 64.245 240.116 64.216 240.159 64.166 C 240.202 64.116 240.222 64.051 240.214 63.986 L 240.214 50.55 C 240.848 50.176 241.568 49.97 242.304 49.951 C 243.395 49.951 244.258 50.493 244.258 51.603 L 244.258 63.973 C 244.251 64.043 244.276 64.113 244.325 64.163 C 244.375 64.214 244.444 64.239 244.515 64.233 L 246.516 64.233 C 246.582 64.233 246.644 64.204 246.688 64.154 C 246.731 64.105 246.75 64.038 246.741 63.973 L 246.741 50.902 C 246.744 48.929 245.536 47.879 243.417 47.879 Z " fill="rgb(1,2,2)"/><path d=" M 258.984 40.007 L 256.983 40.007 C 256.918 40 256.854 40.02 256.805 40.063 C 256.756 40.106 256.727 40.167 256.726 40.232 L 256.726 48.162 C 256.08 47.892 255.392 47.74 254.693 47.711 C 251.442 47.711 249.212 50.82 249.212 56.799 C 249.212 61.921 251.381 64.668 254.214 64.668 C 255.407 64.668 256.393 63.983 257.116 63.342 L 257.554 64.084 C 257.599 64.198 257.714 64.268 257.836 64.255 L 258.988 64.255 C 259.053 64.254 259.115 64.225 259.158 64.176 C 259.201 64.126 259.221 64.06 259.213 63.995 L 259.213 40.223 C 259.213 40.061 259.149 39.997 258.988 39.997 L 258.984 40.007 Z  M 251.857 56.259 C 251.857 52.964 252.809 49.703 254.788 49.703 C 255.498 49.709 256.184 49.964 256.726 50.423 L 256.726 62.029 C 256.184 62.346 255.571 62.523 254.943 62.546 C 252.806 62.546 251.86 60.005 251.86 56.259 L 251.857 56.259 Z " fill="rgb(1,2,2)"/><path d=" M 266.651 47.733 C 263.317 47.733 261.674 52.095 261.674 56.843 C 261.674 61.813 264.021 64.598 267.034 64.598 C 268.269 64.554 269.474 64.21 270.546 63.596 C 270.666 63.541 270.721 63.4 270.669 63.279 L 270.416 62.229 C 270.409 62.168 270.377 62.113 270.329 62.077 C 270.28 62.04 270.219 62.025 270.159 62.035 C 269.432 62.218 268.688 62.325 267.938 62.352 C 265.471 62.352 264.338 60.157 264.338 57.239 L 264.338 56.532 C 264.989 56.623 265.645 56.681 266.302 56.703 L 270.958 56.703 L 270.958 55.355 C 270.958 50.382 269.217 47.721 266.654 47.721 L 266.651 47.733 Z  M 266.489 54.696 C 265.753 54.696 264.411 54.876 264.411 54.876 C 264.411 54.876 264.43 54.34 264.494 53.827 C 264.782 51.099 265.445 49.722 266.555 49.722 C 267.532 49.722 268.198 51.134 268.36 53.605 C 268.392 54.118 268.392 54.696 268.392 54.696 L 266.489 54.696 L 266.489 54.696 Z " fill="rgb(1,2,2)"/><path d=" M 233.933 49.773 C 233.194 48.314 231.875 47.676 230.365 47.676 C 229.162 47.739 227.98 48.018 226.876 48.501 C 226.679 48.59 226.559 48.669 226.559 48.818 C 226.568 48.922 226.602 49.022 226.657 49.11 L 227.339 50.569 C 227.377 50.69 227.489 50.772 227.615 50.772 C 227.714 50.765 227.809 50.728 227.888 50.667 C 228.874 50.033 229.597 49.691 230.168 49.691 C 230.926 49.691 231.437 50.192 231.754 50.959 C 232.066 51.859 232.205 52.809 232.163 53.76 C 232.163 53.903 232.163 54.077 232.163 54.077 C 231.479 53.71 230.72 53.504 229.943 53.474 C 227.051 53.474 225.503 56.224 225.503 59.162 C 225.503 62.333 227.326 64.652 229.515 64.652 C 230.736 64.652 231.84 63.935 232.579 63.031 C 232.579 63.031 232.972 63.983 233.023 64.084 C 233.058 64.192 233.165 64.258 233.277 64.24 L 234.447 64.24 C 234.513 64.238 234.575 64.209 234.618 64.16 C 234.661 64.11 234.681 64.045 234.672 63.98 L 234.672 54.88 C 234.672 52.643 234.558 50.937 233.968 49.773 L 233.933 49.773 Z  M 232.151 61.702 C 231.656 62.213 230.984 62.515 230.273 62.546 C 229.673 62.545 229.116 62.237 228.795 61.731 C 228.329 61.096 228.113 60.097 228.113 59 C 228.113 57.265 228.747 55.482 230.111 55.482 C 230.853 55.486 231.571 55.739 232.151 56.202 L 232.151 61.702 Z " fill="rgb(1,2,2)"/><path d=" M 281.523 48.06 L 279.741 48.06 C 279.582 48.05 279.436 48.149 279.389 48.301 C 279.274 48.599 278.523 50.585 278.212 51.406 C 277.993 51.993 277.397 53.677 277.397 53.677 L 277.327 53.677 C 277.327 53.677 276.889 52.453 276.654 51.841 C 276.464 51.346 275.471 48.726 275.345 48.403 C 275.278 48.228 275.202 48.057 274.948 48.057 L 272.994 48.057 C 272.903 48.059 272.817 48.105 272.765 48.18 C 272.712 48.255 272.699 48.351 272.728 48.438 C 272.798 48.584 275.9 55.676 275.9 55.676 C 275.9 55.676 272.56 63.605 272.461 63.796 C 272.421 63.889 272.428 63.996 272.481 64.083 C 272.533 64.17 272.623 64.227 272.725 64.236 L 274.437 64.236 C 274.729 64.236 274.843 64.084 274.932 63.837 C 275.18 63.149 275.544 62.187 276.065 60.706 C 276.407 59.723 276.953 58.001 276.953 58.001 L 277.013 58.001 C 277.013 58.001 277.609 59.758 277.828 60.332 C 278.386 61.785 279.097 63.681 279.179 63.881 C 279.262 64.081 279.37 64.236 279.569 64.236 L 281.511 64.236 C 281.704 64.236 281.793 64.018 281.701 63.827 C 281.485 63.371 279.642 58.892 278.361 55.945 C 278.361 55.945 281.682 48.612 281.745 48.428 C 281.809 48.244 281.79 48.054 281.517 48.054 L 281.523 48.06 Z " fill="rgb(1,2,2)"/><path d=" M 227.488 37.644 L 225.239 37.644 C 225.077 37.622 224.925 37.726 224.887 37.885 C 224.859 38.028 221.513 48.235 221.271 49.085 C 221.1 49.687 220.536 51.812 220.402 52.323 L 219.238 49.151 C 218.956 48.276 216.247 40.702 216.168 40.4 C 216.124 40.235 216.048 40.026 215.756 40.026 L 213.561 40.026 C 213.469 40.028 213.384 40.074 213.331 40.149 C 213.279 40.224 213.265 40.32 213.294 40.407 C 213.348 40.524 217.316 51.086 218.918 55.121 L 218.918 64.002 C 218.918 64.163 218.981 64.262 219.143 64.262 L 221.214 64.262 C 221.28 64.261 221.342 64.231 221.385 64.182 C 221.428 64.132 221.448 64.067 221.44 64.002 L 221.44 55.184 C 222.775 51.451 227.656 38.167 227.707 38.018 C 227.758 37.869 227.751 37.644 227.479 37.644 L 227.488 37.644 Z " fill="rgb(229,38,32)"/></g><g><clipPath id="_clipPath_mrRhMcnkkuQZXbo8yp8R0iYBzRCgua9z"><path d=" M 161.73 23.526 L 143.785 23.526 L 143.785 30.967 L 154.114 30.967 C 153.151 35.694 149.125 38.408 143.785 38.408 C 137.482 38.408 132.404 33.331 132.404 27.028 C 132.404 20.725 137.482 15.648 143.785 15.648 C 146.498 15.648 148.95 16.611 150.875 18.186 L 156.478 12.584 C 153.064 9.607 148.687 7.769 143.785 7.769 C 133.105 7.769 124.526 16.348 124.526 27.028 C 124.526 37.708 133.105 46.287 143.785 46.287 C 153.414 46.287 162.168 39.283 162.168 27.028 C 162.168 25.89 161.993 24.664 161.73 23.526 Z " fill="rgb(255,255,255)"/></clipPath><g clip-path="url(#_clipPath_mrRhMcnkkuQZXbo8yp8R0iYBzRCgua9z)"><path d=" M 122.775 38.408 L 122.775 15.648 L 137.657 27.028 L 122.775 38.408 Z " fill="rgb(251,188,5)"/></g><clipPath id="_clipPath_tbf0yZqaPiA6LnP66K7yXUmom5Sf4e3Y"><path d=" M 161.73 23.526 L 143.785 23.526 L 143.785 30.967 L 154.114 30.967 C 153.151 35.694 149.125 38.408 143.785 38.408 C 137.482 38.408 132.404 33.331 132.404 27.028 C 132.404 20.725 137.482 15.648 143.785 15.648 C 146.498 15.648 148.95 16.611 150.875 18.186 L 156.478 12.584 C 153.064 9.607 148.687 7.769 143.785 7.769 C 133.105 7.769 124.526 16.348 124.526 27.028 C 124.526 37.708 133.105 46.287 143.785 46.287 C 153.414 46.287 162.168 39.283 162.168 27.028 C 162.168 25.89 161.993 24.664 161.73 23.526 Z " fill="rgb(255,255,255)"/></clipPath><g clip-path="url(#_clipPath_tbf0yZqaPiA6LnP66K7yXUmom5Sf4e3Y)"><path d=" M 122.775 15.648 L 137.657 27.028 L 143.785 21.688 L 164.794 18.274 L 164.794 6.018 L 122.775 6.018 L 122.775 15.648 Z " fill="rgb(234,67,53)"/></g><clipPath id="_clipPath_Iz77KxuDnFaSETiF1eO2lwP87A6zAKhU"><path d=" M 161.73 23.526 L 143.785 23.526 L 143.785 30.967 L 154.114 30.967 C 153.151 35.694 149.125 38.408 143.785 38.408 C 137.482 38.408 132.404 33.331 132.404 27.028 C 132.404 20.725 137.482 15.648 143.785 15.648 C 146.498 15.648 148.95 16.611 150.875 18.186 L 156.478 12.584 C 153.064 9.607 148.687 7.769 143.785 7.769 C 133.105 7.769 124.526 16.348 124.526 27.028 C 124.526 37.708 133.105 46.287 143.785 46.287 C 153.414 46.287 162.168 39.283 162.168 27.028 C 162.168 25.89 161.993 24.664 161.73 23.526 Z " fill="rgb(255,255,255)"/></clipPath><g clip-path="url(#_clipPath_Iz77KxuDnFaSETiF1eO2lwP87A6zAKhU)"><path d=" M 122.775 38.408 L 149.037 18.274 L 155.953 19.149 L 164.794 6.018 L 164.794 48.037 L 122.775 48.037 L 122.775 38.408 Z " fill="rgb(52,168,83)"/></g><clipPath id="_clipPath_WY2B4Ujmnt2jrLoocJPM0UnLn5btITGe"><path d=" M 161.73 23.526 L 143.785 23.526 L 143.785 30.967 L 154.114 30.967 C 153.151 35.694 149.125 38.408 143.785 38.408 C 137.482 38.408 132.404 33.331 132.404 27.028 C 132.404 20.725 137.482 15.648 143.785 15.648 C 146.498 15.648 148.95 16.611 150.875 18.186 L 156.478 12.584 C 153.064 9.607 148.687 7.769 143.785 7.769 C 133.105 7.769 124.526 16.348 124.526 27.028 C 124.526 37.708 133.105 46.287 143.785 46.287 C 153.414 46.287 162.168 39.283 162.168 27.028 C 162.168 25.89 161.993 24.664 161.73 23.526 Z " fill="rgb(255,255,255)"/></clipPath><g clip-path="url(#_clipPath_WY2B4Ujmnt2jrLoocJPM0UnLn5btITGe)"><path d=" M 164.794 48.037 L 137.657 27.028 L 134.155 24.402 L 164.794 15.648 L 164.794 48.037 Z " fill="rgb(66,133,244)"/></g></g></g></g></svg>