<?xml version="1.0" encoding="UTF-8" standalone="no"?>
<svg
   xmlns:dc="http://purl.org/dc/elements/1.1/"
   xmlns:cc="http://creativecommons.org/ns#"
   xmlns:rdf="http://www.w3.org/1999/02/22-rdf-syntax-ns#"
   xmlns:svg="http://www.w3.org/2000/svg"
   xmlns="http://www.w3.org/2000/svg"
   id="svg186"
   version="1.1"
   height="364"
   width="665"
   viewBox="0 0 665 364"
   style="isolation:isolate">
  <metadata
     id="metadata190">
    <rdf:RDF>
      <cc:Work
         rdf:about="">
        <dc:format>image/svg+xml</dc:format>
        <dc:type
           rdf:resource="http://purl.org/dc/dcmitype/StillImage" />
        <dc:title></dc:title>
      </cc:Work>
    </rdf:RDF>
  </metadata>
  <defs
     id="defs5">
    <clipPath
       id="_clipPath_dDcT6otcxgTQ8wRCSxTnMUIpKxVgNVwI">
      <rect
         id="rect2"
         height="364"
         width="665" />
    </clipPath>
  </defs>
  <g
     id="g184"
     clip-path="url(#_clipPath_dDcT6otcxgTQ8wRCSxTnMUIpKxVgNVwI)">
    <g
       id="g182">
      <g
         id="g9"
         opacity="0.2">
        <path
           id="path7"
           fill="rgb(128,204,65)"
           d=" M 98.923 0.057 C 93.68 -0.093 88.308 0.057 83.39 1.566 C 70.01 5.677 63.668 19.128 65.73 30.752 C 67.792 42.375 76.274 52.503 85.075 61.759 C 93.875 71.015 103.411 80.167 108.237 91.231 C 110.644 96.753 111.769 102.939 109.324 108.455 C 105.551 116.956 94.175 121.705 83.254 122.693 C 72.332 123.682 61.366 121.757 50.406 121.113 C 45.807 120.846 41.078 120.813 36.746 122.056 C 31.991 123.409 28.03 126.173 24.388 129.055 C 10.175 140.359 -1.201 155.782 0.64 171.985 C 2.721 190.347 21.285 204.858 41.618 212.644 C 48.35 215.246 55.473 217.315 61.398 220.996 C 77.009 230.707 80.515 248.92 78.961 264.993 C 77.406 281.065 72.111 297.158 75.058 313.087 C 78.525 331.619 93.869 348.361 114.566 356.18 C 133.007 363.146 156.085 362.684 172.457 352.856 C 180.438 348.055 186.474 341.388 191.723 334.494 C 199.517 324.312 205.956 313.161 210.879 301.32 C 213.162 295.798 215.308 289.859 220.636 286.022 C 223.888 283.661 228.103 282.34 232.272 281.313 C 244.839 278.216 258.076 277.371 270.759 274.613 C 283.443 271.855 296.205 266.697 303.1 257.526 C 312.857 244.516 308.304 227.852 308.349 212.553 C 308.427 177.65 333.788 146.409 343.148 112.384 C 346.205 101.267 347.344 88.967 340.514 79.048 C 335.876 72.316 328.051 67.457 319.83 63.704 C 301.741 55.449 281.18 51.774 260.957 48.197 C 232.851 43.227 198.722 42.584 176.938 26.504 C 156.033 11.069 127.432 0.057 98.923 0.057 Z " />
      </g>
      <path
         id="path11"
         fill="rgb(128,204,65)"
         d=" M 623.045 121.555 C 623.045 121.555 599.739 144.861 612.897 179.445 C 626.056 214.03 590.34 271.543 590.34 271.543 C 590.34 271.543 590.723 271.484 591.432 271.361 C 639.299 262.905 663.086 208.163 636.47 167.49 C 626.576 152.373 618.452 134.655 623.045 121.555 Z " />
      <mask
         height="400%"
         width="400%"
         y="-200%"
         x="-200%"
         id="_mask_5U1QsJ1hLO93ImHQKEMqBFsViPzNM0oO">
        <rect
           id="rect13"
           style="fill:white;"
           height="400%"
           width="400%"
           y="-200%"
           x="-200%" />
        <path
           id="path15"
           stroke="none"
           fill="black"
           d=" M 623.045 121.555 C 623.045 121.555 609.886 150.123 623.045 173.428 C 636.203 196.734 625.302 262.144 590.34 271.543" />
      </mask>
      <path
         id="path18"
         stroke-miterlimit="10"
         stroke-linecap="butt"
         stroke-linejoin="miter"
         stroke="rgb(83,84,97)"
         stroke-width="4"
         vector-effect="non-scaling-stroke"
         mask="url(#_mask_5U1QsJ1hLO93ImHQKEMqBFsViPzNM0oO)"
         fill="none"
         d=" M 623.045 121.555 C 623.045 121.555 609.886 150.123 623.045 173.428 C 636.203 196.734 625.302 262.144 590.34 271.543" />
      <path
         id="path20"
         fill="rgb(128,204,65)"
         d=" M 664.556 215.825 C 664.556 215.825 637.959 211.591 635.54 235.423 C 635.54 235.423 584.401 262.56 584.401 262.56 L 585.312 263.165 C 625.536 289.567 664.016 279.986 658.162 244.952 C 656.035 231.891 656.211 218.798 664.556 215.825 Z " />
      <g
         id="g24"
         opacity="0.2">
        <path
           id="path22"
           fill="rgb(245,245,245)"
           d=" M 664.556 215.825 C 664.556 215.825 637.959 211.591 635.54 235.423 C 635.54 235.423 584.401 262.56 584.401 262.56 L 585.312 263.165 C 625.536 289.567 664.016 279.986 658.162 244.952 C 656.035 231.891 656.211 218.798 664.556 215.825 Z " />
      </g>
      <mask
         height="400%"
         width="400%"
         y="-200%"
         x="-200%"
         id="_mask_edd24dyPxPkFl0m7KQvi0WQK19XM63yO">
        <rect
           id="rect26"
           style="fill:white;"
           height="400%"
           width="400%"
           y="-200%"
           x="-200%" />
        <path
           id="path28"
           stroke="none"
           fill="black"
           d=" M 664.556 215.825 C 664.556 215.825 643.911 220.378 645.609 239.124 C 645.609 239.124 614.953 280.395 584.401 262.54" />
      </mask>
      <path
         id="path31"
         stroke-miterlimit="10"
         stroke-linecap="butt"
         stroke-linejoin="miter"
         stroke="rgb(83,84,97)"
         stroke-width="4"
         vector-effect="non-scaling-stroke"
         mask="url(#_mask_edd24dyPxPkFl0m7KQvi0WQK19XM63yO)"
         fill="none"
         d=" M 664.556 215.825 C 664.556 215.825 643.911 220.378 645.609 239.124 C 645.609 239.124 614.953 280.395 584.401 262.54" />
      <linearGradient
         gradientUnits="userSpaceOnUse"
         gradientTransform="matrix(441.02,0,0,237.883,165.685,62.637)"
         y2="-0.000027336957431067788"
         x2="0.5000000000000001"
         y1="1.0000546866451643"
         x1="0.5"
         id="_lgradient_0">
        <stop
           id="stop33"
           style="stop-color:rgb(128,128,128)"
           stop-opacity="0.25"
           offset="0%" />
        <stop
           id="stop35"
           style="stop-color:rgb(128,128,128)"
           stop-opacity="0.12"
           offset="54%" />
        <stop
           id="stop37"
           style="stop-color:rgb(128,128,128)"
           stop-opacity="0.1"
           offset="100%" />
      </linearGradient>
      <path
         id="path40"
         fill="url(#_lgradient_0)"
         d=" M 603.004 273.149 L 561.219 273.149 C 562.181 271.215 562.679 269.084 562.676 266.925 L 562.676 76.628 C 562.676 68.901 556.412 62.637 548.685 62.637 L 225.189 62.637 C 221.477 62.635 217.917 64.109 215.291 66.733 C 212.666 69.357 211.191 72.916 211.191 76.628 L 211.191 266.931 C 211.188 269.091 211.686 271.222 212.648 273.156 L 169.386 273.156 C 168.405 273.156 167.463 273.546 166.769 274.24 C 166.075 274.934 165.685 275.875 165.685 276.857 L 165.685 279.843 C 165.696 291.266 174.96 300.52 186.383 300.52 L 586.008 300.52 C 591.497 300.52 596.761 298.34 600.643 294.458 C 604.524 290.577 606.705 285.312 606.705 279.823 L 606.705 276.837 C 606.698 274.798 605.043 273.149 603.004 273.149 L 603.004 273.149 Z  M 345.496 284.988 L 341.932 280.922 L 430.862 280.922 L 426.894 284.994 L 345.496 284.988 Z " />
      <path
         id="path42"
         style="stroke:none;fill:#535461;stroke-miterlimit:10;"
         d="M 230.295 65.33 L 543.553 65.33 C 551.903 65.33 558.682 72.109 558.682 80.459 L 558.682 263.542 C 558.682 271.892 551.903 278.672 543.553 278.672 L 230.295 278.672 C 221.945 278.672 215.165 271.892 215.165 263.542 L 215.165 80.459 C 215.165 72.109 221.945 65.33 230.295 65.33 Z" />
      <rect
         id="rect44"
         fill="rgb(128,204,65)"
         transform="matrix(1,0,0,1,0,0)"
         height="174.289"
         width="328.329"
         y="96.428"
         x="222.392" />
      <circle
         id="circle46"
         fill="rgb(255,255,255)"
         r="2.8945130873408402"
         cy="81.23988727547149"
         cx="386.55949554092433"
         vector-effect="non-scaling-stroke" />
      <path
         id="path48"
         fill="rgb(83,84,97)"
         d=" M 437.256 271.074 L 425.97 282.646 L 346.42 282.646 L 336.227 271.074 L 174.304 271.074 C 172.307 271.074 170.687 272.694 170.687 274.691 L 170.687 277.605 C 170.687 282.97 172.819 288.115 176.612 291.909 C 180.406 295.703 185.551 297.834 190.916 297.834 L 581.481 297.834 C 586.846 297.834 591.991 295.703 595.785 291.909 C 599.578 288.115 601.71 282.97 601.71 277.605 L 601.71 274.691 C 601.71 272.694 600.09 271.074 598.093 271.074 L 437.256 271.074 Z " />
      <linearGradient
         gradientUnits="userSpaceOnUse"
         gradientTransform="matrix(163.907,0,0,217.225,173.432,102.555)"
         y2="-0.5"
         x2="6.123233995736766e-17"
         y1="0.5"
         x1="0"
         id="_lgradient_1">
        <stop
           id="stop50"
           style="stop-color:rgb(128,128,128)"
           stop-opacity="0.1"
           offset="0%" />
      </linearGradient>
      <path
         id="path53"
         fill="url(#_lgradient_1)"
         d=" M 324.636 102.555 L 186.136 102.555 C 179.129 102.548 173.443 108.22 173.432 115.226 L 173.432 307.109 C 173.443 314.116 179.129 319.787 186.136 319.78 L 324.636 319.78 C 331.643 319.787 337.329 314.116 337.34 307.109 L 337.34 115.226 C 337.329 108.22 331.643 102.548 324.636 102.555 L 324.636 102.555 Z " />
      <path
         id="path55"
         style="stroke:none;fill:#535461;stroke-miterlimit:10;"
         d="M 188.386 105.157 L 322.379 105.157 C 329.559 105.157 335.388 110.986 335.388 118.166 L 335.388 304.846 C 335.388 312.026 329.559 317.855 322.379 317.855 L 188.386 317.855 C 181.206 317.855 175.377 312.026 175.377 304.846 L 175.377 118.166 C 175.377 110.986 181.206 105.157 188.386 105.157 Z" />
      <rect
         id="rect57"
         fill="rgb(128,204,65)"
         transform="matrix(1,0,0,1,0,0)"
         height="172.461"
         width="143.75"
         y="125.276"
         x="183.508" />
      <circle
         id="circle59"
         fill="rgb(255,255,255)"
         r="1.9513571375331793"
         cy="114.9138069455021"
         cx="254.7323118529746"
         vector-effect="non-scaling-stroke" />
      <circle
         id="circle61"
         fill="rgb(255,255,255)"
         r="5.8540714125995095"
         cy="307.4477111821077"
         cx="254.73231185297436"
         vector-effect="non-scaling-stroke" />
      <linearGradient
         gradientUnits="userSpaceOnUse"
         gradientTransform="matrix(85.203,0,0,169.768,140.91,167.6)"
         y2="-0.5"
         x2="6.123233995736766e-17"
         y1="0.5"
         x1="0"
         id="_lgradient_2">
        <stop
           id="stop63"
           style="stop-color:rgb(128,128,128)"
           stop-opacity="0.1"
           offset="0%" />
      </linearGradient>
      <path
         id="path66"
         fill="url(#_lgradient_2)"
         d=" M 219.068 167.6 L 147.954 167.6 C 146.089 167.597 144.299 168.334 142.978 169.651 C 141.657 170.967 140.913 172.754 140.91 174.619 L 140.91 330.35 C 140.913 332.215 141.657 334.002 142.978 335.318 C 144.299 336.634 146.089 337.372 147.954 337.369 L 219.068 337.369 C 220.933 337.372 222.723 336.634 224.044 335.318 C 225.365 334.002 226.109 332.215 226.112 330.35 L 226.112 174.619 C 226.109 172.754 225.365 170.967 224.044 169.651 C 222.723 168.334 220.933 167.597 219.068 167.6 L 219.068 167.6 Z " />
      <path
         id="path68"
         style="stroke:none;fill:#535461;stroke-miterlimit:10;"
         d="M 148.709 168.901 L 218.307 168.901 C 222.256 168.901 225.462 172.107 225.462 176.056 L 225.462 329.563 C 225.462 333.512 222.256 336.718 218.307 336.718 L 148.709 336.718 C 144.76 336.718 141.554 333.512 141.554 329.563 L 141.554 176.056 C 141.554 172.107 144.76 168.901 148.709 168.901 Z" />
      <rect
         id="rect70"
         fill="rgb(128,204,65)"
         transform="matrix(1,0,0,1,0,0)"
         height="136.595"
         width="71.55"
         y="184.512"
         x="147.733" />
      <circle
         id="circle72"
         fill="rgb(255,255,255)"
         r="0.6504523791777217"
         cy="176.70678296738643"
         cx="175.05189540370327"
         vector-effect="non-scaling-stroke" />
      <path
         id="path74"
         style="stroke:none;fill:#FFFFFF;stroke-miterlimit:10;"
         d="M 178.955 176.056 L 191.964 176.056 C 192.323 176.056 192.614 176.348 192.614 176.707 L 192.614 176.707 C 192.614 177.066 192.323 177.357 191.964 177.357 L 178.955 177.357 C 178.596 177.357 178.304 177.066 178.304 176.707 L 178.304 176.707 C 178.304 176.348 178.596 176.056 178.955 176.056 Z" />
      <circle
         id="circle76"
         fill="rgb(255,255,255)"
         r="4.553166654244052"
         cy="327.61173493661784"
         cx="183.18255014342498"
         vector-effect="non-scaling-stroke" />
      <mask
         height="400%"
         width="400%"
         y="-200%"
         x="-200%"
         id="_mask_9atdggNZ9s01sknz3OGdr7KMO7Z82qcI">
        <rect
           id="rect78"
           style="fill:white;"
           height="400%"
           width="400%"
           y="-200%"
           x="-200%" />
        <path
           id="path80"
           stroke="none"
           fill="black"
           d=" M 132.961 348.816 C 132.961 348.816 124.336 319.546 134.581 297.99 C 138.942 288.98 140.261 278.798 138.34 268.973 C 137.391 264.32 136.017 259.763 134.236 255.359" />
      </mask>
      <path
         id="path83"
         stroke-miterlimit="10"
         stroke-linecap="butt"
         stroke-linejoin="miter"
         stroke="rgb(83,84,97)"
         stroke-width="4"
         vector-effect="non-scaling-stroke"
         mask="url(#_mask_9atdggNZ9s01sknz3OGdr7KMO7Z82qcI)"
         fill="none"
         d=" M 132.961 348.816 C 132.961 348.816 124.336 319.546 134.581 297.99 C 138.942 288.98 140.261 278.798 138.34 268.973 C 137.391 264.32 136.017 259.763 134.236 255.359" />
      <path
         id="path85"
         fill="rgb(128,204,65)"
         d=" M 140.584 241.739 C 140.584 245.33 134.08 255.73 134.08 255.73 C 134.08 255.73 127.575 245.323 127.575 241.739 C 127.575 238.147 130.488 235.234 134.08 235.234 C 137.672 235.234 140.584 238.147 140.584 241.739 Z " />
      <path
         id="path87"
         fill="rgb(128,204,65)"
         d=" M 151.349 261.617 C 149.398 264.628 138.288 269.832 138.288 269.832 C 138.288 269.832 138.49 257.565 140.441 254.553 C 141.65 252.486 143.897 251.25 146.29 251.336 C 148.683 251.422 150.835 252.816 151.892 254.964 C 152.95 257.113 152.741 259.668 151.349 261.617 L 151.349 261.617 Z " />
      <path
         id="path89"
         fill="rgb(128,204,65)"
         d=" M 150.855 295.577 C 147.648 297.19 135.433 296.078 135.433 296.078 C 135.433 296.078 141.801 285.593 145.001 283.979 C 148.176 282.545 151.917 283.867 153.487 286.977 C 155.056 290.088 153.896 293.882 150.855 295.583 L 150.855 295.577 Z " />
      <path
         id="path91"
         fill="rgb(128,204,65)"
         d=" M 144.715 321.198 C 141.827 323.332 129.598 324.294 129.598 324.294 C 129.598 324.294 134.099 312.885 136.987 310.752 C 139.874 308.826 143.763 309.505 145.827 312.295 C 147.89 315.084 147.401 319.002 144.715 321.198 L 144.715 321.198 Z " />
      <path
         id="path93"
         fill="rgb(128,204,65)"
         d=" M 124.622 270.528 C 127.224 273.026 139.186 275.621 139.186 275.621 C 139.186 275.621 136.252 263.711 133.677 261.214 C 132.038 259.464 129.57 258.758 127.254 259.376 C 124.938 259.994 123.149 261.835 122.599 264.168 C 122.049 266.501 122.826 268.947 124.622 270.535 L 124.622 270.528 Z " />
      <path
         id="path95"
         fill="rgb(128,204,65)"
         d=" M 117.819 300.579 C 121.025 302.192 133.241 301.08 133.241 301.08 C 133.241 301.08 126.873 290.594 123.673 288.981 C 121.587 287.814 119.028 287.885 117.01 289.167 C 114.992 290.448 113.84 292.733 114.008 295.117 C 114.177 297.501 115.64 299.601 117.819 300.585 L 117.819 300.579 Z " />
      <path
         id="path97"
         fill="rgb(128,204,65)"
         d=" M 115.217 330.695 C 118.105 332.828 130.333 333.791 130.333 333.791 C 130.333 333.791 125.832 322.382 122.944 320.249 C 120.058 318.323 116.168 319.002 114.105 321.791 C 112.042 324.581 112.531 328.499 115.217 330.695 L 115.217 330.695 Z " />
      <linearGradient
         gradientUnits="userSpaceOnUse"
         gradientTransform="matrix(295.736,0,0,206.889,351.909,157.1)"
         y2="-0.5"
         x2="6.123233995736766e-17"
         y1="0.5"
         x1="0"
         id="_lgradient_3">
        <stop
           id="stop99"
           style="stop-color:rgb(128,128,128)"
           stop-opacity="0.1"
           offset="0%" />
      </linearGradient>
      <path
         id="path102"
         fill="url(#_lgradient_3)"
         d=" M 647.645 255.704 C 640.444 246.969 631.722 236.932 632.944 225.309 C 633.933 215.897 631.565 207.193 632.034 197.749 C 632.684 184.33 629.991 173.825 620.326 165.226 C 614.68 160.198 605.242 156.25 602.432 157.258 C 596.864 159.249 590.789 158.488 585.058 159.86 C 580.707 160.875 577.812 162.462 576.017 164.413 C 572.407 167.665 572.348 172.219 573.994 177.065 C 571.089 182.384 570.58 188.687 572.594 194.403 C 574.607 200.12 578.954 204.712 584.551 207.037 C 580.537 208.716 577.07 212.579 575.718 220.424 C 574.777 225.811 573.356 231.103 571.47 236.236 C 570.623 236.632 569.754 236.982 568.868 237.283 C 569.063 237.361 569.265 237.414 569.46 237.485 C 569.037 237.648 568.621 237.81 568.159 237.953 C 568.928 238.254 569.723 238.485 570.533 238.643 C 565.33 251.789 558.825 259.932 558.825 259.932 C 558.825 259.932 546.694 262.612 541.979 257.922 C 541.979 257.922 542.746 258.82 543.787 260.166 C 539.175 258.254 531.604 255.132 525.132 252.563 C 520.436 250.696 519.232 252.563 519.278 255.164 C 518.132 255.308 517.026 255.68 516.026 256.257 C 514.638 255.364 513.183 254.581 511.674 253.915 C 508.981 253.265 500.22 248.556 491.458 264.628 C 486.358 273.975 473.284 291.037 463.235 303.656 C 443.689 312.645 418.243 324.028 408.785 326.89 L 402.723 326.89 C 401.93 325.589 401.377 324.769 401.377 324.769 L 400.908 325.081 L 400.707 324.769 C 400.707 324.769 388.804 333.01 376.718 333.076 C 374.999 333.052 373.288 332.834 371.619 332.425 C 366.064 331.027 362.148 330.402 359.351 330.474 C 356.04 330.415 354.147 331.202 353.003 332.685 L 353.003 332.685 C 352.849 332.88 352.708 333.084 352.58 333.297 L 352.58 333.297 C 352.452 333.507 352.334 333.724 352.229 333.947 L 352.229 333.947 C 352.125 334.181 352.02 334.428 351.929 334.682 C 351.853 335.14 351.992 335.608 352.307 335.951 C 352.469 336.178 352.645 336.395 352.834 336.601 L 353.172 336.965 C 354.694 338.539 357.465 340.627 360.912 342.956 C 361.907 343.606 362.961 344.322 364.06 345.031 L 366.148 346.332 L 368.015 347.496 L 368.763 347.958 L 369.596 348.465 L 371.085 349.369 L 371.97 349.903 L 373.642 350.898 L 374.994 351.698 C 378.533 353.786 382.058 355.809 385.239 357.604 L 387.464 358.931 L 387.678 359.048 L 389.109 359.848 L 391.581 361.221 L 393.279 362.157 L 394.072 362.593 L 394.924 363.061 L 395.093 363.152 L 396.576 363.959 C 397.194 364.063 397.826 363.892 398.307 363.491 C 398.736 361.669 399.783 357.767 400.908 357.467 C 402.034 357.168 406.906 348.654 408.278 342.956 L 421.43 342.956 C 424.021 342.734 426.594 342.339 429.132 341.772 C 425.736 344.192 422.373 345.714 419.759 345.063 C 414.23 343.691 408.994 347.06 408.467 350.384 C 408.467 350.456 408.421 350.521 408.402 350.592 C 408.382 350.664 408.369 350.729 408.356 350.794 C 408.343 350.859 408.317 350.956 408.304 351.041 C 408.291 351.126 408.304 351.178 408.304 351.249 C 408.304 351.321 408.304 351.412 408.304 351.496 C 408.304 351.581 408.304 351.633 408.304 351.698 C 408.304 351.763 408.304 351.867 408.304 351.952 C 408.304 352.036 408.304 352.082 408.304 352.147 C 408.304 352.212 408.343 352.322 408.369 352.414 C 408.395 352.505 408.369 352.531 408.415 352.583 C 408.456 352.7 408.504 352.815 408.558 352.927 L 408.59 353.012 C 408.663 353.154 408.746 353.291 408.837 353.422 L 408.942 353.558 C 409.007 353.649 409.078 353.74 409.156 353.825 L 409.306 353.975 C 409.384 354.053 409.468 354.131 409.553 354.209 L 409.735 354.358 L 410.028 354.573 L 410.242 354.716 L 410.594 354.924 L 410.828 355.048 L 411.27 355.256 L 411.491 355.354 C 411.725 355.451 411.973 355.542 412.239 355.627 C 412.662 355.763 413.163 355.906 413.729 356.05 L 414.295 356.186 L 415.121 356.375 L 415.557 356.472 Q 416.402 356.654 417.352 356.837 L 418.23 356.999 L 418.946 357.129 L 420.591 357.415 C 421.619 357.591 422.692 357.767 423.843 357.936 L 426.679 358.365 L 430.374 358.892 L 431.194 359.003 L 432.494 359.185 L 434.4 359.438 L 435.701 359.608 L 435.701 359.608 L 439.077 360.037 L 440.131 360.167 L 442.258 360.427 C 445.055 360.765 447.761 361.077 450.252 361.357 L 453.133 361.682 L 454.59 361.845 L 455.241 361.91 L 456.984 362.099 L 457.953 362.203 L 459.15 362.326 L 460.835 362.502 L 461.017 362.502 L 462.097 362.613 L 462.097 362.613 C 462.37 362.642 462.643 362.555 462.85 362.373 C 463.056 362.191 463.177 361.931 463.183 361.656 L 463.183 361.656 L 463.183 361.656 C 463.183 361.624 463.183 361.585 463.183 361.546 C 463.282 361.395 463.336 361.219 463.339 361.038 C 463.367 359.434 463.57 357.838 463.944 356.277 C 464.015 356.01 464.1 355.737 464.191 355.464 L 464.295 355.152 C 464.412 354.82 464.529 354.501 464.666 354.144 C 464.764 353.901 464.848 353.654 464.92 353.402 C 464.92 353.324 464.965 353.246 464.991 353.161 C 465.017 353.077 465.056 352.895 465.082 352.758 C 466.435 348.134 464.802 339.509 464.334 336.12 C 464.184 335.037 463.936 333.97 463.593 332.932 C 463.677 332.941 463.762 332.941 463.846 332.932 C 464.545 332.676 465.202 332.318 465.798 331.872 C 475.737 328.327 484.114 324.275 486.762 320.216 C 491.049 319.084 495.602 319.561 499.563 321.556 C 504.708 324.112 543.631 336.816 561.752 342.683 C 565.005 345.486 567.554 347.125 568.966 347.002 C 568.966 347.002 592.037 350.735 601.313 343.45 C 602.139 344.023 602.659 344.328 602.659 344.328 C 602.659 344.328 616.137 337.635 618.16 328.926 C 618.81 326.103 619.402 321.94 620.007 317.335 C 623.133 314.184 624.891 309.928 624.898 305.49 C 625.321 290.868 630.987 274.164 635.188 259.308 C 640.288 259.711 642.259 258.748 646.936 256.439 L 646.727 256.173 C 647.059 255.977 647.352 255.847 647.645 255.704 Z  M 570.377 277.605 L 567.776 276.74 C 568.648 275.575 569.4 274.324 570.02 273.006 L 570.377 277.605 Z  M 555.879 283.758 L 571.49 293.125 L 571.626 295.031 C 571.436 296.481 571.48 297.952 571.756 299.389 C 564.875 293.274 556.822 285.853 555.872 283.752 L 555.879 283.758 Z  M 549.504 270.099 C 547.8 269.396 546.389 268.759 545.419 268.232 C 546.72 268.323 547.956 268.401 549.036 268.46 C 549.249 268.988 549.406 269.537 549.504 270.099 L 549.504 270.099 Z  M 507.693 285.365 C 507.693 285.365 510.386 279.342 516.455 289.385 C 517.398 290.946 519.135 293.43 521.431 296.507 L 503.765 294.146 C 505.846 290.92 507.244 287.921 507.693 285.371 L 507.693 285.365 Z " />
      <path
         id="path104"
         fill="rgb(247,196,167)"
         d=" M 546.499 261.168 C 546.499 261.168 534.141 255.964 524.384 252.062 C 524.384 252.062 520.481 261.168 520.481 261.168 C 520.481 261.168 536.742 265.721 536.742 266.372 C 536.742 266.372 550.402 267.673 550.402 267.673 L 546.499 261.168 Z " />
      <g
         id="g108"
         opacity="0.05">
        <path
           id="path106"
           fill="rgb(0,0,0)"
           d=" M 546.499 261.168 C 546.499 261.168 534.141 255.964 524.384 252.062 C 524.384 252.062 520.481 261.168 520.481 261.168 C 520.481 261.168 536.742 265.721 536.742 266.372 C 536.742 266.372 550.402 267.673 550.402 267.673 L 546.499 261.168 Z " />
      </g>
      <path
         id="path110"
         fill="rgb(87,89,136)"
         d=" M 599.186 209.782 C 599.186 209.782 577.07 198.074 573.168 220.84 C 573.168 220.84 556.906 259.217 556.906 259.217 C 556.906 259.217 545.198 261.818 540.645 257.265 C 540.645 257.265 551.703 270.274 546.499 271.575 C 546.499 271.575 558.207 280.031 563.411 277.429 C 568.615 274.828 572.517 257.265 574.469 252.712 C 576.42 248.159 583.575 208.481 599.186 209.782 Z " />
      <g
         id="g114"
         opacity="0.1">
        <path
           id="path112"
           fill="rgb(0,0,0)"
           d=" M 599.186 209.782 C 599.186 209.782 577.07 198.074 573.168 220.84 C 573.168 220.84 556.906 259.217 556.906 259.217 C 556.906 259.217 545.198 261.818 540.645 257.265 C 540.645 257.265 551.703 270.274 546.499 271.575 C 546.499 271.575 558.207 280.031 563.411 277.429 C 568.615 274.828 572.517 257.265 574.469 252.712 C 576.42 248.159 583.575 208.481 599.186 209.782 Z " />
      </g>
      <path
         id="path116"
         fill="rgb(247,196,167)"
         d=" M 586.827 201.977 C 586.827 201.977 600.487 217.588 601.137 230.597 C 601.137 230.597 616.748 216.937 618.049 216.287 C 618.049 216.287 605.04 193.521 603.739 186.366 C 602.438 179.211 586.827 201.977 586.827 201.977 Z " />
      <path
         id="path118"
         fill="rgb(247,196,167)"
         d=" M 596.259 208.644 L 587.64 216.449 L 591.706 232.873 L 602.763 222.466 L 601.462 212.059 L 596.259 208.644 L 596.259 208.644 Z " />
      <path
         id="path120"
         fill="rgb(247,196,167)"
         d=" M 416.409 324.262 L 401.448 324.262 L 407.302 338.572 L 421.612 334.669 L 416.409 324.262 L 416.409 324.262 Z " />
      <g
         id="g124"
         opacity="0.1">
        <path
           id="path122"
           fill="rgb(0,0,0)"
           d=" M 404.909 322.2 C 404.909 322.2 389.415 332.991 376.178 329.635 C 362.942 326.278 359.345 327.534 357.803 331.866 C 356.379 335.853 394.775 356.941 400.895 360.271 C 401.088 360.376 401.319 360.386 401.519 360.296 C 401.719 360.207 401.866 360.029 401.917 359.816 C 402.333 358.046 403.341 354.254 404.421 353.962 C 405.826 353.584 412.226 341.603 411.875 336.894 C 411.524 332.184 404.909 322.2 404.909 322.2 Z " />
      </g>
      <path
         id="path126"
         fill="rgb(243,181,183)"
         d=" M 404.258 322.2 C 404.258 322.2 388.765 332.991 375.528 329.635 C 362.291 326.278 358.694 327.534 357.153 331.866 C 355.728 335.853 394.124 356.941 400.245 360.271 C 400.437 360.376 400.668 360.386 400.868 360.296 C 401.069 360.207 401.216 360.029 401.266 359.816 C 401.683 358.046 402.691 354.254 403.77 353.962 C 405.175 353.584 411.576 341.603 411.225 336.894 C 410.873 332.184 404.258 322.2 404.258 322.2 Z " />
      <path
         id="path128"
         fill="rgb(87,89,136)"
         d=" M 532.189 296.292 L 488.609 290.438 C 488.609 290.438 417.71 324.262 409.254 324.912 L 411.205 339.873 L 424.214 339.873 C 429.418 339.873 480.153 328.815 487.308 317.757 C 491.447 316.657 495.847 317.12 499.667 319.058 C 506.171 322.311 568.615 342.475 568.615 342.475 L 532.189 296.292 Z " />
      <g
         id="g132"
         opacity="0.1">
        <path
           id="path130"
           fill="rgb(0,0,0)"
           d=" M 532.189 296.292 L 488.609 290.438 C 488.609 290.438 417.71 324.262 409.254 324.912 L 411.205 339.873 L 424.214 339.873 C 429.418 339.873 480.153 328.815 487.308 317.757 C 491.447 316.657 495.847 317.12 499.667 319.058 C 506.171 322.311 568.615 342.475 568.615 342.475 L 532.189 296.292 Z " />
      </g>
      <path
         id="path134"
         fill="rgb(247,196,167)"
         d=" M 454.785 316.456 L 447.63 325.563 L 454.785 329.466 L 465.193 321.66 L 454.785 316.456 L 454.785 316.456 Z " />
      <path
         id="path136"
         fill="rgb(87,89,136)"
         d=" M 579.022 306.049 C 579.022 306.049 555.606 286.002 553.986 282.366 C 552.366 278.73 513.977 254.013 511.375 253.363 C 508.773 252.712 500.317 248.159 491.861 263.77 C 483.405 279.381 452.184 317.107 452.184 317.107 C 452.184 317.107 461.94 330.766 465.193 330.116 C 468.445 329.466 504.87 298.894 507.472 283.934 C 507.472 283.934 510.074 278.08 515.928 287.837 C 521.782 297.593 559.508 344.426 566.663 343.775 C 566.663 343.775 594.633 348.329 600.487 337.271 C 606.341 326.213 579.022 306.049 579.022 306.049 Z " />
      <path
         id="path138"
         fill="rgb(221,219,226)"
         d=" M 592.356 210.758 C 592.356 210.758 584.225 214.335 583.575 229.296 C 583.575 229.296 568.615 269.624 568.615 269.624 L 569.916 299.545 C 569.916 299.545 585.526 315.156 586.827 324.912 C 586.827 324.912 599.186 341.174 599.186 341.174 C 599.186 341.174 612.195 334.669 614.146 326.213 C 614.146 326.213 617.399 296.943 620.651 289.137 C 620.651 289.137 621.952 232.548 621.952 232.548 L 612.195 215.636 L 606.991 209.782 L 593.332 225.393 C 593.332 225.393 585.852 215.311 592.356 210.758 Z " />
      <g
         id="g142"
         opacity="0.1">
        <path
           id="path140"
           fill="rgb(0,0,0)"
           d=" M 573.168 289.788 C 573.168 289.788 571.216 266.372 577.07 261.168 L 588.779 227.995 C 588.779 227.995 593.007 212.059 592.356 210.758 C 591.706 209.457 577.07 223.442 577.07 223.442 L 567.314 257.916 L 569.916 294.341 L 573.168 289.788 Z " />
      </g>
      <path
         id="path144"
         fill="rgb(87,89,136)"
         d=" M 572.517 289.788 C 572.517 289.788 570.566 266.372 576.42 261.168 L 588.128 227.995 C 588.128 227.995 592.681 211.734 592.031 210.433 C 592.031 210.433 576.42 223.442 576.42 223.442 L 566.663 257.916 L 569.265 294.341 L 572.517 289.788 Z " />
      <path
         id="path146"
         fill="rgb(247,196,167)"
         d=" M 577.07 279.381 C 577.07 279.381 544.548 268.973 542.597 266.372 C 542.597 266.372 519.831 246.858 512.676 258.566 C 512.676 258.566 539.344 273.527 539.344 273.527 L 573.818 294.341 L 577.07 279.381 Z " />
      <g
         id="g150"
         opacity="0.1">
        <path
           id="path148"
           fill="rgb(0,0,0)"
           d=" M 456.197 325.504 L 446.57 323.774 C 446.57 323.774 430.803 343.971 422.588 341.922 C 414.373 339.873 406.815 348.712 415.492 351.548 C 423.33 354.111 457.179 357.695 463.625 358.359 C 463.889 358.386 464.152 358.302 464.351 358.126 C 464.55 357.951 464.666 357.7 464.672 357.435 C 464.722 354.921 465.229 352.437 466.168 350.104 C 467.905 345.844 466.168 336.692 465.687 333.193 C 465.422 331.141 464.78 329.157 463.794 327.339 L 456.197 325.504 Z " />
      </g>
      <path
         id="path152"
         fill="rgb(243,181,183)"
         d=" M 456.034 326.135 L 446.408 324.405 C 446.408 324.405 430.641 344.602 422.438 342.559 C 422.438 342.559 406.665 349.35 415.342 352.186 C 423.18 354.749 457.03 358.333 463.475 358.996 C 463.739 359.023 464.003 358.939 464.201 358.764 C 464.4 358.588 464.517 358.338 464.523 358.072 C 464.554 355.564 465.041 353.082 465.96 350.748 C 467.697 346.488 465.96 337.336 465.479 333.837 C 465.214 331.785 464.572 329.801 463.586 327.982 L 456.034 326.135 Z " />
      <g
         id="g156"
         opacity="0.1">
        <circle
           id="circle154"
           fill="rgb(0,0,0)"
           r="20.814476133687094"
           cy="188.64258412529742"
           cx="591.705671409785"
           vector-effect="non-scaling-stroke" />
      </g>
      <circle
         id="circle158"
         fill="rgb(247,196,167)"
         r="20.814476133687094"
         cy="188.64258412529742"
         cx="589.7543142722517"
         vector-effect="non-scaling-stroke" />
      <path
         id="path160"
         fill="rgb(87,89,136)"
         d=" M 610.244 209.132 C 610.244 209.132 634.961 217.588 634.961 235.15 C 634.961 235.15 621.301 280.682 620.651 303.447 C 620.651 303.447 584.225 322.961 584.225 322.961 C 584.225 322.961 579.022 246.208 584.225 240.354 C 589.429 234.499 612.845 211.734 610.244 209.132 Z " />
      <g
         id="g164"
         opacity="0.1">
        <path
           id="path162"
           fill="rgb(0,0,0)"
           d=" M 605.69 245.557 C 605.69 245.557 596.584 285.885 575.119 278.73 C 575.119 278.73 564.061 294.992 571.867 302.147 C 571.867 302.147 590.73 306.7 603.089 294.341 C 615.447 281.983 624.554 277.429 626.505 262.469 C 628.456 247.509 629.757 226.694 623.253 228.645 C 616.748 230.597 605.69 245.557 605.69 245.557 Z " />
      </g>
      <path
         id="path166"
         fill="rgb(87,89,136)"
         d=" M 606.341 244.907 C 606.341 244.907 597.235 285.235 575.77 278.08 C 575.77 278.08 564.712 294.341 572.517 301.496 C 572.517 301.496 591.38 306.049 603.739 293.691 C 616.098 281.332 625.204 276.779 627.155 261.818 C 629.107 246.858 630.408 226.044 623.903 227.995 C 617.399 229.946 606.341 244.907 606.341 244.907 Z " />
      <path
         id="path168"
         fill="rgb(221,219,226)"
         d=" M 466.52 348.654 C 466.52 348.712 466.481 348.784 466.461 348.836 C 466.013 349.948 465.671 351.1 465.44 352.277 C 465.596 351.77 465.778 351.249 465.986 350.729 C 466.242 350.06 466.421 349.364 466.52 348.654 L 466.52 348.654 Z " />
      <path
         id="path170"
         fill="rgb(221,219,226)"
         d=" M 415.817 350.287 C 413.137 349.408 412.012 347.964 411.966 346.442 C 410.86 348.563 411.556 350.943 415.342 352.179 C 423.18 354.742 457.036 358.326 463.475 358.99 C 463.74 359.017 464.005 358.932 464.204 358.755 C 464.403 358.578 464.519 358.326 464.523 358.059 L 464.523 358.059 C 464.532 357.564 464.163 357.144 463.671 357.09 C 456.607 356.336 423.551 352.81 415.817 350.287 Z " />
      <path
         id="path172"
         fill="rgb(221,219,226)"
         d=" M 358.05 330.721 C 358.223 330.242 358.44 329.78 358.701 329.342 C 358 330.051 357.476 330.916 357.172 331.866 C 355.748 335.853 394.144 356.941 400.265 360.271 C 400.458 360.376 400.689 360.385 400.89 360.294 C 401.091 360.203 401.237 360.024 401.286 359.809 L 401.286 359.809 C 401.36 359.501 401.219 359.181 400.941 359.029 C 394.176 355.328 356.645 334.663 358.05 330.721 Z " />
      <path
         id="path174"
         fill="rgb(221,219,226)"
         d=" M 404.662 352.823 C 404.317 352.914 403.979 353.376 403.66 354.007 L 403.764 353.968 C 404.05 353.89 404.538 353.318 405.13 352.472 C 405.003 352.624 404.843 352.745 404.662 352.823 L 404.662 352.823 Z " />
      <g
         id="g178"
         opacity="0.1">
        <path
           id="path176"
           fill="rgb(0,0,0)"
           d=" M 586.866 206.966 C 585.032 211.012 584.648 215.571 583.302 219.812 C 580.628 228.223 573.922 235.182 565.889 237.869 C 572.647 240.562 580.622 237.27 585.845 231.807 C 591.068 226.343 594.132 219.071 597.065 211.994 C 604.65 217.093 603.726 228.815 606.276 237.94 C 608.49 245.974 614.078 252.653 621.594 256.251 C 629.091 259.615 637.701 259.44 645.056 255.776 C 638.102 247.32 628.203 235.657 629.38 224.365 C 630.336 215.22 623.773 208.234 624.222 199.056 C 624.872 186.047 619.89 179.439 610.562 171.087 C 605.111 166.202 613.691 159.314 606.66 161.33 C 603.895 162.124 600.981 159.164 598.269 160.14 C 592.896 162.091 587.029 161.337 581.5 162.637 C 552.763 169.389 589.546 201.06 586.866 206.966 Z " />
      </g>
      <path
         id="path180"
         fill="rgb(252,102,129)"
         d=" M 587.517 206.315 C 585.682 210.361 585.299 214.921 583.952 219.162 C 581.279 227.572 574.573 234.532 566.54 237.218 C 573.298 239.911 581.272 236.62 586.496 231.156 C 591.719 225.692 594.782 218.42 597.716 211.343 C 605.3 216.443 604.376 228.164 606.926 237.29 C 609.14 245.323 614.728 252.003 622.244 255.6 C 629.741 258.964 638.351 258.79 645.706 255.125 C 638.753 246.669 629.503 236.958 630.681 225.666 C 631.637 216.521 630.212 207.122 630.681 197.951 C 631.331 184.942 624.95 172.375 615.616 164.023 C 610.166 159.138 601.651 158.514 598.932 159.47 C 593.559 161.421 587.692 160.667 582.164 161.968 C 553.414 168.739 590.197 200.409 587.517 206.315 Z " />
    </g>
  </g>
</svg>
