<?xml version="1.0" standalone="no"?><!-- Generator: Gravit.io --><svg xmlns="http://www.w3.org/2000/svg" xmlns:xlink="http://www.w3.org/1999/xlink" style="isolation:isolate" viewBox="0 0 320 175" width="320" height="175"><defs><clipPath id="_clipPath_gOdvYOxYDxRCQLSoN5jQomZ6zJLsKDVv"><rect width="320" height="175"/></clipPath></defs><g clip-path="url(#_clipPath_gOdvYOxYDxRCQLSoN5jQomZ6zJLsKDVv)"><clipPath id="_clipPath_c3qjtUhGqmBmV4BzjwcGkZ0dPxV9BIbK"><rect x="55.2" y="0" width="209.6" height="175" transform="matrix(1,0,0,1,0,0)" fill="rgb(255,255,255)"/></clipPath><g clip-path="url(#_clipPath_c3qjtUhGqmBmV4BzjwcGkZ0dPxV9BIbK)"><g><linearGradient id="_lgradient_29" x1="0.49999999999999983" y1="0.9999999999999998" x2="0.49999999999999994" y2="-0.8131317950581951" gradientTransform="matrix(95.294,0,0,106.358,55.2,0)" gradientUnits="userSpaceOnUse"><stop offset="0%" stop-opacity="0.25" style="stop-color:rgb(128,128,128)"/><stop offset="54%" stop-opacity="0.12" style="stop-color:rgb(128,128,128)"/><stop offset="100%" stop-opacity="0.1" style="stop-color:rgb(128,128,128)"/></linearGradient><rect x="55.2" y="0" width="95.294" height="106.358" transform="matrix(1,0,0,1,0,0)" fill="url(#_lgradient_29)"/><rect x="56.774" y="71.011" width="92.143" height="33.031" transform="matrix(1,0,0,1,0,0)" fill="rgb(255,255,255)"/><rect x="64.337" y="78.846" width="3.571" height="16.926" transform="matrix(1,0,0,1,0,0)" fill="rgb(74,74,74)"/><g style="opacity:0.7;"><g style="opacity:0.7;"><g opacity="0.7"><rect x="71.386" y="78.846" width="3.571" height="16.926" transform="matrix(1,0,0,1,0,0)" fill="rgb(74,74,74)"/></g></g></g><g style="opacity:0.6;"><g style="opacity:0.6;"><g opacity="0.6"><rect x="78.437" y="78.846" width="3.571" height="16.926" transform="matrix(1,0,0,1,0,0)" fill="rgb(74,74,74)"/></g></g></g><g style="opacity:0.5;"><g style="opacity:0.5;"><g opacity="0.5"><rect x="85.485" y="78.846" width="3.571" height="16.926" transform="matrix(1,0,0,1,0,0)" fill="rgb(74,74,74)"/></g></g></g><g style="opacity:0.5;"><g style="opacity:0.5;"><g opacity="0.5"><rect x="92.534" y="78.846" width="3.571" height="16.926" transform="matrix(1,0,0,1,0,0)" fill="rgb(74,74,74)"/></g></g></g><g style="opacity:0.4;"><g style="opacity:0.4;"><g opacity="0.4"><rect x="99.582" y="78.846" width="3.571" height="16.926" transform="matrix(1,0,0,1,0,0)" fill="rgb(74,74,74)"/></g></g></g><g style="opacity:0.3;"><g style="opacity:0.3;"><g opacity="0.3"><rect x="106.633" y="78.846" width="3.571" height="16.926" transform="matrix(1,0,0,1,0,0)" fill="rgb(74,74,74)"/></g></g></g><circle vector-effect="non-scaling-stroke" cx="135.87278243703378" cy="87.19974296805647" r="8.6158697351511" fill="rgb(136,211,75)"/><rect x="56.774" y="36.694" width="92.143" height="33.031" transform="matrix(1,0,0,1,0,0)" fill="rgb(255,255,255)"/><rect x="64.337" y="44.528" width="3.571" height="16.926" transform="matrix(1,0,0,1,0,0)" fill="rgb(74,74,74)"/><g style="opacity:0.7;"><g style="opacity:0.7;"><g opacity="0.7"><rect x="71.386" y="44.528" width="3.571" height="16.926" transform="matrix(1,0,0,1,0,0)" fill="rgb(74,74,74)"/></g></g></g><g style="opacity:0.6;"><g style="opacity:0.6;"><g opacity="0.6"><rect x="78.437" y="44.528" width="3.571" height="16.926" transform="matrix(1,0,0,1,0,0)" fill="rgb(74,74,74)"/></g></g></g><g style="opacity:0.5;"><g style="opacity:0.5;"><g opacity="0.5"><rect x="85.485" y="44.528" width="3.571" height="16.926" transform="matrix(1,0,0,1,0,0)" fill="rgb(74,74,74)"/></g></g></g><g style="opacity:0.5;"><g style="opacity:0.5;"><g opacity="0.5"><rect x="92.534" y="44.528" width="3.571" height="16.926" transform="matrix(1,0,0,1,0,0)" fill="rgb(74,74,74)"/></g></g></g><g style="opacity:0.4;"><g style="opacity:0.4;"><g opacity="0.4"><rect x="99.582" y="44.528" width="3.571" height="16.926" transform="matrix(1,0,0,1,0,0)" fill="rgb(74,74,74)"/></g></g></g><g style="opacity:0.3;"><g style="opacity:0.3;"><g opacity="0.3"><rect x="106.633" y="44.528" width="3.571" height="16.926" transform="matrix(1,0,0,1,0,0)" fill="rgb(74,74,74)"/></g></g></g><circle vector-effect="non-scaling-stroke" cx="135.87278243703378" cy="52.88465360308439" r="8.6158697351511" fill="rgb(136,211,75)"/><rect x="56.774" y="2.377" width="92.143" height="33.031" transform="matrix(1,0,0,1,0,0)" fill="rgb(255,255,255)"/><rect x="64.337" y="10.213" width="3.571" height="16.926" transform="matrix(1,0,0,1,0,0)" fill="rgb(74,74,74)"/><g style="opacity:0.7;"><g style="opacity:0.7;"><g opacity="0.7"><rect x="71.386" y="10.213" width="3.571" height="16.926" transform="matrix(1,0,0,1,0,0)" fill="rgb(74,74,74)"/></g></g></g><g style="opacity:0.6;"><g style="opacity:0.6;"><g opacity="0.6"><rect x="78.437" y="10.213" width="3.571" height="16.926" transform="matrix(1,0,0,1,0,0)" fill="rgb(74,74,74)"/></g></g></g><g style="opacity:0.5;"><g style="opacity:0.5;"><g opacity="0.5"><rect x="85.485" y="10.213" width="3.571" height="16.926" transform="matrix(1,0,0,1,0,0)" fill="rgb(74,74,74)"/></g></g></g><g style="opacity:0.5;"><g style="opacity:0.5;"><g opacity="0.5"><rect x="92.534" y="10.213" width="3.571" height="16.926" transform="matrix(1,0,0,1,0,0)" fill="rgb(74,74,74)"/></g></g></g><g style="opacity:0.4;"><g style="opacity:0.4;"><g opacity="0.4"><rect x="99.582" y="10.213" width="3.571" height="16.926" transform="matrix(1,0,0,1,0,0)" fill="rgb(74,74,74)"/></g></g></g><g style="opacity:0.3;"><g style="opacity:0.3;"><g opacity="0.3"><rect x="106.633" y="10.213" width="3.571" height="16.926" transform="matrix(1,0,0,1,0,0)" fill="rgb(74,74,74)"/></g></g></g><linearGradient id="_lgradient_30" x1="0" y1="0.5000000000000002" x2="6.123233995736766e-17" y2="-0.4999999999999998" gradientTransform="matrix(18.577,0,0,18.577,126.585,9.279)" gradientUnits="userSpaceOnUse"><stop offset="0%" stop-opacity="0.1" style="stop-color:rgb(128,128,128)"/></linearGradient><circle vector-effect="non-scaling-stroke" cx="135.87278243703378" cy="18.567245650993023" r="9.288259999735025" fill="url(#_lgradient_30)"/><linearGradient id="_lgradient_31" x1="0" y1="0.5000000000000004" x2="6.123233995736766e-17" y2="-0.49999999999999956" gradientTransform="matrix(18.577,0,0,18.577,126.585,43.826)" gradientUnits="userSpaceOnUse"><stop offset="0%" stop-opacity="0.1" style="stop-color:rgb(128,128,128)"/></linearGradient><circle vector-effect="non-scaling-stroke" cx="135.87278243703378" cy="53.114193727890616" r="9.288259999735025" fill="url(#_lgradient_31)"/><linearGradient id="_lgradient_32" x1="0" y1="0.5" x2="6.123233995736766e-17" y2="-0.5" gradientTransform="matrix(18.577,0,0,18.577,126.585,78.141)" gradientUnits="userSpaceOnUse"><stop offset="0%" stop-opacity="0.1" style="stop-color:rgb(128,128,128)"/></linearGradient><circle vector-effect="non-scaling-stroke" cx="135.87278243703378" cy="87.42928309286272" r="9.288259999735025" fill="url(#_lgradient_32)"/><circle vector-effect="non-scaling-stroke" cx="135.87278243703378" cy="18.567245650993016" r="8.6158697351511" fill="rgb(136,211,75)"/><g style="opacity:0.7;"><g style="opacity:0.7;"><clipPath id="_clipPath_pVUr7mIcyU7gREbmyAYfq0WHwladFVkk"><path d=" M -364.001 -350 L 474.4 -350 L 474.4 350 L -364.001 350 L -364.001 -350 Z  M 162.087 36.789 L 163.478 36.789 L 162.087 36.789 Z " fill-rule="evenodd" fill="rgb(255,255,255)"/></clipPath><g clip-path="url(#_clipPath_pVUr7mIcyU7gREbmyAYfq0WHwladFVkk)"><g opacity="0.7"><mask id="_mask_TQw20DXRDAk9SubRFOXwC3j2CO87GG0c" x="-200%" y="-200%" width="400%" height="400%"><rect x="-200%" y="-200%" width="400%" height="400%" style="fill:white;"/><line x1="162.087" y1="36.789" x2="163.478" y2="36.789" fill="black" stroke="none"/></mask><line x1="162.087" y1="36.789" x2="163.478" y2="36.789" mask="url(#_mask_TQw20DXRDAk9SubRFOXwC3j2CO87GG0c)" vector-effect="non-scaling-stroke" stroke-width="1.855" stroke="rgb(136,211,75)" stroke-opacity="100" stroke-linejoin="round" stroke-linecap="round" stroke-miterlimit="4"/></g></g></g><g style="opacity:0.7;"><clipPath id="_clipPath_7wdr13HQL0OL1EbQk07MuKIMZH2fKiK6"><path d=" M -364.001 -350 L 474.4 -350 L 474.4 350 L -364.001 350 L -364.001 -350 Z  M 171.217 36.789 L 209.921 36.789 L 171.217 36.789 Z " fill-rule="evenodd" fill="rgb(255,255,255)"/></clipPath><g clip-path="url(#_clipPath_7wdr13HQL0OL1EbQk07MuKIMZH2fKiK6)"><g opacity="0.7"><mask id="_mask_fEIDcMQ2d5UZOUfIe0pWSocYPOneqZsb" x="-200%" y="-200%" width="400%" height="400%"><rect x="-200%" y="-200%" width="400%" height="400%" style="fill:white;"/><line x1="171.217" y1="36.789" x2="209.921" y2="36.789" fill="black" stroke="none"/></mask><line x1="171.217" y1="36.789" x2="209.921" y2="36.789" mask="url(#_mask_fEIDcMQ2d5UZOUfIe0pWSocYPOneqZsb)" vector-effect="non-scaling-stroke" stroke-width="1.855" stroke-dasharray="12.52,33.38" stroke="rgb(136,211,75)" stroke-opacity="100" stroke-linejoin="round" stroke-linecap="round" stroke-miterlimit="4"/></g></g></g><g style="opacity:0.7;"><clipPath id="_clipPath_aypF5epnL9NYcTxy4VBzs5p5DgIJoz7m"><path d=" M -364.001 -350 L 474.4 -350 L 474.4 350 L -364.001 350 L -364.001 -350 Z  M 213.791 36.789 L 215.182 36.789 L 215.182 38.18 L 213.791 36.789 Z " fill-rule="evenodd" fill="rgb(255,255,255)"/></clipPath><g clip-path="url(#_clipPath_aypF5epnL9NYcTxy4VBzs5p5DgIJoz7m)"><g opacity="0.7"><mask id="_mask_xmgFDuUCGCmCVEgkz4yZ5mslyEHqrlrQ" x="-200%" y="-200%" width="400%" height="400%"><rect x="-200%" y="-200%" width="400%" height="400%" style="fill:white;"/><path d=" M 213.791 36.789 L 215.182 36.789 L 215.182 38.18" fill="black" stroke="none"/></mask><path d=" M 213.791 36.789 L 215.182 36.789 L 215.182 38.18" fill="none" mask="url(#_mask_xmgFDuUCGCmCVEgkz4yZ5mslyEHqrlrQ)" vector-effect="non-scaling-stroke" stroke-width="1.855" stroke="rgb(136,211,75)" stroke-opacity="100" stroke-linejoin="round" stroke-linecap="round" stroke-miterlimit="4"/></g></g></g><g style="opacity:0.7;"><clipPath id="_clipPath_aEiiFxMQlxymgYcuL6fcQ8G4VhMLw331"><path d=" M -364.001 -350 L 474.4 -350 L 474.4 350 L -364.001 350 L -364.001 -350 Z  M 215.182 45.556 L 215.182 72.287 L 215.182 45.556 Z " fill-rule="evenodd" fill="rgb(255,255,255)"/></clipPath><g clip-path="url(#_clipPath_aEiiFxMQlxymgYcuL6fcQ8G4VhMLw331)"><g opacity="0.7"><mask id="_mask_RqfONac87pbpBqncCxF7hgifet4wdVuz" x="-200%" y="-200%" width="400%" height="400%"><rect x="-200%" y="-200%" width="400%" height="400%" style="fill:white;"/><line x1="215.182" y1="45.556" x2="215.182" y2="72.287" fill="black" stroke="none"/></mask><line x1="215.182" y1="45.556" x2="215.182" y2="72.287" mask="url(#_mask_RqfONac87pbpBqncCxF7hgifet4wdVuz)" vector-effect="non-scaling-stroke" stroke-width="1.855" stroke-dasharray="11.93,31.8" stroke="rgb(136,211,75)" stroke-opacity="100" stroke-linejoin="round" stroke-linecap="round" stroke-miterlimit="4"/></g></g></g><g style="opacity:0.7;"><clipPath id="_clipPath_WYhmkEPkZPFGZfpV0w9WKTLS1eecoWy3"><path d=" M -364.001 -350 L 474.4 -350 L 474.4 350 L -364.001 350 L -364.001 -350 Z  M 215.182 75.973 L 215.182 77.364 L 215.182 75.973 Z " fill-rule="evenodd" fill="rgb(255,255,255)"/></clipPath><g clip-path="url(#_clipPath_WYhmkEPkZPFGZfpV0w9WKTLS1eecoWy3)"><g opacity="0.7"><mask id="_mask_UqpJJikPIAddVEe68529D1dWXkH8pYxg" x="-200%" y="-200%" width="400%" height="400%"><rect x="-200%" y="-200%" width="400%" height="400%" style="fill:white;"/><line x1="215.182" y1="75.973" x2="215.182" y2="77.364" fill="black" stroke="none"/></mask><line x1="215.182" y1="75.973" x2="215.182" y2="77.364" mask="url(#_mask_UqpJJikPIAddVEe68529D1dWXkH8pYxg)" vector-effect="non-scaling-stroke" stroke-width="1.855" stroke="rgb(136,211,75)" stroke-opacity="100" stroke-linejoin="round" stroke-linecap="round" stroke-miterlimit="4"/></g></g></g></g><g style="opacity:0.7;"><g style="opacity:0.7;"><clipPath id="_clipPath_vFmr2l338rDdemEbjyCBT4RqHAK9QYLG"><path d=" M -364.001 -350 L 474.4 -350 L 474.4 350 L -364.001 350 L -364.001 -350 Z  M 140.426 141.821 L 139.035 141.814 L 140.426 141.821 Z " fill-rule="evenodd" fill="rgb(255,255,255)"/></clipPath><g clip-path="url(#_clipPath_vFmr2l338rDdemEbjyCBT4RqHAK9QYLG)"><g opacity="0.7"><mask id="_mask_7RtonbULb5FeZtcOhmukdhOnZ0bHMamX" x="-200%" y="-200%" width="400%" height="400%"><rect x="-200%" y="-200%" width="400%" height="400%" style="fill:white;"/><line x1="140.426" y1="141.821" x2="139.035" y2="141.814" fill="black" stroke="none"/></mask><line x1="140.426" y1="141.821" x2="139.035" y2="141.814" mask="url(#_mask_7RtonbULb5FeZtcOhmukdhOnZ0bHMamX)" vector-effect="non-scaling-stroke" stroke-width="1.855" stroke="rgb(136,211,75)" stroke-opacity="100" stroke-linejoin="round" stroke-linecap="round" stroke-miterlimit="4"/></g></g></g><g style="opacity:0.7;"><clipPath id="_clipPath_Dy6pCnvArBFD6uWsgxwWFou7vEVQdqPM"><path d=" M -364.001 -350 L 474.4 -350 L 474.4 350 L -364.001 350 L -364.001 -350 Z  M 131.296 141.777 L 92.594 141.591 L 131.296 141.777 Z " fill-rule="evenodd" fill="rgb(255,255,255)"/></clipPath><g clip-path="url(#_clipPath_Dy6pCnvArBFD6uWsgxwWFou7vEVQdqPM)"><g opacity="0.7"><mask id="_mask_fPYDAdXZboclp3EWMWWjB7HQpu1oegRx" x="-200%" y="-200%" width="400%" height="400%"><rect x="-200%" y="-200%" width="400%" height="400%" style="fill:white;"/><line x1="131.296" y1="141.777" x2="92.594" y2="141.591" fill="black" stroke="none"/></mask><line x1="131.296" y1="141.777" x2="92.594" y2="141.591" mask="url(#_mask_fPYDAdXZboclp3EWMWWjB7HQpu1oegRx)" vector-effect="non-scaling-stroke" stroke-width="1.855" stroke-dasharray="12.52,33.38" stroke="rgb(136,211,75)" stroke-opacity="100" stroke-linejoin="round" stroke-linecap="round" stroke-miterlimit="4"/></g></g></g><g style="opacity:0.7;"><clipPath id="_clipPath_jWoAGqQKCkzeJtD2UoX10TCtYUIbcGRy"><path d=" M -364.001 -350 L 474.4 -350 L 474.4 350 L -364.001 350 L -364.001 -350 Z  M 88.722 141.575 L 87.331 141.568 L 87.34 140.177 L 88.722 141.575 Z " fill-rule="evenodd" fill="rgb(255,255,255)"/></clipPath><g clip-path="url(#_clipPath_jWoAGqQKCkzeJtD2UoX10TCtYUIbcGRy)"><g opacity="0.7"><mask id="_mask_80kCNMEqkpENWJsEVncqSfDN6xl2mHnv" x="-200%" y="-200%" width="400%" height="400%"><rect x="-200%" y="-200%" width="400%" height="400%" style="fill:white;"/><path d=" M 88.722 141.575 L 87.331 141.568 L 87.34 140.177" fill="black" stroke="none"/></mask><path d=" M 88.722 141.575 L 87.331 141.568 L 87.34 140.177" fill="none" mask="url(#_mask_80kCNMEqkpENWJsEVncqSfDN6xl2mHnv)" vector-effect="non-scaling-stroke" stroke-width="1.855" stroke="rgb(136,211,75)" stroke-opacity="100" stroke-linejoin="round" stroke-linecap="round" stroke-miterlimit="4"/></g></g></g><g style="opacity:0.7;"><clipPath id="_clipPath_68Z9kiHe8VM7mhvoSNAnUn7SFckBbPqu"><path d=" M -364.001 -350 L 474.4 -350 L 474.4 350 L -364.001 350 L -364.001 -350 Z  M 87.386 133.038 L 87.493 116.977 L 87.386 133.038 Z " fill-rule="evenodd" fill="rgb(255,255,255)"/></clipPath><g clip-path="url(#_clipPath_68Z9kiHe8VM7mhvoSNAnUn7SFckBbPqu)"><g opacity="0.7"><mask id="_mask_lmJB4CnMa3GW6EmZKrGlkreRWwAswTcn" x="-200%" y="-200%" width="400%" height="400%"><rect x="-200%" y="-200%" width="400%" height="400%" style="fill:white;"/><line x1="87.386" y1="133.038" x2="87.493" y2="116.977" fill="black" stroke="none"/></mask><line x1="87.386" y1="133.038" x2="87.493" y2="116.977" mask="url(#_mask_lmJB4CnMa3GW6EmZKrGlkreRWwAswTcn)" vector-effect="non-scaling-stroke" stroke-width="1.855" stroke-dasharray="11.55,30.79" stroke="rgb(136,211,75)" stroke-opacity="100" stroke-linejoin="round" stroke-linecap="round" stroke-miterlimit="4"/></g></g></g><g style="opacity:0.7;"><clipPath id="_clipPath_7rCDEux99Tn6EICDqkZixAcoj5lU0gHX"><path d=" M -364.001 -350 L 474.4 -350 L 474.4 350 L -364.001 350 L -364.001 -350 Z  M 87.516 113.407 L 87.526 112.016 L 87.516 113.407 Z " fill-rule="evenodd" fill="rgb(255,255,255)"/></clipPath><g clip-path="url(#_clipPath_7rCDEux99Tn6EICDqkZixAcoj5lU0gHX)"><g opacity="0.7"><mask id="_mask_Llg8NvShKoGuWRVa5RLnri4Twlqp49Rz" x="-200%" y="-200%" width="400%" height="400%"><rect x="-200%" y="-200%" width="400%" height="400%" style="fill:white;"/><line x1="87.516" y1="113.407" x2="87.526" y2="112.016" fill="black" stroke="none"/></mask><line x1="87.516" y1="113.407" x2="87.526" y2="112.016" mask="url(#_mask_Llg8NvShKoGuWRVa5RLnri4Twlqp49Rz)" vector-effect="non-scaling-stroke" stroke-width="1.855" stroke="rgb(136,211,75)" stroke-opacity="100" stroke-linejoin="round" stroke-linecap="round" stroke-miterlimit="4"/></g></g></g></g><path d=" M 222.419 146.178 C 222.419 146.178 225.182 164.838 241.494 171.058 L 175.414 171.058 C 191.725 164.838 194.489 146.178 194.489 146.178 L 222.419 146.178 Z " fill="rgb(224,224,224)"/><linearGradient id="_lgradient_33" x1="0" y1="0.5" x2="6.123233995736766e-17" y2="-0.5" gradientTransform="matrix(66.694,0,0,3.942,175.092,171.058)" gradientUnits="userSpaceOnUse"><stop offset="0%" stop-opacity="0.1" style="stop-color:rgb(128,128,128)"/></linearGradient><rect x="175.092" y="171.058" width="66.694" height="3.942" transform="matrix(1,0,0,1,0,0)" fill="url(#_lgradient_33)"/><rect x="175.423" y="171.058" width="66.07" height="3.042" transform="matrix(1,0,0,1,0,0)" fill="rgb(245,245,245)"/><linearGradient id="_lgradient_34" x1="0" y1="0.5" x2="1.1102230246251565e-16" y2="0.1080785801025706" gradientTransform="matrix(112.22,0,0,73.035,152.581,79.848)" gradientUnits="userSpaceOnUse"><stop offset="0%" stop-opacity="0.1" style="stop-color:rgb(128,128,128)"/></linearGradient><path d=" M 262.308 79.848 L 155.073 79.848 C 153.696 79.848 152.581 80.963 152.581 82.34 L 152.581 149.901 C 152.581 150.692 152.895 151.451 153.454 152.01 C 154.013 152.569 154.771 152.883 155.562 152.883 L 261.818 152.883 C 262.609 152.883 263.368 152.569 263.927 152.01 C 264.486 151.451 264.8 150.692 264.8 149.901 L 264.8 82.34 C 264.8 80.963 263.684 79.848 262.308 79.848 Z " fill="url(#_lgradient_34)"/><path d=" M 156.422 80.868 L 260.495 80.868 C 261.871 80.868 262.987 81.984 262.987 83.36 L 262.987 141.202 L 153.93 141.202 L 153.93 83.362 C 153.929 82.701 154.192 82.066 154.659 81.599 C 155.127 81.131 155.761 80.868 156.422 80.868 L 156.422 80.868 Z " fill="rgb(255,255,255)"/><path d=" M 260.005 151.153 L 156.912 151.153 C 156.121 151.153 155.362 150.839 154.803 150.28 C 154.244 149.721 153.93 148.962 153.93 148.172 L 153.93 141.202 L 262.987 141.202 L 262.987 148.172 C 262.987 149.818 261.652 151.153 260.005 151.153 Z " fill="rgb(245,245,245)"/><rect x="159.321" y="85.755" width="98.691" height="48.704" transform="matrix(1,0,0,1,0,0)" fill="rgb(136,211,75)"/><g style="opacity:0.2;"><g opacity="0.2"><path d=" M 163.225 88.987 L 258.074 88.987 L 258.074 85.739 L 159.383 85.739 L 159.383 134.443 L 163.225 134.443 L 163.225 88.987 L 163.225 88.987 Z " fill="rgb(255,255,255)"/></g></g></g></g></g></svg>