<?xml version="1.0" standalone="no"?><!-- Generator: Gravit.io --><svg xmlns="http://www.w3.org/2000/svg" xmlns:xlink="http://www.w3.org/1999/xlink" style="isolation:isolate" viewBox="0 0 368.264 267.745" width="368.264" height="267.745"><defs><clipPath id="_clipPath_3xoWSTy2jOeX0Cp15J7HiXONv4PW7b8U"><rect width="368.264" height="267.745"/></clipPath></defs><g clip-path="url(#_clipPath_3xoWSTy2jOeX0Cp15J7HiXONv4PW7b8U)"><rect width="368.264" height="267.745" style="fill:rgb(42,42,42)" fill-opacity="0"/><g><g opacity="0.1"><ellipse vector-effect="non-scaling-stroke" cx="291.26284377036757" cy="216.04914646038495" rx="75.56661138835153" ry="14.687151759242425" fill="rgb(128,204,65)"/></g><g style="opacity:0.5;"><g opacity="0.5"><path d=" M 226.536 43.843 C 225.517 44.133 224.27 44.887 223.655 46.95 C 222.45 50.994 225.249 53.743 224.327 57.958 C 224.071 59.077 223.584 60.129 222.897 61.047 C 221.771 62.574 220.548 63.296 219.361 64.365 C 217.855 65.731 216.776 67.503 216.254 69.467 C 215.682 71.635 215.634 73.909 216.115 76.099 C 216.536 77.93 217.255 79.263 217.884 80.747 C 218.667 82.64 219.278 84.598 219.711 86.6 C 219.949 87.575 220.083 88.572 220.112 89.574 C 220.094 90.907 219.974 92.236 219.754 93.55 L 218.042 105.499 C 217.781 107.061 217.625 108.639 217.573 110.222 C 217.596 111.808 217.779 113.388 218.12 114.937 C 218.721 118.098 219.368 121.373 220.744 123.046 C 222.121 124.719 224.466 124.119 225.907 120.733 C 227.276 117.494 227.309 113.171 228.517 109.71 C 230.423 104.258 234.209 103.525 236.311 98.323 C 238.328 93.318 237.709 87.211 238.732 81.519 C 239.447 77.44 241.023 73.722 241.949 69.692 C 243.279 63.89 243.147 57.866 242.085 53.404 C 241.278 49.737 239.531 46.344 237.015 43.557 C 236.125 42.574 235.171 41.698 234.052 41.609 C 232.861 41.516 231.821 43.014 230.644 43.464 C 229.286 43.997 227.92 43.45 226.536 43.843 Z " fill="rgb(128,204,65)"/></g><g opacity="0.5"><mask id="_mask_Bco3oQ7g7vNRaZDEVqvySt8EmSSNjzM7" x="-200%" y="-200%" width="400%" height="400%"><rect x="-200%" y="-200%" width="400%" height="400%" style="fill:white;"/><path d=" M 232.983 41.913 C 232.983 41.913 230.966 93.518 222.486 123.947" fill="black" stroke="none"/></mask><path d=" M 232.983 41.913 C 232.983 41.913 230.966 93.518 222.486 123.947" fill="none" mask="url(#_mask_Bco3oQ7g7vNRaZDEVqvySt8EmSSNjzM7)" vector-effect="non-scaling-stroke" stroke-width="1.43" stroke="rgb(83,84,97)" stroke-linejoin="miter" stroke-linecap="butt" stroke-miterlimit="10"/></g><g opacity="0.5"><mask id="_mask_0l8ACPPklhFHSjXqrLGgFEvFH5e4xCPe" x="-200%" y="-200%" width="400%" height="400%"><rect x="-200%" y="-200%" width="400%" height="400%" style="fill:white;"/><path d=" M 223.605 47.193 C 223.605 47.193 232.668 55.445 230.948 71.148" fill="black" stroke="none"/></mask><path d=" M 223.605 47.193 C 223.605 47.193 232.668 55.445 230.948 71.148" fill="none" mask="url(#_mask_0l8ACPPklhFHSjXqrLGgFEvFH5e4xCPe)" vector-effect="non-scaling-stroke" stroke-width="1.43" stroke="rgb(83,84,97)" stroke-linejoin="miter" stroke-linecap="butt" stroke-miterlimit="10"/></g><g opacity="0.5"><mask id="_mask_0CRr5G6d9k9Qq361kSdd6TWVZZrhaZva" x="-200%" y="-200%" width="400%" height="400%"><rect x="-200%" y="-200%" width="400%" height="400%" style="fill:white;"/><path d=" M 216 70.676 C 216 70.676 230.877 73.668 229.772 82.567" fill="black" stroke="none"/></mask><path d=" M 216 70.676 C 216 70.676 230.877 73.668 229.772 82.567" fill="none" mask="url(#_mask_0CRr5G6d9k9Qq361kSdd6TWVZZrhaZva)" vector-effect="non-scaling-stroke" stroke-width="1.43" stroke="rgb(83,84,97)" stroke-linejoin="miter" stroke-linecap="butt" stroke-miterlimit="10"/></g><g opacity="0.5"><mask id="_mask_WNvangj8I7uNpDc8mmm0hal65MwyEIdW" x="-200%" y="-200%" width="400%" height="400%"><rect x="-200%" y="-200%" width="400%" height="400%" style="fill:white;"/><path d=" M 242.11 53.296 C 242.11 53.296 236.089 58.566 230.727 73.493" fill="black" stroke="none"/></mask><path d=" M 242.11 53.296 C 242.11 53.296 236.089 58.566 230.727 73.493" fill="none" mask="url(#_mask_WNvangj8I7uNpDc8mmm0hal65MwyEIdW)" vector-effect="non-scaling-stroke" stroke-width="1.43" stroke="rgb(83,84,97)" stroke-linejoin="miter" stroke-linecap="butt" stroke-miterlimit="10"/></g><g opacity="0.5"><mask id="_mask_wJ0Qbsb305K00j83qe1JhDfxDWlMwuX8" x="-200%" y="-200%" width="400%" height="400%"><rect x="-200%" y="-200%" width="400%" height="400%" style="fill:white;"/><path d=" M 236.229 98.409 C 236.229 98.409 232.121 101.627 228.825 90.361" fill="black" stroke="none"/></mask><path d=" M 236.229 98.409 C 236.229 98.409 232.121 101.627 228.825 90.361" fill="none" mask="url(#_mask_wJ0Qbsb305K00j83qe1JhDfxDWlMwuX8)" vector-effect="non-scaling-stroke" stroke-width="1.43" stroke="rgb(83,84,97)" stroke-linejoin="miter" stroke-linecap="butt" stroke-miterlimit="10"/></g><g opacity="0.5"><mask id="_mask_4yHyKEwhfoMZF79RS2qkGHrAA2vuZLF2" x="-200%" y="-200%" width="400%" height="400%"><rect x="-200%" y="-200%" width="400%" height="400%" style="fill:white;"/><path d=" M 218.503 104.991 C 218.503 104.991 226.88 103.897 227.652 98.652" fill="black" stroke="none"/></mask><path d=" M 218.503 104.991 C 218.503 104.991 226.88 103.897 227.652 98.652" fill="none" mask="url(#_mask_4yHyKEwhfoMZF79RS2qkGHrAA2vuZLF2)" vector-effect="non-scaling-stroke" stroke-width="1.43" stroke="rgb(83,84,97)" stroke-linejoin="miter" stroke-linecap="butt" stroke-miterlimit="10"/></g></g><path d=" M 246.787 9.231 C 244.713 9.539 242.217 10.501 241.191 13.464 C 239.179 19.278 245.296 23.679 243.887 29.753 C 243.467 31.425 242.582 32.943 241.334 34.133 C 239.189 36.246 236.737 37.168 234.413 38.602 C 232.089 40.036 229.675 42.292 228.585 45.753 C 227.537 49.081 227.992 52.756 229.082 55.502 C 230.172 58.248 231.821 60.297 233.294 62.556 C 235.084 65.337 236.58 68.297 237.759 71.387 C 238.354 72.796 238.753 74.279 238.946 75.795 C 239.136 77.655 238.896 79.653 238.657 81.609 L 236.529 99.035 C 236.247 101.351 235.961 103.704 236.122 105.935 C 236.304 108.505 237.066 110.751 237.816 112.942 C 239.432 117.669 241.163 122.596 244.212 125.198 C 247.262 127.801 252.046 127.243 254.624 122.402 C 257.076 117.794 256.626 111.434 258.717 106.482 C 262.014 98.677 269.765 98.044 273.494 90.636 C 277.069 83.529 275.071 74.437 276.508 66.178 C 277.537 60.261 280.326 54.97 281.756 49.145 C 283.819 40.754 282.829 31.87 280.104 25.191 C 277.38 18.513 273.072 13.75 268.449 10.093 C 266.49 8.538 264.413 7.133 262.085 6.875 C 259.611 6.6 257.634 8.681 255.256 9.206 C 252.489 9.782 249.6 8.813 246.787 9.231 Z " fill="rgb(128,204,65)"/><mask id="_mask_8FPQfavcMazWX9l8Z4b0lmSx6qDQMG0V" x="-200%" y="-200%" width="400%" height="400%"><rect x="-200%" y="-200%" width="400%" height="400%" style="fill:white;"/><path d=" M 259.901 7.151 C 259.901 7.151 261.853 82.907 247.902 126.714" fill="black" stroke="none"/></mask><path d=" M 259.901 7.151 C 259.901 7.151 261.853 82.907 247.902 126.714" fill="none" mask="url(#_mask_8FPQfavcMazWX9l8Z4b0lmSx6qDQMG0V)" vector-effect="non-scaling-stroke" stroke-width="1.43" stroke="rgb(83,84,97)" stroke-linejoin="miter" stroke-linecap="butt" stroke-miterlimit="10"/><mask id="_mask_MaS0grgpN4XVSdTvM0BHw8aOHAXpQzcv" x="-200%" y="-200%" width="400%" height="400%"><rect x="-200%" y="-200%" width="400%" height="400%" style="fill:white;"/><path d=" M 241.113 13.829 C 241.113 13.829 260.848 27.058 259.157 49.996" fill="black" stroke="none"/></mask><path d=" M 241.113 13.829 C 241.113 13.829 260.848 27.058 259.157 49.996" fill="none" mask="url(#_mask_MaS0grgpN4XVSdTvM0BHw8aOHAXpQzcv)" vector-effect="non-scaling-stroke" stroke-width="1.43" stroke="rgb(83,84,97)" stroke-linejoin="miter" stroke-linecap="butt" stroke-miterlimit="10"/><mask id="_mask_dqJheQ70uYGphsICOqlTtg8Y5WJ7KFnD" x="-200%" y="-200%" width="400%" height="400%"><rect x="-200%" y="-200%" width="400%" height="400%" style="fill:white;"/><path d=" M 228.16 47.497 C 228.16 47.497 259.307 53.668 258.077 66.639" fill="black" stroke="none"/></mask><path d=" M 228.16 47.497 C 228.16 47.497 259.307 53.668 258.077 66.639" fill="none" mask="url(#_mask_dqJheQ70uYGphsICOqlTtg8Y5WJ7KFnD)" vector-effect="non-scaling-stroke" stroke-width="1.43" stroke="rgb(83,84,97)" stroke-linejoin="miter" stroke-linecap="butt" stroke-miterlimit="10"/><mask id="_mask_DUwwM9Y2lrfy52PWfbq64MCdZRjFzVi8" x="-200%" y="-200%" width="400%" height="400%"><rect x="-200%" y="-200%" width="400%" height="400%" style="fill:white;"/><path d=" M 280.14 24.998 C 280.14 24.998 268.303 32.045 258.978 53.389" fill="black" stroke="none"/></mask><path d=" M 280.14 24.998 C 280.14 24.998 268.303 32.045 258.978 53.389" fill="none" mask="url(#_mask_DUwwM9Y2lrfy52PWfbq64MCdZRjFzVi8)" vector-effect="non-scaling-stroke" stroke-width="1.43" stroke="rgb(83,84,97)" stroke-linejoin="miter" stroke-linecap="butt" stroke-miterlimit="10"/><mask id="_mask_LLeh6386RgNRAmRTRKERzXFYB7Hgthci" x="-200%" y="-200%" width="400%" height="400%"><rect x="-200%" y="-200%" width="400%" height="400%" style="fill:white;"/><path d=" M 273.308 90.736 C 273.308 90.736 265.192 95.027 257.03 78.005" fill="black" stroke="none"/></mask><path d=" M 273.308 90.736 C 273.308 90.736 265.192 95.027 257.03 78.005" fill="none" mask="url(#_mask_LLeh6386RgNRAmRTRKERzXFYB7Hgthci)" vector-effect="non-scaling-stroke" stroke-width="1.43" stroke="rgb(83,84,97)" stroke-linejoin="miter" stroke-linecap="butt" stroke-miterlimit="10"/><mask id="_mask_6dmCVD3awEKCCnjoePQSK7AQAFck0TGe" x="-200%" y="-200%" width="400%" height="400%"><rect x="-200%" y="-200%" width="400%" height="400%" style="fill:white;"/><path d=" M 237.402 98.32 C 237.402 98.32 254.609 97.701 255.589 90.068" fill="black" stroke="none"/></mask><path d=" M 237.402 98.32 C 237.402 98.32 254.609 97.701 255.589 90.068" fill="none" mask="url(#_mask_6dmCVD3awEKCCnjoePQSK7AQAFck0TGe)" vector-effect="non-scaling-stroke" stroke-width="1.43" stroke="rgb(83,84,97)" stroke-linejoin="miter" stroke-linecap="butt" stroke-miterlimit="10"/><path d=" M 24.045 213.679 C 24.045 213.679 27.041 217.612 22.661 223.511 C 18.281 229.41 14.663 234.422 16.133 238.112 C 16.133 238.112 22.74 227.125 28.117 226.972 C 33.494 226.818 29.962 220.286 24.045 213.679 Z " fill="rgb(128,204,65)"/><g opacity="0.1"><path d=" M 24.045 213.679 C 24.312 214.057 24.524 214.471 24.674 214.909 C 29.922 221.072 32.715 226.825 27.674 226.972 C 22.976 227.107 17.341 235.506 15.99 237.629 C 16.034 237.793 16.088 237.954 16.15 238.112 C 16.15 238.112 22.758 227.125 28.135 226.972 C 33.512 226.818 29.962 220.286 24.045 213.679 Z " fill="rgb(0,0,0)"/></g><path d=" M 29.615 218.673 C 29.615 220.053 29.461 221.176 29.257 221.176 C 29.054 221.176 28.9 220.057 28.9 218.673 C 28.9 217.29 29.093 217.958 29.282 217.958 C 29.472 217.958 29.615 217.293 29.615 218.673 Z " fill="rgb(255,208,55)"/><path d=" M 31.528 220.318 C 30.316 220.979 29.261 221.391 29.172 221.208 C 29.082 221.026 29.987 220.368 31.199 219.71 C 32.411 219.052 31.932 219.531 32.025 219.71 C 32.118 219.889 32.736 219.657 31.528 220.318 Z " fill="rgb(255,208,55)"/><path d=" M 8.228 213.679 C 8.228 213.679 5.232 217.612 9.611 223.511 C 9.611 223.511 17.602 234.419 16.14 238.108 C 16.14 238.108 9.533 227.122 4.155 226.968 C -1.222 226.814 2.304 220.286 8.228 213.679 Z " fill="rgb(128,204,65)"/><g opacity="0.1"><path d=" M 8.228 213.679 C 7.967 214.058 7.761 214.472 7.616 214.909 C 2.368 221.072 -0.424 226.825 4.617 226.972 C 9.315 227.107 14.949 235.506 16.301 237.629 C 16.256 237.793 16.202 237.954 16.14 238.112 C 16.14 238.112 9.533 227.125 4.155 226.972 C -1.222 226.818 2.304 220.286 8.228 213.679 Z " fill="rgb(0,0,0)"/></g><path d=" M 2.65 218.673 C 2.65 220.053 2.804 221.176 3.008 221.176 C 3.212 221.176 3.365 220.057 3.365 218.673 C 3.365 217.29 3.172 217.958 2.983 217.958 C 2.793 217.958 2.65 217.293 2.65 218.673 Z " fill="rgb(255,208,55)"/><path d=" M 0.738 220.318 C 1.95 220.979 3.004 221.391 3.094 221.208 C 3.183 221.026 2.278 220.368 1.066 219.71 C -0.146 219.052 0.334 219.531 0.241 219.71 C 0.148 219.889 -0.471 219.657 0.738 220.318 Z " fill="rgb(255,208,55)"/><path d=" M 3.605 237.597 C 3.605 237.597 11.982 237.34 14.506 235.541 C 14.506 235.541 27.377 231.609 28.017 234.469 C 28.017 234.469 40.605 248.809 31.149 248.884 C 31.149 248.884 9.175 247.411 6.655 245.878 C 4.134 244.344 3.605 237.597 3.605 237.597 Z " fill="rgb(168,168,168)"/><g opacity="0.2"><path d=" M 31.317 247.89 C 21.86 247.965 9.343 246.417 6.823 244.884 C 4.903 243.714 4.138 239.521 3.884 237.586 L 3.605 237.586 C 3.605 237.586 4.134 244.344 6.655 245.878 C 6.655 245.878 21.692 248.963 31.149 248.884 C 33.88 248.863 34.82 247.89 34.77 246.453 C 34.391 247.333 33.351 247.876 31.317 247.89 Z " fill="rgb(0,0,0)"/></g><path d=" M 351.22 212.052 C 351.875 211.518 352.353 210.797 352.589 209.986 C 352.768 209.163 352.418 208.18 351.631 207.88 C 350.752 207.544 349.811 208.151 349.1 208.77 C 348.388 209.388 347.57 210.089 346.636 209.957 C 347.612 209.073 348.052 207.741 347.795 206.45 C 347.754 206.186 347.643 205.939 347.473 205.735 C 346.983 205.213 346.1 205.438 345.514 205.849 C 343.655 207.157 343.136 209.682 343.126 211.955 C 342.94 211.137 343.097 210.282 343.09 209.453 C 343.083 208.623 342.854 207.665 342.146 207.229 C 341.707 206.993 341.214 206.876 340.716 206.889 C 339.879 206.857 338.95 206.943 338.378 207.554 C 337.663 208.312 337.852 209.589 338.471 210.415 C 339.089 211.24 340.026 211.773 340.891 212.352 C 341.584 212.765 342.176 213.328 342.621 214.001 C 342.674 214.094 342.717 214.192 342.75 214.294 L 347.988 214.294 C 349.161 213.696 350.249 212.942 351.22 212.052 Z " fill="rgb(128,204,65)"/><g opacity="0.1"><path d=" M 52.461 178.545 C 63.837 193.01 59.418 214.144 52.189 231.065 C 49.769 236.732 47.03 242.728 48.052 248.802 C 49.3 256.231 55.918 261.673 62.897 264.533 C 75.589 269.782 90.784 268.53 102.443 261.276 C 112.521 255.005 119.74 244.809 129.99 238.824 C 147.151 228.813 168.982 232.592 187.609 239.489 C 200.787 244.369 215.196 250.718 228.292 245.617 C 237.505 242.041 243.876 233.293 247.348 224.033 C 249.025 219.56 250.24 214.737 253.426 211.162 C 255.328 209.056 257.809 207.558 260.355 206.299 C 283.594 194.784 312.911 200.937 335.464 188.18 C 350.698 179.557 360.451 163.286 364.781 146.321 C 369.11 129.356 368.596 111.566 367.498 94.097 C 366.719 81.68 365.321 68.427 357.387 58.842 C 348.996 48.706 334.591 44.934 321.574 46.861 C 308.556 48.788 296.751 55.688 286.383 63.775 C 273.408 73.883 261.377 86.471 245.446 90.568 C 234.599 93.357 223.186 91.83 211.996 91.305 C 193.29 90.422 174.581 92.377 155.979 94.523 C 138.17 96.582 120.226 98.849 103.269 104.641 C 91.263 108.741 81.638 116.182 70.301 121.38 C 62.911 124.769 54.853 125.706 47.859 130.021 C 39.239 135.338 31.342 144.587 33.558 155.406 C 35.639 165.706 46.419 170.869 52.461 178.545 Z " fill="rgb(128,204,65)"/></g><g opacity="0.1"><ellipse vector-effect="non-scaling-stroke" cx="197.48030292404619" cy="163.85040846502474" rx="152.90297451010744" ry="14.687151759242425" fill="rgb(128,204,65)"/></g><g opacity="0.1"><ellipse vector-effect="non-scaling-stroke" cx="79.96521256997129" cy="248.58397630680807" rx="75.56661138835153" ry="14.687151759242425" fill="rgb(128,204,65)"/></g><path d=" M 157.212 159.271 L 156.014 161.012 C 156.014 161.012 157.319 162.753 157.445 162.971 C 157.445 162.971 161.252 162.864 161.252 162.864 L 161.578 161.559 L 161.034 160.036 L 157.212 159.271 Z " fill="rgb(230,230,240)"/><path d=" M 116.944 158.291 L 114.549 158.723 L 116.072 161.666 L 117.706 162.535 L 119.229 163.622 L 119.665 162.427 L 118.574 160.139 L 116.944 158.291 L 116.944 158.291 Z " fill="rgb(253,194,204)"/><path d=" M 156.125 129.993 C 156.125 129.993 168.86 133.039 171.252 136.428 C 171.252 136.428 173.43 138.28 171.252 141.652 C 169.075 145.023 166.029 152.646 166.029 152.646 C 166.029 152.646 163.851 160.046 162.983 160.59 C 162.114 161.133 157.105 161.569 156.669 159.517 C 156.669 159.517 159.497 155.055 159.497 152.985 C 159.497 150.915 164.177 141.123 164.177 141.123 C 164.177 141.123 153.512 139.925 150.137 140.686 C 146.762 141.448 151.663 128.795 156.125 129.993 Z " fill="rgb(86,81,113)"/><g opacity="0.1"><path d=" M 156.125 129.993 C 156.125 129.993 168.86 133.039 171.252 136.428 C 171.252 136.428 173.43 138.28 171.252 141.652 C 169.075 145.023 166.029 152.646 166.029 152.646 C 166.029 152.646 163.851 160.046 162.983 160.59 C 162.114 161.133 157.105 161.569 156.669 159.517 C 156.669 159.517 159.497 155.055 159.497 152.985 C 159.497 150.915 164.177 141.123 164.177 141.123 C 164.177 141.123 153.512 139.925 150.137 140.686 C 146.762 141.448 151.663 128.795 156.125 129.993 Z " fill="rgb(0,0,0)"/></g><path d=" M 153.512 132.932 C 153.487 133.564 153.419 134.276 153.322 135.041 C 152.625 140.583 150.355 148.824 150.355 148.824 C 150.355 148.824 148.07 153.722 147.416 156.879 C 146.762 160.036 142.3 160.811 142.3 160.811 C 142.3 160.811 130.108 162.242 127.605 161.684 C 125.103 161.126 121.17 163.318 119.225 162.989 C 117.28 162.66 116.068 158.091 116.068 158.091 C 119.444 158.11 122.784 157.406 125.864 156.024 C 130.87 153.74 138.056 154.826 138.056 154.826 C 139.139 154.512 140.045 153.764 140.559 152.76 C 141.32 151.126 141.32 141.223 141.102 140.568 C 139.672 136.278 139.79 133.525 140.201 131.92 C 140.339 131.219 140.648 130.563 141.102 130.011 L 153.512 132.932 Z " fill="rgb(86,81,113)"/><g opacity="0.1"><path d=" M 153.512 132.932 C 153.487 133.564 153.419 134.276 153.322 135.041 C 152.228 135.127 149.161 135.209 146.887 133.804 C 144.742 132.488 141.621 132.041 140.215 131.902 C 140.353 131.201 140.663 130.545 141.116 129.993 L 153.512 132.932 Z " fill="rgb(0,0,0)"/></g><path d=" M 155.017 131.569 C 154.509 133 153.73 134.676 153.73 134.676 C 153.73 134.676 149.704 135.22 146.873 133.479 C 144.041 131.737 139.472 131.519 139.472 131.519 C 140.212 131.065 140.712 129.685 141.023 128.477 C 141.197 127.794 141.333 127.101 141.431 126.403 C 141.431 126.403 154.817 129.124 155.375 129.56 C 155.582 129.732 155.36 130.597 155.017 131.569 Z " fill="rgb(230,230,240)"/><path d=" M 178.871 85.695 L 162.636 95.495 L 161.023 96.468 L 161.023 91.68 L 162.142 91.144 L 175.825 84.605 C 175.825 84.605 176.479 72.742 178.22 74.594 C 179.962 76.446 178.871 85.695 178.871 85.695 Z " fill="rgb(253,194,204)"/><g opacity="0.1"><path d=" M 162.636 95.495 L 161.023 96.468 L 161.023 91.68 L 162.142 91.144 C 162.217 92.603 162.381 94.056 162.636 95.495 L 162.636 95.495 Z " fill="rgb(0,0,0)"/></g><path d=" M 150.14 97.247 L 161.785 90.5 C 161.785 90.5 162.003 97.032 163.308 98.008 C 163.308 98.008 158.521 99.439 156.669 102.47 L 150.14 97.247 Z " fill="rgb(180,81,129)"/><g opacity="0.1"><path d=" M 150.14 97.247 L 161.785 90.5 C 161.785 90.5 162.003 97.032 163.308 98.008 C 163.308 98.008 158.521 99.439 156.669 102.47 L 150.14 97.247 Z " fill="rgb(0,0,0)"/></g><path d=" M 178.767 103 C 178.767 103 173.229 105.413 169.561 106.3 C 168.736 106.548 167.872 106.648 167.012 106.593 C 164.509 106.157 167.666 103.017 167.666 103.017 L 168.982 102.814 L 176.047 101.712 C 176.047 101.712 176.808 90.829 178.113 91.702 C 179.418 92.574 178.767 103 178.767 103 Z " fill="rgb(253,194,204)"/><path d=" M 155.364 93.203 C 155.364 93.203 150.684 96.686 152.425 101.04 C 152.425 101.04 143.39 98.427 143.39 98.427 C 143.39 98.427 146.873 93.203 147.634 89.285 C 148.396 85.366 155.364 93.203 155.364 93.203 Z " fill="rgb(253,194,204)"/><g opacity="0.1"><path d=" M 155.017 131.569 C 152.993 130.807 150.877 130.314 148.725 130.104 C 145.578 129.746 142.697 129.142 141.027 128.477 C 141.201 127.794 141.337 127.101 141.435 126.403 C 141.435 126.403 154.82 129.124 155.378 129.56 C 155.582 129.732 155.36 130.597 155.017 131.569 Z " fill="rgb(0,0,0)"/></g><g opacity="0.1"><path d=" M 169.558 106.3 C 168.732 106.548 167.869 106.648 167.008 106.593 C 164.506 106.157 167.663 103.017 167.663 103.017 L 168.978 102.814 C 169.529 103.661 170.09 104.984 169.558 106.3 Z " fill="rgb(0,0,0)"/></g><path d=" M 147.745 95.163 C 147.745 95.163 143.501 95.055 141.978 96.796 C 141.978 96.796 140.78 103.232 140.78 103.232 C 140.78 103.232 140.462 112.631 142.847 117.89 C 142.925 118.06 142.934 118.254 142.872 118.43 C 142.847 118.495 142.847 118.455 142.847 118.455 C 142.847 118.455 141.324 125.313 139.801 126.51 C 138.278 127.708 143.065 129.124 148.739 129.775 C 154.413 130.425 156.683 132.059 156.683 132.059 C 156.683 132.059 157.663 130.987 157.756 128.577 C 157.849 126.167 156.243 108.659 156.243 108.659 C 156.243 108.659 162.228 110.182 165.821 108.334 C 165.821 108.334 167.455 109.206 168.978 106.811 C 170.501 104.415 167.906 101.805 167.906 101.805 C 167.906 101.805 165.51 104.201 158.871 101.044 C 152.232 97.887 149.808 95.055 147.745 95.163 Z " fill="rgb(180,81,129)"/><path d=" M 115.203 158.509 L 113.898 158.509 L 113.898 160.361 L 115.203 163.3 C 115.203 163.3 116.944 163.625 117.055 163.625 C 117.055 163.625 118.578 163.3 118.578 163.3 L 119.014 162.538 C 119.014 162.538 114.223 160.683 115.203 158.509 Z " fill="rgb(230,230,240)"/><path d=" M 156.125 160.25 L 154.166 164.605 L 162.439 168.538 L 168.971 168.756 C 168.971 168.756 169.515 167.233 167.337 166.471 L 165.596 166.146 C 165.596 166.146 163.312 162.009 163.093 160.068 C 163.093 160.068 160.916 160.504 160.591 162.134 C 160.587 162.099 157.541 163.622 156.125 160.25 Z " fill="rgb(180,81,129)"/><path d=" M 114.223 158.073 L 113.558 158.616 L 110.634 161.012 L 117.38 169.95 C 117.38 169.95 121.188 171.584 122.933 169.95 C 122.933 169.95 124.005 168.877 121.628 167.991 C 121.628 167.991 119.776 168.316 119.776 166.467 C 119.776 164.619 120.212 162.66 120.848 162.224 C 120.848 162.224 119.214 161.68 118.782 162.116 C 118.449 162.483 118.156 162.885 117.909 163.314 C 117.909 163.314 114.005 161.773 114.223 158.073 Z " fill="rgb(180,81,129)"/><g opacity="0.1"><path d=" M 147.42 89.503 C 147.309 90.055 147.163 90.6 146.983 91.133 C 148.159 93.961 151.37 95.341 154.23 94.247 C 154.517 93.951 154.824 93.675 155.149 93.421 C 155.149 93.421 148.181 85.584 147.42 89.503 Z " fill="rgb(0,0,0)"/></g><g opacity="0.1"><path d=" M 146.819 104.04 C 146.819 104.04 150.194 108.502 155.092 108.613" fill="rgb(0,0,0)"/></g><g style="opacity:0.1;"><g opacity="0.1"><path d=" M 166.991 108.409 C 166.922 108.39 166.855 108.365 166.79 108.334 Q 166.633 108.416 166.469 108.488 C 166.645 108.484 166.821 108.458 166.991 108.409 L 166.991 108.409 Z " fill="rgb(0,0,0)"/></g><g opacity="0.1"><path d=" M 168.149 102.252 C 168.03 102.1 167.904 101.955 167.77 101.816 C 167.77 101.816 167.055 102.531 165.289 102.667 C 166.262 102.764 167.243 102.621 168.149 102.252 Z " fill="rgb(0,0,0)"/></g><g opacity="0.1"><path d=" M 157.212 108.659 L 157.234 108.892 C 158.669 109.158 160.128 109.277 161.588 109.249 C 160.114 109.195 158.648 108.998 157.212 108.659 Z " fill="rgb(0,0,0)"/></g><g opacity="0.1"><path d=" M 149.704 129.782 C 144.045 129.128 139.257 127.715 140.766 126.518 C 142.275 125.32 143.812 118.463 143.812 118.463 C 143.812 118.463 143.812 118.502 143.837 118.438 C 143.9 118.261 143.891 118.067 143.812 117.898 C 141.427 112.624 141.746 103.239 141.746 103.239 C 141.746 103.239 141.42 98.559 142.943 96.804 C 144.077 95.506 146.719 95.238 147.995 95.184 C 147.876 95.175 147.757 95.175 147.638 95.184 C 147.638 95.184 143.394 95.077 141.871 96.818 C 141.871 96.818 140.673 103.253 140.673 103.253 C 140.673 103.253 140.355 112.653 142.74 117.912 C 142.818 118.082 142.827 118.276 142.765 118.452 C 142.74 118.516 142.74 118.477 142.74 118.477 C 142.74 118.477 141.227 125.313 139.69 126.51 C 138.153 127.708 142.954 129.124 148.628 129.775 C 154.302 130.425 156.572 132.059 156.572 132.059 C 156.686 131.923 156.787 131.775 156.873 131.619 C 155.768 131.087 153.494 130.211 149.704 129.782 Z " fill="rgb(0,0,0)"/></g></g><circle vector-effect="non-scaling-stroke" cx="152.42492647079078" cy="88.74142984813936" r="5.659630290866801" fill="rgb(253,194,204)"/><g opacity="0.1"><path d=" M 160.48 86.21 C 160.012 87.383 158.614 87.826 157.387 88.13 C 155.636 88.559 153.748 88.981 152.071 88.316 C 151.854 88.194 151.603 88.145 151.356 88.177 C 151.157 88.256 150.99 88.401 150.884 88.588 C 149.036 91.219 149.336 94.726 148.857 97.908 C 148.707 98.899 148.453 99.921 147.784 100.661 C 146.483 102.091 144.027 102.038 142.829 103.557 C 142.039 104.558 142.032 105.949 142.039 107.226 Q 142.039 109.267 142.003 111.312 C 141.982 112.206 141.939 113.132 141.535 113.926 C 140.848 115.27 139.318 115.91 137.906 116.428 C 137.026 116.757 136.118 117.09 135.174 117 C 134.23 116.911 133.287 116.285 133.165 115.341 C 132.997 114.061 134.316 113.168 135.224 112.245 C 136.676 110.776 137.273 108.638 137.327 106.571 C 137.378 105.737 137.256 104.9 136.969 104.115 C 136.637 103.303 136.043 102.621 135.686 101.82 C 134.584 99.353 135.943 96.5 137.57 94.34 C 139.196 92.181 141.195 90.075 141.542 87.397 C 141.572 86.818 141.655 86.242 141.789 85.677 C 142.039 84.898 142.632 82.746 143.287 82.252 C 144.334 81.463 145.564 80.952 146.862 80.765 C 147.866 80.618 148.893 80.672 149.89 80.479 C 151.056 80.254 152.139 79.7 153.304 79.492 C 155.825 79.045 158.56 81.973 159.665 84.283 C 159.969 84.991 160.766 85.492 160.48 86.21 Z " fill="rgb(0,0,0)"/></g><path d=" M 160.48 85.992 C 160.012 87.165 158.614 87.608 157.387 87.912 C 155.636 88.341 153.748 88.763 152.071 88.098 C 151.854 87.976 151.603 87.927 151.356 87.958 C 151.157 88.038 150.99 88.183 150.884 88.37 C 149.036 91.001 149.336 94.508 148.857 97.69 C 148.707 98.681 148.453 99.703 147.784 100.443 C 146.483 101.873 144.027 101.82 142.829 103.339 C 142.039 104.34 142.032 105.731 142.039 107.007 Q 142.039 109.049 142.003 111.094 C 141.982 111.988 141.939 112.914 141.535 113.707 C 140.848 115.052 139.318 115.692 137.906 116.21 C 137.026 116.539 136.118 116.872 135.174 116.782 C 134.23 116.693 133.287 116.067 133.165 115.123 C 132.997 113.843 134.316 112.949 135.224 112.027 C 136.676 110.558 137.273 108.42 137.327 106.353 C 137.378 105.519 137.256 104.682 136.969 103.897 C 136.637 103.085 136.043 102.402 135.686 101.602 C 134.584 99.135 135.943 96.282 137.57 94.122 C 139.196 91.963 141.195 89.857 141.542 87.179 C 141.572 86.6 141.655 86.024 141.789 85.459 C 142.039 84.68 142.632 82.528 143.287 82.034 C 144.334 81.245 145.564 80.734 146.862 80.547 C 147.866 80.4 148.893 80.454 149.89 80.261 C 151.056 80.036 152.139 79.482 153.304 79.274 C 155.825 78.827 158.56 81.755 159.665 84.065 C 159.969 84.773 160.766 85.273 160.48 85.992 Z " fill="rgb(245,105,188)"/><path d=" M 178.767 75.113 L 272.857 75.113 L 272.857 169.195 L 178.767 169.195 L 178.767 75.113 Z " fill="rgb(247,223,30)"/><path d=" M 203.512 153.736 L 210.712 149.378 C 212.103 151.841 213.365 153.925 216.397 153.925 C 219.304 153.925 221.134 152.789 221.134 148.37 L 221.134 118.305 L 229.976 118.305 L 229.976 148.491 C 229.976 157.647 224.613 161.816 216.776 161.816 C 209.704 161.816 205.6 158.151 203.515 153.732 M 234.777 152.785 L 241.974 148.616 C 243.869 151.712 246.333 153.979 250.691 153.979 C 254.355 153.979 256.69 152.149 256.69 149.621 C 256.69 146.589 254.291 145.516 250.255 143.747 L 248.045 142.799 C 241.667 140.086 237.434 136.675 237.434 129.474 C 237.434 122.842 242.486 117.79 250.38 117.79 C 256 117.79 260.033 119.75 262.947 124.862 L 256.064 129.285 C 254.549 126.568 252.907 125.495 250.38 125.495 C 247.791 125.495 246.147 127.136 246.147 129.285 C 246.147 131.938 247.788 133.01 251.578 134.648 L 253.787 135.595 C 261.295 138.813 265.535 142.099 265.535 149.489 C 265.535 157.447 259.282 161.805 250.877 161.805 C 242.654 161.805 237.362 157.873 234.788 152.774" fill="rgb(0,0,0)"/><linearGradient id="_lgradient_3" x1="0.4998344458836774" y1="0.9999710321517521" x2="0.4998344458836775" y2="-0.000007333453355906627" gradientTransform="matrix(62.03,0,0,121.043,256.497,106.293)" gradientUnits="userSpaceOnUse"><stop offset="0%" stop-opacity="0.25" style="stop-color:rgb(128,128,128)"/><stop offset="54%" stop-opacity="0.12" style="stop-color:rgb(128,128,128)"/><stop offset="100%" stop-opacity="0.1" style="stop-color:rgb(128,128,128)"/></linearGradient><path d=" M 314.13 221.408 C 314.13 221.408 310.458 221.666 308.192 217.733 C 307.749 216.941 307.225 216.197 306.629 215.513 C 305.898 214.313 305.517 212.932 305.532 211.526 C 305.657 208.613 302.618 192.653 302.618 192.653 C 302.618 192.653 302.997 186.575 299.958 182.774 C 297.956 180.272 295.078 173.121 293.344 168.502 C 293.46 168.606 293.6 168.679 293.751 168.716 L 293.68 168.319 L 293.751 168.319 L 292.854 163.389 C 291.547 161.887 290.446 160.219 289.579 158.427 L 289.783 158.384 L 292.471 157.819 C 292.471 157.819 296.84 151.609 297.119 148.555 L 297.477 148.555 L 297.981 148.555 C 302.025 148.533 306.067 148.745 310.087 149.188 L 310.087 149.188 C 310.087 149.17 310.058 149.092 310.022 148.967 L 310.022 148.967 C 309.852 148.352 309.721 147.728 309.629 147.097 L 309.879 147.097 L 312.382 146.932 C 312.382 146.932 320.995 137.308 317.827 135.534 C 317.827 135.534 311.367 143.514 311.367 143.514 L 310.294 143.707 L 310.004 143.761 C 310.033 143.718 310.062 143.679 310.094 143.639 C 310.126 143.6 296.036 143.01 293.866 139.585 C 293.866 139.585 287.659 134.644 287.405 131.362 C 287.312 129.974 286.451 128.754 285.174 128.202 C 284.407 127.836 283.558 127.677 282.711 127.74 L 279.804 127.941 L 280.008 128.298 L 279.926 128.298 C 279.743 127.88 279.59 127.45 279.468 127.011 L 279.529 127.011 C 279.507 126.922 279.49 126.832 279.472 126.743 C 281.271 126.318 282.823 125.183 283.772 123.596 C 284.721 122.009 284.987 120.106 284.509 118.32 C 284.794 118.356 285.082 118.348 285.364 118.294 C 286.436 118.076 287.191 116.99 287.219 115.903 C 287.219 115.831 287.219 115.76 287.219 115.692 C 287.219 115.692 287.219 115.663 287.219 115.649 C 287.198 114.543 286.679 113.505 285.807 112.824 C 285.228 112.342 284.534 111.998 284.019 111.462 C 283.394 110.822 283.05 109.964 282.564 109.21 C 281.75 107.962 280.542 107.022 279.132 106.539 C 278.084 106.182 276.797 106.146 275.993 106.897 C 275.578 107.286 275.339 107.851 274.874 108.18 C 274.205 108.659 273.297 108.516 272.478 108.613 C 270.973 108.844 269.682 109.811 269.035 111.19 C 268.634 112.041 268.44 112.975 268.471 113.915 C 268.462 114.56 268.539 115.203 268.699 115.828 C 268.857 116.45 269.089 117.05 269.261 117.672 C 269.618 118.959 269.7 120.315 270.112 121.584 C 270.388 122.526 270.939 123.364 271.695 123.99 L 271.574 124.512 C 271.495 124.512 269.522 124.952 268.16 127.93 C 267.087 130.279 263.437 132.703 261.831 133.682 C 261.227 134.052 260.796 134.65 260.637 135.341 C 260.483 136.032 260.415 136.739 260.433 137.447 C 260.405 138.974 260.723 141.087 261.949 143.765 C 264.734 149.843 266.762 152.503 266.762 152.503 C 266.762 152.503 266.915 154.365 266.926 156.328 C 266.926 157.79 266.819 159.245 266.508 159.975 C 266.243 160.59 266.15 162.159 266.172 163.954 C 266.172 167.393 266.508 171.88 266.508 171.88 C 266.508 171.88 267.477 172.066 268.975 172.284 L 269.908 188.702 C 270.025 190.69 269.387 192.649 268.12 194.186 C 267.466 194.995 266.71 195.716 265.871 196.332 C 263.211 198.23 257.512 218.244 257.512 218.244 C 257.512 218.244 257.791 218.244 258.249 218.298 L 256.497 223.185 C 256.497 223.185 263.497 228.548 267.756 227.082 C 268.217 226.932 268.701 226.864 269.186 226.882 C 270.026 226.882 271.824 226.217 270.823 225.341 C 268.89 223.561 267.067 221.665 265.364 219.664 C 265.501 219.731 265.632 219.808 265.757 219.896 L 265.757 219.857 L 265.818 219.896 C 265.818 219.896 265.818 219.699 265.864 219.378 L 265.803 219.356 C 265.932 218.041 266.34 214.708 267.148 214.322 C 268.16 213.815 275.635 198.995 275.635 198.995 L 283.108 179.742 C 283.108 179.742 289.06 190.003 294.127 191.773 L 294.127 196.063 C 294.127 196.063 296.912 208.731 297.927 210.121 C 297.927 210.121 297.927 217.086 297.927 217.086 C 298.127 217.315 298.357 217.517 298.61 217.687 L 297.798 222.277 C 297.798 222.277 303.626 222.023 313.505 225.062 C 313.497 225.08 317.298 223.436 314.13 221.408 Z  M 290.827 155.166 L 289.593 155.474 L 289.35 155.534 C 289.325 155.381 289.307 155.291 289.307 155.291 C 289.024 155.419 288.72 155.493 288.41 155.509 C 287.973 154.124 287.72 152.688 287.659 151.237 C 287.244 149.5 286.991 147.729 286.905 145.946 C 286.905 145.023 287.058 144.219 287.405 143.765 L 287.816 143.797 L 288.102 144.069 L 288.124 144.086 L 288.27 144.219 L 288.27 144.219 L 288.424 144.355 L 288.449 144.376 L 288.614 144.523 L 288.642 144.548 L 288.81 144.691 L 288.81 144.691 L 289 144.848 L 289.043 144.884 L 289.243 145.045 L 289.243 145.045 L 289.439 145.202 L 289.486 145.238 L 289.704 145.402 L 289.751 145.434 L 289.958 145.588 L 289.994 145.613 L 290.23 145.781 L 290.287 145.82 L 290.537 145.992 L 290.559 145.992 L 290.802 146.153 L 290.859 146.192 L 291.12 146.36 L 291.177 146.396 L 291.42 146.546 L 291.467 146.575 L 291.746 146.739 L 291.813 146.779 L 292.103 146.939 L 292.124 146.939 L 292.407 147.09 L 292.475 147.125 L 292.775 147.276 L 292.836 147.304 L 293.115 147.433 L 293.168 147.458 L 293.483 147.594 L 293.558 147.626 L 293.884 147.758 L 293.884 147.758 C 291.863 149.982 290.827 155.166 290.827 155.166 Z " fill="url(#_lgradient_3)"/><path d=" M 259.586 215.288 L 257.237 221.841 C 257.237 221.841 263.673 226.775 267.856 225.752 C 268.486 225.596 269.128 225.492 269.776 225.441 C 270.641 225.377 272.132 224.744 271.206 223.943 C 268.238 221.348 264.28 216.525 264.28 216.525 L 259.586 215.288 Z " fill="rgb(79,77,89)"/><path d=" M 298.66 214.669 L 297.548 220.976 C 297.548 220.976 303.236 220.729 312.882 223.697 C 312.882 223.697 316.594 222.088 313.501 220.121 C 313.501 220.121 309.926 220.368 307.691 216.546 C 305.457 212.724 304.116 213.207 304.116 213.207 L 298.66 214.669 Z " fill="rgb(79,77,89)"/><path d=" M 269.221 168.92 L 270.294 188.112 C 270.411 190.157 269.734 192.168 268.403 193.725 C 267.801 194.44 267.116 195.08 266.361 195.631 C 263.766 197.486 258.199 217.022 258.199 217.022 C 258.199 217.022 264.506 217.379 266.236 218.63 C 266.236 218.63 266.594 213.686 267.595 213.189 C 268.596 212.692 275.879 198.226 275.879 198.226 L 283.176 179.431 C 283.176 179.431 288.985 189.442 293.934 191.18 L 293.934 195.384 C 293.934 195.384 296.654 207.751 297.645 209.11 C 297.645 209.11 297.645 215.903 297.645 215.903 C 297.645 215.903 300.505 219.478 307.04 215.656 C 307.04 215.656 304.938 213.307 305.063 210.461 C 305.188 207.615 302.203 192.038 302.203 192.038 C 302.203 192.038 302.561 186.103 299.607 182.385 C 296.654 178.666 291.746 164.462 291.746 164.462 L 288.342 157.14 L 269.221 168.92 Z " fill="rgb(196,140,150)"/><g style="opacity:0.1;"><g opacity="0.1"><path d=" M 259.4 217.018 C 259.4 217.018 264.963 197.483 267.562 195.627 C 268.36 195.043 269.08 194.361 269.708 193.597 C 270.977 192.061 271.615 190.101 271.495 188.112 L 270.405 168.917 L 288.639 157.676 L 288.392 157.143 L 269.293 168.92 L 270.383 188.116 C 270.504 190.104 269.865 192.064 268.596 193.6 C 267.969 194.364 267.248 195.046 266.451 195.631 C 263.859 197.483 258.288 217.018 258.288 217.018 C 258.288 217.018 264.595 217.376 266.325 218.627 C 266.325 218.627 266.325 218.434 266.372 218.123 C 263.937 217.286 259.4 217.018 259.4 217.018 Z " fill="rgb(0,0,0)"/></g><g opacity="0.1"><path d=" M 298.846 215.906 C 298.846 215.906 299.836 210.465 298.846 209.113 C 298.846 209.113 295.135 195.388 295.135 195.388 L 295.135 191.176 C 290.19 189.446 284.377 179.428 284.377 179.428 L 283.948 180.55 C 285.625 183.21 290.097 189.81 294.027 191.183 L 294.027 195.388 C 294.027 195.388 296.747 207.755 297.738 209.113 C 297.738 209.113 297.738 215.906 297.738 215.906 C 297.738 215.906 299.118 217.644 302.164 217.408 C 299.886 217.218 298.846 215.906 298.846 215.906 Z " fill="rgb(0,0,0)"/></g></g><path d=" M 311.767 147.404 L 309.339 147.565 L 308.059 147.651 L 308.059 144.558 L 309.74 144.254 L 310.78 144.065 C 310.78 144.065 313.998 134.544 317.087 136.274 C 320.176 138.005 311.767 147.404 311.767 147.404 Z " fill="rgb(113,75,79)"/><path d=" M 272.818 121.916 C 272.818 121.916 271.209 128.098 270.716 131.927 C 270.716 131.927 282.214 132.671 282.214 132.671 C 282.214 132.671 277.638 127.108 280.237 124.14 L 272.818 121.916 Z " fill="rgb(113,75,79)"/><path d=" M 285.8 147.658 L 286.047 150.007 L 282.214 149.76 L 278.381 146.421 L 274.549 135.66 L 272.082 131.823 L 270.226 129.474 L 270.97 126.614 C 270.97 126.614 271.309 126.911 271.881 127.347 C 273.766 128.777 278.181 131.784 281.409 130.954 C 281.559 130.917 281.706 130.87 281.849 130.815 L 286.672 139.099 L 285.8 147.658 Z " fill="rgb(230,230,240)"/><g opacity="0.1"><path d=" M 271.953 125.888 C 271.953 125.888 269.976 126.246 268.614 129.228 C 267.57 131.509 264.037 133.875 262.461 134.83 C 261.853 135.201 261.421 135.802 261.263 136.496 C 260.945 137.905 260.823 140.533 262.554 144.312 C 265.274 150.247 267.251 152.842 267.251 152.842 C 267.251 152.842 267.745 158.777 267.005 160.508 C 266.265 162.238 267.005 171.759 267.005 171.759 C 267.005 171.759 279.986 174.233 284.316 171.759 C 288.646 169.285 288.027 159.764 288.027 159.764 C 288.027 159.764 292.107 168.42 293.59 168.666 L 292.725 163.843 C 292.725 163.843 287.902 158.648 287.655 151.973 C 287.655 151.973 286.172 145.913 287.409 144.308 C 287.409 144.308 308.306 146.038 309.543 144.555 C 309.543 144.555 295.818 143.936 293.715 140.597 C 293.715 140.597 287.655 135.774 287.409 132.56 C 287.336 131.333 286.634 130.231 285.553 129.646 C 284.712 129.167 283.747 128.952 282.782 129.027 L 279.99 129.22 C 279.99 129.22 284.813 137.751 284.566 138.874 C 284.566 138.874 284.813 149.013 284.813 149.013 C 284.813 149.013 279.232 137.018 276.776 135.66 C 274.32 134.301 271.456 128.709 271.456 128.709 L 271.949 125.885" fill="rgb(0,0,0)"/></g><g opacity="0.1"><path d=" M 285.8 147.658 L 286.047 150.007 L 282.214 149.76 L 278.381 146.421 L 274.549 135.66 L 272.082 131.823 L 270.226 129.474 L 270.97 126.614 C 270.97 126.614 271.309 126.911 271.881 127.347 L 271.71 128.323 C 271.71 128.323 274.57 133.908 277.026 135.27 C 277.026 135.27 285.063 148.623 285.063 148.623 C 285.063 148.623 284.57 139.596 284.817 138.484 C 284.985 137.73 282.818 133.561 281.409 130.954 C 281.559 130.917 281.706 130.87 281.849 130.815 L 286.672 139.099 L 285.8 147.658 Z " fill="rgb(0,0,0)"/></g><g opacity="0.1"><path d=" M 309.339 147.565 L 308.059 147.651 L 308.059 144.558 L 309.74 144.254 C 309.153 145.03 309.175 146.403 309.339 147.565 Z " fill="rgb(0,0,0)"/></g><path d=" M 271.953 125.52 C 271.953 125.52 269.976 125.878 268.614 128.859 C 267.57 131.14 264.037 133.507 262.461 134.462 C 261.853 134.833 261.421 135.434 261.263 136.128 C 260.945 137.537 260.823 140.164 262.554 143.943 C 265.274 149.878 267.251 152.474 267.251 152.474 C 267.251 152.474 267.745 158.409 267.005 160.139 C 266.265 161.87 267.005 171.391 267.005 171.391 C 267.005 171.391 279.986 173.865 284.316 171.391 C 288.646 168.917 288.027 159.396 288.027 159.396 C 288.027 159.396 292.103 168.037 293.59 168.302 L 292.725 163.479 C 292.725 163.479 287.902 158.284 287.655 151.609 C 287.655 151.609 286.172 145.549 287.409 143.943 C 287.409 143.943 292.232 149.138 297.673 149.013 C 301.639 148.989 305.602 149.196 309.543 149.632 C 309.543 149.632 308.306 145.674 309.543 144.19 C 309.543 144.19 295.818 143.572 293.715 140.232 C 293.715 140.232 287.655 135.409 287.409 132.195 C 287.336 130.968 286.634 129.866 285.553 129.281 C 284.712 128.803 283.747 128.587 282.782 128.663 L 279.99 128.856 C 279.99 128.856 284.813 137.386 284.566 138.509 C 284.566 138.509 284.813 148.648 284.813 148.648 C 284.813 148.648 279.232 136.646 276.776 135.288 C 274.32 133.929 271.456 128.352 271.456 128.352 L 271.949 125.527" fill="rgb(196,140,150)"/><g opacity="0.1"><path d=" M 269.221 138.502 C 269.221 138.502 272.189 148.513 273.919 149.753 C 273.919 149.753 286.161 157.297 289.254 155.813 C 289.254 155.813 289.997 159.524 288.896 160.39 C 288.896 160.39 277.366 159.939 277.273 159.896 C 277.273 159.896 269.729 158.906 268.492 155.198 C 267.255 151.491 265.771 145.188 265.771 145.188 L 269.221 138.502 Z " fill="rgb(0,0,0)"/></g><ellipse vector-effect="non-scaling-stroke" cx="285.05977456338474" cy="149.19900926605314" rx="0.4326059792766159" ry="0.6185192926847378" fill="rgb(186,120,85)"/><ellipse vector-effect="non-scaling-stroke" cx="286.2932378927271" cy="153.52506905881924" rx="0.4326059792766159" ry="0.6185192926847378" fill="rgb(186,120,85)"/><g style="opacity:0.1;"><g opacity="0.1"><path d=" M 267.874 171.255 C 267.874 171.255 267.13 161.734 267.874 160.003 C 267.874 160.003 268.12 152.338 268.12 152.338 C 268.12 152.338 266.143 149.742 263.422 143.808 C 261.688 140.028 261.813 137.401 262.132 135.992 C 262.29 135.298 262.722 134.697 263.329 134.326 C 264.906 133.361 268.435 131.005 269.482 128.724 C 270.251 127.05 271.213 126.203 271.906 125.781 L 271.953 125.509 C 271.953 125.509 269.976 125.867 268.614 128.849 C 267.57 131.13 264.037 133.496 262.461 134.451 C 261.853 134.822 261.421 135.423 261.263 136.117 C 260.945 137.526 260.823 140.154 262.554 143.933 C 265.274 149.868 267.251 152.463 267.251 152.463 C 267.251 152.463 267.745 158.398 267.005 160.129 C 266.265 161.859 267.005 171.38 267.005 171.38 C 267.005 171.38 276.279 173.146 281.763 172.199 C 276.225 172.86 267.874 171.255 267.874 171.255 Z " fill="rgb(0,0,0)"/></g><g opacity="0.1"><path d=" M 284.563 138.502 C 284.395 139.263 284.563 143.743 284.702 146.489 C 285.299 147.708 285.675 148.52 285.675 148.52 C 285.675 148.52 285.181 139.492 285.428 138.38 C 285.664 137.308 281.32 129.564 280.887 128.799 L 279.986 128.859 C 279.986 128.859 284.813 137.39 284.563 138.502 Z " fill="rgb(0,0,0)"/></g><g opacity="0.1"><path d=" M 298.538 148.888 C 293.097 149.013 288.274 143.818 288.274 143.818 C 288.129 144.02 288.024 144.246 287.963 144.487 C 289.393 145.817 293.326 149.11 297.673 149.01 C 301.639 148.986 305.602 149.192 309.543 149.628 C 309.543 149.628 309.518 149.546 309.479 149.406 C 305.844 149.031 302.192 148.858 298.538 148.888 L 298.538 148.888 Z " fill="rgb(0,0,0)"/></g><g opacity="0.1"><path d=" M 288.885 159.274 C 288.885 159.274 288.935 160.046 288.907 161.205 C 290.194 163.757 292.536 168.123 293.583 168.298 L 293.401 167.283 C 291.602 165.023 288.885 159.274 288.885 159.274 Z " fill="rgb(0,0,0)"/></g></g><path d=" M 292.353 158.026 L 289.725 158.58 L 287.652 159.017 L 288.764 155.924 L 289.54 155.731 L 290.744 155.431 C 290.744 155.431 292.475 146.775 295.939 147.394 C 299.404 148.012 292.353 158.026 292.353 158.026 Z " fill="rgb(113,75,79)"/><g opacity="0.1"><path d=" M 289.729 158.591 L 287.655 159.027 L 288.767 155.935 L 289.543 155.742 C 289.715 156.681 289.777 157.637 289.729 158.591 Z " fill="rgb(0,0,0)"/></g><path d=" M 269.221 138.255 C 269.221 138.255 272.189 148.266 273.919 149.506 C 273.919 149.506 286.161 157.05 289.254 155.567 C 289.254 155.567 289.997 159.278 288.896 160.143 C 288.896 160.143 277.366 159.692 277.273 159.649 C 277.273 159.649 269.729 158.659 268.492 154.952 C 267.255 151.244 265.771 144.941 265.771 144.941 L 269.221 138.255 Z " fill="rgb(196,140,150)"/><g opacity="0.1"><path d=" M 272.94 122.181 C 272.94 122.181 272.689 123.15 272.353 124.558 C 273.761 127.225 276.781 128.617 279.722 127.955 C 279.425 126.686 279.49 125.402 280.358 124.408 L 272.94 122.181 Z " fill="rgb(0,0,0)"/></g><circle vector-effect="non-scaling-stroke" cx="278.13450363893185" cy="121.19045354991258" r="6.678578258584423" fill="rgb(113,75,79)"/><g opacity="0.1"><path d=" M 283.934 119.353 C 284.417 119.488 284.924 119.52 285.421 119.446 C 286.478 119.16 287.217 118.206 287.23 117.111 C 287.211 116.032 286.705 115.018 285.853 114.355 C 285.289 113.883 284.613 113.55 284.094 113.025 C 283.483 112.399 283.147 111.562 282.664 110.826 C 281.869 109.608 280.69 108.691 279.314 108.219 C 278.292 107.862 277.037 107.833 276.25 108.577 C 275.846 108.96 275.61 109.507 275.16 109.832 C 274.506 110.297 273.619 110.161 272.822 110.254 C 271.355 110.477 270.095 111.415 269.461 112.756 C 268.851 114.104 268.734 115.622 269.132 117.047 C 269.286 117.655 269.515 118.241 269.679 118.834 C 270.037 120.093 270.108 121.412 270.508 122.653 C 270.909 123.893 271.735 125.109 272.986 125.481 C 272.887 124.088 273.163 122.695 273.783 121.444 C 273.886 121.171 274.087 120.946 274.348 120.815 C 274.571 120.758 274.805 120.758 275.028 120.815 C 276.596 121.047 278.196 120.723 279.55 119.9 C 280.026 119.614 280.766 118.627 281.27 118.53 C 281.921 118.42 283.254 119.203 283.934 119.353 Z " fill="rgb(0,0,0)"/></g><path d=" M 283.934 119.106 C 284.417 119.241 284.924 119.273 285.421 119.199 C 286.478 118.913 287.217 117.96 287.23 116.864 C 287.211 115.785 286.705 114.772 285.853 114.108 C 285.289 113.636 284.613 113.303 284.094 112.778 C 283.483 112.152 283.147 111.316 282.664 110.579 C 281.869 109.361 280.69 108.444 279.314 107.973 C 278.292 107.615 277.037 107.587 276.25 108.33 C 275.846 108.713 275.61 109.26 275.16 109.585 C 274.506 110.05 273.619 109.914 272.822 110.007 C 271.355 110.23 270.095 111.168 269.461 112.51 C 268.851 113.857 268.734 115.376 269.132 116.8 C 269.286 117.408 269.515 117.994 269.679 118.588 C 270.037 119.846 270.108 121.165 270.508 122.406 C 270.909 123.647 271.735 124.862 272.986 125.234 C 272.89 123.842 273.168 122.45 273.791 121.201 C 273.893 120.928 274.095 120.703 274.355 120.572 C 274.578 120.515 274.812 120.515 275.035 120.572 C 276.603 120.804 278.203 120.48 279.557 119.657 C 280.033 119.371 280.773 118.384 281.277 118.287 C 281.921 118.173 283.254 118.956 283.934 119.106 Z " fill="rgb(80,63,67)"/><path d=" M 350.558 97.065 L 345.11 158.094 L 320.619 164.887 L 296.197 158.094 L 290.755 97.065 L 350.558 97.065 Z " fill="rgb(228,77,38)"/><path d=" M 320.655 159.696 L 340.444 154.212 L 345.092 102.056 L 320.655 102.056 L 320.655 159.696 Z " fill="rgb(241,101,41)"/><path d=" M 310.065 117.029 L 320.655 117.029 L 320.655 109.542 L 301.885 109.542 L 302.064 111.552 L 303.905 132.181 L 320.659 132.181 L 320.659 124.694 L 310.752 124.694 L 310.065 117.029 Z  M 311.767 135.924 L 304.259 135.924 L 305.306 147.68 L 320.623 151.948 L 320.659 151.948 L 320.659 144.136 L 320.626 144.136 L 312.289 141.884 L 311.767 135.924 Z " fill="rgb(235,235,235)"/><path d=" M 296.322 80.475 L 300.126 80.475 L 300.126 84.233 L 303.605 84.233 L 303.605 80.475 L 307.409 80.475 L 307.409 91.859 L 303.605 91.859 L 303.605 88.048 L 300.126 88.048 L 300.126 91.859 L 296.322 91.859 L 296.322 80.475 Z  M 312.41 84.251 L 309.06 84.251 L 309.06 80.475 L 319.565 80.475 L 319.565 84.251 L 316.215 84.251 L 316.215 91.859 L 312.414 91.859 L 312.414 84.251 L 312.414 84.251 L 312.41 84.251 Z  M 321.234 80.475 L 325.203 80.475 L 327.645 84.476 L 330.083 80.475 L 334.052 80.475 L 334.052 91.859 L 330.262 91.859 L 330.262 86.217 L 327.645 90.264 L 327.58 90.264 L 324.96 86.217 L 324.96 91.859 L 321.234 91.859 L 321.234 80.475 Z  M 335.943 80.475 L 339.747 80.475 L 339.747 88.094 L 345.11 88.094 L 345.11 91.855 L 335.954 91.855 L 335.954 80.475 L 335.943 80.475 Z " fill="rgb(0,0,0)"/><path d=" M 320.63 132.181 L 329.847 132.181 L 328.978 141.891 L 320.63 144.144 L 320.63 151.948 L 335.979 147.694 L 336.089 146.428 L 337.848 126.718 L 338.031 124.709 L 320.63 124.709 L 320.63 132.195 L 320.63 132.181 Z  M 320.63 117.011 L 320.63 117.029 L 338.714 117.029 L 338.864 115.345 L 339.221 111.548 L 339.4 109.539 L 320.63 109.539 L 320.63 117.007 L 320.63 117.011 Z " fill="rgb(255,255,255)"/><linearGradient id="_lgradient_4" x1="0" y1="0.5" x2="6.123233995736766e-17" y2="-0.5" gradientTransform="matrix(54.914,0,0,141.09,76.769,112.937)" gradientUnits="userSpaceOnUse"><stop offset="0%" stop-opacity="0.1" style="stop-color:rgb(128,128,128)"/></linearGradient><path d=" M 131.116 142.12 C 130.419 140.079 129.415 137.472 128.614 136.879 C 128.565 136.84 128.513 136.808 128.456 136.782 L 128.356 136.782 L 128.356 134.262 L 126.476 134.562 C 126.174 133.651 125.946 132.717 125.793 131.77 C 126.163 132.14 126.72 132.252 127.205 132.052 C 127.173 132.002 127.148 131.948 127.119 131.895 L 127.205 131.859 C 126.909 131.337 126.753 130.747 126.751 130.146 C 126.767 129.599 126.854 129.055 127.012 128.53 C 127.348 127.368 127.917 126.282 128.235 125.116 C 128.438 124.363 128.534 123.586 128.521 122.806 C 128.53 121.486 128.229 120.181 127.641 118.999 C 127.495 118.658 127.267 118.36 126.976 118.13 C 126.712 117.983 126.44 117.851 126.161 117.733 C 125.695 117.419 125.293 117.019 124.978 116.553 C 123.642 114.927 121.854 113.734 119.84 113.125 C 119.316 112.93 118.747 112.885 118.199 112.996 C 116.937 113.353 116.476 114.902 115.453 115.72 C 114.549 116.435 113.308 116.518 112.178 116.761 C 111.018 116.958 109.951 117.517 109.129 118.359 C 108.594 118.97 108.303 119.756 108.31 120.568 C 108.247 121.339 108.59 122.086 109.214 122.542 C 109.922 123.007 110.801 123.132 111.61 122.882 C 110.979 125.062 111.285 127.406 112.456 129.35 C 113.627 131.295 115.555 132.662 117.777 133.125 L 117.999 133.518 L 117.999 133.518 C 118.675 134.779 119.188 136.121 119.525 137.511 C 117.795 138.495 115.904 139.414 114.763 139.499 C 114.718 139.945 114.635 140.387 114.516 140.819 C 114.25 141.904 113.737 142.913 113.018 143.768 C 111.467 145.513 104.484 158.706 104.484 158.706 C 104.484 158.706 104.263 159.231 103.905 160.136 C 99.568 160.668 92.493 161.437 90.516 161.04 L 82.757 153.668 C 82.757 153.668 80.255 155.581 80.469 157.905 L 79.071 156.575 C 79.071 156.575 71.699 162.199 83.34 165.87 L 101.052 167.926 C 99.365 173.017 97.791 178.942 98.278 182.166 L 98.424 182.166 C 98.763 182.166 99.101 182.14 99.436 182.088 L 99.404 182.66 L 97.698 213.203 C 97.698 213.203 97.309 218.827 102.547 221.351 C 102.547 221.351 108.95 240.168 106.426 242.302 C 106.426 242.302 106.726 242.46 107.23 242.681 L 101.964 247.329 C 101.964 247.329 98.085 248.298 95.95 248.105 C 95.174 247.999 94.441 248.493 94.248 249.253 C 94.248 249.292 94.248 249.331 94.227 249.374 L 94.227 249.424 C 94.227 249.463 94.227 249.506 94.227 249.549 C 94.227 249.592 94.227 249.581 94.227 249.596 C 94.227 249.61 94.227 249.667 94.227 249.703 L 94.227 249.75 C 94.227 249.792 94.227 249.832 94.252 249.875 L 94.252 249.921 Q 94.27 249.989 94.295 250.053 L 94.295 250.096 C 94.313 250.139 94.334 250.182 94.356 250.225 L 94.356 250.254 C 94.381 250.297 94.406 250.339 94.434 250.382 L 94.459 250.418 Q 94.506 250.486 94.563 250.554 L 94.592 250.59 C 94.631 250.636 94.674 250.679 94.72 250.726 L 94.742 250.726 L 94.885 250.847 L 94.917 250.872 L 95.092 250.997 L 95.135 251.026 L 95.339 251.144 L 95.371 251.144 L 95.589 251.251 L 95.621 251.251 L 95.875 251.355 L 95.929 251.376 L 96.211 251.469 L 96.258 251.469 L 96.562 251.548 L 96.587 251.548 L 96.944 251.616 L 97.012 251.616 L 97.37 251.669 L 97.437 251.669 L 97.849 251.709 C 98.646 251.77 99.722 251.791 100.966 251.787 L 100.966 251.787 C 100.966 251.787 100.966 251.82 100.966 251.834 C 100.966 251.834 100.966 251.905 100.966 251.941 L 100.966 251.988 C 100.966 252.031 100.966 252.07 100.991 252.113 L 100.991 252.159 Q 101.009 252.227 101.034 252.292 L 101.034 252.334 C 101.052 252.377 101.074 252.42 101.095 252.463 L 101.095 252.492 C 101.12 252.535 101.145 252.578 101.174 252.62 L 101.199 252.656 Q 101.245 252.724 101.302 252.792 L 101.331 252.828 C 101.37 252.874 101.413 252.917 101.46 252.964 L 101.478 252.964 L 101.621 253.085 L 101.653 253.11 L 101.828 253.235 L 101.871 253.264 L 102.071 253.382 L 102.103 253.382 L 102.321 253.489 L 102.353 253.489 L 102.607 253.593 L 102.661 253.614 L 102.943 253.707 L 102.99 253.707 L 103.294 253.786 L 103.319 253.786 L 103.676 253.854 L 103.744 253.854 L 104.102 253.908 L 104.17 253.908 L 104.581 253.947 C 109.626 254.337 125.725 253.171 125.725 253.171 L 125.725 253.125 L 125.725 253.125 L 125.725 253.067 L 125.725 253.067 C 125.886 252.317 126.658 247.951 123.912 244.723 C 123.994 244.637 124.073 244.548 124.148 244.455 C 124.148 244.455 122.003 240.768 123.179 239.607 C 124.356 238.445 117.498 218.448 117.498 218.448 C 117.498 218.448 113.812 212.628 115.947 206.031 C 118.081 199.435 115.754 192.259 115.754 192.259 C 115.754 192.259 120.848 190.751 120.941 184.483 C 120.941 184.294 120.941 184.097 120.941 183.9 C 121.048 183.916 121.155 183.923 121.263 183.922 C 121.334 183.927 121.406 183.927 121.478 183.922 C 121.478 183.922 120.509 180.429 121.671 177.908 C 121.671 177.908 125.357 177.715 127.684 167.433 C 129.368 159.993 130.848 151.437 131.542 147.272 C 131.827 145.546 131.681 143.776 131.116 142.12 L 131.116 142.12 Z  M 86.848 163.929 L 85.078 162.249 C 85.664 162.492 86.315 162.728 87.041 162.964 L 93.708 163.747 C 90.734 164.015 87.956 164.165 86.848 163.94 L 86.848 163.929 Z " fill="url(#_lgradient_4)"/><path d=" M 103.734 162.949 C 103.734 162.949 90.012 164.855 87.151 164.283 L 79.529 157.04 C 79.529 157.04 72.286 162.567 83.723 166.189 L 105.067 168.666 L 103.734 162.949 Z " fill="rgb(253,194,204)"/><g opacity="0.05"><path d=" M 103.734 162.949 C 103.734 162.949 90.012 164.855 87.151 164.283 L 79.529 157.04 C 79.529 157.04 72.286 162.567 83.723 166.189 L 105.067 168.666 L 103.734 162.949 Z " fill="rgb(0,0,0)"/></g><path d=" M 76.873 167.758 L 47.219 159.535 L 40.612 85.42 L 113.222 85.42 L 106.608 159.524 L 76.873 167.758 Z " fill="rgb(38,77,228)"/><path d=" M 100.945 154.809 L 106.597 91.484 L 76.923 91.484 L 76.923 161.455 L 100.945 154.809 Z " fill="rgb(41,101,241)"/><path d=" M 55.779 118.959 L 56.594 128.048 L 76.937 128.048 L 76.937 118.959 L 55.779 118.959 Z  M 54.141 100.561 L 54.967 109.65 L 76.933 109.65 L 76.933 100.561 L 54.123 100.561 L 54.141 100.561 Z  M 76.933 142.567 L 76.894 142.567 L 66.769 139.832 L 66.122 132.581 L 56.98 132.581 L 58.253 146.854 L 76.873 152.034 L 76.916 152.034 L 76.933 142.567 Z " fill="rgb(235,235,235)"/><path d=" M 57.702 65.27 L 68.71 65.27 L 68.71 69.875 L 62.303 69.875 L 62.303 74.48 L 68.71 74.48 L 68.71 79.085 L 57.702 79.085 L 57.702 65.27 Z  M 70.931 65.27 L 81.939 65.27 L 81.939 69.274 L 75.518 69.274 L 75.518 70.075 L 81.924 70.075 L 81.924 79.285 L 70.913 79.285 L 70.913 75.08 L 77.32 75.08 L 77.32 74.28 L 70.913 74.28 L 70.913 65.27 L 70.931 65.27 Z  M 84.159 65.27 L 95.167 65.27 L 95.167 69.274 L 88.728 69.274 L 88.728 70.075 L 95.135 70.075 L 95.135 79.285 L 84.123 79.285 L 84.123 75.08 L 90.53 75.08 L 90.53 74.28 L 84.123 74.28 L 84.123 65.27 L 84.159 65.27 Z " fill="rgb(0,0,0)"/><path d=" M 98.017 118.959 L 99.658 100.561 L 76.873 100.561 L 76.873 109.65 L 89.683 109.65 L 88.857 118.945 L 76.873 118.945 L 76.873 128.033 L 88.067 128.033 L 86.994 139.832 L 76.873 142.574 L 76.873 152.031 L 95.507 146.864 L 95.643 145.327 L 97.788 121.394 L 98.01 118.952 L 98.017 118.959 Z " fill="rgb(255,255,255)"/><path d=" M 108.692 240.325 L 102.021 246.231 C 102.021 246.231 98.21 247.186 96.115 246.993 C 96.115 246.993 93.065 250.232 98.02 250.615 C 98.02 250.615 118.792 249.853 118.792 249.853 C 118.792 249.853 120.316 243.754 115.743 240.325 L 108.692 240.325 Z " fill="rgb(71,70,90)"/><g opacity="0.05"><path d=" M 108.692 240.325 L 102.021 246.231 C 102.021 246.231 98.21 247.186 96.115 246.993 C 96.115 246.993 93.065 250.232 98.02 250.615 C 98.02 250.615 118.792 249.853 118.792 249.853 C 118.792 249.853 120.316 243.754 115.743 240.325 L 108.692 240.325 Z " fill="rgb(0,0,0)"/></g><g opacity="0.3"><path d=" M 119.028 247.218 C 119.017 247.913 118.937 248.606 118.789 249.285 C 118.789 249.285 102.972 250.429 98.017 250.046 C 95.632 249.864 94.62 248.974 94.441 248.123 C 94.223 249.102 95.089 250.393 98.017 250.625 C 102.972 251.008 118.789 249.864 118.789 249.864 C 118.975 248.995 119.056 248.107 119.028 247.218 L 119.028 247.218 Z " fill="rgb(255,255,255)"/></g><path d=" M 116.501 132.284 C 116.501 132.284 120.695 138.191 119.168 142.195 C 119.168 142.195 127.173 138.001 127.173 138.001 C 127.173 138.001 124.123 132.642 125.65 126.922 L 116.501 132.284 Z " fill="rgb(253,194,204)"/><path d=" M 115.357 242.613 L 108.692 248.52 C 108.692 248.52 104.881 249.474 102.786 249.281 C 102.786 249.281 99.736 252.52 104.692 252.903 C 104.692 252.903 125.464 252.141 125.464 252.141 C 125.464 252.141 126.987 246.042 122.414 242.613 L 115.357 242.613 Z " fill="rgb(71,70,90)"/><path d=" M 117.273 241.28 C 116.279 242.506 114.878 242.978 113.412 243.049 C 110.08 243.207 106.411 241.28 106.411 241.28 C 108.889 239.185 102.6 220.697 102.6 220.697 C 97.455 218.219 97.834 212.692 97.834 212.692 L 99.5 182.696 L 99.922 175.159 L 105.26 171.92 L 109.465 175.137 L 113.455 178.198 C 113.715 179.172 113.882 180.167 113.955 181.173 C 114.42 188.176 108.882 189.825 108.882 189.825 C 108.882 189.825 111.17 196.875 109.071 203.357 C 106.973 209.839 110.594 215.556 110.594 215.556 C 110.594 215.556 117.455 235.377 116.315 236.521 C 115.174 237.665 117.273 241.28 117.273 241.28 Z " fill="rgb(86,81,113)"/><g opacity="0.05"><path d=" M 117.273 241.28 C 116.279 242.506 114.878 242.978 113.412 243.049 C 110.08 243.207 106.411 241.28 106.411 241.28 C 108.889 239.185 102.6 220.697 102.6 220.697 C 97.455 218.219 97.834 212.692 97.834 212.692 L 99.5 182.696 L 99.922 175.159 L 105.26 171.92 L 109.465 175.137 L 113.455 178.198 C 113.715 179.172 113.882 180.167 113.955 181.173 C 114.42 188.176 108.882 189.825 108.882 189.825 C 108.882 189.825 111.17 196.875 109.071 203.357 C 106.973 209.839 110.594 215.556 110.594 215.556 C 110.594 215.556 117.455 235.377 116.315 236.521 C 115.174 237.665 117.273 241.28 117.273 241.28 Z " fill="rgb(0,0,0)"/></g><path d=" M 123.934 243.564 C 120.695 247.565 113.072 243.564 113.072 243.564 C 113.226 243.423 113.34 243.244 113.405 243.046 C 114.803 239.245 108.689 221.076 108.689 221.076 C 103.544 218.598 102.968 212.692 102.968 212.692 L 101.621 182.152 L 101.445 178.198 L 109.465 175.137 L 111.928 174.197 L 120.133 180.486 C 120.486 181.789 120.659 183.134 120.648 184.483 C 120.544 190.636 115.55 192.124 115.55 192.124 C 115.55 192.124 117.838 199.174 115.739 205.656 C 113.641 212.138 117.273 217.837 117.273 217.837 C 117.273 217.837 124.134 237.658 122.993 238.802 C 121.853 239.946 123.934 243.564 123.934 243.564 Z " fill="rgb(86,81,113)"/><g opacity="0.1"><path d=" M 120.648 184.483 C 119 184.247 115.664 182.263 113.952 181.187 C 113.297 180.776 112.879 180.5 112.879 180.5 C 112.879 180.5 111.163 175.735 106.59 179.356 C 105.103 180.565 103.423 181.514 101.621 182.166 C 100.932 182.41 100.222 182.589 99.5 182.699 L 99.922 175.163 L 105.26 171.923 L 109.465 175.141 L 111.928 174.201 L 120.133 180.486 C 120.486 181.789 120.659 183.134 120.648 184.483 Z " fill="rgb(0,0,0)"/></g><path d=" M 130.963 147.912 C 130.283 152.002 128.818 160.425 127.173 167.715 C 124.885 177.815 122.407 175.527 121.267 178.005 C 120.126 180.482 121.077 183.911 121.077 183.911 C 119.171 184.101 112.883 179.91 112.883 179.91 C 112.883 179.91 111.166 175.145 106.594 178.766 C 102.021 182.388 98.399 182.195 98.399 182.195 C 97.445 175.906 104.499 159.135 104.499 159.135 C 104.499 159.135 111.36 146.174 112.883 144.476 C 113.589 143.637 114.093 142.646 114.356 141.58 C 114.473 141.156 114.554 140.723 114.599 140.286 C 117.076 140.096 123.179 135.903 123.179 135.903 L 127.945 135.141 L 127.945 137.619 C 128.002 137.644 128.054 137.676 128.102 137.715 C 128.885 138.312 129.89 140.858 130.559 142.864 C 131.106 144.488 131.245 146.222 130.963 147.912 Z " fill="rgb(225,160,167)"/><path d=" M 108.692 165.81 L 106.229 165.524 L 87.348 163.332 C 75.907 159.71 83.154 154.183 83.154 154.183 L 90.777 161.426 C 92.976 161.866 101.603 160.84 105.468 160.354 C 106.626 160.204 107.359 160.104 107.359 160.104 L 108.692 165.81 Z " fill="rgb(253,194,204)"/><g opacity="0.1"><path d=" M 127.173 140.082 C 127.173 140.082 122.218 136.081 114.77 149.038 C 107.323 161.995 105.621 159.9 105.621 159.9 C 105.621 159.9 107.144 165.62 106.383 166.761 C 106.383 166.761 111.528 166.378 113.433 166.761 C 115.339 167.143 127.155 152.277 127.155 152.277 C 127.155 152.277 133.272 143.893 127.173 140.082 Z " fill="rgb(0,0,0)"/></g><g opacity="0.1"><path d=" M 126.983 139.321 C 126.983 139.321 122.028 135.32 114.595 148.277 C 114.595 148.277 105.446 159.138 105.446 159.138 C 105.446 159.138 111.352 165.617 113.258 165.999 C 113.258 165.999 126.98 151.516 126.98 151.516 C 126.98 151.516 133.083 143.132 126.983 139.321 Z " fill="rgb(0,0,0)"/></g><g opacity="0.1"><path d=" M 106.225 165.534 C 106.304 164.122 105.771 161.641 105.464 160.354 C 106.622 160.204 107.355 160.104 107.355 160.104 L 108.689 165.824 L 106.225 165.534 Z " fill="rgb(0,0,0)"/></g><path d=" M 127.173 139.7 C 127.173 139.7 122.218 135.699 114.77 148.659 C 107.323 161.619 105.621 159.521 105.621 159.521 C 105.621 159.521 107.144 165.241 106.383 166.382 C 106.383 166.382 111.528 165.999 113.433 166.382 C 115.339 166.764 127.155 151.898 127.155 151.898 C 127.155 151.898 133.272 143.511 127.173 139.7 Z " fill="rgb(225,160,167)"/><g opacity="0.1"><path d=" M 125.854 127.311 L 116.69 132.642 C 117.078 133.204 117.436 133.787 117.763 134.387 C 118.29 134.494 118.827 134.548 119.365 134.548 C 121.806 134.548 122.94 131.984 124.416 130.257 C 124.309 128.884 125.432 128.849 125.854 127.311 Z " fill="rgb(0,0,0)"/></g><circle vector-effect="non-scaling-stroke" cx="119.16789490689763" cy="126.17078519563427" r="8.004998244630912" fill="rgb(253,194,204)"/><g opacity="0.1"><path d=" M 109.05 119.696 C 109.857 118.868 110.906 118.317 112.046 118.123 C 113.158 117.883 114.377 117.812 115.264 117.1 C 116.268 116.296 116.719 114.766 117.959 114.422 C 118.498 114.315 119.057 114.359 119.572 114.551 C 121.551 115.149 123.308 116.322 124.62 117.919 C 124.931 118.377 125.326 118.772 125.786 119.081 C 126.059 119.197 126.327 119.327 126.587 119.471 C 126.871 119.697 127.095 119.991 127.237 120.325 C 128.13 122.13 128.336 124.197 127.816 126.142 C 127.505 127.29 126.948 128.355 126.615 129.499 C 126.283 130.643 126.2 131.938 126.805 132.96 C 126.218 133.261 125.478 132.882 125.11 132.335 C 124.742 131.788 124.631 131.115 124.438 130.483 C 124.058 129.24 123.343 128.127 122.371 127.265 C 121.771 126.736 120.698 126.378 120.28 127.061 C 120.119 127.326 120.13 127.665 119.99 127.941 C 119.718 128.48 118.918 128.588 118.406 128.298 C 117.903 127.951 117.549 127.426 117.416 126.829 C 116.633 124.172 115.292 122.503 112.454 123.636 C 111.381 124.058 110.148 124.351 109.129 123.636 C 107.824 122.678 108.085 120.779 109.05 119.696 Z " fill="rgb(0,0,0)"/></g><path d=" M 109.05 119.503 C 109.857 118.675 110.906 118.124 112.046 117.93 C 113.158 117.69 114.377 117.619 115.264 116.907 C 116.268 116.103 116.719 114.573 117.959 114.229 C 118.498 114.122 119.057 114.166 119.572 114.358 C 121.551 114.956 123.308 116.128 124.62 117.726 C 124.931 118.184 125.326 118.579 125.786 118.888 C 126.059 119.004 126.327 119.134 126.587 119.278 C 126.871 119.504 127.095 119.798 127.237 120.132 C 128.13 121.936 128.336 124.004 127.816 125.949 C 127.505 127.097 126.948 128.162 126.615 129.306 C 126.283 130.45 126.2 131.745 126.805 132.767 C 126.218 133.067 125.478 132.688 125.11 132.141 C 124.742 131.594 124.631 130.922 124.438 130.289 C 124.058 129.047 123.343 127.934 122.371 127.072 C 121.771 126.543 120.698 126.185 120.28 126.868 C 120.119 127.133 120.13 127.472 119.99 127.747 C 119.718 128.287 118.918 128.395 118.406 128.105 C 117.903 127.757 117.549 127.233 117.416 126.636 C 116.633 123.979 115.292 122.31 112.454 123.443 C 111.381 123.865 110.148 124.158 109.129 123.443 C 107.824 122.488 108.085 120.59 109.05 119.503 Z " fill="rgb(143,90,106)"/><g opacity="0.05"><path d=" M 128.092 137.701 L 124.22 137.701 C 124.22 137.701 116.597 141.512 116.408 141.323 C 116.279 141.194 115.099 141.416 114.352 141.569 C 114.469 141.146 114.55 140.713 114.595 140.275 C 117.073 140.086 123.176 135.892 123.176 135.892 L 127.942 135.13 L 127.942 137.608 C 127.995 137.633 128.046 137.664 128.092 137.701 L 128.092 137.701 Z " fill="rgb(0,0,0)"/></g><g opacity="0.3"><path d=" M 125.696 249.503 C 125.685 250.198 125.605 250.89 125.457 251.569 C 125.457 251.569 109.64 252.713 104.685 252.331 C 102.3 252.149 101.288 251.258 101.109 250.407 C 100.891 251.387 101.756 252.678 104.685 252.91 C 109.64 253.293 125.457 252.149 125.457 252.149 C 125.643 251.28 125.724 250.391 125.696 249.503 L 125.696 249.503 Z " fill="rgb(255,255,255)"/></g><g style="opacity:0.05;"><g opacity="0.05"><path d=" M 104.781 178.577 C 102.21 180.615 99.937 181.437 98.442 181.795 C 98.442 181.938 98.471 182.077 98.492 182.213 C 98.492 182.213 102.114 182.402 106.687 178.784 C 107.395 178.177 108.233 177.739 109.136 177.504 C 108.138 177.015 106.715 177.047 104.781 178.577 Z " fill="rgb(0,0,0)"/></g><g opacity="0.05"><path d=" M 130.644 142.846 C 129.962 140.84 128.971 138.298 128.188 137.697 C 128.14 137.659 128.087 137.626 128.031 137.601 C 128.031 137.601 126.454 137.655 126.508 137.697 C 127.291 138.294 128.056 140.651 128.739 142.653 C 129.292 144.28 129.435 146.019 129.154 147.715 C 128.474 151.805 127.008 160.229 125.364 167.519 C 123.076 177.619 120.598 175.331 119.457 177.808 C 118.521 179.839 118.989 182.506 119.193 183.403 C 119.809 183.712 120.485 183.884 121.174 183.908 C 121.174 183.908 120.219 180.479 121.363 178.001 C 121.363 178.001 124.985 177.812 127.269 167.712 C 128.925 160.404 130.38 151.981 131.059 147.908 C 131.34 146.212 131.198 144.473 130.644 142.846 L 130.644 142.846 Z " fill="rgb(0,0,0)"/></g></g><path d=" M 152.793 178.445 C 153.448 177.91 153.926 177.19 154.163 176.378 C 154.341 175.556 153.991 174.573 153.204 174.272 C 152.325 173.936 151.385 174.544 150.673 175.163 C 149.962 175.781 149.143 176.482 148.21 176.35 C 149.185 175.465 149.625 174.134 149.368 172.842 C 149.328 172.579 149.217 172.332 149.046 172.127 C 148.556 171.605 147.673 171.83 147.087 172.242 C 145.228 173.55 144.71 176.074 144.699 178.348 C 144.513 177.529 144.67 176.675 144.663 175.845 C 144.656 175.016 144.427 174.058 143.719 173.622 C 143.28 173.386 142.787 173.269 142.289 173.282 C 141.452 173.25 140.523 173.336 139.951 173.947 C 139.236 174.705 139.425 175.981 140.044 176.807 C 140.662 177.633 141.599 178.166 142.464 178.745 C 143.158 179.157 143.749 179.721 144.195 180.393 C 144.247 180.486 144.29 180.585 144.323 180.686 L 149.561 180.686 C 150.735 180.088 151.822 179.334 152.793 178.445 Z " fill="rgb(128,204,65)"/><path d=" M 162.414 245.577 C 163.247 244.801 164.03 243.886 164.273 242.774 C 164.516 241.662 164.041 240.325 162.976 239.914 C 161.785 239.456 160.509 240.272 159.543 241.119 C 158.578 241.966 157.47 242.906 156.208 242.728 C 157.53 241.528 158.126 239.723 157.777 237.973 C 157.722 237.617 157.571 237.284 157.341 237.007 C 156.679 236.292 155.478 236.603 154.688 237.161 C 152.185 238.949 151.47 242.356 151.452 245.438 C 151.199 244.326 151.413 243.167 151.406 242.027 C 151.399 240.886 151.088 239.624 150.126 239.009 C 149.527 238.688 148.854 238.53 148.174 238.552 C 147.041 238.509 145.779 238.623 145.006 239.453 C 144.045 240.482 144.291 242.209 145.131 243.343 C 145.972 244.476 147.241 245.187 148.41 245.97 C 149.348 246.53 150.149 247.294 150.752 248.205 C 150.823 248.332 150.882 248.466 150.927 248.605 L 158.031 248.605 C 159.622 247.798 161.096 246.78 162.414 245.577 Z " fill="rgb(128,204,65)"/></g></g></svg>