<?xml version="1.0" standalone="no"?><!-- Generator: Gravit.io --><svg xmlns="http://www.w3.org/2000/svg" xmlns:xlink="http://www.w3.org/1999/xlink" style="isolation:isolate" viewBox="0 0 320 175" width="320" height="175"><defs><clipPath id="_clipPath_qTjgpO5FnlrMT7b8WYROGQvKOpgK3RdX"><rect width="320" height="175"/></clipPath></defs><g clip-path="url(#_clipPath_qTjgpO5FnlrMT7b8WYROGQvKOpgK3RdX)"><clipPath id="_clipPath_bwXEULj3nMWlnlcTxJ4jMoRvVFJ24y2p"><rect x="0.144" y="0" width="319.712" height="175" transform="matrix(1,0,0,1,0,0)" fill="rgb(255,255,255)"/></clipPath><g clip-path="url(#_clipPath_bwXEULj3nMWlnlcTxJ4jMoRvVFJ24y2p)"><g><g><g style="opacity:0.2;"><g opacity="0.2"><path d=" M 47.703 0.027 C 45.183 -0.045 42.6 0.027 40.236 0.753 C 33.803 2.729 30.754 9.196 31.745 14.785 C 32.737 20.373 36.814 25.242 41.046 29.692 C 45.276 34.142 49.861 38.542 52.181 43.861 C 53.338 46.516 53.879 49.49 52.704 52.142 C 50.89 56.229 45.421 58.512 40.17 58.987 C 34.919 59.463 29.647 58.537 24.378 58.227 C 22.167 58.099 19.893 58.083 17.811 58.681 C 15.525 59.331 13.62 60.66 11.869 62.046 C 5.036 67.48 -0.433 74.895 0.452 82.685 C 1.452 91.513 10.377 98.489 20.153 102.233 C 23.389 103.484 26.814 104.478 29.663 106.248 C 37.168 110.917 38.853 119.673 38.106 127.4 C 37.359 135.127 34.813 142.864 36.23 150.523 C 37.897 159.432 45.274 167.481 55.224 171.24 C 64.09 174.589 75.185 174.367 83.056 169.642 C 86.893 167.334 89.795 164.129 92.319 160.814 C 96.066 155.919 99.162 150.558 101.528 144.865 C 102.626 142.211 103.658 139.355 106.219 137.511 C 107.783 136.375 109.809 135.74 111.813 135.247 C 117.855 133.758 124.219 133.351 130.317 132.025 C 136.415 130.7 142.55 128.22 145.865 123.811 C 150.556 117.556 148.367 109.544 148.389 102.189 C 148.426 85.409 160.619 70.389 165.119 54.031 C 166.589 48.686 167.137 42.773 163.853 38.004 C 161.623 34.767 157.861 32.431 153.909 30.627 C 145.212 26.658 135.327 24.891 125.604 23.172 C 112.092 20.782 95.684 20.473 85.211 12.742 C 75.16 5.322 61.41 0.027 47.703 0.027 Z " fill="rgb(128,204,65)"/></g></g><path d=" M 299.685 58.44 C 299.685 58.44 288.48 69.645 294.806 86.272 C 301.133 102.899 283.962 130.55 283.962 130.55 C 283.962 130.55 284.146 130.521 284.487 130.462 C 307.5 126.397 318.936 100.078 306.139 80.524 C 301.383 73.256 297.477 64.738 299.685 58.44 Z " fill="rgb(128,204,65)"/><clipPath id="_clipPath_cY3ltiryCws5E1fjrlha00rJHwJnbjAQ"><path d=" M -639.279 -350 L 639.567 -350 L 639.567 350 L -639.279 350 L -639.279 -350 Z  M 299.685 58.44 C 299.685 58.44 293.359 72.175 299.685 83.379 C 306.011 94.584 300.77 126.031 283.962 130.55 L 299.685 58.44 Z " fill-rule="evenodd" fill="rgb(255,255,255)"/></clipPath><g clip-path="url(#_clipPath_cY3ltiryCws5E1fjrlha00rJHwJnbjAQ)"><mask id="_mask_UDKGdq4sRkpcGISvmUaQVEItLEdONZVv" x="-200%" y="-200%" width="400%" height="400%"><rect x="-200%" y="-200%" width="400%" height="400%" style="fill:white;"/><path d=" M 299.685 58.44 C 299.685 58.44 293.359 72.175 299.685 83.379 C 306.011 94.584 300.77 126.031 283.962 130.55" fill="black" stroke="none"/></mask><path d=" M 299.685 58.44 C 299.685 58.44 293.359 72.175 299.685 83.379 C 306.011 94.584 300.77 126.031 283.962 130.55" fill="none" mask="url(#_mask_UDKGdq4sRkpcGISvmUaQVEItLEdONZVv)" vector-effect="non-scaling-stroke" stroke-width="1.923" stroke="rgb(83,84,97)" stroke-opacity="100" stroke-linejoin="miter" stroke-linecap="butt" stroke-miterlimit="10"/></g><path d=" M 319.642 103.762 C 319.642 103.762 306.855 101.726 305.692 113.184 C 305.692 113.184 281.106 126.231 281.106 126.231 L 281.544 126.522 C 300.883 139.215 319.383 134.609 316.568 117.765 C 315.546 111.486 315.63 105.191 319.642 103.762 Z " fill="rgb(128,204,65)"/><g style="opacity:0.2;"><g opacity="0.2"><path d=" M 319.642 103.762 C 319.642 103.762 306.855 101.726 305.692 113.184 C 305.692 113.184 281.106 126.231 281.106 126.231 L 281.544 126.522 C 300.883 139.215 319.383 134.609 316.568 117.765 C 315.546 111.486 315.63 105.191 319.642 103.762 Z " fill="rgb(245,245,245)"/></g></g><clipPath id="_clipPath_OuguDYew7LEwePMA7k5zxP49YIfzLDYo"><path d=" M -639.279 -350 L 639.567 -350 L 639.567 350 L -639.279 350 L -639.279 -350 Z  M 319.642 103.762 C 319.642 103.762 309.717 105.951 310.533 114.963 C 310.533 114.963 295.795 134.805 281.106 126.221 L 319.642 103.762 Z " fill-rule="evenodd" fill="rgb(255,255,255)"/></clipPath><g clip-path="url(#_clipPath_OuguDYew7LEwePMA7k5zxP49YIfzLDYo)"><mask id="_mask_IQj7HQhNCsNdIKIVFoi8bs8QDCmLrsN3" x="-200%" y="-200%" width="400%" height="400%"><rect x="-200%" y="-200%" width="400%" height="400%" style="fill:white;"/><path d=" M 319.642 103.762 C 319.642 103.762 309.717 105.951 310.533 114.963 C 310.533 114.963 295.795 134.805 281.106 126.221" fill="black" stroke="none"/></mask><path d=" M 319.642 103.762 C 319.642 103.762 309.717 105.951 310.533 114.963 C 310.533 114.963 295.795 134.805 281.106 126.221" fill="none" mask="url(#_mask_IQj7HQhNCsNdIKIVFoi8bs8QDCmLrsN3)" vector-effect="non-scaling-stroke" stroke-width="1.923" stroke="rgb(83,84,97)" stroke-opacity="100" stroke-linejoin="miter" stroke-linecap="butt" stroke-miterlimit="10"/></g><linearGradient id="_lgradient_6" x1="0.5" y1="1.0000546866446973" x2="0.5000000000000001" y2="0.6081332667472679" gradientTransform="matrix(212.029,0,0,114.367,79.8,30.114)" gradientUnits="userSpaceOnUse"><stop offset="0%" stop-opacity="0.25" style="stop-color:rgb(128,128,128)"/><stop offset="54%" stop-opacity="0.12" style="stop-color:rgb(128,128,128)"/><stop offset="100%" stop-opacity="0.1" style="stop-color:rgb(128,128,128)"/></linearGradient><path d=" M 290.05 131.322 L 269.961 131.322 C 270.424 130.392 270.663 129.367 270.662 128.329 L 270.662 36.84 C 270.662 33.125 267.65 30.114 263.935 30.114 L 108.408 30.114 C 106.624 30.113 104.912 30.822 103.65 32.083 C 102.388 33.345 101.678 35.056 101.678 36.84 L 101.678 128.332 C 101.677 129.371 101.916 130.395 102.379 131.325 L 81.58 131.325 C 81.108 131.325 80.655 131.513 80.322 131.846 C 79.988 132.18 79.8 132.632 79.8 133.104 L 79.8 134.54 C 79.806 140.032 84.26 144.481 89.751 144.481 L 281.879 144.481 C 284.518 144.481 287.049 143.433 288.915 141.566 C 290.781 139.7 291.829 137.169 291.829 134.53 L 291.829 133.095 C 291.826 132.114 291.03 131.322 290.05 131.322 L 290.05 131.322 Z  M 166.248 137.013 L 164.535 135.059 L 207.289 135.059 L 205.382 137.016 L 166.248 137.013 Z " fill="url(#_lgradient_6)"/><path d=" M 110.863 31.409 L 261.468 31.409 C 265.482 31.409 268.741 34.668 268.741 38.682 L 268.741 126.703 C 268.741 130.717 265.482 133.977 261.468 133.977 L 110.863 133.977 C 106.849 133.977 103.589 130.717 103.589 126.703 L 103.589 38.682 C 103.589 34.668 106.849 31.409 110.863 31.409 Z " fill="rgb(83,84,97)"/><rect x="107.063" y="46.36" width="157.85" height="83.793" transform="matrix(1,0,0,1,0,0)" fill="rgb(128,204,65)"/><circle vector-effect="non-scaling-stroke" cx="185.99014208698287" cy="39.057638113207446" r="1.391592830452339" fill="rgb(255,255,255)"/><path d=" M 210.363 130.324 L 204.938 135.888 L 166.692 135.888 L 161.792 130.324 L 83.944 130.324 C 82.984 130.324 82.205 131.103 82.205 132.063 L 82.205 133.464 C 82.205 136.043 83.23 138.517 85.054 140.341 C 86.878 142.165 89.351 143.189 91.931 143.189 L 279.702 143.189 C 282.282 143.189 284.755 142.165 286.579 140.341 C 288.403 138.517 289.428 136.043 289.428 133.464 L 289.428 132.063 C 289.428 131.103 288.649 130.324 287.689 130.324 L 210.363 130.324 Z " fill="rgb(83,84,97)"/><linearGradient id="_lgradient_7" x1="0" y1="0.4999999999973773" x2="6.123233630820685e-17" y2="-0.4999999404073041" gradientTransform="matrix(78.802,0,0,104.435,83.525,49.305)" gradientUnits="userSpaceOnUse"><stop offset="0%" stop-opacity="0.1" style="stop-color:rgb(128,128,128)"/></linearGradient><path d=" M 156.219 49.305 L 89.633 49.305 C 86.264 49.302 83.53 52.029 83.525 55.397 L 83.525 147.649 C 83.53 151.017 86.264 153.744 89.633 153.74 L 156.219 153.74 C 159.588 153.744 162.322 151.017 162.327 147.649 L 162.327 55.397 C 162.322 52.029 159.588 49.302 156.219 49.305 L 156.219 49.305 Z " fill="url(#_lgradient_7)"/><path d=" M 90.714 50.556 L 155.134 50.556 C 158.586 50.556 161.388 53.359 161.388 56.811 L 161.388 146.561 C 161.388 150.013 158.586 152.815 155.134 152.815 L 90.714 152.815 C 87.263 152.815 84.46 150.013 84.46 146.561 L 84.46 56.811 C 84.46 53.359 87.263 50.556 90.714 50.556 Z " fill="rgb(83,84,97)"/><rect x="88.369" y="60.229" width="69.111" height="82.914" transform="matrix(1,0,0,1,0,0)" fill="rgb(128,204,65)"/><circle vector-effect="non-scaling-stroke" cx="122.61168839085317" cy="55.24702256995293" r="0.9381524699678749" fill="rgb(255,255,255)"/><circle vector-effect="non-scaling-stroke" cx="122.61168839085306" cy="147.81139960678254" r="2.8144574099036106" fill="rgb(255,255,255)"/><linearGradient id="_lgradient_8" x1="0" y1="0.4999970548580652" x2="6.12319727005633e-17" y2="-0.4999969473831587" gradientTransform="matrix(40.963,0,0,81.62,67.889,80.577)" gradientUnits="userSpaceOnUse"><stop offset="0%" stop-opacity="0.1" style="stop-color:rgb(128,128,128)"/></linearGradient><path d=" M 105.465 80.577 L 71.276 80.577 C 70.379 80.575 69.519 80.93 68.884 81.563 C 68.249 82.196 67.891 83.055 67.889 83.951 L 67.889 158.822 C 67.891 159.719 68.249 160.578 68.884 161.211 C 69.519 161.843 70.379 162.198 71.276 162.197 L 105.465 162.197 C 106.362 162.198 107.223 161.843 107.858 161.211 C 108.493 160.578 108.85 159.719 108.852 158.822 L 108.852 83.951 C 108.85 83.055 108.493 82.196 107.858 81.563 C 107.223 80.93 106.362 80.575 105.465 80.577 L 105.465 80.577 Z " fill="url(#_lgradient_8)"/><path d=" M 71.639 81.202 L 105.1 81.202 C 106.998 81.202 108.539 82.744 108.539 84.642 L 108.539 158.444 C 108.539 160.342 106.998 161.884 105.1 161.884 L 71.639 161.884 C 69.74 161.884 68.199 160.342 68.199 158.444 L 68.199 84.642 C 68.199 82.744 69.74 81.202 71.639 81.202 Z " fill="rgb(83,84,97)"/><rect x="71.17" y="88.708" width="34.399" height="65.671" transform="matrix(1,0,0,1,0,0)" fill="rgb(128,204,65)"/><circle vector-effect="non-scaling-stroke" cx="84.30379586716504" cy="84.95518411893579" r="0.3127174899892964" fill="rgb(255,255,255)"/><path d=" M 86.18 84.642 L 92.435 84.642 C 92.607 84.642 92.747 84.783 92.747 84.955 L 92.747 84.955 C 92.747 85.128 92.607 85.268 92.435 85.268 L 86.18 85.268 C 86.008 85.268 85.867 85.128 85.867 84.955 L 85.867 84.955 C 85.867 84.783 86.008 84.642 86.18 84.642 Z " fill="rgb(255,255,255)"/><circle vector-effect="non-scaling-stroke" cx="88.21276449203124" cy="157.50564179645087" r="2.189022429925032" fill="rgb(255,255,255)"/><clipPath id="_clipPath_I1EGO1uKen3c6xL5FWZMnmDae1RZj4ra"><path d=" M -639.279 -350 L 639.567 -350 L 639.567 350 L -639.279 350 L -639.279 -350 Z  M 64.068 167.7 C 64.068 167.7 59.921 153.628 64.847 143.264 C 66.943 138.933 67.577 134.038 66.654 129.314 C 66.198 127.077 65.537 124.886 64.681 122.769 L 64.068 167.7 Z " fill-rule="evenodd" fill="rgb(255,255,255)"/></clipPath><g clip-path="url(#_clipPath_I1EGO1uKen3c6xL5FWZMnmDae1RZj4ra)"><mask id="_mask_D6yKtDqHgrUVY4HhioZAqI7n3sbFLjz4" x="-200%" y="-200%" width="400%" height="400%"><rect x="-200%" y="-200%" width="400%" height="400%" style="fill:white;"/><path d=" M 64.068 167.7 C 64.068 167.7 59.921 153.628 64.847 143.264 C 66.943 138.933 67.577 134.038 66.654 129.314 C 66.198 127.077 65.537 124.886 64.681 122.769" fill="black" stroke="none"/></mask><path d=" M 64.068 167.7 C 64.068 167.7 59.921 153.628 64.847 143.264 C 66.943 138.933 67.577 134.038 66.654 129.314 C 66.198 127.077 65.537 124.886 64.681 122.769" fill="none" mask="url(#_mask_D6yKtDqHgrUVY4HhioZAqI7n3sbFLjz4)" vector-effect="non-scaling-stroke" stroke-width="1.923" stroke="rgb(83,84,97)" stroke-opacity="100" stroke-linejoin="miter" stroke-linecap="butt" stroke-miterlimit="10"/></g><path d=" M 67.733 116.221 C 67.733 117.947 64.606 122.947 64.606 122.947 C 64.606 122.947 61.478 117.944 61.478 116.221 C 61.478 114.494 62.879 113.093 64.606 113.093 C 66.333 113.093 67.733 114.494 67.733 116.221 Z " fill="rgb(128,204,65)"/><path d=" M 72.908 125.777 C 71.97 127.225 66.629 129.727 66.629 129.727 C 66.629 129.727 66.726 123.829 67.664 122.381 C 68.245 121.388 69.325 120.793 70.476 120.835 C 71.626 120.876 72.661 121.546 73.169 122.579 C 73.678 123.612 73.577 124.84 72.908 125.777 L 72.908 125.777 Z " fill="rgb(128,204,65)"/><path d=" M 72.671 142.104 C 71.129 142.88 65.256 142.345 65.256 142.345 C 65.256 142.345 68.318 137.304 69.856 136.528 C 71.383 135.839 73.181 136.475 73.936 137.97 C 74.69 139.465 74.133 141.289 72.671 142.107 L 72.671 142.104 Z " fill="rgb(128,204,65)"/><path d=" M 69.719 154.422 C 68.33 155.448 62.451 155.911 62.451 155.911 C 62.451 155.911 64.615 150.425 66.003 149.4 C 67.391 148.474 69.261 148.8 70.253 150.142 C 71.245 151.483 71.01 153.366 69.719 154.422 L 69.719 154.422 Z " fill="rgb(128,204,65)"/><path d=" M 60.059 130.062 C 61.31 131.263 67.061 132.51 67.061 132.51 C 67.061 132.51 65.65 126.784 64.412 125.584 C 63.624 124.742 62.438 124.403 61.324 124.7 C 60.211 124.997 59.35 125.882 59.086 127.004 C 58.822 128.125 59.195 129.301 60.059 130.065 L 60.059 130.062 Z " fill="rgb(128,204,65)"/><path d=" M 56.788 144.509 C 58.329 145.285 64.202 144.75 64.202 144.75 C 64.202 144.75 61.141 139.709 59.602 138.933 C 58.6 138.372 57.369 138.406 56.399 139.023 C 55.429 139.638 54.875 140.737 54.956 141.883 C 55.037 143.029 55.74 144.039 56.788 144.512 L 56.788 144.509 Z " fill="rgb(128,204,65)"/><path d=" M 55.537 158.988 C 56.925 160.013 62.804 160.476 62.804 160.476 C 62.804 160.476 60.64 154.991 59.252 153.966 C 57.864 153.04 55.994 153.366 55.002 154.707 C 54.011 156.049 54.246 157.932 55.537 158.988 L 55.537 158.988 Z " fill="rgb(128,204,65)"/><linearGradient id="_lgradient_9" x1="0.0000012494746277624813" y1="0.5000007103877891" x2="0.0000012494746278237137" y2="-0.49999970832889995" gradientTransform="matrix(142.181,0,0,99.466,169.331,75.529)" gradientUnits="userSpaceOnUse"><stop offset="0%" stop-opacity="0.1" style="stop-color:rgb(128,128,128)"/></linearGradient><path d=" M 311.512 122.935 C 308.05 118.735 303.857 113.91 304.444 108.322 C 304.92 103.797 303.781 99.612 304.007 95.072 C 304.319 88.62 303.025 83.57 298.378 79.436 C 295.663 77.018 291.126 75.12 289.775 75.605 C 287.098 76.562 284.177 76.196 281.422 76.856 C 279.33 77.344 277.938 78.107 277.075 79.045 C 275.34 80.608 275.312 82.798 276.103 85.127 C 274.706 87.685 274.462 90.715 275.43 93.463 C 276.398 96.212 278.488 98.419 281.178 99.537 C 279.249 100.344 277.582 102.201 276.932 105.973 C 276.479 108.563 275.796 111.107 274.889 113.575 C 274.482 113.765 274.064 113.934 273.638 114.078 C 273.732 114.116 273.829 114.141 273.923 114.175 C 273.72 114.254 273.52 114.332 273.298 114.4 C 273.667 114.545 274.05 114.656 274.439 114.732 C 271.938 121.052 268.81 124.967 268.81 124.967 C 268.81 124.967 262.978 126.256 260.711 124.001 C 260.711 124.001 261.08 124.433 261.58 125.08 C 259.363 124.161 255.723 122.66 252.612 121.425 C 250.354 120.527 249.775 121.425 249.797 122.675 C 249.246 122.744 248.714 122.923 248.234 123.2 C 247.566 122.771 246.867 122.395 246.141 122.075 C 244.847 121.762 240.635 119.498 236.422 127.225 C 233.97 131.719 227.685 139.922 222.853 145.988 C 213.456 150.31 201.223 155.783 196.675 157.159 L 193.761 157.159 C 193.38 156.533 193.114 156.139 193.114 156.139 L 192.888 156.289 L 192.792 156.139 C 192.792 156.139 187.069 160.101 181.259 160.133 C 180.432 160.121 179.61 160.016 178.807 159.82 C 176.137 159.148 174.254 158.847 172.909 158.882 C 171.317 158.853 170.407 159.232 169.857 159.945 L 169.857 159.945 C 169.783 160.038 169.715 160.137 169.654 160.239 L 169.654 160.239 C 169.592 160.34 169.536 160.444 169.485 160.551 L 169.485 160.551 C 169.435 160.664 169.385 160.783 169.341 160.905 C 169.304 161.125 169.371 161.35 169.523 161.515 C 169.6 161.624 169.685 161.728 169.776 161.827 L 169.938 162.002 C 170.67 162.759 172.002 163.763 173.66 164.883 C 174.138 165.195 174.645 165.539 175.173 165.88 L 176.177 166.506 L 177.075 167.065 L 177.434 167.288 L 177.835 167.531 L 178.55 167.966 L 178.976 168.223 L 179.78 168.701 L 180.43 169.086 C 182.131 170.089 183.826 171.062 185.355 171.925 L 186.425 172.563 L 186.528 172.619 L 187.216 173.004 L 188.404 173.664 L 189.221 174.114 L 189.602 174.324 L 190.012 174.549 L 190.093 174.592 L 190.806 174.98 C 191.103 175.03 191.407 174.948 191.638 174.755 C 191.844 173.879 192.348 172.003 192.888 171.859 C 193.43 171.715 195.772 167.622 196.432 164.883 L 202.755 164.883 C 204 164.776 205.238 164.586 206.458 164.313 C 204.825 165.477 203.208 166.209 201.951 165.896 C 199.293 165.236 196.776 166.856 196.523 168.454 C 196.523 168.488 196.5 168.52 196.491 168.554 C 196.482 168.588 196.475 168.62 196.469 168.651 C 196.463 168.682 196.45 168.729 196.444 168.77 C 196.438 168.811 196.444 168.836 196.444 168.87 C 196.444 168.904 196.444 168.948 196.444 168.988 C 196.444 169.029 196.444 169.054 196.444 169.086 C 196.444 169.117 196.444 169.167 196.444 169.208 C 196.444 169.248 196.444 169.27 196.444 169.301 C 196.444 169.333 196.463 169.386 196.475 169.43 C 196.488 169.474 196.475 169.486 196.498 169.511 C 196.517 169.567 196.54 169.623 196.566 169.676 L 196.582 169.717 C 196.617 169.786 196.657 169.851 196.7 169.914 L 196.751 169.98 C 196.782 170.024 196.816 170.067 196.854 170.108 L 196.926 170.18 C 196.963 170.218 197.004 170.255 197.045 170.293 L 197.132 170.364 L 197.273 170.468 L 197.376 170.537 L 197.545 170.637 L 197.658 170.696 L 197.87 170.796 L 197.976 170.843 C 198.089 170.89 198.208 170.934 198.336 170.975 C 198.539 171.04 198.78 171.109 199.052 171.178 L 199.325 171.243 L 199.722 171.334 L 199.931 171.381 Q 200.338 171.468 200.794 171.556 L 201.216 171.634 L 201.561 171.697 L 202.351 171.834 C 202.846 171.919 203.362 172.003 203.915 172.085 L 205.278 172.291 L 207.055 172.544 L 207.449 172.598 L 208.074 172.685 L 208.99 172.807 L 209.616 172.888 L 209.616 172.888 L 211.239 173.095 L 211.746 173.157 L 212.768 173.282 C 214.113 173.445 215.414 173.595 216.612 173.729 L 217.997 173.886 L 218.697 173.964 L 219.01 173.995 L 219.848 174.086 L 220.314 174.136 L 220.889 174.195 L 221.7 174.28 L 221.787 174.28 L 222.306 174.333 L 222.306 174.333 C 222.438 174.347 222.569 174.305 222.668 174.218 C 222.767 174.13 222.825 174.005 222.828 173.873 L 222.828 173.873 L 222.828 173.873 C 222.828 173.858 222.828 173.839 222.828 173.82 C 222.876 173.748 222.902 173.663 222.903 173.576 C 222.917 172.805 223.014 172.038 223.194 171.287 C 223.228 171.159 223.269 171.027 223.313 170.896 L 223.363 170.746 C 223.419 170.587 223.475 170.433 223.541 170.262 C 223.588 170.145 223.629 170.026 223.663 169.905 C 223.663 169.867 223.685 169.83 223.698 169.789 C 223.71 169.749 223.729 169.661 223.741 169.595 C 224.392 167.372 223.607 163.225 223.382 161.596 C 223.31 161.075 223.19 160.563 223.025 160.063 C 223.066 160.068 223.107 160.068 223.147 160.063 C 223.483 159.94 223.799 159.768 224.086 159.554 C 228.864 157.85 232.891 155.901 234.164 153.95 C 236.225 153.406 238.414 153.635 240.319 154.594 C 242.792 155.823 261.505 161.931 270.217 164.751 C 271.781 166.099 273.007 166.887 273.686 166.828 C 273.686 166.828 284.777 168.623 289.237 165.12 C 289.634 165.396 289.884 165.542 289.884 165.542 C 289.884 165.542 296.364 162.325 297.337 158.138 C 297.649 156.78 297.934 154.779 298.225 152.565 C 299.727 151.05 300.573 149.004 300.576 146.87 C 300.779 139.84 303.503 131.81 305.523 124.667 C 307.975 124.861 308.923 124.398 311.171 123.288 L 311.071 123.16 C 311.23 123.066 311.371 123.003 311.512 122.935 Z  M 274.364 133.464 L 273.113 133.048 C 273.533 132.488 273.894 131.887 274.192 131.253 L 274.364 133.464 Z  M 267.394 136.422 L 274.899 140.925 L 274.964 141.842 C 274.873 142.539 274.894 143.246 275.027 143.937 C 271.719 140.997 267.847 137.429 267.39 136.419 L 267.394 136.422 Z  M 264.329 129.855 C 263.51 129.517 262.831 129.211 262.365 128.958 C 262.99 129.001 263.585 129.039 264.104 129.067 C 264.206 129.321 264.282 129.585 264.329 129.855 L 264.329 129.855 Z  M 244.227 137.195 C 244.227 137.195 245.522 134.299 248.44 139.127 C 248.893 139.878 249.728 141.072 250.832 142.551 L 242.339 141.416 C 243.339 139.865 244.012 138.424 244.227 137.198 L 244.227 137.195 Z " fill="url(#_lgradient_9)"/><path d=" M 262.884 125.562 C 262.884 125.562 256.943 123.06 252.252 121.184 C 252.252 121.184 250.375 125.562 250.375 125.562 C 250.375 125.562 258.193 127.75 258.193 128.063 C 258.193 128.063 264.761 128.689 264.761 128.689 L 262.884 125.562 Z " fill="rgb(247,196,167)"/><g style="opacity:0.05;"><g opacity="0.05"><path d=" M 262.884 125.562 C 262.884 125.562 256.943 123.06 252.252 121.184 C 252.252 121.184 250.375 125.562 250.375 125.562 C 250.375 125.562 258.193 127.75 258.193 128.063 C 258.193 128.063 264.761 128.689 264.761 128.689 L 262.884 125.562 Z " fill="rgb(0,0,0)"/></g></g><path d=" M 288.214 100.857 C 288.214 100.857 277.582 95.228 275.706 106.173 C 275.706 106.173 267.888 124.624 267.888 124.624 C 267.888 124.624 262.259 125.874 260.07 123.685 C 260.07 123.685 265.386 129.939 262.884 130.565 C 262.884 130.565 268.513 134.63 271.015 133.379 C 273.517 132.129 275.393 123.685 276.331 121.496 C 277.269 119.307 280.709 100.231 288.214 100.857 Z " fill="rgb(87,89,136)"/><g style="opacity:0.1;"><g opacity="0.1"><path d=" M 288.214 100.857 C 288.214 100.857 277.582 95.228 275.706 106.173 C 275.706 106.173 267.888 124.624 267.888 124.624 C 267.888 124.624 262.259 125.874 260.07 123.685 C 260.07 123.685 265.386 129.939 262.884 130.565 C 262.884 130.565 268.513 134.63 271.015 133.379 C 273.517 132.129 275.393 123.685 276.331 121.496 C 277.269 119.307 280.709 100.231 288.214 100.857 Z " fill="rgb(0,0,0)"/></g></g><path d=" M 282.273 97.104 C 282.273 97.104 288.84 104.61 289.152 110.864 C 289.152 110.864 296.658 104.297 297.283 103.984 C 297.283 103.984 291.029 93.039 290.403 89.599 C 289.778 86.159 282.273 97.104 282.273 97.104 Z " fill="rgb(247,196,167)"/><path d=" M 286.807 100.31 L 282.663 104.062 L 284.618 111.958 L 289.934 106.955 L 289.309 101.951 L 286.807 100.31 L 286.807 100.31 Z " fill="rgb(247,196,167)"/><path d=" M 200.341 155.895 L 193.148 155.895 L 195.963 162.775 L 202.842 160.899 L 200.341 155.895 L 200.341 155.895 Z " fill="rgb(247,196,167)"/><g style="opacity:0.1;"><g opacity="0.1"><path d=" M 194.812 154.904 C 194.812 154.904 187.363 160.092 180.999 158.478 C 174.636 156.864 172.906 157.468 172.165 159.551 C 171.48 161.468 189.94 171.606 192.882 173.207 C 192.975 173.258 193.086 173.263 193.182 173.219 C 193.278 173.176 193.349 173.091 193.374 172.988 C 193.574 172.138 194.058 170.314 194.577 170.174 C 195.253 169.992 198.33 164.232 198.161 161.968 C 197.992 159.704 194.812 154.904 194.812 154.904 Z " fill="rgb(0,0,0)"/></g></g><path d=" M 194.499 154.904 C 194.499 154.904 187.05 160.092 180.687 158.478 C 174.323 156.864 172.593 157.468 171.852 159.551 C 171.167 161.468 189.627 171.606 192.57 173.207 C 192.662 173.258 192.773 173.263 192.869 173.219 C 192.966 173.176 193.037 173.091 193.061 172.988 C 193.261 172.138 193.746 170.314 194.264 170.174 C 194.94 169.992 198.017 164.232 197.849 161.968 C 197.679 159.704 194.499 154.904 194.499 154.904 Z " fill="rgb(243,181,183)"/><path d=" M 256.004 142.448 L 235.052 139.634 C 235.052 139.634 200.966 155.895 196.901 156.208 L 197.839 163.4 L 204.093 163.4 C 206.595 163.4 230.987 158.084 234.427 152.768 C 236.417 152.239 238.532 152.462 240.369 153.393 C 243.496 154.957 273.517 164.651 273.517 164.651 L 256.004 142.448 Z " fill="rgb(87,89,136)"/><g style="opacity:0.1;"><g opacity="0.1"><path d=" M 256.004 142.448 L 235.052 139.634 C 235.052 139.634 200.966 155.895 196.901 156.208 L 197.839 163.4 L 204.093 163.4 C 206.595 163.4 230.987 158.084 234.427 152.768 C 236.417 152.239 238.532 152.462 240.369 153.393 C 243.496 154.957 273.517 164.651 273.517 164.651 L 256.004 142.448 Z " fill="rgb(0,0,0)"/></g></g><path d=" M 218.791 152.142 L 215.351 156.521 L 218.791 158.397 L 223.795 154.644 L 218.791 152.142 L 218.791 152.142 Z " fill="rgb(247,196,167)"/><path d=" M 278.52 147.139 C 278.52 147.139 267.263 137.501 266.484 135.753 C 265.705 134.005 247.249 122.122 245.998 121.809 C 244.747 121.496 240.681 119.307 236.616 126.813 C 232.55 134.318 217.54 152.455 217.54 152.455 C 217.54 152.455 222.231 159.022 223.795 158.71 C 225.358 158.397 242.87 143.699 244.121 136.507 C 244.121 136.507 245.372 133.692 248.187 138.383 C 251.001 143.074 269.138 165.589 272.578 165.276 C 272.578 165.276 286.025 167.466 288.84 162.15 C 291.654 156.833 278.52 147.139 278.52 147.139 Z " fill="rgb(87,89,136)"/><path d=" M 284.931 101.326 C 284.931 101.326 281.022 103.046 280.709 110.238 C 280.709 110.238 273.517 129.627 273.517 129.627 L 274.142 144.012 C 274.142 144.012 281.647 151.517 282.273 156.208 C 282.273 156.208 288.214 164.026 288.214 164.026 C 288.214 164.026 294.469 160.899 295.407 156.833 C 295.407 156.833 296.971 142.761 298.534 139.008 C 298.534 139.008 299.16 111.802 299.16 111.802 L 294.469 103.671 L 291.967 100.857 L 285.4 108.362 C 285.4 108.362 281.804 103.515 284.931 101.326 Z " fill="rgb(221,219,226)"/><g style="opacity:0.1;"><g opacity="0.1"><path d=" M 275.706 139.321 C 275.706 139.321 274.767 128.063 277.582 125.562 L 283.211 109.613 C 283.211 109.613 285.244 101.951 284.931 101.326 C 284.618 100.7 277.582 107.424 277.582 107.424 L 272.891 123.998 L 274.142 141.51 L 275.706 139.321 Z " fill="rgb(0,0,0)"/></g></g><path d=" M 275.393 139.321 C 275.393 139.321 274.455 128.063 277.269 125.562 L 282.898 109.613 C 282.898 109.613 285.087 101.795 284.775 101.17 C 284.775 101.17 277.269 107.424 277.269 107.424 L 272.578 123.998 L 273.829 141.51 L 275.393 139.321 Z " fill="rgb(87,89,136)"/><path d=" M 277.582 134.318 C 277.582 134.318 261.946 129.314 261.008 128.063 C 261.008 128.063 250.063 118.682 246.623 124.311 C 246.623 124.311 259.444 131.503 259.444 131.503 L 276.018 141.51 L 277.582 134.318 Z " fill="rgb(247,196,167)"/><g style="opacity:0.1;"><g opacity="0.1"><path d=" M 219.47 156.492 L 214.841 155.661 C 214.841 155.661 207.261 165.371 203.312 164.386 C 199.362 163.4 195.728 167.65 199.9 169.013 C 203.668 170.246 219.942 171.969 223.041 172.288 C 223.168 172.301 223.294 172.261 223.39 172.176 C 223.486 172.092 223.541 171.971 223.544 171.844 C 223.568 170.635 223.812 169.441 224.263 168.319 C 225.099 166.271 224.263 161.871 224.032 160.189 C 223.905 159.202 223.596 158.249 223.122 157.375 L 219.47 156.492 Z " fill="rgb(0,0,0)"/></g></g><path d=" M 219.391 156.796 L 214.763 155.964 C 214.763 155.964 207.183 165.674 203.239 164.692 C 203.239 164.692 195.656 167.957 199.828 169.32 C 203.596 170.552 219.87 172.275 222.969 172.594 C 223.096 172.607 223.223 172.567 223.318 172.483 C 223.413 172.398 223.47 172.278 223.473 172.15 C 223.488 170.944 223.722 169.751 224.163 168.629 C 224.999 166.581 224.163 162.181 223.932 160.499 C 223.805 159.512 223.496 158.558 223.022 157.684 L 219.391 156.796 Z " fill="rgb(243,181,183)"/><g style="opacity:0.1;"><g opacity="0.1"><circle vector-effect="non-scaling-stroke" cx="284.6181112547044" cy="90.69355006023915" r="10.006959679657257" fill="rgb(0,0,0)"/></g></g><circle vector-effect="non-scaling-stroke" cx="283.6799587847364" cy="90.69355006023915" r="10.006959679657257" fill="rgb(247,196,167)"/><path d=" M 293.531 100.544 C 293.531 100.544 305.414 104.61 305.414 113.053 C 305.414 113.053 298.847 134.943 298.534 145.888 C 298.534 145.888 281.022 155.27 281.022 155.27 C 281.022 155.27 278.52 118.369 281.022 115.555 C 283.524 112.74 294.781 101.795 293.531 100.544 Z " fill="rgb(87,89,136)"/><g style="opacity:0.1;"><g opacity="0.1"><path d=" M 291.341 118.056 C 291.341 118.056 286.963 137.445 276.644 134.005 C 276.644 134.005 271.327 141.823 275.08 145.263 C 275.08 145.263 284.149 147.452 290.091 141.51 C 296.032 135.569 300.411 133.379 301.349 126.187 C 302.287 118.995 302.912 108.988 299.785 109.925 C 296.658 110.864 291.341 118.056 291.341 118.056 Z " fill="rgb(0,0,0)"/></g></g><path d=" M 291.654 117.744 C 291.654 117.744 287.276 137.132 276.957 133.692 C 276.957 133.692 271.64 141.51 275.393 144.95 C 275.393 144.95 284.462 147.139 290.403 141.198 C 296.345 135.256 300.723 133.067 301.661 125.874 C 302.6 118.682 303.225 108.675 300.098 109.613 C 296.971 110.551 291.654 117.744 291.654 117.744 Z " fill="rgb(87,89,136)"/><path d=" M 224.433 167.622 C 224.433 167.65 224.414 167.685 224.404 167.71 C 224.189 168.244 224.025 168.798 223.913 169.364 C 223.988 169.12 224.076 168.87 224.176 168.62 C 224.299 168.298 224.385 167.963 224.433 167.622 L 224.433 167.622 Z " fill="rgb(221,219,226)"/><path d=" M 200.056 168.407 C 198.768 167.985 198.227 167.29 198.205 166.559 C 197.673 167.578 198.008 168.723 199.828 169.317 C 203.596 170.549 219.873 172.272 222.969 172.591 C 223.096 172.604 223.224 172.563 223.319 172.478 C 223.415 172.393 223.471 172.272 223.473 172.144 L 223.473 172.144 C 223.477 171.906 223.3 171.704 223.063 171.678 C 219.667 171.315 203.775 169.62 200.056 168.407 Z " fill="rgb(221,219,226)"/><path d=" M 172.284 159 C 172.367 158.77 172.471 158.548 172.597 158.338 C 172.26 158.678 172.008 159.094 171.862 159.551 C 171.177 161.468 189.637 171.606 192.579 173.207 C 192.672 173.258 192.783 173.262 192.88 173.218 C 192.976 173.175 193.047 173.088 193.07 172.985 L 193.07 172.985 C 193.106 172.837 193.038 172.683 192.904 172.61 C 189.652 170.831 171.608 160.896 172.284 159 Z " fill="rgb(221,219,226)"/><path d=" M 194.693 169.626 C 194.527 169.67 194.365 169.892 194.212 170.196 L 194.262 170.177 C 194.399 170.139 194.634 169.864 194.918 169.458 C 194.857 169.531 194.78 169.589 194.693 169.626 L 194.693 169.626 Z " fill="rgb(221,219,226)"/><g style="opacity:0.1;"><g opacity="0.1"><path d=" M 282.291 99.503 C 281.41 101.448 281.225 103.64 280.578 105.679 C 279.292 109.723 276.068 113.068 272.206 114.36 C 275.455 115.655 279.289 114.072 281.8 111.446 C 284.312 108.819 285.785 105.323 287.195 101.92 C 290.841 104.372 290.397 110.007 291.623 114.394 C 292.688 118.257 295.374 121.468 298.988 123.198 C 302.592 124.815 306.731 124.731 310.267 122.969 C 306.924 118.904 302.165 113.297 302.731 107.868 C 303.19 103.471 300.035 100.113 300.251 95.7 C 300.563 89.446 298.168 86.269 293.684 82.253 C 291.063 79.905 295.188 76.593 291.808 77.563 C 290.478 77.944 289.077 76.521 287.774 76.99 C 285.19 77.928 282.37 77.566 279.712 78.191 C 265.896 81.437 283.58 96.663 282.291 99.503 Z " fill="rgb(0,0,0)"/></g></g><path d=" M 282.604 99.19 C 281.722 101.135 281.538 103.327 280.89 105.366 C 279.605 109.41 276.381 112.756 272.519 114.047 C 275.768 115.342 279.602 113.76 282.113 111.133 C 284.625 108.506 286.097 105.01 287.508 101.607 C 291.154 104.059 290.71 109.694 291.936 114.082 C 293 117.944 295.687 121.155 299.3 122.885 C 302.904 124.502 307.044 124.418 310.58 122.656 C 307.237 118.591 302.79 113.922 303.356 108.493 C 303.816 104.097 303.131 99.578 303.356 95.169 C 303.669 88.914 300.601 82.873 296.113 78.857 C 293.493 76.509 289.4 76.209 288.092 76.668 C 285.509 77.606 282.688 77.244 280.031 77.869 C 266.209 81.125 283.893 96.35 282.604 99.19 Z " fill="rgb(252,102,129)"/></g></g></g></g></svg>